<svg width="1705" height="2662" viewBox="0 0 1705 2662" fill="none" xmlns="http://www.w3.org/2000/svg">
<rect x="0.761719" y="0.059082" width="1704.24" height="2660.85" fill="#81C2E8"/>
<path d="M177.937 1284.36H483.471C488.379 1279.31 489.012 1275.63 483.471 1266.39C480.325 1262.96 471.86 1261.75 454.545 1259.8C486.134 1208.23 483.372 1187.11 437.068 1165.15C424.103 1082.82 363.548 1083.69 341.853 1093.27C294.676 1114.73 285.886 1144.63 302.079 1202.29C268.695 1213.25 258.103 1224.9 259.895 1259.8C218.041 1259.8 193.183 1259.43 177.937 1266.39C170.577 1273.14 171.981 1280.09 177.937 1284.36Z" fill="white" stroke="white"/>
<path d="M763.879 1570.89H1069.41C1074.32 1565.84 1074.95 1562.17 1069.41 1552.92C1066.27 1549.5 1057.8 1548.28 1040.49 1546.33C1072.08 1494.76 1069.31 1473.65 1023.01 1451.69C1010.04 1369.36 949.489 1370.22 927.794 1379.81C880.618 1401.27 871.828 1431.17 888.02 1488.83C854.636 1499.79 844.044 1511.44 845.836 1546.33C803.982 1546.34 779.124 1545.97 763.879 1552.92C756.518 1559.68 757.923 1566.62 763.879 1570.89Z" fill="white" stroke="white"/>
<path d="M473.41 2137.57H778.944C783.851 2132.52 784.484 2128.84 778.944 2119.6C775.798 2116.17 767.333 2114.96 750.017 2113.01C781.606 2061.44 778.844 2040.32 732.541 2018.36C719.576 1936.03 659.02 1936.9 637.326 1946.48C590.149 1967.94 581.359 1997.84 597.552 2055.5C564.168 2066.46 553.575 2078.11 555.368 2113.01C513.514 2113.01 488.655 2112.64 473.41 2119.6C466.049 2126.35 467.454 2133.3 473.41 2137.57Z" fill="white" stroke="white"/>
<path d="M174.506 2661.11H480.039C484.947 2656.06 485.58 2652.39 480.039 2643.14C476.893 2639.72 468.428 2638.5 451.113 2636.55C482.702 2584.98 479.94 2563.86 433.637 2541.91C420.672 2459.58 360.116 2460.44 338.421 2470.02C291.244 2491.48 282.455 2521.38 298.647 2579.05C265.263 2590.01 254.671 2601.66 256.463 2636.55C214.609 2636.55 189.751 2636.19 174.506 2643.14C167.145 2649.89 168.55 2656.84 174.506 2661.11Z" fill="white" stroke="white"/>
<path d="M1059.17 2426.29H1364.7C1369.61 2421.25 1370.24 2417.57 1364.7 2408.32C1361.55 2404.9 1353.09 2403.68 1335.77 2401.73C1367.36 2350.16 1364.6 2329.05 1318.3 2307.09C1305.33 2224.76 1244.78 2225.63 1223.08 2235.21C1175.91 2256.67 1167.12 2286.57 1183.31 2344.23C1149.92 2355.19 1139.33 2366.84 1141.12 2401.73C1099.27 2401.74 1074.41 2401.37 1059.17 2408.32C1051.81 2415.08 1053.21 2422.02 1059.17 2426.29Z" fill="white" stroke="white"/>
<path d="M1056.76 999.428H1362.29C1367.2 994.379 1367.83 990.703 1362.29 981.457C1359.14 978.036 1350.68 976.817 1333.36 974.868C1364.95 923.298 1362.19 902.18 1315.89 880.223C1302.92 797.893 1242.37 798.759 1220.67 808.342C1173.5 829.801 1164.71 859.702 1180.9 917.364C1147.51 928.323 1136.92 939.974 1138.71 974.868C1096.86 974.87 1072 974.506 1056.76 981.457C1049.4 988.21 1050.8 995.158 1056.76 999.428Z" fill="white" stroke="white"/>
<path d="M957.925 547.767H1263.46C1268.37 542.718 1269 539.042 1263.46 529.796C1260.31 526.375 1251.85 525.155 1234.53 523.207C1266.12 471.636 1263.36 450.519 1217.06 428.562C1204.09 346.232 1143.53 347.098 1121.84 356.681C1074.66 378.14 1065.87 408.041 1082.07 465.703C1048.68 476.662 1038.09 488.313 1039.88 523.207C998.028 523.208 973.17 522.845 957.925 529.796C950.564 536.548 951.969 543.497 957.925 547.767Z" fill="white" stroke="white"/>
<path d="M477.025 728.671H782.559C787.467 723.622 788.1 719.946 782.559 710.7C779.413 707.278 770.948 706.059 753.633 704.111C785.222 652.54 782.459 631.423 736.156 609.465C723.191 527.136 662.635 528.002 640.941 537.585C593.764 559.044 584.974 588.945 601.167 646.607C567.783 657.566 557.191 669.216 558.983 704.111C517.129 704.112 492.271 703.749 477.025 710.7C469.664 717.452 471.069 724.4 477.025 728.671Z" fill="white" stroke="white"/>
<path d="M223.922 383.635H529.455C534.363 378.586 534.996 374.91 529.455 365.664C526.309 362.243 517.844 361.024 500.529 359.075C532.118 307.505 529.356 286.387 483.053 264.43C470.088 182.1 409.532 182.966 387.837 192.549C340.66 214.008 331.871 243.909 348.063 301.571C314.679 312.53 304.087 324.181 305.879 359.075C264.025 359.077 239.167 358.713 223.922 365.664C216.561 372.417 217.966 379.365 223.922 383.635Z" fill="white" stroke="white"/>
<path d="M1361.69 265.029H1667.22C1672.13 259.98 1672.76 256.304 1667.22 247.058C1664.07 243.637 1655.61 242.418 1638.29 240.469C1669.88 188.899 1667.12 167.781 1620.82 145.824C1607.85 63.4945 1547.3 64.3602 1525.6 73.9434C1478.43 95.4025 1469.64 125.303 1485.83 182.965C1452.45 193.924 1441.85 205.575 1443.64 240.469C1401.79 240.471 1376.93 240.107 1361.69 247.058C1354.33 253.811 1355.73 260.759 1361.69 265.029Z" fill="white" stroke="white"/>
<path d="M881.809 1105.85C884.563 1095.25 881.809 1086.68 871.565 1086.68H861.32C874.14 1063.37 869.154 1045.95 860.115 1036.37C851.075 1026.78 820.877 1015.2 796.838 1036.37C791.284 1043.41 788.937 1048.32 786.594 1059.13C766.831 1057.21 757.669 1068.11 756.462 1074.7C755.255 1081.29 756.462 1086.68 756.462 1089.68C756.462 1092.67 741.398 1086.08 732.96 1089.68C724.521 1093.27 723.316 1101.66 731.754 1105.85H881.809Z" fill="white"/>
<path d="M871.565 1086.68C881.809 1086.68 884.563 1095.25 881.809 1105.85H731.754C723.316 1101.66 724.521 1093.27 732.96 1089.68C741.398 1086.08 756.462 1092.67 756.462 1089.68C756.462 1086.68 755.255 1081.29 756.462 1074.7C757.669 1068.11 766.831 1057.21 786.594 1059.13C788.937 1048.32 791.284 1043.41 796.838 1036.37C820.877 1015.2 851.075 1026.78 860.115 1036.37C869.154 1045.95 874.14 1063.37 861.32 1086.68M871.565 1086.68C861.32 1086.68 865.321 1086.68 861.32 1086.68M871.565 1086.68H861.32" stroke="white"/>
<path d="M1506.47 740.381C1509.22 729.776 1506.47 721.213 1496.22 721.213H1485.98C1498.8 697.896 1493.81 680.481 1484.77 670.895C1475.73 661.309 1445.53 649.734 1421.5 670.895C1415.94 677.942 1413.59 682.853 1411.25 693.656C1391.49 691.735 1382.33 702.641 1381.12 709.231C1379.91 715.82 1381.12 721.213 1381.12 724.206C1381.12 727.2 1366.06 720.612 1357.62 724.206C1349.18 727.8 1347.97 736.187 1356.41 740.381H1506.47Z" fill="white"/>
<path d="M1496.22 721.213C1506.47 721.213 1509.22 729.776 1506.47 740.381H1356.41C1347.97 736.187 1349.18 727.8 1357.62 724.206C1366.06 720.612 1381.12 727.2 1381.12 724.206C1381.12 721.213 1379.91 715.82 1381.12 709.231C1382.33 702.641 1391.49 691.735 1411.25 693.656C1413.59 682.853 1415.94 677.942 1421.5 670.895C1445.53 649.734 1475.73 661.309 1484.77 670.895C1493.81 680.481 1498.8 697.896 1485.98 721.213M1496.22 721.213C1485.98 721.213 1489.98 721.213 1485.98 721.213M1496.22 721.213H1485.98" stroke="white"/>
<path d="M265.048 836.225C267.802 825.62 265.048 817.056 254.804 817.056H244.559C257.379 793.74 252.393 776.324 243.354 766.739C234.314 757.153 204.116 745.578 180.078 766.739C174.524 773.786 172.176 778.696 169.833 789.5C150.07 787.579 140.908 798.485 139.701 805.074C138.495 811.664 139.701 817.056 139.701 820.05C139.701 823.044 124.637 816.456 116.199 820.05C107.76 823.644 106.555 832.03 114.994 836.225H265.048Z" fill="white"/>
<path d="M254.804 817.056C265.048 817.056 267.802 825.62 265.048 836.225H114.994C106.555 832.03 107.76 823.644 116.199 820.05C124.637 816.456 139.701 823.044 139.701 820.05C139.701 817.056 138.495 811.664 139.701 805.074C140.908 798.485 150.07 787.579 169.833 789.5C172.176 778.696 174.524 773.786 180.078 766.739C204.116 745.578 234.314 757.153 243.354 766.739C252.393 776.324 257.379 793.74 244.559 817.056M254.804 817.056C244.559 817.056 248.56 817.056 244.559 817.056M254.804 817.056H244.559" stroke="white"/>
<path d="M976.151 238.402C978.905 227.797 976.151 219.233 965.906 219.233H955.662C968.481 195.916 963.496 178.501 954.456 168.915C945.417 159.33 915.219 147.754 891.18 168.915C885.626 175.963 883.279 180.873 880.935 191.677C861.173 189.756 852.011 200.662 850.804 207.251C849.597 213.84 850.804 219.233 850.804 222.227C850.804 225.22 835.74 218.633 827.301 222.227C818.863 225.821 817.658 234.207 826.096 238.402H976.151Z" fill="white"/>
<path d="M965.906 219.233C976.151 219.233 978.905 227.797 976.151 238.402H826.096C817.658 234.207 818.863 225.821 827.301 222.227C835.74 218.633 850.804 225.22 850.804 222.227C850.804 219.233 849.597 213.84 850.804 207.251C852.011 200.662 861.173 189.756 880.935 191.677C883.279 180.873 885.626 175.963 891.18 168.915C915.219 147.754 945.417 159.33 954.456 168.915C963.496 178.501 968.481 195.916 955.662 219.233M965.906 219.233C955.662 219.233 959.662 219.233 955.662 219.233M965.906 219.233H955.662" stroke="white"/>
<path d="M265.048 104.222C267.802 93.6167 265.048 85.0529 254.804 85.0529H244.559C257.379 61.7363 252.393 44.3209 243.354 34.7352C234.314 25.1494 204.116 13.5743 180.078 34.7352C174.524 41.7826 172.176 46.693 169.833 57.4965C150.07 55.5756 140.908 66.4818 139.701 73.071C138.495 79.6603 139.701 85.0529 139.701 88.0466C139.701 91.0402 124.637 84.4524 116.199 88.0466C107.76 91.6407 106.555 100.027 114.994 104.222H265.048Z" fill="white"/>
<path d="M254.804 85.0529C265.048 85.0529 267.802 93.6167 265.048 104.222H114.994C106.555 100.027 107.76 91.6407 116.199 88.0466C124.637 84.4524 139.701 91.0402 139.701 88.0466C139.701 85.0529 138.495 79.6603 139.701 73.071C140.908 66.4818 150.07 55.5756 169.833 57.4965C172.176 46.693 174.524 41.7826 180.078 34.7352C204.116 13.5743 234.314 25.1494 243.354 34.7352C252.393 44.3209 257.379 61.7363 244.559 85.0529M254.804 85.0529C244.559 85.0529 248.56 85.0529 244.559 85.0529M254.804 85.0529H244.559" stroke="white"/>
<path d="M1469.1 1389.72C1471.86 1379.11 1469.1 1370.55 1458.86 1370.55H1448.61C1461.43 1347.23 1456.45 1329.82 1447.41 1320.23C1438.37 1310.65 1408.17 1299.07 1384.13 1320.23C1378.58 1327.28 1376.23 1332.19 1373.89 1342.99C1354.12 1341.07 1344.96 1351.98 1343.76 1358.57C1342.55 1365.16 1343.76 1370.55 1343.76 1373.54C1343.76 1376.54 1328.69 1369.95 1320.25 1373.54C1311.82 1377.14 1310.61 1385.52 1319.05 1389.72H1469.1Z" fill="white"/>
<path d="M1458.86 1370.55C1469.1 1370.55 1471.86 1379.11 1469.1 1389.72H1319.05C1310.61 1385.52 1311.82 1377.14 1320.25 1373.54C1328.69 1369.95 1343.76 1376.54 1343.76 1373.54C1343.76 1370.55 1342.55 1365.16 1343.76 1358.57C1344.96 1351.98 1354.12 1341.07 1373.89 1342.99C1376.23 1332.19 1378.58 1327.28 1384.13 1320.23C1408.17 1299.07 1438.37 1310.65 1447.41 1320.23C1456.45 1329.82 1461.43 1347.23 1448.61 1370.55M1458.86 1370.55C1448.61 1370.55 1452.61 1370.55 1448.61 1370.55M1458.86 1370.55H1448.61" stroke="white"/>
<path d="M583.237 1676.05C585.991 1665.45 583.237 1656.88 572.992 1656.88H562.748C575.567 1633.57 570.582 1616.15 561.542 1606.56C552.503 1596.98 522.305 1585.4 498.266 1606.56C492.712 1613.61 490.365 1618.52 488.021 1629.33C468.259 1627.41 459.097 1638.31 457.89 1644.9C456.683 1651.49 457.89 1656.88 457.89 1659.88C457.89 1662.87 442.826 1656.28 434.387 1659.88C425.949 1663.47 424.744 1671.86 433.182 1676.05H583.237Z" fill="white"/>
<path d="M572.992 1656.88C583.237 1656.88 585.991 1665.45 583.237 1676.05H433.182C424.744 1671.86 425.949 1663.47 434.387 1659.88C442.826 1656.28 457.89 1662.87 457.89 1659.88C457.89 1656.88 456.683 1651.49 457.89 1644.9C459.097 1638.31 468.259 1627.41 488.021 1629.33C490.365 1618.52 492.712 1613.61 498.266 1606.56C522.305 1585.4 552.503 1596.98 561.542 1606.56C570.582 1616.15 575.567 1633.57 562.748 1656.88M572.992 1656.88C562.748 1656.88 566.748 1656.88 562.748 1656.88M572.992 1656.88H562.748" stroke="white"/>
<path d="M1175.02 1959.99C1177.77 1949.38 1175.02 1940.82 1164.77 1940.82H1154.53C1167.35 1917.5 1162.36 1900.09 1153.32 1890.5C1144.29 1880.91 1114.09 1869.34 1090.05 1890.5C1084.49 1897.55 1082.15 1902.46 1079.8 1913.26C1060.04 1911.34 1050.88 1922.25 1049.67 1928.84C1048.47 1935.43 1049.67 1940.82 1049.67 1943.81C1049.67 1946.81 1034.61 1940.22 1026.17 1943.81C1017.73 1947.41 1016.53 1955.79 1024.96 1959.99H1175.02Z" fill="white"/>
<path d="M1164.77 1940.82C1175.02 1940.82 1177.77 1949.38 1175.02 1959.99H1024.96C1016.53 1955.79 1017.73 1947.41 1026.17 1943.81C1034.61 1940.22 1049.67 1946.81 1049.67 1943.81C1049.67 1940.82 1048.47 1935.43 1049.67 1928.84C1050.88 1922.25 1060.04 1911.34 1079.8 1913.26C1082.15 1902.46 1084.49 1897.55 1090.05 1890.5C1114.09 1869.34 1144.29 1880.91 1153.32 1890.5C1162.36 1900.09 1167.35 1917.5 1154.53 1940.82M1164.77 1940.82C1154.53 1940.82 1158.53 1940.82 1154.53 1940.82M1164.77 1940.82H1154.53" stroke="white"/>
<path d="M1670.38 2574.58C1673.14 2563.98 1670.38 2555.41 1660.14 2555.41H1649.89C1662.71 2532.1 1657.73 2514.68 1648.69 2505.1C1639.65 2495.51 1609.45 2483.93 1585.41 2505.1C1579.86 2512.14 1577.51 2517.05 1575.17 2527.86C1555.4 2525.94 1546.24 2536.84 1545.04 2543.43C1543.83 2550.02 1545.04 2555.41 1545.04 2558.41C1545.04 2561.4 1529.97 2554.81 1521.53 2558.41C1513.09 2562 1511.89 2570.39 1520.33 2574.58H1670.38Z" fill="white"/>
<path d="M1660.14 2555.41C1670.38 2555.41 1673.14 2563.98 1670.38 2574.58H1520.33C1511.89 2570.39 1513.09 2562 1521.53 2558.41C1529.97 2554.81 1545.04 2561.4 1545.04 2558.41C1545.04 2555.41 1543.83 2550.02 1545.04 2543.43C1546.24 2536.84 1555.4 2525.94 1575.17 2527.86C1577.51 2517.05 1579.86 2512.14 1585.41 2505.1C1609.45 2483.93 1639.65 2495.51 1648.69 2505.1C1657.73 2514.68 1662.71 2532.1 1649.89 2555.41M1660.14 2555.41C1649.89 2555.41 1653.89 2555.41 1649.89 2555.41M1660.14 2555.41H1649.89" stroke="white"/>
<path d="M289.154 2246.32C291.908 2235.71 289.154 2227.15 278.909 2227.15H268.665C281.484 2203.83 276.499 2186.42 267.459 2176.83C258.42 2167.25 228.222 2155.67 204.183 2176.83C198.629 2183.88 196.282 2188.79 193.938 2199.59C174.176 2197.67 165.014 2208.58 163.807 2215.17C162.6 2221.76 163.807 2227.15 163.807 2230.14C163.807 2233.14 148.743 2226.55 140.304 2230.14C131.866 2233.74 130.661 2242.12 139.099 2246.32H289.154Z" fill="white"/>
<path d="M278.909 2227.15C289.154 2227.15 291.908 2235.71 289.154 2246.32H139.099C130.661 2242.12 131.866 2233.74 140.304 2230.14C148.743 2226.55 163.807 2233.14 163.807 2230.14C163.807 2227.15 162.6 2221.76 163.807 2215.17C165.014 2208.58 174.176 2197.67 193.938 2199.59C196.282 2188.79 198.629 2183.88 204.183 2176.83C228.222 2155.67 258.42 2167.25 267.459 2176.83C276.499 2186.42 281.484 2203.83 268.665 2227.15M278.909 2227.15C268.665 2227.15 272.665 2227.15 268.665 2227.15M278.909 2227.15H268.665" stroke="white"/>
<path d="M879.732 2533.85C882.486 2523.24 879.732 2514.68 869.487 2514.68H859.243C872.063 2491.36 867.077 2473.95 858.037 2464.36C848.998 2454.78 818.8 2443.2 794.761 2464.36C789.207 2471.41 786.86 2476.32 784.516 2487.12C764.754 2485.2 755.592 2496.11 754.385 2502.7C753.178 2509.29 754.385 2514.68 754.385 2517.67C754.385 2520.67 739.321 2514.08 730.882 2517.67C722.444 2521.27 721.239 2529.65 729.677 2533.85H879.732Z" fill="white"/>
<path d="M869.487 2514.68C879.732 2514.68 882.486 2523.24 879.732 2533.85H729.677C721.239 2529.65 722.444 2521.27 730.882 2517.67C739.321 2514.08 754.385 2520.67 754.385 2517.67C754.385 2514.68 753.178 2509.29 754.385 2502.7C755.592 2496.11 764.754 2485.2 784.516 2487.12C786.86 2476.32 789.207 2471.41 794.761 2464.36C818.8 2443.2 848.998 2454.78 858.037 2464.36C867.077 2473.95 872.063 2491.36 859.243 2514.68M869.487 2514.68C859.243 2514.68 863.243 2514.68 859.243 2514.68M869.487 2514.68H859.243" stroke="white"/>
<path d="M1361.69 1859.62H1667.22C1672.13 1854.57 1672.76 1850.9 1667.22 1841.65C1664.07 1838.23 1655.61 1837.01 1638.29 1835.06C1669.88 1783.49 1667.12 1762.37 1620.82 1740.42C1607.85 1658.09 1547.3 1658.95 1525.6 1668.54C1478.43 1689.99 1469.64 1719.9 1485.83 1777.56C1452.45 1788.52 1441.85 1800.17 1443.64 1835.06C1401.79 1835.06 1376.93 1834.7 1361.69 1841.65C1354.33 1848.4 1355.73 1855.35 1361.69 1859.62Z" fill="white" stroke="white"/>
<path d="M6.97441 1852.43H312.508C317.416 1847.38 318.049 1843.71 312.508 1834.46C309.362 1831.04 300.897 1829.82 283.582 1827.87C315.171 1776.3 312.409 1755.19 266.106 1733.23C253.141 1650.9 192.585 1651.76 170.89 1661.35C123.713 1682.81 114.923 1712.71 131.116 1770.37C97.7321 1781.33 87.1397 1792.98 88.9321 1827.87C47.078 1827.87 22.2197 1827.51 6.97441 1834.46C-0.386377 1841.21 1.0184 1848.16 6.97441 1852.43Z" fill="white" stroke="white"/>
</svg>
