<svg width="359" height="577" viewBox="0 0 359 577" fill="none" xmlns="http://www.w3.org/2000/svg">
<path d="M182.5 505.5C193.076 474.668 192.164 464.339 204.07 498.982C217.675 563.69 288.252 595.025 303.625 560.321C326.234 534.013 317.176 518.469 298.755 490.991C290.524 444.463 304.882 481.79 306 378.5C337.014 412.122 349.355 408.222 358 341C340.957 252.03 324.195 226.199 290.741 192C268.225 173.123 265.162 165.343 275.515 156.097C311.82 36.9681 313.588 9.42696 295.426 5.20379C266.315 3.5574 249.86 8.31851 220.467 19.3117C196.855 5.76816 183.321 5.68865 158.391 19.3117C114.71 0.490805 96.832 -3.0739 78.7473 5.20379C80.0876 90.9449 87.0792 133.822 133.454 179.72C133.762 180.023 134.071 180.327 134.381 180.633C134.07 180.329 133.761 180.024 133.454 179.72C69.6146 116.929 43.4567 105.03 15.4994 127.268C-11.2564 155.869 -7.75303 184.738 84.6023 295.95C73.5096 366.504 72.8833 408.779 84.6023 490.394C48.887 531.723 56.0252 556.571 96.5 576C127.273 575.43 157.385 559.729 182.5 505.5Z" fill="#DF9F53"/>
<path d="M298.354 490.394C298.488 490.594 298.622 490.793 298.755 490.991M298.354 494.075C298.489 493.041 298.623 492.013 298.755 490.991M298.755 490.991C317.176 518.469 326.234 534.013 303.625 560.321C288.252 595.025 217.675 563.69 204.07 498.982C192.164 464.339 193.076 474.668 182.5 505.5C157.385 559.729 127.273 575.43 96.5 576C56.0252 556.571 48.887 531.723 84.6023 490.394C72.8833 408.779 73.5096 366.504 84.6023 295.95C-7.75303 184.738 -11.2564 155.869 15.4994 127.268C43.4567 105.03 69.6146 116.929 133.454 179.72M298.755 490.991C290.524 444.463 304.882 481.79 306 378.5C337.014 412.122 349.355 408.222 358 341C340.957 252.03 324.195 226.199 290.741 192C268.225 173.123 265.162 165.343 275.515 156.097C311.82 36.9681 313.588 9.42696 295.426 5.20379C266.315 3.5574 249.86 8.31851 220.467 19.3117C196.855 5.76816 183.321 5.68865 158.391 19.3117C114.71 0.490805 96.832 -3.0739 78.7473 5.20379C80.0876 90.9449 87.0792 133.822 133.454 179.72M133.454 179.72C133.762 180.023 134.071 180.327 134.381 180.633C134.07 180.329 133.761 180.024 133.454 179.72Z" stroke="#DCA541"/>
</svg>
