<svg width="380" height="573" viewBox="0 0 380 573" fill="none" xmlns="http://www.w3.org/2000/svg">
<path d="M174.579 498.847C185.155 468.015 191.368 464.204 203.274 498.847C220.721 559.907 292.131 590.451 302.829 560.186C325.438 533.878 316.381 518.334 297.959 490.856C307.561 416.456 308.648 374.261 289.945 301.949L304 270.666C389.415 184.961 387.644 163.025 369.004 132.04C331.306 106.782 303.369 119.07 267.379 160.543C303.684 41.414 312.792 9.29202 294.63 5.06884C265.519 3.42245 249.065 8.18356 219.671 19.1768C196.059 5.63321 182.526 5.5537 157.596 19.1768C113.915 0.355857 96.0363 -3.20885 77.9516 5.06884C79.292 90.81 86.2835 133.687 132.658 179.585C132.966 179.888 133.275 180.193 133.585 180.498C133.275 180.194 132.965 179.889 132.658 179.585C68.819 116.794 42.6611 104.895 14.7037 127.133C-12.0521 155.734 -5.50141 182.063 86.854 293.275C75.7612 363.829 72.0876 408.644 83.8067 490.259C48.0914 531.589 53.2871 547.504 93.7619 566.933C136.482 559.862 156.594 549.196 174.579 498.847Z" fill="#EFCFA9"/>
<path d="M297.558 490.259C297.692 490.459 297.826 490.658 297.959 490.856M297.558 493.94C297.694 492.906 297.827 491.878 297.959 490.856M297.959 490.856C316.381 518.334 325.438 533.878 302.829 560.186C292.131 590.451 220.721 559.907 203.274 498.847C191.368 464.204 185.155 468.015 174.579 498.847C156.594 549.196 136.482 559.862 93.7619 566.933C53.2871 547.504 48.0914 531.589 83.8067 490.259C72.0876 408.644 75.7612 363.829 86.854 293.275C-5.50141 182.063 -12.0521 155.734 14.7037 127.133C42.6611 104.895 68.819 116.794 132.658 179.585M297.959 490.856C307.561 416.456 308.648 374.261 289.945 301.949L304 270.666C389.415 184.961 387.644 163.025 369.004 132.04C331.306 106.782 303.369 119.07 267.379 160.543C303.684 41.414 312.792 9.29202 294.63 5.06884C265.519 3.42245 249.065 8.18356 219.671 19.1768C196.059 5.63321 182.526 5.5537 157.596 19.1768C113.915 0.355857 96.0363 -3.20885 77.9516 5.06884C79.292 90.81 86.2835 133.687 132.658 179.585M132.658 179.585C132.966 179.888 133.275 180.193 133.585 180.498C133.275 180.194 132.965 179.889 132.658 179.585Z" stroke="#DCA541"/>
</svg>
