<svg width="359" height="577" viewBox="0 0 359 577" fill="none" xmlns="http://www.w3.org/2000/svg">
<path d="M176.5 505.5C165.924 474.668 169.906 465.357 158 500C140.233 566.544 65.8151 594.27 55.3752 560.321C32.7659 534.013 41.8237 518.469 60.2455 490.991C68.4761 444.463 54.1175 481.79 53 378.5C21.9864 412.122 9.64468 408.222 1 341C18.043 252.03 34.8048 226.199 68.2589 192C90.7746 173.123 93.8377 165.343 83.485 156.097C47.1796 36.9681 45.4124 9.42696 63.574 5.20379C92.685 3.5574 109.14 8.31851 138.533 19.3117C162.145 5.76816 175.679 5.68865 200.609 19.3117C244.29 0.490805 262.168 -3.0739 280.253 5.20379C278.912 90.9449 271.921 133.822 225.546 179.72C225.238 180.023 224.929 180.327 224.619 180.633C224.93 180.329 225.239 180.024 225.546 179.72C289.385 116.929 315.543 105.03 343.501 127.268C370.256 155.869 366.753 184.738 274.398 295.95C285.49 366.504 286.117 408.779 274.398 490.394C310.113 531.723 302.975 556.571 262.5 576C231.727 575.43 201.615 559.729 176.5 505.5Z" fill="#AC6C20"/>
<path d="M60.6459 490.394C60.5119 490.594 60.3785 490.793 60.2455 490.991M60.6459 494.075C60.5108 493.041 60.3773 492.013 60.2455 490.991M60.2455 490.991C41.8237 518.469 32.7659 534.013 55.3752 560.321C65.8151 594.27 140.233 566.544 158 500C169.906 465.357 165.924 474.668 176.5 505.5C201.615 559.729 231.727 575.43 262.5 576C302.975 556.571 310.113 531.723 274.398 490.394C286.117 408.779 285.49 366.504 274.398 295.95C366.753 184.738 370.256 155.869 343.501 127.268C315.543 105.03 289.385 116.929 225.546 179.72M60.2455 490.991C68.4761 444.463 54.1175 481.79 53 378.5C21.9864 412.122 9.6447 408.222 1 341C18.043 252.03 34.8048 226.199 68.2589 192C90.7746 173.123 93.8377 165.343 83.485 156.097C47.1796 36.9681 45.4124 9.42696 63.574 5.20379C92.685 3.5574 109.14 8.31851 138.533 19.3117C162.145 5.76816 175.679 5.68865 200.609 19.3117C244.29 0.490805 262.168 -3.0739 280.253 5.20379C278.912 90.9449 271.921 133.822 225.546 179.72M225.546 179.72C225.238 180.023 224.929 180.327 224.619 180.633C224.93 180.329 225.239 180.024 225.546 179.72Z" stroke="#DCA541"/>
</svg>
