<svg width="164" height="11" viewBox="0 0 164 11" fill="none" xmlns="http://www.w3.org/2000/svg">
<path d="M4.27078 8.65557C5.11489 8.39542 10.6644 8.24951 20.9192 8.21781C31.174 8.18611 36.9356 8.10406 38.2038 7.97167C39.4721 7.83927 40.8625 7.79391 42.3753 7.83556C43.888 7.87721 46.3987 7.8139 49.9072 7.64562C53.4158 7.47735 56.5228 7.42245 59.2284 7.48091C61.9341 7.53941 65.5122 7.74832 69.9627 8.10766C74.4133 8.46695 78.8262 8.57096 83.2015 8.41966C87.5768 8.26841 91.8108 8.22366 95.9034 8.28542C99.9961 8.34718 102.841 8.33397 104.439 8.24578C106.037 8.15755 108.705 8.20091 112.445 8.37587C116.185 8.55083 119.981 8.5539 123.836 8.385C127.69 8.21615 131.155 8.17474 134.232 8.26079C137.309 8.34689 139.894 8.29977 141.987 8.11941C144.081 7.93909 147.033 7.92881 150.844 8.08856C154.655 8.24829 157.048 8.30418 158.024 8.25622C159 8.20826 159.861 8.05681 160.606 7.8019C161.352 7.54693 161.817 7.01277 162 6.19938C162.184 5.38596 162.229 4.85346 162.136 4.60188C162.042 4.35031 161.794 4.10595 161.39 3.86881C160.987 3.63166 160.235 3.44468 159.134 3.30786C158.032 3.17107 155.715 3.18888 152.183 3.3613C148.65 3.53366 143.227 3.51412 135.913 3.30265C128.599 3.09117 123.431 3.09384 120.41 3.31065C117.388 3.52744 115.107 3.51986 113.567 3.28795C112.027 3.05602 110.253 2.88551 108.244 2.77641C106.235 2.66731 103.324 2.65042 99.5115 2.72573C95.6986 2.80104 92.1805 2.78584 88.9573 2.68013C85.734 2.57442 83.0857 2.64726 81.0123 2.89867C78.9388 3.15012 76.4499 3.17105 73.5455 2.96146M73.3557 2.96155C63.8883 2.22055 57.8155 1.95716 55.1373 2.17139C52.4591 2.38562 48.1895 2.45537 42.3286 2.38065C36.4677 2.30591 32.7123 2.34693 31.0622 2.50371C29.4122 2.66048 27.1057 2.58497 24.1427 2.27721C21.1798 1.96947 17.4209 1.91801 12.866 2.12283C8.3112 2.32766 5.64911 2.57141 4.87976 2.8541C4.11041 3.13677 3.40105 3.51833 2.75166 3.99878C2.10227 4.47921 1.87366 4.95944 2.06581 5.43946C2.25797 5.91944 2.84516 6.59302 3.82737 7.46023C4.8096 8.3274 5.93601 8.84604 7.20661 9.01621C8.47721 9.18632 10.6935 9.14201 13.8554 8.88328" stroke="#3C3C3C" stroke-width="3.28864" stroke-miterlimit="10" stroke-linecap="round" stroke-linejoin="round"/>
</svg>
