<svg width="1250" height="58" viewBox="0 0 1250 58" fill="none" xmlns="http://www.w3.org/2000/svg">
<path d="M12.9668 5.04912C25.3052 5.06483 65.8095 5.11719 200.184 5.29169L201.329 5.29317L201.33 5.29317C393.684 5.54296 776.126 6.0396 976.533 6.04714C1177.34 6.05469 1183.76 5.55609 1190.47 5.29924C1203.99 5.04239 1212.88 4.79308 1220.28 4.41535C1224.83 4.30933 1231.8 4.29083 1239.36 4.2876C1241.4 4.92846 1243.57 5.79093 1245.2 6.83488C1246.75 7.82634 1246.23 14.7836 1246.15 24.1285C1246.12 28.5395 1245.76 33.7072 1245.68 40.4046C1245.63 44.6678 1244.19 46.7249 1242.54 48.4951C1241.07 50.0682 1238.53 51.5057 1235.46 52.2396C1233.16 52.7889 1230.34 52.6557 1224.71 52.8115C1212.84 52.8645 1204.35 52.9674 1202.86 53.1746C1202.63 53.2085 1202.4 53.2422 1202.19 53.2759C1174.49 53.3118 1128.28 53.3717 1051.15 53.4719L1050.01 53.4734H1050C857.651 53.7232 475.209 54.2198 274.802 54.2273C73.9954 54.2349 67.5709 53.7363 60.8604 53.4794C47.3478 53.2226 38.4501 52.9733 31.0525 52.5955C26.2159 52.4828 18.6333 52.469 10.5299 52.4673C9.09044 51.7626 7.90083 50.9072 7.06046 50.0075C5.407 48.2373 3.96614 46.1802 3.91652 41.917C3.83857 35.2195 3.4809 30.0518 3.4441 25.6409C3.36616 16.296 2.8472 9.33869 4.39604 8.34724C6.79116 6.81405 10.3478 5.6723 12.9668 5.04912Z" fill="#784422"/>
<path d="M7.92252 2.19216C7.96675 1.95992 8.05036 2.05488 8.09593 2.10704C8.09679 2.10789 8.09764 2.10875 8.0985 2.1096C8.10958 2.12196 8.12024 2.12518 8.13299 2.12869C8.16362 2.13706 8.19893 2.14842 8.28299 2.29659C8.30573 2.29117 8.32913 2.28823 8.35321 2.28826C8.61045 2.28857 8.86648 2.48203 9.1255 2.71365C9.12888 2.71246 9.13232 2.71123 9.13581 2.71C9.19805 2.6861 9.27733 2.65654 9.32924 2.74137C9.39689 2.84922 9.43448 2.94927 9.47065 3.03562C9.67896 3.22199 9.87889 3.38854 10.0828 3.45753C10.1481 3.47916 10.2128 3.49102 10.275 3.4911C10.333 3.49117 10.3922 3.48387 10.4527 3.47008C10.4883 3.41957 10.5211 3.35955 10.5503 3.30394C10.5918 3.2258 10.6294 3.15641 10.6606 3.13379C10.7347 3.07929 10.8271 3.16557 10.8867 3.22966C10.8967 3.24013 10.9063 3.25005 10.9151 3.25863C10.9644 3.22698 11.0145 3.1931 11.0653 3.15847C11.0687 3.17778 11.072 3.19791 11.0755 3.21854C11.1177 3.47608 11.1761 3.47285 11.2562 3.46817C11.2915 3.46613 11.3327 3.46392 11.3819 3.48261C11.4136 3.49465 11.4299 3.59676 11.4432 3.68008C11.4472 3.70459 11.4508 3.7275 11.4546 3.74601C11.4674 3.80944 11.4811 3.74092 11.4974 3.66C11.5185 3.55502 11.544 3.42893 11.5775 3.54292C11.6833 3.9061 11.7254 3.65985 11.7608 3.47357C11.771 3.41892 11.7803 3.36955 11.7898 3.34213C11.8204 3.25325 11.8642 3.34141 11.8976 3.46239C11.924 3.55832 11.9776 3.46332 12.0188 3.34242C12.0348 3.29671 12.0542 3.29558 12.0776 3.29452C12.1018 3.29342 12.1299 3.29243 12.1602 3.24116C12.237 3.1116 12.2787 3.0488 12.3121 2.99855C12.3216 2.98422 12.3305 2.97118 12.3395 2.95757C12.3676 2.91457 12.4027 2.87916 12.4386 2.84343C12.4821 2.80068 12.5233 2.75727 12.5549 2.69929C12.6366 2.76079 12.7197 2.83686 12.8041 2.91275C12.8474 2.95215 12.8892 3.17379 12.9199 3.53913C12.9506 3.90476 12.9676 4.38148 12.967 4.87552C12.9664 5.36956 12.9481 5.84621 12.9165 6.21178C12.8849 6.57704 12.8425 6.79894 12.7991 6.83823C12.7115 6.91654 12.6254 6.9949 12.5408 7.05727C12.44 7.13325 12.326 7.18554 12.2223 7.18541C12.1483 7.18531 12.0791 7.17344 12.0037 7.15217C11.9959 7.14998 11.9881 7.14757 11.9803 7.14518C11.9166 7.26675 11.8541 7.37731 11.8105 7.4167C11.7745 7.44921 11.7487 7.38426 11.7266 7.3287C11.7114 7.29047 11.698 7.25663 11.6844 7.262C11.6771 7.26488 11.6672 7.27237 11.6553 7.28137C11.6082 7.31812 11.5183 7.38049 11.441 7.26169C11.4065 7.20897 11.3668 7.1051 11.3293 7.00593C11.2754 6.86412 11.2278 6.73194 11.201 6.77248C11.1543 6.84373 11.1017 6.78331 11.0559 6.72982C11.0121 6.67879 10.9745 6.63424 10.953 6.7165C10.9274 6.81485 10.9058 6.77472 10.874 6.71531C10.8524 6.67409 10.8235 6.62379 10.7846 6.6035C10.7397 6.58008 10.7086 6.51112 10.6822 6.45249C10.6451 6.36996 10.6175 6.30793 10.5766 6.42196C10.5313 6.54864 10.4837 6.62924 10.4442 6.58915C10.4265 6.57089 10.4063 6.5753 10.3854 6.57992C10.3578 6.58605 10.329 6.59238 10.3031 6.54686C10.2817 6.50934 10.2643 6.41342 10.2489 6.32852C10.2442 6.30204 10.2396 6.27676 10.2351 6.25453C10.2183 6.25573 10.2017 6.25751 10.1851 6.26033C10.1825 6.27576 10.1792 6.29285 10.1761 6.31049C10.16 6.399 10.1404 6.50756 10.1165 6.56164C10.0786 6.64722 10.046 6.59356 10.012 6.5366C9.98557 6.49226 9.95832 6.44598 9.92741 6.46252C9.90639 6.47381 9.88253 6.51299 9.8568 6.55179C9.81922 6.60943 9.78282 6.66615 9.75789 6.63004C9.74854 6.6165 9.7406 6.55627 9.73277 6.49634C9.73274 6.49597 9.7327 6.49561 9.73267 6.49524C9.73214 6.49117 9.7316 6.4872 9.73107 6.48315C9.67047 6.52897 9.61298 6.57949 9.54948 6.63271C9.54409 6.64818 9.53866 6.66344 9.53329 6.67847C9.50705 6.75188 9.48196 6.82319 9.46566 6.92448C9.44781 7.03427 9.40464 7.09806 9.3588 7.16532C9.32676 7.20936 9.29428 7.25485 9.26812 7.31572C9.25283 7.3513 9.23856 7.28922 9.224 7.22521C9.21042 7.16549 9.19658 7.10419 9.18149 7.11932C9.17393 7.12691 9.16578 7.1526 9.15713 7.18008C9.14949 7.20427 9.14163 7.22991 9.13308 7.24561C9.12461 7.26014 9.10584 7.22632 9.08226 7.18329C9.06768 7.15669 9.05126 7.12665 9.03422 7.10193C8.98836 7.14054 8.94828 7.17758 8.90062 7.21199C8.89083 7.26639 8.88236 7.33701 8.87565 7.42766C8.87083 7.49271 8.86672 7.57046 8.8625 7.64994C8.85677 7.75811 8.85085 7.86988 8.84283 7.95901C8.83656 8.02865 8.82927 8.05639 8.82445 8.02747C8.82221 8.01398 8.82051 7.98856 8.81897 7.96557C8.8172 7.93924 8.81563 7.91582 8.81367 7.91649C8.81226 7.91702 8.81077 7.93566 8.80894 7.95823C8.80602 7.99427 8.80223 8.0408 8.79657 8.04245C8.77541 8.04857 8.75245 8.03366 8.72909 8.01893C8.70135 8.00255 8.67494 7.98666 8.65422 8.00052C8.63097 8.01607 8.59858 7.9468 8.56727 7.87774C8.54495 7.82956 8.51982 7.78161 8.50011 7.76193C8.48053 7.74264 8.46048 7.78091 8.44145 7.81826C8.41875 7.86308 8.39689 7.90638 8.37669 7.84564C8.3727 7.83331 8.36784 7.75825 8.36178 7.66435C8.35749 7.5978 8.35257 7.5217 8.347 7.45156C8.32237 7.45153 8.29845 7.44842 8.27525 7.44268C8.27442 7.45286 8.27356 7.46322 8.27271 7.47381C8.27269 7.47405 8.27268 7.4743 8.27266 7.47454C8.25333 7.71334 8.22246 8.03997 8.18508 7.84505C8.17551 7.79549 8.16966 7.70399 8.16441 7.62163C8.15925 7.54075 8.15466 7.46837 8.14792 7.45315C8.14063 7.43591 8.12996 7.48556 8.11915 7.53954C8.10385 7.61535 8.08717 7.70005 8.07111 7.62115C8.07002 7.61577 8.06884 7.60986 8.06762 7.60394C8.05568 7.54781 8.04056 7.46479 8.0221 7.29773C7.96778 7.25307 7.91713 7.2008 7.86601 7.14373C7.77803 7.04861 7.69552 6.94018 7.60735 6.83181C7.56578 6.77847 7.5253 6.55096 7.49637 6.18681C7.46731 5.82215 7.45078 5.35351 7.45079 4.86878C7.45076 4.38409 7.4673 3.91575 7.49764 3.55114C7.52773 3.18699 7.56916 2.95958 7.61109 2.90632C7.67909 2.82048 7.75103 2.73452 7.81699 2.65531C7.82061 2.64525 7.82428 2.63552 7.82798 2.62639C7.85672 2.5585 7.87907 2.4221 7.90473 2.28553C7.91056 2.25416 7.91649 2.22272 7.92252 2.19216ZM1239.77 1.43678C1239.81 1.20447 1239.88 1.29931 1239.92 1.3514C1239.92 1.35226 1239.92 1.35311 1239.92 1.35397C1239.93 1.3663 1239.94 1.36951 1239.95 1.373C1239.98 1.38133 1240.01 1.39263 1240.08 1.54069C1240.1 1.53522 1240.13 1.53225 1240.15 1.53224C1240.37 1.53218 1240.6 1.72527 1240.83 1.95652C1240.83 1.95533 1240.83 1.9541 1240.83 1.95286C1240.89 1.92887 1240.96 1.8992 1241.01 1.98395C1241.06 2.09171 1241.1 2.1917 1241.13 2.278C1241.31 2.46408 1241.49 2.63036 1241.67 2.69908C1241.73 2.72061 1241.78 2.73239 1241.84 2.73239C1241.89 2.73238 1241.94 2.725 1241.99 2.71113C1242.02 2.66057 1242.05 2.60051 1242.08 2.54486C1242.12 2.46667 1242.15 2.39722 1242.18 2.37456C1242.24 2.31997 1242.32 2.40612 1242.37 2.47013C1242.38 2.48059 1242.39 2.4905 1242.4 2.49906C1242.44 2.46735 1242.49 2.43341 1242.53 2.39871C1242.54 2.41801 1242.54 2.43814 1242.54 2.45877C1242.58 2.71625 1242.63 2.71294 1242.7 2.70816C1242.73 2.70607 1242.77 2.70381 1242.81 2.72244C1242.84 2.73443 1242.85 2.83652 1242.87 2.91983C1242.87 2.94433 1242.87 2.96723 1242.88 2.98574C1242.89 3.04915 1242.9 2.98062 1242.91 2.89968C1242.93 2.79467 1242.95 2.66855 1242.98 2.78249C1243.07 3.14554 1243.11 2.89924 1243.15 2.7129C1243.15 2.65825 1243.16 2.60886 1243.17 2.58143C1243.2 2.49251 1243.24 2.58061 1243.27 2.70155C1243.29 2.79745 1243.33 2.70238 1243.37 2.58143C1243.38 2.5357 1243.4 2.53455 1243.42 2.53345C1243.44 2.53232 1243.47 2.53129 1243.5 2.47999C1243.56 2.35032 1243.6 2.28748 1243.63 2.23718C1243.64 2.22284 1243.65 2.20978 1243.65 2.19617C1243.68 2.15313 1243.71 2.11768 1243.74 2.08191C1243.78 2.0391 1243.81 1.99563 1243.84 1.93762C1243.92 1.99901 1243.99 2.07497 1244.06 2.15075C1244.1 2.1901 1244.14 2.41169 1244.16 2.77699C1244.19 3.14258 1244.2 3.61928 1244.2 4.11331C1244.2 4.60736 1244.19 5.08403 1244.16 5.44964C1244.14 5.81494 1244.1 6.0369 1244.06 6.07624C1243.99 6.15466 1243.91 6.23313 1243.83 6.29561C1243.74 6.37171 1243.65 6.42415 1243.56 6.42415C1243.49 6.42415 1243.43 6.41237 1243.36 6.39119C1243.35 6.38901 1243.35 6.38661 1243.34 6.38424C1243.29 6.50588 1243.23 6.61653 1243.19 6.65597C1243.16 6.68853 1243.14 6.62361 1243.12 6.56808C1243.11 6.52987 1243.09 6.49605 1243.08 6.50143C1243.08 6.50432 1243.07 6.51182 1243.06 6.52084C1243.01 6.55765 1242.94 6.62013 1242.87 6.50144C1242.84 6.44876 1242.8 6.34494 1242.77 6.24582C1242.72 6.10408 1242.68 5.97196 1242.65 6.01254C1242.62 6.08385 1242.57 6.0235 1242.53 5.97007C1242.49 5.9191 1242.46 5.87459 1242.44 5.95689C1242.42 6.05527 1242.4 6.01517 1242.37 5.95579C1242.35 5.91461 1242.32 5.86434 1242.29 5.8441C1242.25 5.82074 1242.22 5.75183 1242.2 5.69323C1242.17 5.61075 1242.14 5.54875 1242.11 5.66284C1242.07 5.78958 1242.02 5.87024 1241.99 5.83021C1241.98 5.81197 1241.96 5.8164 1241.94 5.82106C1241.92 5.82722 1241.89 5.83359 1241.87 5.7881C1241.85 5.75062 1241.83 5.65472 1241.82 5.56984C1241.81 5.54337 1241.81 5.51809 1241.81 5.49587C1241.79 5.49709 1241.78 5.49889 1241.76 5.50173C1241.76 5.51717 1241.76 5.53426 1241.75 5.55191C1241.74 5.64043 1241.72 5.74902 1241.7 5.80314C1241.67 5.88877 1241.64 5.83515 1241.61 5.77824C1241.59 5.73394 1241.56 5.68769 1241.54 5.70428C1241.52 5.71559 1241.49 5.7548 1241.47 5.79364C1241.44 5.85133 1241.41 5.9081 1241.39 5.87202C1241.38 5.8585 1241.37 5.79828 1241.37 5.73836C1241.37 5.73799 1241.37 5.73763 1241.37 5.73726C1241.37 5.73319 1241.36 5.72922 1241.36 5.72517C1241.31 5.77108 1241.26 5.82168 1241.2 5.87498C1241.2 5.89046 1241.19 5.90573 1241.19 5.92076C1241.17 5.99421 1241.15 6.06556 1241.13 6.16687C1241.12 6.27668 1241.08 6.34053 1241.04 6.40786C1241.01 6.45195 1240.98 6.49748 1240.96 6.55839C1240.94 6.59398 1240.93 6.53193 1240.92 6.46794C1240.91 6.40824 1240.89 6.34696 1240.88 6.36211C1240.87 6.36971 1240.87 6.39541 1240.86 6.42291C1240.85 6.44711 1240.84 6.47275 1240.84 6.48846C1240.83 6.50301 1240.81 6.46922 1240.79 6.42622C1240.78 6.39964 1240.77 6.36963 1240.75 6.34492C1240.71 6.38361 1240.67 6.4207 1240.63 6.45518C1240.63 6.5096 1240.62 6.58022 1240.61 6.67089C1240.61 6.73594 1240.61 6.8137 1240.6 6.89319C1240.6 7.00136 1240.59 7.11314 1240.58 7.20228C1240.58 7.27193 1240.57 7.29968 1240.57 7.27076C1240.57 7.25728 1240.57 7.23186 1240.56 7.20887C1240.56 7.18255 1240.56 7.15913 1240.56 7.1598C1240.56 7.16033 1240.56 7.17898 1240.56 7.20155C1240.55 7.2376 1240.55 7.28413 1240.54 7.28578C1240.53 7.29194 1240.5 7.27706 1240.48 7.26236C1240.46 7.24602 1240.44 7.23017 1240.42 7.24407C1240.4 7.25965 1240.37 7.19042 1240.34 7.1214C1240.32 7.07326 1240.3 7.02535 1240.28 7.0057C1240.27 6.98644 1240.25 7.02474 1240.23 7.06211C1240.21 7.10697 1240.19 7.1503 1240.17 7.08959C1240.17 7.07726 1240.17 7.00221 1240.16 6.90832C1240.16 6.84177 1240.15 6.76568 1240.15 6.69555C1240.13 6.69555 1240.11 6.69248 1240.08 6.68678C1240.08 6.69696 1240.08 6.70732 1240.08 6.71791C1240.08 6.71815 1240.08 6.7184 1240.08 6.71864C1240.06 6.95747 1240.04 7.28415 1240.01 7.08928C1240 7.03974 1239.99 6.94824 1239.99 6.86589C1239.98 6.78502 1239.98 6.71265 1239.97 6.69743C1239.96 6.6802 1239.96 6.72986 1239.95 6.78387C1239.93 6.8597 1239.92 6.94443 1239.91 6.86555C1239.9 6.86016 1239.9 6.85426 1239.9 6.84834C1239.89 6.79223 1239.88 6.70923 1239.86 6.54219C1239.82 6.49762 1239.77 6.44542 1239.72 6.38843C1239.65 6.29344 1239.57 6.18512 1239.5 6.07687C1239.46 6.02358 1239.42 5.79612 1239.4 5.432C1239.37 5.06736 1239.36 4.59872 1239.36 4.114C1239.35 3.62931 1239.37 3.16096 1239.4 2.79633C1239.42 2.43216 1239.46 2.2047 1239.49 2.15138C1239.55 2.06545 1239.61 1.97939 1239.68 1.90008C1239.68 1.89002 1239.68 1.88028 1239.68 1.87115C1239.71 1.80322 1239.73 1.66679 1239.75 1.53017C1239.76 1.4988 1239.76 1.46735 1239.77 1.43678ZM1240.35 56.0775C1240.01 56.3102 1239.37 56.2161 1239.04 56.1644C1239.03 56.1636 1239.03 56.1628 1239.02 56.1619C1238.94 56.1497 1238.86 56.1466 1238.77 56.1432C1238.53 56.1351 1238.26 56.1242 1237.63 55.9769C1237.44 55.9826 1237.26 55.9858 1237.09 55.986C1235.14 55.9885 1233.21 55.7978 1231.26 55.569C1231.24 55.5703 1231.21 55.5715 1231.19 55.5728C1230.71 55.5974 1230.07 55.6279 1229.71 55.5436C1229.24 55.4364 1228.91 55.3368 1228.63 55.2509C1227.08 55.0668 1225.58 54.9024 1223.99 54.8357C1223.49 54.8148 1223.05 54.8036 1222.56 54.8042C1222.12 54.8048 1221.64 54.8128 1221.2 54.8272C1220.95 54.8781 1220.71 54.9385 1220.48 54.9944C1220.17 55.073 1219.88 55.1428 1219.64 55.1658C1219.06 55.2211 1218.41 55.1358 1217.94 55.0724C1217.87 55.062 1217.79 55.0522 1217.72 55.0438C1217.35 55.0759 1216.97 55.1104 1216.58 55.1456C1216.55 55.1263 1216.53 55.1062 1216.5 55.0856C1216.17 54.8286 1215.75 54.8324 1215.14 54.838C1214.88 54.8404 1214.56 54.8431 1214.19 54.8249C1213.95 54.8132 1213.82 54.7113 1213.72 54.6281C1213.69 54.6037 1213.66 54.5808 1213.63 54.5623C1213.53 54.4991 1213.43 54.5677 1213.3 54.6488C1213.15 54.754 1212.95 54.8804 1212.7 54.7668C1211.93 54.4047 1211.59 54.6515 1211.32 54.8382C1211.25 54.8929 1211.18 54.9424 1211.11 54.9699C1210.87 55.0591 1210.54 54.9715 1210.28 54.8508C1210.09 54.7552 1209.67 54.8508 1209.37 54.9721C1209.26 55.018 1209.11 55.0194 1208.93 55.0207C1208.75 55.0221 1208.54 55.0234 1208.31 55.075C1207.73 55.2054 1207.41 55.2686 1207.16 55.3193C1207.09 55.3337 1207.02 55.3468 1206.95 55.3605C1206.74 55.4038 1206.47 55.4396 1206.2 55.4758C1205.87 55.519 1205.57 55.5629 1205.33 55.6212C1204.71 55.5606 1204.08 55.4854 1203.44 55.4105C1203.11 55.3716 1202.79 55.1504 1202.56 54.7854C1202.32 54.4201 1202.19 53.9436 1202.19 53.4496C1202.19 52.9555 1202.32 52.4787 1202.56 52.1127C1202.79 51.7471 1203.11 51.5248 1203.44 51.485C1204.1 51.4057 1204.75 51.3264 1205.39 51.2631C1206.15 51.186 1207.01 51.1325 1207.79 51.1315C1208.35 51.1307 1208.9 51.1418 1209.44 51.1623C1209.5 51.1644 1209.56 51.1667 1209.62 51.169C1210.1 51.0468 1210.57 50.9355 1210.9 50.8956C1211.18 50.8627 1211.37 50.9274 1211.54 50.9827C1211.66 51.0208 1211.76 51.0544 1211.86 51.0489C1211.92 51.046 1211.99 51.0384 1212.08 51.0292C1212.45 50.9919 1213.1 50.9286 1213.7 51.0466C1213.96 51.0989 1214.26 51.2023 1214.55 51.3011C1214.96 51.4423 1215.33 51.5739 1215.52 51.5331C1215.84 51.4614 1216.26 51.5212 1216.61 51.5742C1216.95 51.6247 1217.23 51.6688 1217.4 51.5863C1217.59 51.4877 1217.76 51.5276 1218 51.5867C1218.17 51.6276 1218.38 51.6776 1218.65 51.6975C1218.99 51.7204 1219.24 51.789 1219.44 51.8474C1219.72 51.9295 1219.94 51.9912 1220.25 51.8767C1220.6 51.7495 1220.95 51.6684 1221.23 51.7081C1221.35 51.7262 1221.52 51.7215 1221.67 51.7167C1221.89 51.7103 1222.11 51.7036 1222.31 51.7488C1222.47 51.7861 1222.61 51.8818 1222.73 51.9666C1222.76 51.993 1222.8 52.0182 1222.83 52.0404C1222.96 52.039 1223.09 52.037 1223.22 52.034C1223.24 52.0186 1223.26 52.0015 1223.28 51.9838C1223.4 51.8951 1223.54 51.7863 1223.71 51.732C1223.98 51.646 1224.24 51.6993 1224.51 51.7559C1224.71 51.7999 1224.92 51.8459 1225.16 51.829C1225.32 51.8175 1225.51 51.7781 1225.69 51.739C1225.95 51.681 1226.22 51.6238 1226.42 51.6597C1226.49 51.6731 1226.55 51.7332 1226.61 51.7931C1226.61 51.7935 1226.62 51.7938 1226.62 51.7942C1226.62 51.7982 1226.62 51.8022 1226.63 51.8063C1227.1 51.7598 1227.55 51.7086 1227.99 51.6547C1228.03 51.6392 1228.07 51.6239 1228.11 51.6088C1228.3 51.5351 1228.5 51.4635 1228.63 51.362C1228.77 51.252 1229.11 51.1877 1229.46 51.12C1229.68 51.0756 1229.91 51.0298 1230.1 50.9686C1230.22 50.9329 1230.34 50.9948 1230.45 51.0586C1230.56 51.1182 1230.67 51.1793 1230.79 51.164C1230.84 51.1564 1230.91 51.1306 1230.98 51.103C1231.04 51.0787 1231.1 51.053 1231.16 51.0372C1231.22 51.0226 1231.36 51.0562 1231.53 51.099C1231.63 51.1254 1231.75 51.1553 1231.88 51.1799C1232.23 51.1407 1232.58 51.1032 1232.91 51.0683C1232.98 51.0138 1233.04 50.9431 1233.09 50.8524C1233.12 50.7873 1233.15 50.7095 1233.18 50.63C1233.22 50.5217 1233.26 50.4099 1233.32 50.3207C1233.36 50.251 1233.41 50.2232 1233.45 50.252C1233.47 50.2655 1233.48 50.2909 1233.5 50.3139C1233.51 50.3402 1233.52 50.3636 1233.54 50.3629C1233.55 50.3623 1233.56 50.3437 1233.58 50.3211C1233.6 50.285 1233.63 50.2384 1233.67 50.2367C1233.84 50.2304 1234.03 50.245 1234.21 50.2595C1234.41 50.2756 1234.6 50.2912 1234.75 50.2771C1234.91 50.2613 1235.18 50.3302 1235.43 50.3989C1235.6 50.4468 1235.78 50.4945 1235.92 50.514C1236.06 50.5331 1236.2 50.4946 1236.36 50.4571C1236.55 50.412 1236.72 50.3684 1236.86 50.4289C1236.89 50.4412 1236.93 50.5162 1236.97 50.6101C1237.01 50.6766 1237.04 50.7526 1237.08 50.8227C1237.26 50.8225 1237.44 50.8253 1237.63 50.8308C1237.64 50.8206 1237.65 50.8102 1237.65 50.7996C1237.65 50.7994 1237.66 50.7992 1237.66 50.7989C1237.81 50.5599 1238.02 50.233 1238.3 50.4275C1238.37 50.4769 1238.41 50.5684 1238.46 50.6507C1238.5 50.7315 1238.54 50.8038 1238.6 50.819C1238.66 50.8361 1238.73 50.7864 1238.81 50.7323C1238.92 50.6563 1239.05 50.5714 1239.17 50.6501C1239.17 50.6555 1239.18 50.6614 1239.19 50.6673C1239.28 50.7233 1239.41 50.8062 1239.55 50.973C1239.95 51.0171 1240.34 51.0688 1240.73 51.1253C1241.39 51.2195 1242.03 51.3271 1242.69 51.4346C1243.01 51.4875 1243.31 51.7146 1243.54 52.0785C1243.76 52.4428 1243.88 52.9114 1243.88 53.3962C1243.88 53.8809 1243.76 54.3492 1243.54 54.7141C1243.32 55.0785 1243.01 55.3063 1242.69 55.36C1242.17 55.4466 1241.64 55.5333 1241.14 55.6132C1241.11 55.6233 1241.09 55.6331 1241.06 55.6422C1240.84 55.7104 1240.67 55.8471 1240.48 55.9839C1240.44 56.0153 1240.39 56.0468 1240.35 56.0775ZM10.2401 55.3179C10.2132 55.5502 10.1614 55.4554 10.1329 55.4033C10.1324 55.4024 10.1318 55.4015 10.1313 55.4007C10.1245 55.3883 10.1181 55.3851 10.1106 55.3816C10.0928 55.3733 10.0686 55.362 10.0182 55.2139C10.0035 55.2194 9.98886 55.2223 9.97419 55.2223C9.81575 55.2223 9.65733 55.0291 9.49891 54.7978C9.49691 54.799 9.49487 54.8002 9.49281 54.8015C9.45306 54.8254 9.40379 54.8551 9.37283 54.7703C9.33347 54.6626 9.30675 54.5626 9.28479 54.4763C9.15895 54.2901 9.03309 54.1238 8.90723 54.0551C8.86778 54.0335 8.82832 54.0217 8.78888 54.0217C8.75255 54.0217 8.71621 54.0291 8.67989 54.043C8.65873 54.0935 8.63861 54.1536 8.61996 54.2092C8.59375 54.2874 8.57041 54.3569 8.55114 54.3795C8.50469 54.4341 8.45203 54.348 8.41291 54.2839C8.40651 54.2735 8.40048 54.2636 8.3949 54.255C8.36383 54.2867 8.33276 54.3207 8.30168 54.3554C8.29961 54.3361 8.29752 54.3159 8.2954 54.2953C8.26889 54.0378 8.23629 54.0411 8.18498 54.0459C8.16264 54.048 8.13675 54.0502 8.10626 54.0316C8.08661 54.0196 8.07652 53.9175 8.06828 53.8342C8.06586 53.8097 8.06358 53.7868 8.06128 53.7683C8.05339 53.7049 8.04507 53.7734 8.03524 53.8544C8.02249 53.9594 8.00719 54.0855 7.98698 53.9716C7.92261 53.6085 7.89422 53.8548 7.87276 54.0411C7.86647 54.0958 7.86076 54.1452 7.85492 54.1726C7.83597 54.2615 7.80899 54.1734 7.78859 54.0525C7.77241 53.9566 7.74006 54.0517 7.71551 54.1726C7.70623 54.2183 7.69368 54.2195 7.6789 54.2206C7.66361 54.2217 7.64591 54.2227 7.62698 54.274C7.57914 54.4037 7.55371 54.4665 7.53327 54.5168C7.52744 54.5312 7.52202 54.5442 7.5166 54.5579C7.49946 54.6009 7.4782 54.6364 7.45667 54.6721C7.43091 54.7149 7.40476 54.7584 7.38487 54.8164C7.33329 54.755 7.28173 54.6791 7.23017 54.6033C7.20368 54.5639 7.17827 54.3423 7.15954 53.977C7.14082 53.6114 7.13029 53.1347 7.1303 52.6407C7.13029 52.1467 7.14082 51.67 7.15954 51.3044C7.17827 50.9391 7.20369 50.7171 7.23017 50.6778C7.28353 50.5994 7.33689 50.5209 7.39025 50.4584C7.45525 50.3823 7.52026 50.3299 7.58526 50.3299C7.63074 50.3299 7.67621 50.3417 7.72168 50.3628C7.72637 50.365 7.73105 50.3674 7.73573 50.3698C7.77393 50.2481 7.81206 50.1375 7.83893 50.0981C7.86111 50.0655 7.87727 50.1304 7.89112 50.186C7.90065 50.2242 7.90909 50.258 7.91762 50.2526C7.9222 50.2497 7.92846 50.2422 7.93601 50.2332C7.96683 50.1964 8.01918 50.1339 8.06693 50.2526C8.08812 50.3053 8.11274 50.4091 8.13624 50.5082C8.16984 50.65 8.20117 50.7821 8.21699 50.7415C8.24478 50.6702 8.27663 50.7306 8.30478 50.784C8.33163 50.835 8.35512 50.8795 8.36847 50.7972C8.38444 50.6988 8.39804 50.7389 8.41827 50.7983C8.43231 50.8395 8.44953 50.8897 8.47294 50.91C8.49996 50.9333 8.51907 51.0023 8.53533 51.0609C8.5582 51.1433 8.57541 51.2053 8.60106 51.0913C8.62954 50.9645 8.65934 50.8839 8.68278 50.9239C8.69346 50.9421 8.70568 50.9377 8.71839 50.9331C8.73522 50.9269 8.75293 50.9205 8.76909 50.966C8.78241 51.0035 8.79342 51.0994 8.80315 51.1843C8.80619 51.2108 8.80911 51.236 8.81193 51.2583C8.82254 51.257 8.83314 51.2552 8.84375 51.2524C8.84547 51.237 8.84728 51.2199 8.84917 51.2022C8.85863 51.1137 8.87027 51.0051 8.88467 50.951C8.90746 50.8654 8.92745 50.919 8.94854 50.9759C8.96496 51.0202 8.98204 51.0665 9.00163 51.0499C9.01499 51.0386 9.0302 50.9994 9.04528 50.9605C9.06767 50.9029 9.0898 50.8461 9.10516 50.8822C9.11091 50.8957 9.11586 50.9559 9.12075 51.0159C9.12077 51.0162 9.12079 51.0166 9.12081 51.0169C9.12115 51.021 9.12148 51.025 9.12181 51.029C9.15922 50.9831 9.19666 50.9326 9.23408 50.8793C9.23732 50.8638 9.2406 50.8485 9.24384 50.8335C9.25971 50.76 9.27514 50.6887 9.2852 50.5874C9.2961 50.4776 9.3235 50.4137 9.35237 50.3464C9.37127 50.3023 9.39082 50.2568 9.40678 50.1959C9.41611 50.1603 9.42496 50.2224 9.43405 50.2864C9.44254 50.3461 9.45125 50.4074 9.46078 50.3922C9.46556 50.3846 9.47071 50.3589 9.47622 50.3314C9.48107 50.3072 9.4862 50.2816 9.49156 50.2659C9.49655 50.2513 9.50765 50.2851 9.52187 50.3281C9.53066 50.3547 9.54065 50.3847 9.55114 50.4094C9.57886 50.3708 9.6066 50.3337 9.63432 50.2992C9.64011 50.2448 9.64514 50.1742 9.64912 50.0835C9.65197 50.0185 9.65441 49.9407 9.65691 49.8612C9.66032 49.753 9.66384 49.6413 9.66868 49.5521C9.67247 49.4825 9.67693 49.4547 9.67992 49.4836C9.68132 49.4971 9.68238 49.5226 9.68335 49.5455C9.68446 49.5719 9.68546 49.5953 9.68667 49.5946C9.68754 49.5941 9.68846 49.5754 9.68958 49.5529C9.69137 49.5168 9.69371 49.4703 9.69724 49.4686C9.71042 49.4625 9.72539 49.4774 9.74005 49.4921C9.75636 49.5084 9.7723 49.5243 9.78499 49.5104C9.79922 49.4948 9.81949 49.5641 9.83979 49.6331C9.85395 49.6812 9.86813 49.7292 9.8803 49.7488C9.89222 49.7681 9.90464 49.7298 9.91668 49.6924C9.93112 49.6476 9.94502 49.6042 9.95681 49.665C9.95919 49.6773 9.96214 49.7523 9.96585 49.8462C9.96847 49.9128 9.97149 49.9889 9.97493 50.059C9.98995 50.059 10.005 50.0621 10.02 50.0678C10.0205 50.0576 10.0211 50.0473 10.0216 50.0367C10.0216 50.0364 10.0216 50.0362 10.0216 50.0359C10.034 49.7971 10.051 49.4705 10.0746 49.6653C10.0807 49.7149 10.0844 49.8064 10.0879 49.8887C10.0912 49.9696 10.0942 50.042 10.0986 50.0572C10.1036 50.0744 10.1095 50.0248 10.1159 49.9708C10.1249 49.895 10.135 49.8102 10.1451 49.8891C10.1458 49.8945 10.1465 49.9004 10.1473 49.9063C10.1546 49.9624 10.1655 50.0454 10.1762 50.2125C10.2082 50.2571 10.2403 50.3093 10.2723 50.3663C10.3256 50.4613 10.379 50.5697 10.4323 50.678C10.4583 50.7313 10.4832 50.9588 10.5014 51.3229C10.5197 51.6876 10.5299 52.1562 10.5298 52.6409C10.5297 53.1256 10.5193 53.594 10.5009 53.9586C10.4825 54.3227 10.4575 54.5502 10.4316 54.6035C10.3892 54.6894 10.3469 54.7754 10.3046 54.8547C10.3023 54.8648 10.3001 54.8745 10.2979 54.8836C10.2814 54.9515 10.266 55.088 10.2507 55.2246C10.2472 55.2559 10.2436 55.2874 10.2401 55.3179ZM16.0748 7.3666C16.0814 7.59909 16.0492 7.50668 16.0286 7.45633C16.0283 7.4555 16.0279 7.45468 16.0275 7.45386C16.0227 7.44192 16.0189 7.43907 16.0143 7.43601C16.0031 7.42875 15.9895 7.41869 15.9414 7.275C15.9325 7.28147 15.9234 7.28547 15.914 7.28656C15.8106 7.29841 15.6675 7.12302 15.5066 6.91354C15.5051 6.91497 15.5037 6.91643 15.5023 6.9179C15.474 6.94646 15.4397 6.98186 15.4012 6.90218C15.3519 6.80091 15.3143 6.70574 15.282 6.62357C15.1471 6.45713 15.0107 6.31204 14.8894 6.26422C14.8511 6.24929 14.8154 6.24387 14.7808 6.25033C14.7488 6.2563 14.7193 6.26936 14.69 6.28906C14.681 6.34226 14.6748 6.40461 14.6693 6.46233C14.6616 6.54345 14.6548 6.61552 14.6424 6.64102C14.6124 6.70252 14.5514 6.62677 14.5045 6.57088C14.4969 6.56174 14.4896 6.55309 14.4831 6.54568C14.4626 6.58212 14.4425 6.62082 14.4225 6.66032C14.4168 6.64178 14.411 6.62243 14.405 6.60259C14.3302 6.35508 14.3025 6.36411 14.2585 6.37814C14.2394 6.38424 14.2167 6.39127 14.1865 6.3786C14.1669 6.37045 14.137 6.27244 14.1124 6.19248C14.1052 6.16895 14.0985 6.14697 14.0926 6.12929C14.0725 6.06874 14.0793 6.13735 14.0874 6.21837C14.098 6.32348 14.1107 6.44973 14.0692 6.34208C13.9368 5.99914 13.9628 6.24556 13.9836 6.43172C13.9896 6.48634 13.9951 6.5357 13.9958 6.56361C13.9983 6.65407 13.9561 6.57311 13.9123 6.45893C13.8775 6.36839 13.8693 6.46755 13.8739 6.59042C13.8757 6.63686 13.8651 6.6404 13.8525 6.64433C13.8394 6.6484 13.8242 6.65286 13.8189 6.70664C13.8054 6.84256 13.7973 6.90884 13.7908 6.96188C13.789 6.97701 13.7872 6.99081 13.7855 7.00515C13.7802 7.05048 13.7698 7.08924 13.7591 7.12839C13.7462 7.17525 13.7336 7.22276 13.7297 7.28322C13.6717 7.23361 13.6095 7.17011 13.5479 7.10677C13.516 7.07384 13.4431 6.86339 13.3422 6.51189C13.2413 6.16009 13.1213 5.69862 13.0069 5.21801C12.8926 4.73739 12.792 4.27133 12.7254 3.91137C12.6589 3.55172 12.6323 3.32992 12.6487 3.28564C12.6817 3.19732 12.716 3.10875 12.7534 3.03598C12.7987 2.9474 12.8511 2.88165 12.9142 2.86741C12.9589 2.85734 13.0057 2.85895 13.0545 2.86981C13.0596 2.87092 13.0647 2.87224 13.0698 2.87354C13.081 2.74647 13.0948 2.63017 13.1127 2.58589C13.1274 2.54937 13.1575 2.60926 13.1829 2.66057C13.2004 2.69587 13.2159 2.72713 13.2231 2.72006C13.227 2.71626 13.2316 2.70759 13.2371 2.69718C13.2595 2.6547 13.2984 2.58247 13.3702 2.68863C13.402 2.73574 13.4473 2.83229 13.4907 2.92448C13.553 3.05625 13.6103 3.17931 13.6174 3.1364C13.63 3.06099 13.6733 3.1137 13.7116 3.16043C13.7481 3.20501 13.7796 3.24403 13.7763 3.16075C13.7724 3.06119 13.7936 3.09782 13.8252 3.15205C13.8471 3.18967 13.8738 3.2356 13.9005 3.25094C13.9314 3.26863 13.963 3.33267 13.9903 3.38703C14.0286 3.46356 14.0571 3.52119 14.0602 3.40437C14.0637 3.2746 14.0777 3.18978 14.1085 3.22469C14.1224 3.2406 14.1336 3.23396 14.1452 3.22703C14.1605 3.21786 14.1767 3.20834 14.2007 3.25011C14.2208 3.28449 14.2493 3.37673 14.2744 3.4584C14.2822 3.48388 14.2897 3.5082 14.2965 3.52953C14.3066 3.52641 14.3166 3.52273 14.3264 3.51804C14.3253 3.50255 14.3239 3.48542 14.3226 3.46773C14.3157 3.37898 14.3075 3.27009 14.3118 3.21429C14.3189 3.12595 14.3487 3.17503 14.3796 3.2273C14.4037 3.26799 14.4286 3.31052 14.4448 3.2908C14.4558 3.27734 14.4644 3.23601 14.4727 3.19512C14.485 3.13439 14.4973 3.07462 14.5187 3.10755C14.5267 3.11989 14.5418 3.17839 14.5568 3.23661C14.5569 3.23697 14.557 3.23733 14.557 3.23768C14.5581 3.24164 14.5591 3.24549 14.5601 3.24942C14.59 3.1977 14.6188 3.1415 14.6473 3.08271C14.648 3.06689 14.6488 3.05128 14.6497 3.0359C14.6538 2.96075 14.6579 2.88777 14.6518 2.78611C14.6453 2.6759 14.6624 2.6084 14.6822 2.53703C14.6952 2.49031 14.7085 2.44209 14.7158 2.37928C14.7201 2.34258 14.739 2.40242 14.7583 2.46417C14.7763 2.5218 14.795 2.5809 14.8028 2.56437C14.8067 2.55607 14.8082 2.52983 14.8099 2.50176C14.8114 2.47706 14.8129 2.45087 14.8163 2.43447C14.8194 2.41928 14.8363 2.4509 14.8576 2.49117C14.8709 2.51604 14.8854 2.54421 14.9005 2.56694C14.9246 2.52425 14.9489 2.48322 14.9734 2.44487C14.9718 2.39013 14.9673 2.31944 14.959 2.22905C14.953 2.1642 14.9447 2.08683 14.9364 2.00773C14.925 1.90009 14.9133 1.78885 14.9064 1.69981C14.901 1.63023 14.9023 1.60202 14.9097 1.63018C14.9132 1.64331 14.9179 1.66831 14.9222 1.69092C14.9272 1.71682 14.9315 1.73985 14.9328 1.73899C14.9337 1.73833 14.9322 1.71971 14.9304 1.69718C14.9274 1.6612 14.9237 1.61474 14.9275 1.61254C14.9418 1.60434 14.9607 1.61677 14.9796 1.62904C15.001 1.64262 15.0217 1.65586 15.0347 1.64012C15.0495 1.62246 15.0811 1.68815 15.1145 1.75348C15.1375 1.79908 15.1602 1.84452 15.1769 1.86226C15.1932 1.87964 15.2029 1.83988 15.2127 1.80106C15.225 1.7544 15.237 1.70935 15.2584 1.76798C15.2627 1.77989 15.275 1.85402 15.2902 1.94678C15.301 2.01252 15.3133 2.0877 15.3254 2.15691C15.3429 2.1549 15.3611 2.15596 15.3801 2.15961C15.3796 2.14942 15.3791 2.13905 15.3786 2.12846C15.3786 2.12821 15.3786 2.12797 15.3786 2.12772C15.3673 1.88871 15.3546 1.5615 15.4046 1.75224C15.4171 1.80075 15.4316 1.89125 15.4443 1.97273C15.4568 2.05275 15.4678 2.12437 15.4749 2.13896C15.4829 2.15548 15.4853 2.10533 15.4882 2.05079C15.4921 1.97421 15.4971 1.88861 15.5174 1.96593C15.5187 1.97121 15.5202 1.97701 15.5218 1.98281C15.5361 2.03782 15.5585 2.11911 15.5872 2.28424C15.6322 2.32498 15.6778 2.3736 15.7245 2.42732C15.8015 2.51693 15.8829 2.62057 15.965 2.72596C16.0062 2.7778 16.0505 3.00438 16.0811 3.36818C16.1116 3.73251 16.1217 4.20124 16.1214 4.68596C16.1211 5.17064 16.1144 5.63899 16.1128 6.00366C16.1105 6.36789 16.1124 6.59536 16.1064 6.6489C16.0968 6.73521 16.0846 6.82199 16.0702 6.90243C16.0698 6.91254 16.0694 6.92233 16.069 6.93151C16.066 6.9998 16.0689 7.13638 16.0724 7.27312C16.0732 7.30453 16.074 7.33601 16.0748 7.3666ZM46.2281 57.4977C46.1716 57.7257 46.1173 57.6259 46.0706 57.5701C46.0698 57.5692 46.069 57.5683 46.0681 57.5674C46.0576 57.5542 46.0464 57.5501 46.0326 57.5456C45.9986 57.5348 45.9571 57.5202 45.8278 57.3637C45.7873 57.3667 45.7452 57.3671 45.7015 57.3647C45.2237 57.3373 44.5303 57.1159 43.5412 56.8569C43.5286 56.8578 43.5158 56.8586 43.5027 56.8595C43.2549 56.8766 42.9122 56.8976 42.6817 56.8074C42.391 56.6928 42.1806 56.5882 41.9996 56.4981C40.958 56.2901 39.7095 56.1024 37.9744 56.0115C37.4291 55.983 36.8529 55.9644 36.1783 55.9572C35.5842 55.9509 34.8933 55.9514 34.1433 55.9586C33.6961 56.0052 33.2603 56.0616 32.7847 56.1134C32.1426 56.1865 31.5131 56.2513 30.9078 56.2698C29.6028 56.3134 27.0255 56.2217 24.6177 56.134C24.4472 56.119 24.2891 56.105 24.1466 56.093C23.3466 56.1049 22.6475 56.1255 22.0149 56.149C21.9724 56.129 21.9313 56.1081 21.8893 56.0868C21.364 55.82 20.7447 55.814 19.9504 55.8046C19.6094 55.8005 19.2367 55.7955 18.843 55.767C18.5929 55.7487 18.4748 55.643 18.3797 55.5568C18.3516 55.5315 18.3254 55.5077 18.2989 55.4884C18.2069 55.4221 18.1127 55.4875 17.9998 55.5645C17.8529 55.6643 17.6819 55.784 17.4834 55.661C16.8559 55.2683 16.6281 55.4959 16.4268 55.6683C16.3687 55.7187 16.3195 55.7644 16.2692 55.7879C16.1055 55.864 15.8987 55.7566 15.7617 55.6207C15.651 55.5131 15.4091 55.5815 15.2269 55.6794C15.1585 55.7166 15.0708 55.7059 14.9747 55.693C14.8753 55.6797 14.7595 55.6629 14.6343 55.6939C14.3148 55.7716 14.141 55.7993 14.0117 55.8238C13.9744 55.8306 13.9401 55.8366 13.906 55.8431C13.7653 55.8556 13.8299 55.9096 13.4554 55.8548C13.0806 55.8061 12.7298 55.7526 12.4542 55.7303C11.8033 55.4708 11.2085 55.176 10.6603 54.8677C10.3785 54.7089 10.1939 54.3831 10.1589 53.9635C10.1232 53.5432 10.2362 53.0668 10.4535 52.6233C10.6713 52.1797 10.9738 51.7978 11.2891 51.5416C11.6051 51.286 11.9089 51.1789 12.1588 51.2395C12.6625 51.3626 13.197 51.4704 13.7619 51.5726C14.5488 51.7224 14.8625 51.7256 15.1027 51.7717C15.2896 51.8064 15.5115 51.8537 15.7533 51.906C15.7777 51.9113 15.8044 51.9171 15.8302 51.9226C16.0558 51.8279 16.305 51.7414 16.4877 51.7174C16.6406 51.6978 16.7518 51.7711 16.852 51.8338C16.9202 51.8769 16.9843 51.915 17.0529 51.9139C17.0898 51.9133 17.1402 51.9089 17.2029 51.9035C17.461 51.8817 17.9335 51.8416 18.4719 51.9764C18.7062 52.0362 19.007 52.1479 19.3175 52.2537C19.7649 52.4053 20.2528 52.5457 20.5172 52.5096C20.9725 52.446 21.5595 52.5156 22.1401 52.5793C22.6903 52.64 23.2397 52.6957 23.5627 52.6206C23.9484 52.5307 24.2823 52.5786 24.8165 52.6523C25.4815 52.7019 27.0033 52.7556 28.0223 52.7823C29.2316 52.8124 29.9024 52.8858 30.4265 52.9478C31.1624 53.0352 31.6631 53.1008 32.3337 52.9918C33.0627 52.8707 33.7466 52.7958 34.2277 52.8402C34.4457 52.8604 34.6953 52.8582 34.9465 52.856C35.2597 52.8528 35.5935 52.8498 35.8739 52.8981C36.1001 52.938 36.2837 53.0359 36.445 53.1225C36.4953 53.1495 36.5434 53.1753 36.5899 53.1981C36.7621 53.1988 36.9218 53.1988 37.0852 53.1978C37.1117 53.1827 37.1395 53.1659 37.1685 53.1486C37.3142 53.0618 37.4917 52.9553 37.6943 52.9037C38.0181 52.822 38.2948 52.8792 38.5639 52.9398C38.7751 52.9869 38.9961 53.0363 39.2271 53.023C39.3864 53.014 39.5672 52.9775 39.741 52.9413C39.9907 52.8875 40.2307 52.8346 40.3938 52.8734C40.4557 52.888 40.5028 52.949 40.5518 53.0098C40.552 53.0101 40.5522 53.0105 40.5524 53.0109C40.5557 53.015 40.559 53.019 40.5623 53.0231C40.944 52.9837 41.3002 52.9397 41.637 52.893C41.6665 52.8781 41.6962 52.8634 41.7255 52.8489C41.8643 52.7783 41.9958 52.7096 42.0822 52.6101C42.1763 52.5022 42.4044 52.4433 42.6266 52.381C42.7731 52.3403 42.9228 52.2984 43.037 52.2403C43.1047 52.2063 43.1658 52.2699 43.2279 52.3355C43.2859 52.3967 43.3447 52.4596 43.4104 52.4462C43.4435 52.4394 43.4785 52.4147 43.5153 52.3881C43.5478 52.3648 43.5819 52.3401 43.6171 52.3253C43.6498 52.3117 43.7207 52.3475 43.8094 52.393C43.864 52.4212 43.927 52.4531 43.9888 52.4796C44.1556 52.4459 44.3185 52.414 44.4715 52.3846C44.5046 52.3313 44.534 52.2616 44.5583 52.1718C44.5758 52.1073 44.5914 52.03 44.6075 51.951C44.6293 51.8435 44.6518 51.7325 44.6805 51.6443C44.703 51.5754 44.7274 51.5485 44.742 51.578C44.7488 51.5917 44.7535 51.6173 44.7578 51.6404C44.7626 51.667 44.7669 51.6906 44.7733 51.6901C44.7778 51.6897 44.7832 51.6713 44.7898 51.6489C44.8004 51.6133 44.8142 51.5672 44.8325 51.5662C44.9011 51.5626 44.9738 51.5802 45.044 51.5977C45.122 51.6171 45.1961 51.636 45.2553 51.6245C45.3224 51.6118 45.4079 51.6847 45.4913 51.7576C45.5495 51.8085 45.6061 51.8591 45.6547 51.8812C45.7023 51.9028 45.7519 51.8669 45.8001 51.832C45.8578 51.7901 45.9123 51.7496 45.9524 51.8126C45.9605 51.8254 45.9672 51.901 45.9755 51.9955C45.9813 52.0625 45.9879 52.139 45.9962 52.2098C46.0487 52.2128 46.0996 52.2189 46.1492 52.2277C46.1516 52.2176 46.154 52.2074 46.1565 52.1969C46.1565 52.1967 46.1566 52.1965 46.1566 52.1962C46.2122 51.9604 46.2899 51.638 46.3539 51.8377C46.37 51.8885 46.3758 51.9806 46.3808 52.0635C46.3857 52.145 46.39 52.2178 46.4027 52.234C46.4172 52.2523 46.4395 52.2042 46.464 52.1519C46.4984 52.0784 46.5377 51.9965 46.5627 52.0777C46.5643 52.0832 46.5662 52.0893 46.5681 52.0954C46.5861 52.1531 46.6119 52.2386 46.6271 52.4076C46.7148 52.4599 46.7956 52.5203 46.8629 52.5852C46.9014 52.6828 47.2891 52.8476 47.9558 53.0631C48.246 53.1632 48.4772 53.4317 48.6093 53.8224C48.7413 54.2137 48.7674 54.693 48.6889 55.1713C48.6098 55.6495 48.4305 56.0946 48.1817 56.4231C47.9328 56.7513 47.634 56.9327 47.3395 56.9399C46.8621 56.9505 46.2919 56.9537 46.3555 57.045C46.3518 57.0547 46.3482 57.0641 46.3447 57.0729C46.3183 57.1384 46.2844 57.2721 46.2511 57.4061C46.2434 57.4369 46.2357 57.4677 46.2281 57.4977ZM1234.31 0.203458C1234.4 -0.0204369 1234.5 0.0885648 1234.56 0.148532C1234.56 0.149532 1234.56 0.150533 1234.56 0.151534C1234.58 0.165762 1234.59 0.170848 1234.61 0.176585C1234.64 0.189984 1234.7 0.208391 1234.78 0.370442C1234.81 0.369475 1234.84 0.371089 1234.87 0.375748C1235.2 0.425818 1235.47 0.671649 1235.73 0.956784C1235.73 0.956353 1235.74 0.955901 1235.74 0.955446C1235.82 0.946867 1235.92 0.935777 1235.96 1.03089C1236.01 1.15157 1236.04 1.25951 1236.07 1.35254C1236.26 1.58318 1236.45 1.79558 1236.67 1.91475C1236.73 1.95204 1236.8 1.97979 1236.87 1.99663C1236.94 2.01208 1237 2.02013 1237.07 2.02245C1237.12 1.98249 1237.17 1.93285 1237.22 1.88689C1237.29 1.82233 1237.34 1.76524 1237.38 1.75187C1237.48 1.71983 1237.56 1.82681 1237.61 1.90685C1237.62 1.91992 1237.63 1.93229 1237.64 1.94316C1237.7 1.92654 1237.76 1.90786 1237.83 1.88874C1237.83 1.9084 1237.83 1.92886 1237.82 1.94982C1237.81 2.21151 1237.87 2.2232 1237.96 2.24268C1238 2.25113 1238.05 2.26143 1238.1 2.29377C1238.13 2.31467 1238.12 2.41809 1238.11 2.50245C1238.11 2.52726 1238.11 2.55046 1238.11 2.56943C1238.1 2.63441 1238.14 2.5722 1238.18 2.49879C1238.23 2.40354 1238.29 2.28926 1238.29 2.40904C1238.31 2.79022 1238.43 2.56658 1238.51 2.39773C1238.54 2.34819 1238.56 2.30346 1238.58 2.27995C1238.64 2.20376 1238.66 2.30198 1238.67 2.42859C1238.67 2.52895 1238.75 2.45368 1238.83 2.34991C1238.86 2.31068 1238.88 2.3159 1238.91 2.32238C1238.93 2.32907 1238.97 2.33712 1239.01 2.2976C1239.13 2.19776 1239.2 2.15089 1239.25 2.11331C1239.26 2.1026 1239.28 2.09293 1239.29 2.08272C1239.33 2.05046 1239.38 2.02773 1239.43 2.00496C1239.49 1.97773 1239.55 1.95013 1239.6 1.90531C1239.68 1.99193 1239.75 2.09296 1239.82 2.19366C1239.85 2.24584 1239.83 2.47161 1239.76 2.83063C1239.68 3.18994 1239.55 3.65052 1239.41 4.12194C1239.26 4.59338 1239.1 5.04265 1238.96 5.38206C1238.82 5.72115 1238.71 5.92037 1238.66 5.94477C1238.55 5.99316 1238.44 6.04176 1238.34 6.07577C1238.21 6.11716 1238.09 6.13637 1237.98 6.10578C1237.91 6.08428 1237.84 6.05193 1237.77 6.01053C1237.77 6.00626 1237.76 6.00178 1237.75 5.99733C1237.66 6.09667 1237.57 6.18593 1237.51 6.21189C1237.47 6.2333 1237.46 6.16343 1237.45 6.10371C1237.45 6.06261 1237.44 6.02623 1237.43 6.02761C1237.42 6.02834 1237.41 6.03279 1237.39 6.03812C1237.33 6.05994 1237.23 6.09709 1237.18 5.96168C1237.16 5.90156 1237.15 5.79076 1237.14 5.68465C1237.12 5.53299 1237.1 5.39166 1237.06 5.42411C1237 5.48119 1236.96 5.40918 1236.93 5.34543C1236.9 5.28464 1236.87 5.23162 1236.83 5.30578C1236.78 5.39446 1236.77 5.34992 1236.75 5.28387C1236.73 5.23807 1236.72 5.18212 1236.68 5.15282C1236.65 5.119 1236.63 5.04442 1236.62 4.98075C1236.6 4.89124 1236.58 4.82391 1236.52 4.92435C1236.44 5.03595 1236.37 5.10256 1236.34 5.05422C1236.33 5.03222 1236.31 5.03168 1236.28 5.03119C1236.25 5.03055 1236.22 5.02985 1236.21 4.97932C1236.19 4.9377 1236.2 4.83992 1236.2 4.75346C1236.2 4.72649 1236.2 4.70073 1236.2 4.67798C1236.18 4.67501 1236.17 4.67263 1236.15 4.67129C1236.14 4.68567 1236.13 4.70162 1236.13 4.71808C1236.09 4.80067 1236.05 4.90203 1236.01 4.94933C1235.96 5.02427 1235.93 4.96423 1235.91 4.90082C1235.89 4.85143 1235.88 4.79992 1235.84 4.80888C1235.82 4.81503 1235.78 4.84761 1235.75 4.87996C1235.7 4.92801 1235.65 4.97549 1235.63 4.93474C1235.63 4.91947 1235.63 4.85885 1235.64 4.79855C1235.64 4.79819 1235.64 4.79782 1235.64 4.79746C1235.64 4.79336 1235.64 4.78936 1235.64 4.78529C1235.56 4.81675 1235.49 4.85269 1235.42 4.89202C1235.41 4.90605 1235.4 4.91987 1235.39 4.93347C1235.35 4.99989 1235.31 5.06433 1235.28 5.16011C1235.23 5.26391 1235.18 5.3172 1235.12 5.37382C1235.08 5.41087 1235.04 5.44896 1235 5.50359C1234.98 5.5355 1234.98 5.47183 1234.97 5.40618C1234.97 5.34493 1234.97 5.28206 1234.95 5.29394C1234.94 5.29992 1234.93 5.32349 1234.92 5.34871C1234.9 5.37092 1234.89 5.39447 1234.88 5.4082C1234.87 5.42092 1234.86 5.38427 1234.84 5.33765C1234.83 5.30885 1234.82 5.27631 1234.81 5.24887C1234.76 5.27861 1234.71 5.30641 1234.66 5.33229C1234.64 5.38412 1234.62 5.45213 1234.59 5.54019C1234.58 5.60336 1234.56 5.67916 1234.54 5.75666C1234.52 5.86212 1234.49 5.97112 1234.47 6.0575C1234.45 6.12502 1234.44 6.15104 1234.44 6.12175C1234.44 6.10809 1234.44 6.08278 1234.45 6.05989C1234.45 6.03366 1234.45 6.01034 1234.45 6.01066C1234.45 6.01094 1234.44 6.02904 1234.44 6.05094C1234.43 6.08592 1234.42 6.13107 1234.41 6.13173C1234.39 6.13417 1234.37 6.11549 1234.35 6.09715C1234.33 6.07678 1234.31 6.05703 1234.29 6.06738C1234.26 6.07901 1234.24 6.00559 1234.22 5.93251C1234.21 5.88156 1234.2 5.83075 1234.18 5.80833C1234.17 5.78638 1234.14 5.82119 1234.12 5.85529C1234.09 5.89619 1234.07 5.936 1234.06 5.87324C1234.05 5.86051 1234.06 5.78566 1234.07 5.69201C1234.08 5.62563 1234.08 5.54973 1234.09 5.4796C1234.07 5.47615 1234.05 5.46977 1234.02 5.46093C1234.02 5.47089 1234.02 5.48102 1234.02 5.49138C1234.02 5.49162 1234.02 5.49186 1234.02 5.4921C1233.97 5.72578 1233.89 6.04546 1233.89 5.84793C1233.89 5.7977 1233.89 5.70635 1233.9 5.62412C1233.91 5.54337 1233.91 5.47109 1233.91 5.45517C1233.9 5.43713 1233.89 5.48525 1233.87 5.5375C1233.85 5.61089 1233.82 5.69303 1233.82 5.61302C1233.82 5.60755 1233.82 5.60156 1233.82 5.59556C1233.82 5.5386 1233.81 5.45441 1233.82 5.28683C1233.78 5.23695 1233.74 5.18018 1233.71 5.11885C1233.65 5.01692 1233.59 4.90311 1233.54 4.79193C1233.52 4.73714 1233.51 4.5092 1233.5 4.14471C1233.49 3.77974 1233.48 3.31113 1233.48 2.8264C1233.47 2.34176 1233.5 1.87311 1233.56 1.50964C1233.62 1.14669 1233.7 0.922111 1233.77 0.873161C1233.89 0.793838 1234 0.717216 1234.11 0.648072C1234.11 0.63856 1234.12 0.629385 1234.13 0.62082C1234.17 0.557059 1234.22 0.425342 1234.27 0.293563C1234.29 0.263262 1234.3 0.232911 1234.31 0.203458ZM1202.52 56.1095C1202.55 56.3405 1202.51 56.2498 1202.49 56.2C1202.49 56.1992 1202.49 56.1984 1202.49 56.1976C1202.49 56.1858 1202.48 56.183 1202.48 56.18C1202.47 56.1728 1202.46 56.1631 1202.42 56.0198C1202.42 56.026 1202.41 56.0298 1202.41 56.0307C1202.35 56.0401 1202.26 55.8588 1202.16 55.64C1202.16 55.6413 1202.16 55.6426 1202.16 55.644C1202.15 55.67 1202.13 55.7023 1202.11 55.6205C1202.08 55.5165 1202.05 55.4194 1202.03 55.3355C1201.95 55.1594 1201.88 55.003 1201.82 54.9429C1201.8 54.9241 1201.78 54.9149 1201.77 54.9173C1201.75 54.9196 1201.74 54.9291 1201.73 54.9451C1201.73 54.9963 1201.73 55.0568 1201.73 55.1129C1201.74 55.1917 1201.74 55.2617 1201.73 55.2852C1201.73 55.342 1201.69 55.2602 1201.67 55.1995C1201.66 55.1896 1201.66 55.1802 1201.65 55.1721C1201.65 55.2053 1201.64 55.2407 1201.64 55.2769C1201.63 55.258 1201.63 55.2383 1201.62 55.218C1201.57 54.9656 1201.56 54.9709 1201.54 54.9788C1201.53 54.9823 1201.52 54.9861 1201.51 54.9697C1201.5 54.9591 1201.48 54.859 1201.46 54.7773C1201.46 54.7532 1201.45 54.7308 1201.45 54.7127C1201.44 54.6506 1201.44 54.7187 1201.45 54.7992C1201.46 54.9036 1201.48 55.0291 1201.45 54.9179C1201.37 54.5637 1201.4 54.8085 1201.42 54.9937C1201.43 55.0481 1201.43 55.0972 1201.44 55.1246C1201.44 55.2135 1201.42 55.1283 1201.39 55.0102C1201.37 54.9166 1201.37 55.0125 1201.38 55.1334C1201.39 55.1791 1201.38 55.181 1201.38 55.183C1201.37 55.1851 1201.36 55.1872 1201.36 55.2391C1201.37 55.37 1201.37 55.4336 1201.37 55.4845C1201.37 55.4991 1201.37 55.5123 1201.37 55.5261C1201.37 55.5696 1201.37 55.6059 1201.36 55.6426C1201.36 55.6865 1201.36 55.731 1201.36 55.7895C1201.33 55.7322 1201.3 55.6605 1201.27 55.589C1201.25 55.5519 1201.2 55.3348 1201.14 54.9756C1201.07 54.6161 1200.99 54.1464 1200.91 53.6589C1200.83 53.1715 1200.75 52.7005 1200.7 52.3386C1200.65 51.9769 1200.62 51.7563 1200.63 51.7158C1200.63 51.6351 1200.64 51.5543 1200.65 51.4892C1200.67 51.41 1200.68 51.3541 1200.71 51.35C1200.72 51.3471 1200.74 51.3558 1200.77 51.3738C1200.77 51.3757 1200.77 51.3777 1200.77 51.3798C1200.77 51.2573 1200.76 51.1457 1200.77 51.1051C1200.77 51.0716 1200.79 51.1346 1200.8 51.1885C1200.81 51.2256 1200.82 51.2584 1200.82 51.2526C1200.82 51.2494 1200.83 51.2416 1200.83 51.2322C1200.83 51.194 1200.84 51.129 1200.88 51.2431C1200.9 51.2937 1200.92 51.3946 1200.95 51.4909C1200.99 51.6286 1201.02 51.757 1201.02 51.716C1201.02 51.6438 1201.04 51.7014 1201.06 51.7523C1201.08 51.8009 1201.09 51.8433 1201.09 51.7613C1201.08 51.6632 1201.09 51.7019 1201.11 51.7592C1201.12 51.7989 1201.13 51.8475 1201.14 51.866C1201.16 51.8873 1201.18 51.9541 1201.19 52.0109C1201.22 52.0909 1201.23 52.151 1201.22 52.0368C1201.21 51.9099 1201.21 51.8284 1201.23 51.8664C1201.24 51.8837 1201.24 51.8786 1201.24 51.8732C1201.25 51.866 1201.26 51.8586 1201.27 51.9025C1201.28 51.9387 1201.3 52.0326 1201.32 52.1158C1201.32 52.1417 1201.33 52.1665 1201.33 52.1883C1201.34 52.1864 1201.34 52.1839 1201.34 52.1805C1201.34 52.1651 1201.34 52.1481 1201.34 52.1306C1201.33 52.0426 1201.31 51.9347 1201.31 51.8804C1201.31 51.7944 1201.32 51.8461 1201.34 51.9009C1201.35 51.9436 1201.37 51.9882 1201.37 51.9706C1201.38 51.9586 1201.38 51.9189 1201.38 51.8796C1201.38 51.8213 1201.37 51.7639 1201.39 51.7985C1201.39 51.8115 1201.4 51.8706 1201.41 51.9295C1201.41 51.9298 1201.41 51.9302 1201.41 51.9306C1201.41 51.9346 1201.42 51.9385 1201.42 51.9424C1201.42 51.8948 1201.43 51.8425 1201.44 51.7875C1201.43 51.772 1201.43 51.7567 1201.43 51.7417C1201.43 51.6682 1201.42 51.5968 1201.41 51.4961C1201.4 51.387 1201.4 51.3223 1201.4 51.254C1201.4 51.2093 1201.4 51.1631 1201.4 51.1019C1201.39 51.0662 1201.41 51.1269 1201.42 51.1895C1201.43 51.248 1201.45 51.3079 1201.45 51.2924C1201.45 51.2845 1201.45 51.2588 1201.44 51.2314C1201.44 51.2072 1201.44 51.1815 1201.44 51.1657C1201.44 51.151 1201.45 51.1837 1201.46 51.2252C1201.47 51.2509 1201.48 51.2799 1201.49 51.3037C1201.49 51.2637 1201.5 51.2254 1201.5 51.1896C1201.49 51.1355 1201.49 51.0654 1201.47 50.9757C1201.46 50.9112 1201.45 50.8343 1201.44 50.7557C1201.42 50.6486 1201.41 50.538 1201.4 50.4497C1201.39 50.3807 1201.38 50.353 1201.39 50.3814C1201.39 50.3946 1201.4 50.4196 1201.4 50.4423C1201.41 50.4682 1201.41 50.4913 1201.41 50.4905C1201.41 50.4899 1201.41 50.4715 1201.4 50.4491C1201.4 50.4134 1201.39 50.3673 1201.39 50.3654C1201.4 50.3585 1201.41 50.3723 1201.42 50.3859C1201.42 50.401 1201.43 50.4156 1201.44 50.4011C1201.44 50.3848 1201.46 50.4519 1201.48 50.5188C1201.49 50.5655 1201.5 50.6119 1201.51 50.6306C1201.52 50.6488 1201.52 50.6102 1201.52 50.5726C1201.52 50.5274 1201.51 50.4837 1201.53 50.5429C1201.53 50.555 1201.54 50.6289 1201.56 50.7214C1201.57 50.787 1201.58 50.8619 1201.6 50.931C1201.6 50.93 1201.61 50.9322 1201.62 50.9368C1201.62 50.9268 1201.61 50.9165 1201.61 50.906C1201.61 50.9058 1201.61 50.9055 1201.61 50.9053C1201.58 50.6686 1201.54 50.3449 1201.58 50.5359C1201.59 50.5845 1201.6 50.6746 1201.62 50.7557C1201.63 50.8354 1201.64 50.9067 1201.65 50.9214C1201.65 50.9382 1201.65 50.8887 1201.64 50.835C1201.63 50.7595 1201.62 50.6752 1201.64 50.7525C1201.64 50.7578 1201.64 50.7636 1201.64 50.7694C1201.65 50.8243 1201.67 50.9057 1201.7 51.07C1201.72 51.112 1201.74 51.1616 1201.76 51.216C1201.8 51.3065 1201.84 51.4103 1201.87 51.514C1201.89 51.565 1201.94 51.7883 1202 52.1469C1202.06 52.5061 1202.14 52.9685 1202.21 53.4475C1202.29 53.9264 1202.36 54.3898 1202.41 54.7511C1202.46 55.112 1202.48 55.3382 1202.48 55.3924C1202.48 55.4797 1202.48 55.5672 1202.47 55.648C1202.47 55.6581 1202.47 55.6679 1202.47 55.677C1202.48 55.7451 1202.49 55.8807 1202.51 56.0166C1202.51 56.0478 1202.52 56.0791 1202.52 56.1095ZM117.301 2.33344C127.056 2.11379 145.616 2.23275 155.984 2.29831C156.169 2.29941 156.356 2.3005 156.542 2.3016C158.954 2.31707 161.268 2.32328 164.028 2.33036C170.357 2.34691 179.297 2.36984 197.363 2.54137C202.824 2.54301 207.785 2.54648 213.17 2.55347C270.312 2.6277 327.748 2.89461 384.749 3.1962C385.469 3.1959 386.202 3.19557 386.944 3.19525C401.344 3.18904 419.108 3.181 430.276 3.27922C444.415 3.40403 454.163 3.51562 462.04 3.61126C507.462 3.85118 552.889 4.06914 598.314 4.18638C612.543 4.22312 626.8 4.24981 641.015 4.26431C654.156 4.27772 667.226 4.28338 680.361 4.28226C687.994 4.23911 695.222 4.18595 701.982 4.13666C711.468 4.06738 719.801 4.00558 726.813 3.98924C743.593 3.94982 762.566 4.05221 776.685 4.12767C779.006 4.14001 781.192 4.15168 783.21 4.16186C794.392 4.13909 805.673 4.11378 816.83 4.08718C817.574 4.10702 818.323 4.12769 819.084 4.14887C828.651 4.41318 840.3 4.41819 858.97 4.42487C866.981 4.42768 876.419 4.43092 887.362 4.45519C894.344 4.47078 898.098 4.57461 901.081 4.65931C901.961 4.68422 902.785 4.7075 903.617 4.72639C906.47 4.79109 909.459 4.72386 912.955 4.64437C917.405 4.5412 923.216 4.41737 930.414 4.53369C953.627 4.90424 963.962 4.65843 971.624 4.47284C973.886 4.41835 975.788 4.36907 978.002 4.34169C985.075 4.253 994.459 4.34045 1002.02 4.45987C1007.8 4.55476 1019.67 4.45623 1028.26 4.33094C1031.72 4.28351 1036.32 4.27989 1041.51 4.27532C1047.06 4.27048 1053.31 4.26465 1060.28 4.2066C1077.32 4.06021 1086.91 3.98171 1094.01 3.91938C1096.19 3.90127 1098.17 3.8846 1100.11 3.86728C1106.03 3.81302 1114.08 3.7602 1121.67 3.70349C1131.1 3.63492 1140.37 3.5585 1147.6 3.46717C1166.22 3.48234 1184.66 3.24544 1203.29 2.88492C1212.8 2.71824 1222.03 2.38721 1228.8 2.80239C1235.56 3.1351 1239.35 3.62204 1239.36 4.114C1239.35 4.61011 1235.56 5.07659 1228.81 5.47501C1222.05 5.79083 1212.97 6.5619 1203.39 6.80915C1184.14 7.34136 1164.91 7.72484 1145.64 7.83399C1122.16 8.01049 1098.82 8.10314 1075.36 8.13401C1058.93 8.1547 1042.67 8.15519 1026.09 8.14173C1024.45 8.14031 1022.78 8.13863 1021.1 8.13693C1007.04 8.26426 993.571 8.37658 983.878 8.41624C975.7 8.44897 970.084 8.38349 965.037 8.32735C961.61 8.28872 958.344 8.25437 955.396 8.25919C953.775 8.26177 951.552 8.26884 948.839 8.27723C937.648 8.3116 918.731 8.36788 901.587 8.24115C893.813 8.18489 885.127 8.07667 876.563 7.97279C864.285 7.82426 853.214 7.68517 847.363 7.72196C837.504 7.78693 825.752 7.71848 815.748 7.65775C806.118 7.59978 797.495 7.54863 792.755 7.62723C787.029 7.72113 782.122 7.67714 774.769 7.61177C769.66 7.56641 763.557 7.51109 755.076 7.48362C745.259 7.45187 738.443 7.37691 732.567 7.31307C724.301 7.22321 718.079 7.15555 708.848 7.26106C698.563 7.37824 687.815 7.44863 679.361 7.40037C675.508 7.37838 671.084 7.37849 666.489 7.37859C660.435 7.37877 654.052 7.37874 648.215 7.32735C643.404 7.285 639.422 7.18503 635.916 7.09655C634.821 7.06895 633.769 7.04259 632.751 7.01932C628.927 7.0166 625.099 7.01444 621.27 7.01328C620.65 7.02807 619.998 7.04448 619.318 7.06141C615.902 7.14637 611.704 7.25055 606.512 7.29917C598.292 7.37608 591.081 7.31473 583.468 7.24958C577.54 7.19885 571.373 7.14588 564.311 7.15469C559.501 7.1607 554.001 7.19382 548.559 7.22658C540.472 7.27524 532.535 7.32306 526.964 7.28066C524.883 7.26477 523.095 7.20251 521.327 7.14058C521.32 7.1402 521.312 7.13983 521.304 7.13945C521.184 7.13525 521.063 7.13114 520.944 7.12696C507.463 7.15749 493.906 7.19241 480.465 7.22996C479.3 7.24408 478.125 7.25797 476.944 7.27161C471.189 7.3383 465.623 7.40307 462.003 7.50009C458.089 7.60527 448.196 7.65736 437.772 7.71215C430.962 7.74806 423.949 7.78511 418.151 7.83898C414.775 7.87047 411.583 7.80453 408.311 7.73655C405.247 7.67311 402.183 7.60808 398.698 7.61896C396.96 7.62443 395.087 7.64783 393.093 7.67287C391.337 7.69491 389.485 7.71828 387.551 7.73161C385.754 7.74394 381.754 7.70521 376.671 7.65591C373.527 7.62544 369.839 7.59085 366.055 7.56144C356.057 7.58767 346.048 7.61223 336.048 7.63411C333.969 7.68591 332.173 7.75427 330.754 7.84314C329.736 7.90691 328.871 7.98357 327.984 8.06194C326.792 8.16861 325.475 8.27873 323.716 8.36564C322.337 8.43354 320.716 8.45924 319.63 8.42895C319.124 8.41482 318.736 8.38891 318.384 8.36548C317.981 8.33864 317.621 8.31477 317.183 8.31488C316.866 8.31501 316.537 8.33324 316.133 8.3553C315.487 8.39053 314.648 8.43599 313.375 8.43603C308.636 8.43617 303.328 8.41453 297.947 8.39296C292.014 8.36905 286.308 8.34589 281.812 8.35402C276.589 8.3629 269.207 8.28419 262.013 8.2059C256.968 8.15124 251.66 8.09648 247.322 8.07122C243.046 8.04643 238.658 8.07904 234.218 8.11066C228.946 8.14869 223.995 8.18559 219.844 8.11949C218.959 8.10602 217.862 8.02954 216.497 7.93387C215.529 7.86607 214.419 7.78854 213.163 7.71677C207.653 7.70962 202.577 7.69995 196.983 7.68697C196.79 7.69691 196.591 7.70701 196.392 7.71734C196.389 7.71758 196.386 7.71782 196.383 7.71806C191.922 7.95108 185.781 8.26978 177.322 8.06392C175.22 8.01165 173.742 7.91823 172.515 7.83429C171.294 7.75182 170.208 7.67804 168.634 7.66079C166.843 7.64123 164.784 7.68821 162.408 7.73913C159.078 7.81063 155.65 7.89091 151.879 7.80713C151.627 7.80142 151.356 7.79516 151.074 7.78887C148.379 7.72926 144.62 7.64138 140.626 7.46915C129.208 7.40974 117.474 7.3423 105.996 7.27041C86.7115 7.15037 67.5262 7.01715 48.2367 6.8839C38.941 6.81858 29.848 6.57935 23.3092 6.2068C16.6345 5.83356 12.9285 5.3602 12.9671 4.87552C12.9302 4.39078 16.6374 3.92716 23.3126 3.57113C29.8524 3.21539 38.9455 2.99969 48.2418 2.95842C63.4905 2.89224 78.8824 2.82616 94.0625 2.76656C94.8517 2.75752 95.6515 2.74882 96.4551 2.74073C102.528 2.68069 107.908 2.55124 113.467 2.42185C114.748 2.39213 116.068 2.3624 117.301 2.33344ZM9.46812 9.07411C9.16659 9.43131 8.41642 9.62989 8.00992 9.75548C8.00249 9.75783 7.99506 9.76019 7.98764 9.76255C7.8912 9.79187 7.8036 9.82788 7.70191 9.87092C7.4611 9.97501 7.12843 10.1089 6.43153 10.328C6.26015 10.4311 6.10245 10.5274 5.90941 10.6497C7.22952 9.06676 5.9517 11.1801 6.00374 12.1707C5.85315 13.3633 5.7404 14.6397 5.63069 15.9253C5.63205 15.9577 5.63347 15.9908 5.63491 16.0243C5.66256 16.6718 5.70313 17.4837 5.6263 17.9878C5.52877 18.6422 5.43689 19.0812 5.35714 19.4438C5.20949 21.5288 5.08484 23.6236 5.03275 25.7143C5.01723 26.3608 5.01794 26.9992 5.03455 27.6459C5.04983 28.2399 5.07599 28.8377 5.11039 29.4339C5.17288 29.7797 5.24487 30.1077 5.31193 30.4144C5.40602 30.8412 5.49033 31.2267 5.52519 31.5421C5.60938 32.3065 5.55748 33.182 5.51794 33.8329C5.51151 33.9397 5.50532 34.0388 5.50022 34.1319C5.5512 34.647 5.60373 35.1608 5.65603 35.675C5.63791 35.71 5.61898 35.7454 5.59956 35.7815C5.35712 36.2318 5.37861 36.7723 5.40783 37.6247C5.42046 37.9952 5.43436 38.4256 5.42787 38.9342C5.4236 39.2596 5.32518 39.4328 5.24482 39.5702C5.22118 39.6108 5.19908 39.649 5.18137 39.6877C5.12071 39.8197 5.19208 39.9586 5.27612 40.1196C5.38515 40.3282 5.516 40.5844 5.40739 40.921C5.05965 42.0044 5.31343 42.4437 5.52151 42.7398C5.58197 42.8286 5.63698 42.9037 5.67148 42.989C5.7822 43.2602 5.73919 43.6539 5.6678 43.9659C5.60859 44.2115 5.79397 44.6606 6.00097 44.9559C6.07885 45.0691 6.12696 45.2331 6.192 45.4249C6.25856 45.6213 6.34385 45.8477 6.49216 46.0594C6.86855 46.5896 7.10309 46.8298 7.28949 47.0305C7.34292 47.0866 7.39392 47.1394 7.44553 47.1905C7.60913 47.3532 7.80675 47.5595 8.02356 47.7671C8.28088 48.0142 8.57579 48.2743 8.80586 48.4342C9.07249 48.8052 9.47797 49.2624 10.05 49.7363C10.3429 49.9804 10.5801 50.3777 10.706 50.8604C10.8302 51.3427 10.8239 51.8675 10.6062 52.3114C10.3909 52.7555 9.96914 53.0838 9.43636 53.2122C8.90534 53.3414 8.32047 53.256 7.86587 52.9981C6.95003 52.4782 6.2025 51.9418 5.57531 51.3602C4.72689 50.5662 3.85776 49.5738 3.24326 48.3989C2.81154 47.581 2.49534 46.704 2.2911 45.8286C2.27027 45.7395 2.25043 45.6496 2.23136 45.5588C1.93869 44.856 1.72801 44.1376 1.63827 43.627C1.56455 43.2135 1.61054 42.8796 1.65435 42.6199C1.6845 42.4377 1.71371 42.2835 1.70519 42.1319C1.70054 42.0504 1.69171 41.9369 1.68122 41.8144C1.63837 41.3061 1.56278 40.4572 1.66452 39.6697C1.70982 39.3222 1.80414 38.9147 1.89332 38.5267C2.0209 37.9717 2.13776 37.4513 2.08937 37.1939C2.00425 36.7372 2.04764 36.214 2.08506 35.7476C2.12086 35.3047 2.15126 34.9149 2.06098 34.6981C1.95309 34.4403 1.98478 34.2135 2.03147 33.8772C2.06384 33.6439 2.10317 33.3569 2.1085 32.9713C2.11448 32.5223 2.17106 32.2048 2.21921 31.9341C2.28691 31.5512 2.33793 31.2663 2.20786 30.8446C2.06346 30.3791 1.96487 29.8858 1.99157 29.4951C2.0037 29.3164 1.9925 29.1142 1.98108 28.9024C1.96599 28.6235 1.95075 28.3287 1.98873 28.0568C2.02006 27.834 2.11122 27.6472 2.19215 27.483C2.2174 27.4317 2.24153 27.3832 2.26265 27.3352C2.2573 27.157 2.25178 26.9824 2.24552 26.8035C2.22953 26.775 2.21188 26.745 2.19366 26.7137C2.10225 26.5572 1.99033 26.3621 1.93307 26.1222C1.84237 25.74 1.89427 25.4084 1.94739 25.0611C1.98892 24.7923 2.03188 24.5067 2.01113 24.1858C1.997 23.968 1.95429 23.7157 1.91178 23.4684C1.84869 23.1031 1.78593 22.7357 1.81777 22.4835C1.8297 22.3885 1.88856 22.3081 1.94706 22.2248C1.94741 22.2244 1.94777 22.224 1.94813 22.2237C1.95211 22.2181 1.95598 22.2124 1.95993 22.2068C1.90331 21.5856 1.84134 20.9771 1.77639 20.3538C1.75991 20.3004 1.74364 20.2465 1.72761 20.1933C1.64932 19.9347 1.57321 19.6776 1.46889 19.5133C1.35585 19.3367 1.28363 18.8795 1.20851 18.4055C1.15917 18.0868 1.10884 17.7703 1.04424 17.5002C1.00652 17.3443 1.06669 17.1963 1.12892 17.0456C1.18694 16.9024 1.24661 16.7536 1.22997 16.5951C1.22162 16.5155 1.19516 16.4303 1.16696 16.3397C1.1421 16.2573 1.11583 16.1706 1.09956 16.0803C1.08449 15.9951 1.11718 15.8147 1.1596 15.5714C1.18582 15.4214 1.21573 15.2529 1.24081 15.0787C1.20317 14.6048 1.17021 14.1398 1.14546 13.6616C1.09311 13.5603 1.02451 13.4726 0.935564 13.4024C0.871746 13.352 0.795101 13.3086 0.716799 13.264C0.610226 13.204 0.500335 13.1357 0.413911 13.0477C0.346385 12.9785 0.321302 12.8988 0.352073 12.8473C0.36642 12.8234 0.392502 12.8056 0.416095 12.7895C0.443121 12.771 0.467166 12.7546 0.467297 12.7335C0.467346 12.7183 0.44932 12.7018 0.427527 12.6815C0.392697 12.6499 0.34794 12.6041 0.348992 12.5403C0.352927 12.3024 0.381269 12.0367 0.413239 11.7689C0.448191 11.4785 0.487902 11.1823 0.498128 10.9339C0.509416 10.6577 0.619214 10.2866 0.756931 9.86663C0.850693 9.58802 0.957307 9.29139 1.04808 9.00779C1.13445 8.74166 1.18371 8.4273 1.28928 8.06042C1.40328 7.65792 1.63658 7.04945 2.22496 6.51877C2.33306 6.42448 2.50766 6.36296 2.71861 6.3212C2.85592 6.29921 3.06594 6.2559 3.13238 6.29682C3.37348 6.14314 3.65135 5.98079 3.92044 5.83615C3.92469 5.82208 3.92899 5.80778 3.93325 5.79327C3.93328 5.79297 3.93331 5.79267 3.93334 5.79238C4.02671 5.46645 4.1748 5.01383 4.67311 4.98382C4.79891 4.97669 4.90466 5.02709 4.99888 5.07299C5.09103 5.1183 5.17286 5.15931 5.25371 5.13789C5.34578 5.1134 5.42348 5.02233 5.50981 4.92345C5.63121 4.78451 5.7682 4.63062 5.97017 4.62904C5.98395 4.62894 5.99881 4.62894 6.01419 4.62874C6.16018 4.62675 6.37511 4.62571 6.61881 4.70623C7.16892 4.52842 7.71777 4.37673 8.26462 4.24396C9.17583 4.02296 10.083 3.85366 10.9768 3.71626C11.4117 3.64999 11.8727 3.76507 12.2505 4.04598C12.6291 4.32722 12.8952 4.74645 13.0069 5.21801C13.1192 5.68963 13.0727 6.18138 12.8905 6.60278C12.7077 7.02382 12.4005 7.33886 12.033 7.49698C11.4326 7.75395 10.8329 8.02733 10.2408 8.31014C10.2116 8.33059 10.1823 8.35076 10.153 8.37037C9.9346 8.51632 9.75829 8.72313 9.5865 8.93112C9.54706 8.97889 9.50767 9.02687 9.46812 9.07411ZM1248.59 7.14668C1249.15 8.19385 1249.18 9.79078 1249.17 10.6124C1249.17 10.6272 1249.17 10.6421 1249.16 10.657C1249.16 10.8481 1249.17 11.0422 1249.17 11.2506C1249.18 11.7582 1249.19 12.4455 1249.05 13.8228C1249.05 14.2261 1249.05 14.6264 1249.05 15.0204C1248.98 19.3145 1248.77 23.4235 1248.4 27.7378C1248.4 27.7914 1248.4 27.846 1248.4 27.9013C1248.39 28.971 1248.37 30.2864 1248.25 31.1064C1248.1 32.1488 1247.97 32.8559 1247.87 33.4342C1247.47 36.8031 1247.7 39.8998 1246.91 43.7415C1246.64 44.9028 1246.18 46.0687 1245.56 47.1176C1244.98 48.0862 1244.27 48.9369 1243.57 49.6913C1243.14 50.2147 1242.7 50.6608 1242.27 51.0469C1241.67 51.5884 1241.1 52.0127 1240.6 52.3114C1239.4 53.0376 1237.91 53.5169 1236.79 53.7678C1236.6 53.8104 1236.42 53.849 1236.26 53.8817C1235.44 54.1382 1234.41 54.3325 1233.54 54.4407C1233.48 54.4269 1233.42 54.4118 1233.36 54.3962C1232.58 54.2012 1231.68 54.2454 1230.3 54.2793C1229.7 54.2943 1229.01 54.3075 1228.2 54.3023C1227.68 54.2991 1227.41 54.2018 1227.19 54.1226C1227.12 54.0993 1227.06 54.0775 1227 54.0602C1226.79 54.0008 1226.57 54.0736 1226.31 54.1601C1225.98 54.2723 1225.57 54.4076 1225.02 54.308C1223.28 53.9686 1222.54 54.2075 1221.96 54.3991C1221.79 54.4546 1221.64 54.5049 1221.49 54.5332C1220.98 54.6249 1220.26 54.5411 1219.72 54.4236C1219.29 54.3304 1218.43 54.4313 1217.77 54.5571C1217.53 54.6046 1217.19 54.6083 1216.8 54.6125C1216.4 54.6169 1215.92 54.6219 1215.42 54.6777C1214.15 54.8187 1213.47 54.8891 1212.93 54.9454C1212.77 54.9615 1212.63 54.9762 1212.49 54.9915C1212.04 55.0397 1211.47 55.0822 1210.9 55.1259C1210.21 55.178 1209.52 55.2322 1208.99 55.2995C1207.63 55.2621 1206.26 55.2134 1204.91 55.1865C1204.23 55.1726 1203.54 54.9841 1203.14 54.6606C1202.68 54.3538 1202.28 53.9379 1202.21 53.4475C1202.14 52.9595 1202.32 52.4445 1202.81 52.009C1203.37 51.5794 1204.05 51.3311 1204.77 51.2638C1206.22 51.1327 1207.63 51.027 1209.06 50.9396C1210.8 50.8343 1212.54 50.7613 1214.27 50.7441C1215.48 50.7322 1216.7 50.7339 1217.91 50.7462C1218.03 50.7475 1218.16 50.749 1218.29 50.7505C1219.3 50.6216 1220.32 50.5047 1221.03 50.4611C1221.63 50.4251 1222.05 50.4878 1222.42 50.5414C1222.68 50.5783 1222.89 50.611 1223.12 50.6045C1223.24 50.601 1223.41 50.5926 1223.61 50.5826C1224.42 50.5494 1225.8 50.4465 1227.08 50.5423C1227.65 50.5843 1228.31 50.6775 1228.94 50.7663C1229.83 50.8935 1230.66 51.008 1231.07 50.9548C1231.79 50.8624 1232.61 50.8877 1233.3 50.8767C1233.96 50.8686 1234.52 50.8185 1234.78 50.679C1235.12 50.5092 1235.47 50.46 1235.94 50.3828C1236.28 50.3253 1236.69 50.2467 1237.23 50.0604C1237.85 49.8444 1238.29 49.707 1238.67 49.5807C1239.2 49.4011 1239.6 49.242 1240.04 48.8059C1240.54 48.3192 1240.98 47.831 1241.36 47.4901C1241.56 47.3093 1241.76 47.0848 1241.95 46.8508C1242.21 46.54 1242.45 46.2139 1242.69 45.9343C1242.89 45.7042 1243.1 45.5393 1243.28 45.3828C1243.34 45.3343 1243.39 45.2856 1243.44 45.2379C1243.55 45.018 1243.65 44.7933 1243.74 44.5642C1243.74 44.5214 1243.74 44.4757 1243.74 44.4287C1243.73 44.1934 1243.72 43.9077 1243.76 43.5775C1243.81 43.0549 1243.95 42.6152 1244.07 42.1253C1244.17 41.7448 1244.25 41.3377 1244.25 40.8653C1244.25 40.5424 1244.21 40.1281 1244.18 39.7263C1244.13 39.1236 1244.09 38.5295 1244.13 38.1183C1244.15 37.9651 1244.21 37.8332 1244.28 37.7032C1244.28 37.7026 1244.28 37.702 1244.28 37.7015C1244.28 37.6926 1244.29 37.6838 1244.29 37.675C1244.27 36.672 1244.24 35.669 1244.22 34.6671C1244.21 34.5801 1244.2 34.4928 1244.19 34.4047C1244.13 33.977 1244.07 33.5644 1243.98 33.2913C1243.88 32.9957 1243.84 32.2625 1243.81 31.4901C1243.78 30.9844 1243.76 30.4643 1243.71 30.0364C1243.69 29.7885 1243.76 29.5545 1243.83 29.3161C1243.9 29.092 1243.97 28.8641 1243.96 28.6108C1243.96 28.4845 1243.94 28.3467 1243.92 28.2C1243.9 28.0711 1243.88 27.9353 1243.86 27.7926C1243.85 27.6605 1243.9 27.3685 1243.95 26.9953C1243.99 26.7639 1244.02 26.5014 1244.06 26.2274C1244.04 25.4952 1244.01 24.7821 1243.99 24.0484C1243.93 23.8922 1243.86 23.757 1243.77 23.6499C1243.71 23.573 1243.63 23.5074 1243.55 23.4401C1243.45 23.3483 1243.34 23.2549 1243.25 23.1225C1243.18 23.0196 1243.15 22.899 1243.18 22.8189C1243.2 22.7815 1243.22 22.753 1243.25 22.7272C1243.27 22.6976 1243.3 22.6713 1243.3 22.6387C1243.3 22.6153 1243.28 22.5907 1243.26 22.5604C1243.22 22.5121 1243.17 22.4496 1243.17 22.3547C1243.17 21.9961 1243.19 21.5997 1243.21 21.2037C1243.24 20.7681 1243.26 20.3397 1243.25 20.0028C1243.24 19.6226 1243.32 19.0819 1243.4 18.5432C1243.46 18.1719 1243.51 17.7912 1243.54 17.4695C1243.56 17.1502 1243.53 16.8254 1243.5 16.5044C1243.46 16.1252 1243.42 15.7532 1243.49 15.4493C1243.5 15.3858 1243.57 15.3078 1243.67 15.2107C1243.74 15.1419 1243.81 15.063 1243.88 14.9736C1243.89 14.5825 1243.89 14.1872 1243.9 13.7945C1243.89 13.7808 1243.88 13.7667 1243.87 13.7525C1243.87 13.7523 1243.87 13.7521 1243.87 13.7519C1243.63 13.4382 1243.3 12.9916 1243.49 12.394C1243.53 12.2366 1243.62 12.1387 1243.7 12.0505C1243.78 11.9634 1243.85 11.8897 1243.86 11.7747C1243.88 11.6457 1243.82 11.5001 1243.76 11.3443C1243.68 11.1165 1243.58 10.8792 1243.64 10.6285C1243.65 10.6116 1243.65 10.5935 1243.66 10.5747C1243.7 10.3992 1243.76 10.1353 1243.91 9.86302C1243.91 9.1674 1243.67 8.20732 1243.79 8.35524C1244.35 8.73737 1242.15 7.25759 1241.15 6.81792C1240.57 6.52816 1240.05 6.10408 1239.72 5.60817C1239.38 5.11208 1239.26 4.58484 1239.41 4.12194C1239.55 3.65967 1239.96 3.29348 1240.56 3.10924C1241.15 2.92531 1241.89 2.94545 1242.6 3.17024C1243.76 3.53991 1244.91 3.96504 1246.09 4.57803C1246.16 4.60602 1246.22 4.6355 1246.29 4.66401C1246.59 4.58845 1248.19 6.27699 1248.36 6.72971C1248.45 6.88388 1248.52 7.00589 1248.59 7.14668ZM1100.81 56.2581C1091.38 56.5026 1073.21 56.4313 1063.21 56.3922C1063.03 56.3916 1062.85 56.391 1062.66 56.3904C1060.3 56.3811 1058.03 56.3808 1055.42 56.3807C1049.12 56.3806 1040.57 56.3804 1023.1 56.2549C1018 56.267 1012.6 56.277 1007.62 56.2834C952.084 56.3552 896.378 56.2329 840.935 56.0691C840.234 56.0711 839.521 56.0732 838.801 56.0754C824.808 56.1164 807.582 56.1667 796.69 56.0949C782.962 56.0035 773.469 55.9146 765.825 55.8372C721.688 55.7026 677.549 55.5857 633.416 55.5632C619.579 55.5561 605.739 55.5585 591.916 55.5723C579.222 55.585 566.437 55.6048 553.706 55.6307C546.262 55.6883 539.215 55.7549 532.707 55.8165C523.504 55.9031 515.286 55.9799 508.568 56.0084C492.266 56.0773 473.771 56.0065 460.084 55.9531C457.853 55.9444 455.752 55.9361 453.814 55.9291C442.775 55.9693 432.13 56.011 421.076 56.0534C420.345 56.0346 419.609 56.0149 418.863 55.9948C409.602 55.7437 398.017 55.7548 380.221 55.7698C372.207 55.7765 363.417 55.7835 352.557 55.77C345.606 55.7613 342.116 55.6607 339.257 55.5786C338.418 55.5544 337.632 55.5318 336.838 55.5136C334.124 55.4513 331.076 55.5211 327.627 55.6032C323.082 55.7099 318.016 55.8378 310.747 55.7259C288.091 55.3689 278.41 55.6149 270.679 55.8014C268.435 55.8561 266.423 55.9054 264.383 55.9328C257.895 56.0214 248.158 55.9318 241.215 55.8089C235.507 55.7115 224.281 55.8024 215.525 55.9181C212.266 55.9619 208.009 55.9603 202.702 55.9573C197.35 55.9543 191.104 55.9498 184.523 55.9939C167.659 56.1049 158.998 56.1521 151.662 56.1888C149.602 56.1992 147.901 56.2089 145.873 56.2183C139.688 56.2484 132.563 56.2672 124.819 56.2798C115.92 56.2962 106.555 56.3035 99.699 56.3267C81.5583 56.2168 63.5786 55.7958 45.468 55.271C36.1368 54.9835 27.3501 54.3102 20.7753 53.9941C14.2178 53.6051 10.5311 53.1366 10.5299 52.6409C10.5316 52.1485 14.2149 51.6636 20.7861 51.3214C27.3512 50.9062 36.3298 51.1406 45.5756 51.3469C64.2387 51.7338 82.9707 51.9927 101.595 51.978C124.316 52.0084 147.167 51.9985 169.955 52.0317C185.806 52.0539 202.057 52.0796 217.691 52.1095C219.346 52.1126 221.021 52.1159 222.713 52.1191C235.828 52.004 249.402 51.8963 258.839 51.8578C266.397 51.826 272.443 51.8908 277.142 51.9461C280.416 51.9841 283.356 52.0176 286.363 52.0119C287.978 52.0088 290.196 52.001 292.903 51.9915C303.545 51.953 321.944 51.8856 338.771 51.9971C346.041 52.0468 355.007 52.1465 363.047 52.2415C374.75 52.3772 385.843 52.5028 391.337 52.4589C401.119 52.3816 412.216 52.4347 422.134 52.4813C431.688 52.5256 439.722 52.5642 444.455 52.4783C450.076 52.3757 454.872 52.4122 461.92 52.466C466.811 52.5034 472.924 52.5488 481.118 52.5622C490.529 52.5778 497.26 52.641 502.994 52.6946C511.01 52.7701 516.986 52.8269 526.019 52.7046C536.066 52.5688 546.401 52.4785 554.675 52.5107C558.451 52.5254 562.689 52.5169 567.146 52.5079C573.038 52.4961 579.262 52.4836 584.939 52.5235C589.595 52.5564 593.451 52.6484 596.865 52.7299C597.93 52.7553 598.953 52.7795 599.943 52.8008C603.664 52.7958 607.389 52.7902 611.116 52.7836C611.718 52.7675 612.349 52.7498 613.009 52.7315C616.32 52.6396 620.393 52.5268 625.44 52.4674C633.429 52.3735 640.445 52.4197 647.836 52.4688C653.593 52.507 659.582 52.5468 666.45 52.5228C671.135 52.5065 676.469 52.4614 681.753 52.4168C689.596 52.3505 697.353 52.2852 702.744 52.3152C704.763 52.3265 706.498 52.3848 708.214 52.4428C708.221 52.4431 708.229 52.4435 708.236 52.4439C708.353 52.4478 708.47 52.4516 708.586 52.4556C721.672 52.395 734.842 52.3294 747.922 52.261C749.063 52.2442 750.216 52.2276 751.358 52.2113C756.936 52.1314 762.337 52.0537 765.852 51.9483C769.643 51.8341 779.293 51.759 789.399 51.6797C796.003 51.6278 802.854 51.5741 808.47 51.5064C811.746 51.4669 814.846 51.5253 818.026 51.5854C821.003 51.6415 823.985 51.6992 827.375 51.68C829.061 51.6703 830.88 51.6424 832.816 51.6126C834.521 51.5863 836.32 51.5585 838.2 51.5405C839.946 51.5238 843.834 51.5529 848.783 51.5898C851.813 51.6127 855.405 51.6383 859.084 51.6585C868.827 51.6078 878.486 51.5588 888.249 51.5122C890.276 51.4552 892.028 51.3824 893.413 51.29C894.407 51.2237 895.251 51.1449 896.118 51.0644C897.297 50.9547 898.515 50.8414 900.19 50.7502C901.521 50.6789 903.11 50.6491 904.168 50.6767C904.661 50.6896 905.04 50.7145 905.383 50.7371C905.777 50.7629 906.128 50.7859 906.556 50.7847C906.865 50.7838 907.186 50.7647 907.581 50.7416C908.211 50.7048 909.03 50.6573 910.274 50.654C914.912 50.6421 920.078 50.6504 925.209 50.6587C931.008 50.6677 936.602 50.6764 941.02 50.6569C945.915 50.6351 953.154 50.6952 960.251 50.7551C965.209 50.7969 970.061 50.8386 974.427 50.8527C978.656 50.8665 983.007 50.8226 987.168 50.7799C992.086 50.7287 997.167 50.6788 1001.28 50.7342C1002.12 50.7455 1003.15 50.8192 1004.45 50.9114C1005.37 50.9768 1006.42 51.0515 1007.61 51.1201C1012.71 51.1135 1018.24 51.1094 1023.45 51.1084C1023.64 51.098 1023.83 51.0874 1024.02 51.0765C1024.02 51.0763 1024.02 51.076 1024.02 51.0758C1028.28 50.8314 1034.27 50.497 1042.59 50.6811C1044.69 50.7279 1046 50.8177 1047.17 50.8985C1048.33 50.9779 1049.31 51.049 1050.87 51.0622C1052.63 51.0771 1054.71 51.0248 1056.94 50.9679C1060.09 50.8879 1063.6 50.7987 1067.18 50.8729C1067.42 50.878 1067.68 50.8835 1067.96 50.8891C1070.52 50.9419 1074.35 51.0199 1078.09 51.1821C1089.3 51.2121 1100.55 51.2498 1111.77 51.2922C1130.48 51.3629 1149.19 51.447 1167.89 51.5311C1176.99 51.5726 1185.69 51.7888 1192.15 52.1445C1198.58 52.5008 1202.2 52.9648 1202.19 53.4496C1202.2 53.9342 1198.59 54.4072 1192.15 54.7802C1185.69 55.1527 1176.99 55.3914 1167.89 55.4565C1153.04 55.5617 1138.21 55.667 1123.38 55.7655C1122.6 55.7766 1121.82 55.7873 1121.03 55.7975C1115.27 55.8729 1109.88 56.0163 1104.51 56.1599C1103.25 56.1929 1102.05 56.2259 1100.81 56.2581Z" fill="#753E1A"/>
</svg>
