<svg width="400" height="316" viewBox="0 0 400 316" fill="none" xmlns="http://www.w3.org/2000/svg">
<mask id="mask0_135_74" style="mask-type:alpha" maskUnits="userSpaceOnUse" x="0" y="0" width="400" height="316">
<rect width="400" height="316" fill="#9DDDF9"/>
</mask>
<g mask="url(#mask0_135_74)">
<rect x="-25" y="-50" width="450" height="400" fill="#9DDDF9"/>
<path d="M425 280.997C235 252 153 250.5 -27 280.997V350H425V280.997Z" fill="#9BD565"/>
<path d="M242.5 328C239.302 324.388 237.61 323.659 235 328C231.961 324.128 230.188 324.967 227 329M-27 280.997C153 250.5 235 252 425 280.997V350H-27V280.997Z" stroke="#0F683A"/>
<path d="M288.23 307.251C285.67 303.162 284.121 302.165 280.832 306.016C278.472 301.697 276.585 302.233 272.777 305.685" stroke="#0F683A"/>
<path d="M191.704 274.366C188.566 270.702 186.887 269.945 184.205 274.241C181.231 270.32 179.444 271.129 176.19 275.108" stroke="#0F683A"/>
<path d="M316.978 302.5L314.582 304.5C312.567 300.285 311.041 300.651 308.082 303L305.115 299C303.36 304.451 303.839 307.133 307.082 308.843C307.529 309.079 308.029 309.296 308.584 309.5C308.753 309.524 308.919 309.546 309.082 309.564C314.159 310.143 315.99 307.905 316.978 302.5Z" fill="#FA2247"/>
<path d="M308.584 298L306.584 295C305.991 296.479 305.499 297.806 305.115 299L308.082 303C311.041 300.651 312.567 300.285 314.582 304.5L316.978 302.5C317.218 301.188 317.408 299.69 317.584 298L313.582 299L312.082 295.5L308.584 298Z" fill="#FE7482"/>
<path d="M308.584 309.5C308.029 309.296 307.529 309.079 307.082 308.843V313.736C307.219 314.055 307.356 314.398 307.495 314.766C307.712 314.594 307.922 314.43 308.126 314.275L309.082 313V309.564C308.919 309.546 308.753 309.524 308.584 309.5Z" fill="#278E70"/>
<path d="M307.582 315C312.403 316.254 313.951 315.836 314.582 313.5C312.339 311.642 310.766 312.261 308.126 314.275L307.582 315Z" fill="#57A749"/>
<path d="M307.473 314.783L307.082 314V313.736C305.706 310.528 304.384 309.734 302.082 310C301.71 313.035 302.455 314.326 307.582 315L307.473 314.783Z" fill="#51A749"/>
<path d="M316.978 302.5C317.218 301.188 317.408 299.69 317.584 298L313.582 299L312.082 295.5L308.584 298L306.584 295C305.991 296.479 305.499 297.806 305.115 299M316.978 302.5L314.582 304.5C312.567 300.285 311.041 300.651 308.082 303L305.115 299M316.978 302.5C315.99 307.905 314.159 310.143 309.082 309.564M305.115 299C303.36 304.451 303.839 307.133 307.082 308.843M307.082 308.843C307.529 309.079 308.029 309.296 308.584 309.5C308.753 309.524 308.919 309.546 309.082 309.564M307.082 308.843V313.736M307.582 315C312.403 316.254 313.951 315.836 314.582 313.5C312.339 311.642 310.766 312.261 308.126 314.275M307.582 315L307.473 314.783M307.582 315C302.455 314.326 301.71 313.035 302.082 310C304.384 309.734 305.706 310.528 307.082 313.736M307.582 315L308.126 314.275M307.582 315C307.553 314.921 307.524 314.843 307.495 314.766M309.082 309.564V313L308.126 314.275M307.473 314.783L307.082 314V313.736M307.473 314.783C307.48 314.777 307.487 314.771 307.495 314.766M307.082 313.736C307.219 314.055 307.356 314.398 307.495 314.766M307.495 314.766C307.712 314.594 307.922 314.43 308.126 314.275" stroke="#463131"/>
<path d="M131.606 253.5L134.002 255.5C136.017 251.285 137.543 251.651 140.502 254L143.469 250C145.224 255.451 144.745 258.133 141.502 259.843C141.055 260.079 140.555 260.296 140 260.5C139.831 260.524 139.665 260.546 139.502 260.564C134.425 261.143 132.594 258.905 131.606 253.5Z" fill="#FA2247"/>
<path d="M140 249L142 246C142.593 247.479 143.085 248.806 143.469 250L140.502 254C137.543 251.651 136.017 251.285 134.002 255.5L131.606 253.5C131.366 252.188 131.176 250.69 131 249L135.002 250L136.502 246.5L140 249Z" fill="#FE7482"/>
<path d="M140 260.5C140.555 260.296 141.055 260.079 141.502 259.843V264.736C141.365 265.055 141.228 265.398 141.089 265.766C140.872 265.594 140.662 265.43 140.458 265.275L139.502 264V260.564C139.665 260.546 139.831 260.524 140 260.5Z" fill="#278E70"/>
<path d="M141.002 266C136.181 267.254 134.633 266.836 134.002 264.5C136.245 262.642 137.818 263.261 140.458 265.275L141.002 266Z" fill="#57A749"/>
<path d="M141.111 265.783L141.502 265V264.736C142.878 261.528 144.2 260.734 146.502 261C146.874 264.035 146.129 265.326 141.002 266L141.111 265.783Z" fill="#51A749"/>
<path d="M131.606 253.5C131.366 252.188 131.176 250.69 131 249L135.002 250L136.502 246.5L140 249L142 246C142.593 247.479 143.085 248.806 143.469 250M131.606 253.5L134.002 255.5C136.017 251.285 137.543 251.651 140.502 254L143.469 250M131.606 253.5C132.594 258.905 134.425 261.143 139.502 260.564M143.469 250C145.224 255.451 144.745 258.133 141.502 259.843M141.502 259.843C141.055 260.079 140.555 260.296 140 260.5C139.831 260.524 139.665 260.546 139.502 260.564M141.502 259.843V264.736M141.002 266C136.181 267.254 134.633 266.836 134.002 264.5C136.245 262.642 137.818 263.261 140.458 265.275M141.002 266L141.111 265.783M141.002 266C146.129 265.326 146.874 264.035 146.502 261C144.2 260.734 142.878 261.528 141.502 264.736M141.002 266L140.458 265.275M141.002 266C141.031 265.921 141.06 265.843 141.089 265.766M139.502 260.564V264L140.458 265.275M141.111 265.783L141.502 265V264.736M141.111 265.783C141.104 265.777 141.097 265.771 141.089 265.766M141.502 264.736C141.365 265.055 141.228 265.398 141.089 265.766M141.089 265.766C140.872 265.594 140.662 265.43 140.458 265.275" stroke="#463131"/>
<path d="M364.366 300.418L362.537 302.947C359.545 299.36 358.156 300.091 355.868 303.098L352.006 299.954C351.651 305.669 352.776 308.15 356.341 309.007C356.833 309.125 357.371 309.212 357.959 309.273C358.129 309.255 358.295 309.234 358.457 309.212C363.52 308.52 364.742 305.899 364.366 300.418Z" fill="#FA2247"/>
<path d="M355.12 298.129L352.442 295.715C352.232 297.294 352.083 298.702 352.006 299.954L355.868 303.098C358.156 300.091 359.545 299.36 362.537 302.947L364.366 300.418C364.275 299.087 364.089 297.588 363.842 295.907L360.211 297.864L357.893 294.843L355.12 298.129Z" fill="#FE7482"/>
<path d="M357.959 309.273C357.371 309.212 356.833 309.125 356.341 309.007L357.549 313.749C357.76 314.024 357.977 314.322 358.203 314.644C358.371 314.425 358.534 314.214 358.693 314.013L359.305 312.542L358.457 309.212C358.295 309.234 358.129 309.255 357.959 309.273Z" fill="#278E70"/>
<path d="M358.345 314.85C363.326 314.876 364.723 314.088 364.758 311.669C362.127 310.422 360.755 311.41 358.693 314.013L358.345 314.85Z" fill="#57A749"/>
<path d="M358.186 314.666L357.614 314.004L357.549 313.749C355.424 310.979 353.947 310.536 351.781 311.362C352.17 314.395 353.21 315.462 358.345 314.85L358.186 314.666Z" fill="#51A749"/>
<path d="M364.366 300.418C364.275 299.087 364.089 297.588 363.842 295.907L360.211 297.864L357.893 294.843L355.12 298.129L352.442 295.715C352.232 297.294 352.083 298.702 352.006 299.954M364.366 300.418L362.537 302.947C359.545 299.36 358.156 300.091 355.868 303.098L352.006 299.954M364.366 300.418C364.742 305.899 363.52 308.52 358.457 309.212M352.006 299.954C351.651 305.669 352.776 308.15 356.341 309.007M356.341 309.007C356.833 309.125 357.371 309.212 357.959 309.273C358.129 309.255 358.295 309.234 358.457 309.212M356.341 309.007L357.549 313.749M358.345 314.85C363.326 314.876 364.723 314.088 364.758 311.669C362.127 310.422 360.755 311.41 358.693 314.013M358.345 314.85L358.186 314.666M358.345 314.85C353.21 315.462 352.17 314.395 351.781 311.362C353.947 310.536 355.424 310.979 357.549 313.749M358.345 314.85L358.693 314.013M358.345 314.85C358.297 314.78 358.25 314.712 358.203 314.644M358.457 309.212L359.305 312.542L358.693 314.013M358.186 314.666L357.614 314.004L357.549 313.749M358.186 314.666C358.192 314.659 358.197 314.652 358.203 314.644M357.549 313.749C357.76 314.024 357.977 314.322 358.203 314.644M358.203 314.644C358.371 314.425 358.534 314.214 358.693 314.013" stroke="#463131"/>
<path d="M256.712 269.154L255.272 271.923C251.788 268.811 250.52 269.736 248.696 273.045L244.416 270.498C244.899 276.203 246.374 278.494 250.026 278.822C250.53 278.867 251.075 278.875 251.665 278.849C251.83 278.806 251.992 278.762 252.149 278.716C257.057 277.293 257.883 274.522 256.712 269.154Z" fill="#FA2247"/>
<path d="M247.231 268.238L244.229 266.241C244.252 267.834 244.31 269.248 244.416 270.498L248.696 273.045C250.52 269.736 251.788 268.811 255.272 271.923L256.712 269.154C256.427 267.851 256.025 266.395 255.536 264.768L252.229 267.234L249.495 264.582L247.231 268.238Z" fill="#FE7482"/>
<path d="M251.665 278.849C251.075 278.875 250.53 278.867 250.026 278.822L251.912 283.337C252.161 283.578 252.42 283.842 252.69 284.127C252.824 283.885 252.955 283.653 253.083 283.431L253.474 281.886L252.149 278.716C251.992 278.762 251.83 278.806 251.665 278.849Z" fill="#278E70"/>
<path d="M252.861 284.31C257.792 283.609 259.059 282.626 258.741 280.227C255.956 279.378 254.743 280.555 253.083 283.431L252.861 284.31Z" fill="#57A749"/>
<path d="M252.677 284.151L252.014 283.58L251.912 283.337C249.406 280.907 247.88 280.684 245.858 281.817C246.685 284.76 247.87 285.664 252.861 284.31L252.677 284.151Z" fill="#51A749"/>
<path d="M256.712 269.154C256.427 267.851 256.025 266.395 255.536 264.768L252.229 267.234L249.495 264.582L247.231 268.238L244.229 266.241C244.252 267.834 244.31 269.248 244.416 270.498M256.712 269.154L255.272 271.923C251.788 268.811 250.52 269.736 248.696 273.045L244.416 270.498M256.712 269.154C257.883 274.522 257.057 277.293 252.149 278.716M244.416 270.498C244.899 276.203 246.374 278.494 250.026 278.822M250.026 278.822C250.53 278.867 251.075 278.875 251.665 278.849C251.83 278.806 251.992 278.762 252.149 278.716M250.026 278.822L251.912 283.337M252.861 284.31C257.792 283.609 259.059 282.626 258.741 280.227C255.956 279.378 254.743 280.555 253.083 283.431M252.861 284.31L252.677 284.151M252.861 284.31C247.87 285.664 246.685 284.76 245.858 281.817C247.88 280.684 249.406 280.907 251.912 283.337M252.861 284.31L253.083 283.431M252.861 284.31C252.803 284.248 252.746 284.187 252.69 284.127M252.149 278.716L253.474 281.886L253.083 283.431M252.677 284.151L252.014 283.58L251.912 283.337M252.677 284.151C252.681 284.143 252.685 284.135 252.69 284.127M251.912 283.337C252.161 283.578 252.42 283.842 252.69 284.127M252.69 284.127C252.824 283.885 252.955 283.653 253.083 283.431" stroke="#463131"/>
<path d="M108.606 302.5L111.002 304.5C113.017 300.285 114.543 300.651 117.502 303L120.469 299C122.224 304.451 121.745 307.133 118.502 308.843C118.055 309.079 117.555 309.296 117 309.5C116.831 309.524 116.665 309.546 116.502 309.564C111.425 310.143 109.594 307.905 108.606 302.5Z" fill="#FA2247"/>
<path d="M117 298L119 295C119.593 296.479 120.085 297.806 120.469 299L117.502 303C114.543 300.651 113.017 300.285 111.002 304.5L108.606 302.5C108.366 301.188 108.176 299.69 108 298L112.002 299L113.502 295.5L117 298Z" fill="#FE7482"/>
<path d="M117 309.5C117.555 309.296 118.055 309.079 118.502 308.843V313.736C118.365 314.055 118.228 314.398 118.089 314.766C117.872 314.594 117.662 314.43 117.458 314.275L116.502 313V309.564C116.665 309.546 116.831 309.524 117 309.5Z" fill="#278E70"/>
<path d="M118.002 315C113.181 316.254 111.633 315.836 111.002 313.5C113.245 311.642 114.818 312.261 117.458 314.275L118.002 315Z" fill="#57A749"/>
<path d="M118.111 314.783L118.502 314V313.736C119.878 310.528 121.2 309.734 123.502 310C123.874 313.035 123.129 314.326 118.002 315L118.111 314.783Z" fill="#51A749"/>
<path d="M108.606 302.5C108.366 301.188 108.176 299.69 108 298L112.002 299L113.502 295.5L117 298L119 295C119.593 296.479 120.085 297.806 120.469 299M108.606 302.5L111.002 304.5C113.017 300.285 114.543 300.651 117.502 303L120.469 299M108.606 302.5C109.594 307.905 111.425 310.143 116.502 309.564M120.469 299C122.224 304.451 121.745 307.133 118.502 308.843M118.502 308.843C118.055 309.079 117.555 309.296 117 309.5C116.831 309.524 116.665 309.546 116.502 309.564M118.502 308.843V313.736M118.002 315C113.181 316.254 111.633 315.836 111.002 313.5C113.245 311.642 114.818 312.261 117.458 314.275M118.002 315L118.111 314.783M118.002 315C123.129 314.326 123.874 313.035 123.502 310C121.2 309.734 119.878 310.528 118.502 313.736M118.002 315L117.458 314.275M118.002 315C118.031 314.921 118.06 314.843 118.089 314.766M116.502 309.564V313L117.458 314.275M118.111 314.783L118.502 314V313.736M118.111 314.783C118.104 314.777 118.097 314.771 118.089 314.766M118.502 313.736C118.365 314.055 118.228 314.398 118.089 314.766M118.089 314.766C117.872 314.594 117.662 314.43 117.458 314.275" stroke="#463131"/>
<path d="M48.6058 266.5L51.0021 268.5C53.0169 264.285 54.5434 264.651 57.5021 267L60.4693 263C62.2235 268.451 61.745 271.133 58.5021 272.843C58.0547 273.079 57.5545 273.296 57.0004 273.5C56.8309 273.524 56.6649 273.546 56.5021 273.564C51.4249 274.143 49.5944 271.905 48.6058 266.5Z" fill="#FA2247"/>
<path d="M57.0004 262L59.0004 259C59.5935 260.479 60.085 261.806 60.4693 263L57.5021 267C54.5434 264.651 53.0169 264.285 51.0021 268.5L48.6058 266.5C48.3659 265.188 48.1755 263.69 48.0004 262L52.0021 263L53.5021 259.5L57.0004 262Z" fill="#FE7482"/>
<path d="M57.0004 273.5C57.5545 273.296 58.0547 273.079 58.5021 272.843V277.736C58.3654 278.055 58.2282 278.398 58.0895 278.766C57.8722 278.594 57.6621 278.43 57.4584 278.275L56.5021 277V273.564C56.6649 273.546 56.8309 273.524 57.0004 273.5Z" fill="#278E70"/>
<path d="M58.0021 279C53.1814 280.254 51.6331 279.836 51.0021 277.5C53.2445 275.642 54.8183 276.261 57.4584 278.275L58.0021 279Z" fill="#57A749"/>
<path d="M58.1108 278.783L58.5021 278V277.736C59.8776 274.528 61.1999 273.734 63.5021 274C63.8741 277.035 63.1294 278.326 58.0021 279L58.1108 278.783Z" fill="#51A749"/>
<path d="M48.6058 266.5C48.3659 265.188 48.1755 263.69 48.0004 262L52.0021 263L53.5021 259.5L57.0004 262L59.0004 259C59.5935 260.479 60.085 261.806 60.4693 263M48.6058 266.5L51.0021 268.5C53.0169 264.285 54.5434 264.651 57.5021 267L60.4693 263M48.6058 266.5C49.5944 271.905 51.4249 274.143 56.5021 273.564M60.4693 263C62.2235 268.451 61.745 271.133 58.5021 272.843M58.5021 272.843C58.0547 273.079 57.5545 273.296 57.0004 273.5C56.8309 273.524 56.6649 273.546 56.5021 273.564M58.5021 272.843V277.736M58.0021 279C53.1814 280.254 51.6331 279.836 51.0021 277.5C53.2445 275.642 54.8183 276.261 57.4584 278.275M58.0021 279L58.1108 278.783M58.0021 279C63.1294 278.326 63.8741 277.035 63.5021 274C61.1999 273.734 59.8776 274.528 58.5021 277.736M58.0021 279L57.4584 278.275M58.0021 279C58.0313 278.921 58.0604 278.843 58.0895 278.766M56.5021 273.564V277L57.4584 278.275M58.1108 278.783L58.5021 278V277.736M58.1108 278.783C58.1037 278.777 58.0966 278.771 58.0895 278.766M58.5021 277.736C58.3654 278.055 58.2282 278.398 58.0895 278.766M58.0895 278.766C57.8722 278.594 57.6621 278.43 57.4584 278.275" stroke="#463131"/>
<path d="M17.1578 323.14L18.5485 325.843C20.9727 321.105 22.052 321.746 23.7947 324.941L26.8952 320.587C27.0648 327.307 26.1312 330.432 23.3092 332.026C22.9197 332.246 22.4944 332.436 22.031 332.603C21.8973 332.609 21.7669 332.612 21.6396 332.612C17.6678 332.612 16.7568 329.701 17.1578 323.14Z" fill="#FA2247"/>
<path d="M24.4786 318.927L26.6331 315.631C26.7679 317.47 26.858 319.115 26.8952 320.587L23.7947 324.941C22.052 321.746 20.9727 321.105 18.5485 325.843L17.1578 323.14C17.2551 321.547 17.4297 319.74 17.6566 317.706L20.4771 319.438L22.359 315.479L24.4786 318.927Z" fill="#FE7482"/>
<path d="M22.031 332.603C22.4944 332.436 22.9197 332.246 23.3092 332.026L22.2677 337.845C22.0962 338.206 21.9193 338.595 21.7358 339.013C21.6076 338.78 21.4832 338.557 21.3619 338.344L20.9084 336.698L21.6396 332.612C21.7669 332.612 21.8973 332.609 22.031 332.603Z" fill="#278E70"/>
<path d="M21.6197 339.28C17.6987 340.118 16.6142 339.41 16.633 336.547C18.7281 334.641 19.7893 335.591 21.3619 338.344L21.6197 339.28Z" fill="#57A749"/>
<path d="M21.7484 339.036L22.2116 338.159L22.2677 337.845C23.9931 334.216 25.1644 333.452 26.8529 334.08C26.489 337.739 25.6497 339.174 21.6197 339.28L21.7484 339.036Z" fill="#51A749"/>
<path d="M17.1578 323.14C17.2551 321.547 17.4297 319.74 17.6566 317.706L20.4771 319.438L22.359 315.479L24.4786 318.927L26.6331 315.631C26.7679 317.47 26.858 319.115 26.8952 320.587M17.1578 323.14L18.5485 325.843C20.9727 321.105 22.052 321.746 23.7947 324.941L26.8952 320.587M17.1578 323.14C16.7568 329.701 17.6678 332.612 21.6396 332.612M26.8952 320.587C27.0648 327.307 26.1312 330.432 23.3092 332.026M23.3092 332.026C22.9197 332.246 22.4944 332.436 22.031 332.603C21.8973 332.609 21.7669 332.612 21.6396 332.612M23.3092 332.026L22.2677 337.845M21.6197 339.28C17.6987 340.118 16.6142 339.41 16.633 336.547C18.7281 334.641 19.7893 335.591 21.3619 338.344M21.6197 339.28L21.7484 339.036M21.6197 339.28C25.6497 339.174 26.489 337.739 26.8529 334.08C25.1644 333.452 23.9931 334.216 22.2677 337.845M21.6197 339.28L21.3619 338.344M21.6197 339.28C21.6587 339.19 21.6974 339.101 21.7358 339.013M21.6396 332.612L20.9084 336.698L21.3619 338.344M21.7484 339.036L22.2116 338.159L22.2677 337.845M21.7484 339.036C21.7442 339.029 21.74 339.021 21.7358 339.013M22.2677 337.845C22.0962 338.206 21.9193 338.595 21.7358 339.013M21.7358 339.013C21.6076 338.78 21.4832 338.557 21.3619 338.344" stroke="#463131"/>
<path d="M300.497 281.501L298.412 283.823C295.814 279.94 294.356 280.52 291.764 283.269L288.255 279.735C287.299 285.38 288.156 287.966 291.61 289.195C292.087 289.364 292.613 289.508 293.191 289.63C293.362 289.63 293.529 289.628 293.693 289.623C298.801 289.469 300.292 286.991 300.497 281.501Z" fill="#FA2247"/>
<path d="M291.545 278.249L289.136 275.566C288.761 277.114 288.464 278.498 288.255 279.735L291.764 283.269C294.356 280.52 295.814 279.94 298.412 283.823L300.497 281.501C300.547 280.168 300.521 278.658 300.452 276.961L296.635 278.523L294.649 275.274L291.545 278.249Z" fill="#FE7482"/>
<path d="M293.191 289.63C292.613 289.508 292.087 289.364 291.61 289.195L292.311 294.038C292.492 294.334 292.676 294.653 292.866 294.998C293.057 294.797 293.241 294.605 293.421 294.422L294.185 293.023L293.693 289.623C293.529 289.628 293.362 289.63 293.191 289.63Z" fill="#278E70"/>
<path d="M292.986 295.217C297.937 295.769 299.409 295.132 299.7 292.731C297.214 291.213 295.745 292.051 293.421 294.422L292.986 295.217Z" fill="#57A749"/>
<path d="M292.848 295.017L292.348 294.299L292.311 294.038C290.49 291.06 289.068 290.463 286.827 291.056C286.893 294.112 287.815 295.283 292.986 295.217L292.848 295.017Z" fill="#51A749"/>
<path d="M300.497 281.501C300.547 280.168 300.521 278.658 300.452 276.961L296.635 278.523L294.649 275.274L291.545 278.249L289.136 275.566C288.761 277.114 288.464 278.498 288.255 279.735M300.497 281.501L298.412 283.823C295.814 279.94 294.356 280.52 291.764 283.269L288.255 279.735M300.497 281.501C300.292 286.991 298.801 289.469 293.693 289.623M288.255 279.735C287.299 285.38 288.156 287.966 291.61 289.195M291.61 289.195C292.087 289.364 292.613 289.508 293.191 289.63C293.362 289.63 293.529 289.628 293.693 289.623M291.61 289.195L292.311 294.038M292.986 295.217C297.937 295.769 299.409 295.132 299.7 292.731C297.214 291.213 295.745 292.051 293.421 294.422M292.986 295.217L292.848 295.017M292.986 295.217C287.815 295.283 286.893 294.112 286.827 291.056C289.068 290.463 290.49 291.06 292.311 294.038M292.986 295.217L293.421 294.422M292.986 295.217C292.946 295.143 292.906 295.07 292.866 294.998M293.693 289.623L294.185 293.023L293.421 294.422M292.848 295.017L292.348 294.299L292.311 294.038M292.848 295.017C292.854 295.011 292.86 295.004 292.866 294.998M292.311 294.038C292.492 294.334 292.676 294.653 292.866 294.998M292.866 294.998C293.057 294.797 293.241 294.605 293.421 294.422" stroke="#463131"/>
<path fill-rule="evenodd" clip-rule="evenodd" d="M-93.7533 -30.7267C-93.7533 -30.7267 -78.8795 -57.5426 -44.3955 -56.0511C-32.1302 -55.5244 -20.6989 -44.1359 -20.6989 -44.1359C-20.6989 -44.1359 38.1702 -101.318 101.954 -94.4231C140.471 -90.2574 132.428 -59.7786 132.428 -59.7786C132.428 -59.7786 149.213 -70.0085 165.055 -69.4411C189.472 -68.5696 184.558 -46.573 184.558 -46.573C184.558 -46.573 232.898 -53.6403 226.399 -29.4603C219.19 -2.63484 186.297 -8.08372 186.297 -8.08372C186.297 -8.08372 177.97 7.05871 164.061 8.00197C145.842 9.23012 142.714 -2.84551 142.714 -2.84551C142.714 -2.84551 119.745 16.9055 96.6179 18.6627C59.3206 21.4949 50.7887 5.56003 50.7887 5.56003C50.7887 5.56003 38.5709 18.9692 1.32103 15.8138C-13.4786 14.5593 -27.8479 -0.678891 -27.8479 -0.678891C-27.8479 -0.678891 -41.5495 14.4109 -71.1755 12.1724C-95.2549 10.3458 -97.2343 -7.83952 -97.2343 -7.83952C-97.2343 -7.83952 -141.022 -0.721982 -133.024 -19.647C-123.804 -41.4689 -93.7533 -30.7267 -93.7533 -30.7267Z" fill="white"/>
<path d="M324.897 280.51L322.812 282.832C320.215 278.949 318.756 279.529 316.164 282.278L312.655 278.744C311.699 284.389 312.556 286.975 316.011 288.204C316.487 288.373 317.013 288.517 317.591 288.639C317.762 288.639 317.93 288.636 318.093 288.631C323.201 288.478 324.692 286 324.897 280.51Z" fill="#FA2247"/>
<path d="M315.945 277.257L313.536 274.574C313.161 276.123 312.865 277.507 312.655 278.744L316.164 282.278C318.756 279.529 320.215 278.949 322.812 282.832L324.897 280.51C324.947 279.177 324.921 277.667 324.853 275.969L321.035 277.532L319.05 274.282L315.945 277.257Z" fill="#FE7482"/>
<path d="M317.591 288.639C317.013 288.517 316.487 288.373 316.011 288.204L316.711 293.047C316.892 293.343 317.077 293.662 317.267 294.006C317.457 293.806 317.642 293.613 317.821 293.43L318.585 292.032L318.093 288.631C317.93 288.636 317.762 288.639 317.591 288.639Z" fill="#278E70"/>
<path d="M317.387 294.226C322.337 294.777 323.81 294.141 324.1 291.739C321.615 290.222 320.146 291.059 317.821 293.43L317.387 294.226Z" fill="#57A749"/>
<path d="M317.248 294.026L316.749 293.308L316.711 293.047C314.891 290.068 313.468 289.472 311.228 290.064C311.294 293.121 312.216 294.292 317.387 294.226L317.248 294.026Z" fill="#51A749"/>
<path d="M324.897 280.51C324.947 279.177 324.921 277.667 324.853 275.969L321.035 277.532L319.05 274.282L315.945 277.257L313.536 274.574C313.161 276.123 312.865 277.507 312.655 278.744M324.897 280.51L322.812 282.832C320.215 278.949 318.756 279.529 316.164 282.278L312.655 278.744M324.897 280.51C324.692 286 323.201 288.478 318.093 288.631M312.655 278.744C311.699 284.389 312.556 286.975 316.011 288.204M316.011 288.204C316.487 288.373 317.013 288.517 317.591 288.639C317.762 288.639 317.93 288.636 318.093 288.631M316.011 288.204L316.711 293.047M317.387 294.226C322.337 294.777 323.81 294.141 324.1 291.739C321.615 290.222 320.146 291.059 317.821 293.43M317.387 294.226L317.248 294.026M317.387 294.226C312.216 294.292 311.294 293.121 311.228 290.064C313.468 289.472 314.891 290.068 316.711 293.047M317.387 294.226L317.821 293.43M317.387 294.226C317.346 294.152 317.306 294.078 317.267 294.006M318.093 288.631L318.585 292.032L317.821 293.43M317.248 294.026L316.749 293.308L316.711 293.047M317.248 294.026C317.254 294.02 317.26 294.013 317.267 294.006M316.711 293.047C316.892 293.343 317.077 293.662 317.267 294.006M317.267 294.006C317.457 293.806 317.642 293.613 317.821 293.43" stroke="#463131"/>
<path d="M70.6058 280.5L73.0021 282.5C75.0169 278.285 76.5434 278.651 79.5021 281L82.4693 277C84.2235 282.451 83.745 285.133 80.5021 286.843C80.0547 287.079 79.5545 287.296 79.0004 287.5C78.8309 287.524 78.6649 287.546 78.5021 287.564C73.4249 288.143 71.5944 285.905 70.6058 280.5Z" fill="#FA2247"/>
<path d="M79.0004 276L81.0004 273C81.5935 274.479 82.085 275.806 82.4693 277L79.5021 281C76.5434 278.651 75.0169 278.285 73.0021 282.5L70.6058 280.5C70.3659 279.188 70.1755 277.69 70.0004 276L74.0021 277L75.5021 273.5L79.0004 276Z" fill="#FE7482"/>
<path d="M79.0004 287.5C79.5545 287.296 80.0547 287.079 80.5021 286.843V291.736C80.3654 292.055 80.2282 292.398 80.0895 292.766C79.8722 292.594 79.6621 292.43 79.4584 292.275L78.5021 291V287.564C78.6649 287.546 78.8309 287.524 79.0004 287.5Z" fill="#278E70"/>
<path d="M80.0021 293C75.1814 294.254 73.6331 293.836 73.0021 291.5C75.2445 289.642 76.8183 290.261 79.4584 292.275L80.0021 293Z" fill="#57A749"/>
<path d="M80.1108 292.783L80.5021 292V291.736C81.8776 288.528 83.1999 287.734 85.5021 288C85.8741 291.035 85.1294 292.326 80.0021 293L80.1108 292.783Z" fill="#51A749"/>
<path d="M70.6058 280.5C70.3659 279.188 70.1755 277.69 70.0004 276L74.0021 277L75.5021 273.5L79.0004 276L81.0004 273C81.5935 274.479 82.085 275.806 82.4693 277M70.6058 280.5L73.0021 282.5C75.0169 278.285 76.5434 278.651 79.5021 281L82.4693 277M70.6058 280.5C71.5944 285.905 73.4249 288.143 78.5021 287.564M82.4693 277C84.2235 282.451 83.745 285.133 80.5021 286.843M80.5021 286.843C80.0547 287.079 79.5545 287.296 79.0004 287.5C78.8309 287.524 78.6649 287.546 78.5021 287.564M80.5021 286.843V291.736M80.0021 293C75.1814 294.254 73.6331 293.836 73.0021 291.5C75.2445 289.642 76.8183 290.261 79.4584 292.275M80.0021 293L80.1108 292.783M80.0021 293C85.1294 292.326 85.8741 291.035 85.5021 288C83.1999 287.734 81.8776 288.528 80.5021 291.736M80.0021 293L79.4584 292.275M80.0021 293C80.0313 292.921 80.0604 292.843 80.0895 292.766M78.5021 287.564V291L79.4584 292.275M80.1108 292.783L80.5021 292V291.736M80.1108 292.783C80.1037 292.777 80.0966 292.771 80.0895 292.766M80.5021 291.736C80.3654 292.055 80.2282 292.398 80.0895 292.766M80.0895 292.766C79.8722 292.594 79.6621 292.43 79.4584 292.275" stroke="#463131"/>
<path d="M54.6058 296.5L57.0021 298.5C59.0169 294.285 60.5434 294.651 63.5021 297L66.4693 293C68.2235 298.451 67.745 301.133 64.5021 302.843C64.0547 303.079 63.5545 303.296 63.0004 303.5C62.8309 303.524 62.6649 303.546 62.5021 303.564C57.4249 304.143 55.5944 301.905 54.6058 296.5Z" fill="#FA2247"/>
<path d="M63.0004 292L65.0004 289C65.5935 290.479 66.085 291.806 66.4693 293L63.5021 297C60.5434 294.651 59.0169 294.285 57.0021 298.5L54.6058 296.5C54.3659 295.188 54.1755 293.69 54.0004 292L58.0021 293L59.5021 289.5L63.0004 292Z" fill="#FE7482"/>
<path d="M63.0004 303.5C63.5545 303.296 64.0547 303.079 64.5021 302.843V307.736C64.3654 308.055 64.2282 308.398 64.0895 308.766C63.8722 308.594 63.6621 308.43 63.4584 308.275L62.5021 307V303.564C62.6649 303.546 62.8309 303.524 63.0004 303.5Z" fill="#278E70"/>
<path d="M64.0021 309C59.1814 310.254 57.6331 309.836 57.0021 307.5C59.2445 305.642 60.8183 306.261 63.4584 308.275L64.0021 309Z" fill="#57A749"/>
<path d="M64.1108 308.783L64.5021 308V307.736C65.8776 304.528 67.1999 303.734 69.5021 304C69.8741 307.035 69.1294 308.326 64.0021 309L64.1108 308.783Z" fill="#51A749"/>
<path d="M54.6058 296.5C54.3659 295.188 54.1755 293.69 54.0004 292L58.0021 293L59.5021 289.5L63.0004 292L65.0004 289C65.5935 290.479 66.085 291.806 66.4693 293M54.6058 296.5L57.0021 298.5C59.0169 294.285 60.5434 294.651 63.5021 297L66.4693 293M54.6058 296.5C55.5944 301.905 57.4249 304.143 62.5021 303.564M66.4693 293C68.2235 298.451 67.745 301.133 64.5021 302.843M64.5021 302.843C64.0547 303.079 63.5545 303.296 63.0004 303.5C62.8309 303.524 62.6649 303.546 62.5021 303.564M64.5021 302.843V307.736M64.0021 309C59.1814 310.254 57.6331 309.836 57.0021 307.5C59.2445 305.642 60.8183 306.261 63.4584 308.275M64.0021 309L64.1108 308.783M64.0021 309C69.1294 308.326 69.8741 307.035 69.5021 304C67.1999 303.734 65.8776 304.528 64.5021 307.736M64.0021 309L63.4584 308.275M64.0021 309C64.0313 308.921 64.0604 308.843 64.0895 308.766M62.5021 303.564V307L63.4584 308.275M64.1108 308.783L64.5021 308V307.736M64.1108 308.783C64.1037 308.777 64.0966 308.771 64.0895 308.766M64.5021 307.736C64.3654 308.055 64.2282 308.398 64.0895 308.766M64.0895 308.766C63.8722 308.594 63.6621 308.43 63.4584 308.275" stroke="#463131"/>
<path d="M115.482 288.45C112.442 284.704 110.783 283.903 107.989 288.127C105.119 284.128 103.312 284.89 99.9532 288.781" stroke="#0F683A"/>
<path d="M341.342 279.471C338.721 275.421 337.158 274.446 333.927 278.347C331.502 274.063 329.623 274.627 325.867 278.137" stroke="#0F683A"/>
<path d="M-51.0005 296.304L44.8153 277.491C43.7922 259.676 38.1346 259.739 28.1554 259.849L27.933 259.851C19.3716 248.11 14.2308 246.387 5.09294 252.61C-4.08328 242.445 -9.48394 240.198 -20.204 248.79C-32.6501 238.179 -38.1361 240.463 -46.7475 250.696L-51.0005 296.304Z" fill="#53B731"/>
<path d="M-51.0005 296.304L44.8153 277.491C43.7922 259.676 38.1346 259.739 28.1554 259.849L27.933 259.851C19.3716 248.11 14.2308 246.387 5.09294 252.61C-4.08328 242.445 -9.48394 240.198 -20.204 248.79C-32.6501 238.179 -38.1361 240.463 -46.7475 250.696L-51.0005 296.304Z" fill="#53B731"/>
<path d="M-51.0005 296.304L44.8153 277.491C43.7922 259.676 38.1346 259.739 28.1554 259.849L27.933 259.851C19.3716 248.11 14.2308 246.387 5.09294 252.61C-4.08328 242.445 -9.48394 240.198 -20.204 248.79C-32.6501 238.179 -38.1361 240.463 -46.7475 250.696L-51.0005 296.304Z" fill="#53B731"/>
<path d="M44.8153 277.491L-51.0005 296.304L-46.7475 250.696C-38.1361 240.463 -32.6501 238.179 -20.204 248.79C-9.48394 240.198 -4.08328 242.445 5.09294 252.61C14.2308 246.387 19.3716 248.11 27.933 259.851M44.8153 277.491C43.7846 259.544 38.0505 259.741 27.933 259.851M44.8153 277.491C43.7922 259.676 38.1346 259.739 28.1554 259.849L27.933 259.851" stroke="#0F683A"/>
<path d="M359.931 277.14L433.999 284L427.77 250.773C420.552 243.875 416.231 242.594 407.468 251.303C398.755 245.765 394.798 247.811 388.49 255.953C381.136 252.042 377.341 253.683 371.605 262.94L371.436 262.955C363.843 263.6 359.539 263.966 359.931 277.14Z" fill="#53B731"/>
<path d="M359.931 277.14L433.999 284L427.77 250.773C420.552 243.875 416.231 242.594 407.468 251.303C398.755 245.765 394.798 247.811 388.49 255.953C381.136 252.042 377.341 253.683 371.605 262.94M359.931 277.14C359.536 263.869 363.907 263.595 371.605 262.94M359.931 277.14C359.539 263.966 363.843 263.6 371.436 262.955L371.605 262.94" stroke="#0F683A"/>
<path d="M301.627 148.265C311.124 162.151 317.464 163.56 330.716 153.17C338.85 160.082 343.563 160.927 352.499 153.294C357.007 144.25 353.84 140.041 345.797 132.896C346.16 124.831 343.938 122.041 338.675 118.004C330.375 114.701 326.691 115.149 321.329 118.628C313.256 111.994 309.541 112.107 303.336 114.073C298.723 116.048 296.922 118.463 294.521 124.249C282.101 127.34 277.811 136.135 281.903 144.939C285.996 153.742 294.721 152.922 301.627 148.265Z" fill="white"/>
<path d="M49.2229 99.6916C58.7202 113.578 65.0601 114.987 78.3122 104.597C86.4458 111.508 91.1586 112.354 100.095 104.721C104.603 95.6766 101.436 91.4676 93.3935 84.3225C93.7565 76.2579 91.534 73.4674 86.2706 69.4308C77.971 66.1279 74.2875 66.5758 68.9253 70.0552C60.852 63.4205 57.1372 63.5335 50.9322 65.4999C46.3186 67.4753 44.5184 69.8895 42.1174 75.6758C29.6974 78.7671 25.4068 87.5621 29.4994 96.3656C33.5921 105.169 42.3167 104.349 49.2229 99.6916Z" fill="white"/>
<path d="M301.627 148.265C311.124 162.151 317.464 163.56 330.716 153.17C338.85 160.082 343.563 160.927 352.499 153.294C357.007 144.25 353.84 140.041 345.797 132.896C346.16 124.831 343.938 122.041 338.675 118.004C330.375 114.701 326.691 115.149 321.329 118.628C313.256 111.994 309.541 112.107 303.336 114.073C298.723 116.048 296.922 118.463 294.521 124.249C282.101 127.34 277.811 136.135 281.903 144.939C285.996 153.742 294.721 152.922 301.627 148.265Z" stroke="white"/>
<path d="M49.2229 99.6916C58.7202 113.578 65.0601 114.987 78.3122 104.597C86.4458 111.508 91.1586 112.354 100.095 104.721C104.603 95.6766 101.436 91.4676 93.3935 84.3225C93.7565 76.2579 91.534 73.4674 86.2706 69.4308C77.971 66.1279 74.2875 66.5758 68.9253 70.0552C60.852 63.4205 57.1372 63.5335 50.9322 65.4999C46.3186 67.4753 44.5184 69.8895 42.1174 75.6758C29.6974 78.7671 25.4068 87.5621 29.4994 96.3656C33.5921 105.169 42.3167 104.349 49.2229 99.6916Z" stroke="white"/>
<path d="M108.398 170.764C82.0128 183.933 67.1671 184.699 40.8307 172.69C19.988 178.883 9.02365 179.247 -8.51511 170.509C-15.5353 160.799 -6.88549 156.838 13.8342 150.396C15.8519 142.126 21.8648 139.512 35.1989 135.949C55.1468 133.457 63.3263 134.305 74.2379 138.424C94.8466 132.507 103.215 133.016 116.567 135.68C126.313 138.185 129.538 140.841 132.935 147.001C159.958 151.473 166.573 160.905 154.21 169.458C141.847 178.011 122.389 176.249 108.398 170.764Z" fill="white" stroke="white"/>
<path d="M204.869 83.804C219.56 99.3726 228.967 101.527 247.948 92.0537C260.276 100.167 267.258 101.556 280.026 94.5113C286.202 85.5142 281.324 80.7645 269.118 72.4165C269.241 64.0031 265.826 60.841 257.871 56.0479C245.483 51.6993 240.082 51.7751 232.365 54.8487C220.14 47.0324 214.676 46.7539 205.641 48.1517C198.949 49.729 196.421 52.0669 193.182 57.8746C175.053 59.7872 169.185 68.5464 175.66 78.2104C182.134 87.8744 194.938 87.9467 204.869 83.804Z" fill="white" stroke="white"/>
<path d="M340.359 17.5042C365.917 39.2209 380.432 40.2155 406.453 19.3882C426.728 29.4308 437.452 29.8228 454.796 14.7021C461.864 -1.84722 453.478 -8.36467 433.329 -18.829C431.522 -32.7632 425.69 -37.0567 412.711 -42.8066C393.237 -46.6135 385.214 -45.0158 374.45 -37.8332C354.399 -47.414 346.198 -46.3845 333.075 -41.6113C323.484 -37.1806 320.274 -32.6288 316.825 -22.1498C290.285 -14.0467 283.619 2.02544 295.546 16.2269C307.472 30.4283 326.553 27.0566 340.359 17.5042Z" fill="white" stroke="white"/>
</g>
</svg>
