<svg width="450" height="400" viewBox="0 0 450 400" fill="none" xmlns="http://www.w3.org/2000/svg">
<mask id="mask0_135_74" style="mask-type:alpha" maskUnits="userSpaceOnUse" x="0" y="0" width="450" height="400">
<rect width="450" height="400" fill="#9DDDF9"/>
</mask>
<g mask="url(#mask0_135_74)">
<rect width="450" height="400" fill="#9DDDF9"/>
<path d="M267.5 378C264.302 374.388 262.61 373.66 260 378C256.961 374.128 255.188 374.968 252 379" stroke="#0F683A"/>
<path d="M450 330.997C260 302 178 300.5 -2 330.997V400H450V330.997Z" fill="#9BD565"/>
<path d="M267.5 378C264.302 374.388 262.61 373.659 260 378C256.961 374.128 255.188 374.967 252 379M-2 330.997C178 300.5 260 302 450 330.997V400H-2V330.997Z" stroke="#0F683A"/>
<path d="M313.23 357.251C310.67 353.162 309.121 352.165 305.832 356.016C303.472 351.697 301.585 352.233 297.777 355.685" stroke="#0F683A"/>
<path d="M216.704 324.366C213.566 320.702 211.887 319.945 209.205 324.241C206.231 320.32 204.444 321.129 201.19 325.108" stroke="#0F683A"/>
<path d="M341.978 352.5L339.582 354.5C337.567 350.285 336.041 350.651 333.082 353L330.115 349C328.36 354.451 328.839 357.133 332.082 358.843C332.529 359.079 333.029 359.296 333.584 359.5C333.753 359.524 333.919 359.546 334.082 359.564C339.159 360.143 340.99 357.905 341.978 352.5Z" fill="#FA2247"/>
<path d="M333.584 348L331.584 345C330.991 346.479 330.499 347.806 330.115 349L333.082 353C336.041 350.651 337.567 350.285 339.582 354.5L341.978 352.5C342.218 351.188 342.408 349.69 342.584 348L338.582 349L337.082 345.5L333.584 348Z" fill="#FE7482"/>
<path d="M333.584 359.5C333.029 359.296 332.529 359.079 332.082 358.843V363.736C332.219 364.055 332.356 364.398 332.495 364.766C332.712 364.594 332.922 364.43 333.126 364.275L334.082 363V359.564C333.919 359.546 333.753 359.524 333.584 359.5Z" fill="#278E70"/>
<path d="M332.582 365C337.403 366.254 338.951 365.836 339.582 363.5C337.339 361.642 335.766 362.261 333.126 364.275L332.582 365Z" fill="#57A749"/>
<path d="M332.473 364.783L332.082 364V363.736C330.706 360.528 329.384 359.734 327.082 360C326.71 363.035 327.455 364.326 332.582 365L332.473 364.783Z" fill="#51A749"/>
<path d="M341.978 352.5C342.218 351.188 342.408 349.69 342.584 348L338.582 349L337.082 345.5L333.584 348L331.584 345C330.991 346.479 330.499 347.806 330.115 349M341.978 352.5L339.582 354.5C337.567 350.285 336.041 350.651 333.082 353L330.115 349M341.978 352.5C340.99 357.905 339.159 360.143 334.082 359.564M330.115 349C328.36 354.451 328.839 357.133 332.082 358.843M332.082 358.843C332.529 359.079 333.029 359.296 333.584 359.5C333.753 359.524 333.919 359.546 334.082 359.564M332.082 358.843V363.736M332.582 365C337.403 366.254 338.951 365.836 339.582 363.5C337.339 361.642 335.766 362.261 333.126 364.275M332.582 365L332.473 364.783M332.582 365C327.455 364.326 326.71 363.035 327.082 360C329.384 359.734 330.706 360.528 332.082 363.736M332.582 365L333.126 364.275M332.582 365C332.553 364.921 332.524 364.843 332.495 364.766M334.082 359.564V363L333.126 364.275M332.473 364.783L332.082 364V363.736M332.473 364.783C332.48 364.777 332.487 364.771 332.495 364.766M332.082 363.736C332.219 364.055 332.356 364.398 332.495 364.766M332.495 364.766C332.712 364.594 332.922 364.43 333.126 364.275" stroke="#463131"/>
<path d="M156.606 303.5L159.002 305.5C161.017 301.285 162.543 301.651 165.502 304L168.469 300C170.224 305.451 169.745 308.133 166.502 309.843C166.055 310.079 165.555 310.296 165 310.5C164.831 310.524 164.665 310.546 164.502 310.564C159.425 311.143 157.594 308.905 156.606 303.5Z" fill="#FA2247"/>
<path d="M165 299L167 296C167.593 297.479 168.085 298.806 168.469 300L165.502 304C162.543 301.651 161.017 301.285 159.002 305.5L156.606 303.5C156.366 302.188 156.176 300.69 156 299L160.002 300L161.502 296.5L165 299Z" fill="#FE7482"/>
<path d="M165 310.5C165.555 310.296 166.055 310.079 166.502 309.843V314.736C166.365 315.055 166.228 315.398 166.089 315.766C165.872 315.594 165.662 315.43 165.458 315.275L164.502 314V310.564C164.665 310.546 164.831 310.524 165 310.5Z" fill="#278E70"/>
<path d="M166.002 316C161.181 317.254 159.633 316.836 159.002 314.5C161.245 312.642 162.818 313.261 165.458 315.275L166.002 316Z" fill="#57A749"/>
<path d="M166.111 315.783L166.502 315V314.736C167.878 311.528 169.2 310.734 171.502 311C171.874 314.035 171.129 315.326 166.002 316L166.111 315.783Z" fill="#51A749"/>
<path d="M156.606 303.5C156.366 302.188 156.176 300.69 156 299L160.002 300L161.502 296.5L165 299L167 296C167.593 297.479 168.085 298.806 168.469 300M156.606 303.5L159.002 305.5C161.017 301.285 162.543 301.651 165.502 304L168.469 300M156.606 303.5C157.594 308.905 159.425 311.143 164.502 310.564M168.469 300C170.224 305.451 169.745 308.133 166.502 309.843M166.502 309.843C166.055 310.079 165.555 310.296 165 310.5C164.831 310.524 164.665 310.546 164.502 310.564M166.502 309.843V314.736M166.002 316C161.181 317.254 159.633 316.836 159.002 314.5C161.245 312.642 162.818 313.261 165.458 315.275M166.002 316L166.111 315.783M166.002 316C171.129 315.326 171.874 314.035 171.502 311C169.2 310.734 167.878 311.528 166.502 314.736M166.002 316L165.458 315.275M166.002 316C166.031 315.921 166.06 315.843 166.089 315.766M164.502 310.564V314L165.458 315.275M166.111 315.783L166.502 315V314.736M166.111 315.783C166.104 315.777 166.097 315.771 166.089 315.766M166.502 314.736C166.365 315.055 166.228 315.398 166.089 315.766M166.089 315.766C165.872 315.594 165.662 315.43 165.458 315.275" stroke="#463131"/>
<path d="M390.366 366.418L388.537 368.947C385.545 365.36 384.156 366.091 381.868 369.098L378.006 365.954C377.651 371.669 378.776 374.15 382.341 375.007C382.833 375.125 383.371 375.212 383.959 375.273C384.129 375.255 384.295 375.234 384.457 375.212C389.52 374.52 390.742 371.899 390.366 366.418Z" fill="#FA2247"/>
<path d="M381.12 364.129L378.442 361.715C378.232 363.294 378.083 364.702 378.006 365.954L381.868 369.098C384.156 366.091 385.545 365.36 388.537 368.947L390.366 366.418C390.275 365.087 390.089 363.588 389.842 361.907L386.211 363.864L383.893 360.843L381.12 364.129Z" fill="#FE7482"/>
<path d="M383.959 375.273C383.371 375.212 382.833 375.125 382.341 375.007L383.549 379.749C383.76 380.024 383.977 380.322 384.203 380.644C384.371 380.425 384.534 380.214 384.693 380.013L385.305 378.542L384.457 375.212C384.295 375.234 384.129 375.255 383.959 375.273Z" fill="#278E70"/>
<path d="M384.345 380.85C389.326 380.876 390.723 380.088 390.758 377.669C388.127 376.422 386.755 377.41 384.693 380.013L384.345 380.85Z" fill="#57A749"/>
<path d="M384.186 380.666L383.614 380.004L383.549 379.749C381.424 376.979 379.947 376.536 377.781 377.362C378.17 380.395 379.21 381.462 384.345 380.85L384.186 380.666Z" fill="#51A749"/>
<path d="M390.366 366.418C390.275 365.087 390.089 363.588 389.842 361.907L386.211 363.864L383.893 360.843L381.12 364.129L378.442 361.715C378.232 363.294 378.083 364.702 378.006 365.954M390.366 366.418L388.537 368.947C385.545 365.36 384.156 366.091 381.868 369.098L378.006 365.954M390.366 366.418C390.742 371.899 389.52 374.52 384.457 375.212M378.006 365.954C377.651 371.669 378.776 374.15 382.341 375.007M382.341 375.007C382.833 375.125 383.371 375.212 383.959 375.273C384.129 375.255 384.295 375.234 384.457 375.212M382.341 375.007L383.549 379.749M384.345 380.85C389.326 380.876 390.723 380.088 390.758 377.669C388.127 376.422 386.755 377.41 384.693 380.013M384.345 380.85L384.186 380.666M384.345 380.85C379.21 381.462 378.17 380.395 377.781 377.362C379.947 376.536 381.424 376.979 383.549 379.749M384.345 380.85L384.693 380.013M384.345 380.85C384.297 380.78 384.25 380.712 384.203 380.644M384.457 375.212L385.305 378.542L384.693 380.013M384.186 380.666L383.614 380.004L383.549 379.749M384.186 380.666C384.192 380.659 384.197 380.652 384.203 380.644M383.549 379.749C383.76 380.024 383.977 380.322 384.203 380.644M384.203 380.644C384.371 380.425 384.534 380.214 384.693 380.013" stroke="#463131"/>
<path d="M292.712 356.154L291.272 358.923C287.788 355.811 286.52 356.736 284.696 360.045L280.416 357.498C280.899 363.203 282.374 365.494 286.026 365.822C286.53 365.867 287.075 365.875 287.665 365.849C287.83 365.806 287.992 365.762 288.149 365.716C293.057 364.293 293.883 361.522 292.712 356.154Z" fill="#FA2247"/>
<path d="M283.231 355.238L280.229 353.241C280.252 354.834 280.31 356.248 280.416 357.498L284.696 360.045C286.52 356.736 287.788 355.811 291.272 358.923L292.712 356.154C292.427 354.851 292.025 353.395 291.536 351.768L288.229 354.234L285.495 351.582L283.231 355.238Z" fill="#FE7482"/>
<path d="M287.665 365.849C287.075 365.875 286.53 365.867 286.026 365.822L287.912 370.337C288.161 370.578 288.42 370.842 288.69 371.127C288.824 370.885 288.955 370.653 289.083 370.431L289.474 368.886L288.149 365.716C287.992 365.762 287.83 365.806 287.665 365.849Z" fill="#278E70"/>
<path d="M288.861 371.31C293.792 370.609 295.059 369.626 294.741 367.227C291.956 366.378 290.743 367.555 289.083 370.431L288.861 371.31Z" fill="#57A749"/>
<path d="M288.677 371.151L288.014 370.58L287.912 370.337C285.406 367.907 283.88 367.684 281.858 368.817C282.685 371.76 283.87 372.664 288.861 371.31L288.677 371.151Z" fill="#51A749"/>
<path d="M292.712 356.154C292.427 354.851 292.025 353.395 291.536 351.768L288.229 354.234L285.495 351.582L283.231 355.238L280.229 353.241C280.252 354.834 280.31 356.248 280.416 357.498M292.712 356.154L291.272 358.923C287.788 355.811 286.52 356.736 284.696 360.045L280.416 357.498M292.712 356.154C293.883 361.522 293.057 364.293 288.149 365.716M280.416 357.498C280.899 363.203 282.374 365.494 286.026 365.822M286.026 365.822C286.53 365.867 287.075 365.875 287.665 365.849C287.83 365.806 287.992 365.762 288.149 365.716M286.026 365.822L287.912 370.337M288.861 371.31C293.792 370.609 295.059 369.626 294.741 367.227C291.956 366.378 290.743 367.555 289.083 370.431M288.861 371.31L288.677 371.151M288.861 371.31C283.87 372.664 282.685 371.76 281.858 368.817C283.88 367.684 285.406 367.907 287.912 370.337M288.861 371.31L289.083 370.431M288.861 371.31C288.803 371.248 288.746 371.187 288.69 371.127M288.149 365.716L289.474 368.886L289.083 370.431M288.677 371.151L288.014 370.58L287.912 370.337M288.677 371.151C288.681 371.143 288.685 371.135 288.69 371.127M287.912 370.337C288.161 370.578 288.42 370.842 288.69 371.127M288.69 371.127C288.824 370.885 288.955 370.653 289.083 370.431" stroke="#463131"/>
<path d="M133.606 352.5L136.002 354.5C138.017 350.285 139.543 350.651 142.502 353L145.469 349C147.224 354.451 146.745 357.133 143.502 358.843C143.055 359.079 142.555 359.296 142 359.5C141.831 359.524 141.665 359.546 141.502 359.564C136.425 360.143 134.594 357.905 133.606 352.5Z" fill="#FA2247"/>
<path d="M142 348L144 345C144.593 346.479 145.085 347.806 145.469 349L142.502 353C139.543 350.651 138.017 350.285 136.002 354.5L133.606 352.5C133.366 351.188 133.176 349.69 133 348L137.002 349L138.502 345.5L142 348Z" fill="#FE7482"/>
<path d="M142 359.5C142.555 359.296 143.055 359.079 143.502 358.843V363.736C143.365 364.055 143.228 364.398 143.089 364.766C142.872 364.594 142.662 364.43 142.458 364.275L141.502 363V359.564C141.665 359.546 141.831 359.524 142 359.5Z" fill="#278E70"/>
<path d="M143.002 365C138.181 366.254 136.633 365.836 136.002 363.5C138.245 361.642 139.818 362.261 142.458 364.275L143.002 365Z" fill="#57A749"/>
<path d="M143.111 364.783L143.502 364V363.736C144.878 360.528 146.2 359.734 148.502 360C148.874 363.035 148.129 364.326 143.002 365L143.111 364.783Z" fill="#51A749"/>
<path d="M133.606 352.5C133.366 351.188 133.176 349.69 133 348L137.002 349L138.502 345.5L142 348L144 345C144.593 346.479 145.085 347.806 145.469 349M133.606 352.5L136.002 354.5C138.017 350.285 139.543 350.651 142.502 353L145.469 349M133.606 352.5C134.594 357.905 136.425 360.143 141.502 359.564M145.469 349C147.224 354.451 146.745 357.133 143.502 358.843M143.502 358.843C143.055 359.079 142.555 359.296 142 359.5C141.831 359.524 141.665 359.546 141.502 359.564M143.502 358.843V363.736M143.002 365C138.181 366.254 136.633 365.836 136.002 363.5C138.245 361.642 139.818 362.261 142.458 364.275M143.002 365L143.111 364.783M143.002 365C148.129 364.326 148.874 363.035 148.502 360C146.2 359.734 144.878 360.528 143.502 363.736M143.002 365L142.458 364.275M143.002 365C143.031 364.921 143.06 364.843 143.089 364.766M141.502 359.564V363L142.458 364.275M143.111 364.783L143.502 364V363.736M143.111 364.783C143.104 364.777 143.097 364.771 143.089 364.766M143.502 363.736C143.365 364.055 143.228 364.398 143.089 364.766M143.089 364.766C142.872 364.594 142.662 364.43 142.458 364.275" stroke="#463131"/>
<path d="M73.6058 316.5L76.0021 318.5C78.0169 314.285 79.5434 314.651 82.5021 317L85.4693 313C87.2235 318.451 86.745 321.133 83.5021 322.843C83.0547 323.079 82.5545 323.296 82.0004 323.5C81.8309 323.524 81.6649 323.546 81.5021 323.564C76.4249 324.143 74.5944 321.905 73.6058 316.5Z" fill="#FA2247"/>
<path d="M82.0004 312L84.0004 309C84.5935 310.479 85.085 311.806 85.4693 313L82.5021 317C79.5434 314.651 78.0169 314.285 76.0021 318.5L73.6058 316.5C73.3659 315.188 73.1755 313.69 73.0004 312L77.0021 313L78.5021 309.5L82.0004 312Z" fill="#FE7482"/>
<path d="M82.0004 323.5C82.5545 323.296 83.0547 323.079 83.5021 322.843V327.736C83.3654 328.055 83.2282 328.398 83.0895 328.766C82.8722 328.594 82.6621 328.43 82.4584 328.275L81.5021 327V323.564C81.6649 323.546 81.8309 323.524 82.0004 323.5Z" fill="#278E70"/>
<path d="M83.0021 329C78.1814 330.254 76.6331 329.836 76.0021 327.5C78.2445 325.642 79.8183 326.261 82.4584 328.275L83.0021 329Z" fill="#57A749"/>
<path d="M83.1108 328.783L83.5021 328V327.736C84.8776 324.528 86.1999 323.734 88.5021 324C88.8741 327.035 88.1294 328.326 83.0021 329L83.1108 328.783Z" fill="#51A749"/>
<path d="M73.6058 316.5C73.3659 315.188 73.1755 313.69 73.0004 312L77.0021 313L78.5021 309.5L82.0004 312L84.0004 309C84.5935 310.479 85.085 311.806 85.4693 313M73.6058 316.5L76.0021 318.5C78.0169 314.285 79.5434 314.651 82.5021 317L85.4693 313M73.6058 316.5C74.5944 321.905 76.4249 324.143 81.5021 323.564M85.4693 313C87.2235 318.451 86.745 321.133 83.5021 322.843M83.5021 322.843C83.0547 323.079 82.5545 323.296 82.0004 323.5C81.8309 323.524 81.6649 323.546 81.5021 323.564M83.5021 322.843V327.736M83.0021 329C78.1814 330.254 76.6331 329.836 76.0021 327.5C78.2445 325.642 79.8183 326.261 82.4584 328.275M83.0021 329L83.1108 328.783M83.0021 329C88.1294 328.326 88.8741 327.035 88.5021 324C86.1999 323.734 84.8776 324.528 83.5021 327.736M83.0021 329L82.4584 328.275M83.0021 329C83.0313 328.921 83.0604 328.843 83.0895 328.766M81.5021 323.564V327L82.4584 328.275M83.1108 328.783L83.5021 328V327.736M83.1108 328.783C83.1037 328.777 83.0966 328.771 83.0895 328.766M83.5021 327.736C83.3654 328.055 83.2282 328.398 83.0895 328.766M83.0895 328.766C82.8722 328.594 82.6621 328.43 82.4584 328.275" stroke="#463131"/>
<path d="M42.1578 373.14L43.5485 375.843C45.9727 371.105 47.052 371.746 48.7947 374.941L51.8952 370.587C52.0648 377.307 51.1312 380.432 48.3092 382.026C47.9197 382.246 47.4944 382.436 47.031 382.603C46.8973 382.609 46.7669 382.612 46.6396 382.612C42.6678 382.612 41.7568 379.701 42.1578 373.14Z" fill="#FA2247"/>
<path d="M49.4786 368.927L51.6331 365.631C51.7679 367.47 51.858 369.115 51.8952 370.587L48.7947 374.941C47.052 371.746 45.9727 371.105 43.5485 375.843L42.1578 373.14C42.2551 371.547 42.4297 369.74 42.6566 367.706L45.4771 369.438L47.359 365.479L49.4786 368.927Z" fill="#FE7482"/>
<path d="M47.031 382.603C47.4944 382.436 47.9197 382.246 48.3092 382.026L47.2677 387.845C47.0962 388.206 46.9193 388.595 46.7358 389.013C46.6076 388.78 46.4832 388.557 46.3619 388.344L45.9084 386.698L46.6396 382.612C46.7669 382.612 46.8973 382.609 47.031 382.603Z" fill="#278E70"/>
<path d="M46.6197 389.28C42.6987 390.118 41.6142 389.41 41.633 386.547C43.7281 384.641 44.7893 385.591 46.3619 388.344L46.6197 389.28Z" fill="#57A749"/>
<path d="M46.7484 389.036L47.2116 388.159L47.2677 387.845C48.9931 384.216 50.1644 383.452 51.8529 384.08C51.489 387.739 50.6497 389.174 46.6197 389.28L46.7484 389.036Z" fill="#51A749"/>
<path d="M42.1578 373.14C42.2551 371.547 42.4297 369.74 42.6566 367.706L45.4771 369.438L47.359 365.479L49.4786 368.927L51.6331 365.631C51.7679 367.47 51.858 369.115 51.8952 370.587M42.1578 373.14L43.5485 375.843C45.9727 371.105 47.052 371.746 48.7947 374.941L51.8952 370.587M42.1578 373.14C41.7568 379.701 42.6678 382.612 46.6396 382.612M51.8952 370.587C52.0648 377.307 51.1312 380.432 48.3092 382.026M48.3092 382.026C47.9197 382.246 47.4944 382.436 47.031 382.603C46.8973 382.609 46.7669 382.612 46.6396 382.612M48.3092 382.026L47.2677 387.845M46.6197 389.28C42.6987 390.118 41.6142 389.41 41.633 386.547C43.7281 384.641 44.7893 385.591 46.3619 388.344M46.6197 389.28L46.7484 389.036M46.6197 389.28C50.6497 389.174 51.489 387.739 51.8529 384.08C50.1644 383.452 48.9931 384.216 47.2677 387.845M46.6197 389.28L46.3619 388.344M46.6197 389.28C46.6587 389.19 46.6974 389.101 46.7358 389.013M46.6396 382.612L45.9084 386.698L46.3619 388.344M46.7484 389.036L47.2116 388.159L47.2677 387.845M46.7484 389.036C46.7442 389.029 46.74 389.021 46.7358 389.013M47.2677 387.845C47.0962 388.206 46.9193 388.595 46.7358 389.013M46.7358 389.013C46.6076 388.78 46.4832 388.557 46.3619 388.344" stroke="#463131"/>
<path d="M325.497 331.501L323.412 333.823C320.814 329.94 319.356 330.52 316.764 333.269L313.255 329.735C312.299 335.38 313.156 337.966 316.61 339.195C317.087 339.364 317.613 339.508 318.191 339.63C318.362 339.63 318.529 339.628 318.693 339.623C323.801 339.469 325.292 336.991 325.497 331.501Z" fill="#FA2247"/>
<path d="M316.545 328.249L314.136 325.566C313.761 327.114 313.464 328.498 313.255 329.735L316.764 333.269C319.356 330.52 320.814 329.94 323.412 333.823L325.497 331.501C325.547 330.168 325.521 328.658 325.452 326.961L321.635 328.523L319.649 325.274L316.545 328.249Z" fill="#FE7482"/>
<path d="M318.191 339.63C317.613 339.508 317.087 339.364 316.61 339.195L317.311 344.038C317.492 344.334 317.676 344.653 317.866 344.998C318.057 344.797 318.241 344.605 318.421 344.422L319.185 343.023L318.693 339.623C318.529 339.628 318.362 339.63 318.191 339.63Z" fill="#278E70"/>
<path d="M317.986 345.217C322.937 345.769 324.409 345.132 324.7 342.731C322.214 341.213 320.745 342.051 318.421 344.422L317.986 345.217Z" fill="#57A749"/>
<path d="M317.848 345.017L317.348 344.299L317.311 344.038C315.49 341.06 314.068 340.463 311.827 341.056C311.893 344.112 312.815 345.283 317.986 345.217L317.848 345.017Z" fill="#51A749"/>
<path d="M325.497 331.501C325.547 330.168 325.521 328.658 325.452 326.961L321.635 328.523L319.649 325.274L316.545 328.249L314.136 325.566C313.761 327.114 313.464 328.498 313.255 329.735M325.497 331.501L323.412 333.823C320.814 329.94 319.356 330.52 316.764 333.269L313.255 329.735M325.497 331.501C325.292 336.991 323.801 339.469 318.693 339.623M313.255 329.735C312.299 335.38 313.156 337.966 316.61 339.195M316.61 339.195C317.087 339.364 317.613 339.508 318.191 339.63C318.362 339.63 318.529 339.628 318.693 339.623M316.61 339.195L317.311 344.038M317.986 345.217C322.937 345.769 324.409 345.132 324.7 342.731C322.214 341.213 320.745 342.051 318.421 344.422M317.986 345.217L317.848 345.017M317.986 345.217C312.815 345.283 311.893 344.112 311.827 341.056C314.068 340.463 315.49 341.06 317.311 344.038M317.986 345.217L318.421 344.422M317.986 345.217C317.946 345.143 317.906 345.07 317.866 344.998M318.693 339.623L319.185 343.023L318.421 344.422M317.848 345.017L317.348 344.299L317.311 344.038M317.848 345.017C317.854 345.011 317.86 345.004 317.866 344.998M317.311 344.038C317.492 344.334 317.676 344.653 317.866 344.998M317.866 344.998C318.057 344.797 318.241 344.605 318.421 344.422" stroke="#463131"/>
<path fill-rule="evenodd" clip-rule="evenodd" d="M-68.7533 19.2733C-68.7533 19.2733 -53.8795 -7.54259 -19.3955 -6.05109C-7.13022 -5.5244 4.30114 5.86414 4.30114 5.86414C4.30114 5.86414 63.1702 -51.318 126.954 -44.4231C165.471 -40.2574 157.428 -9.77864 157.428 -9.77864C157.428 -9.77864 174.213 -20.0085 190.055 -19.4411C214.472 -18.5696 209.558 3.42699 209.558 3.42699C209.558 3.42699 257.898 -3.64027 251.399 20.5397C244.19 47.3652 211.297 41.9163 211.297 41.9163C211.297 41.9163 202.97 57.0587 189.061 58.002C170.842 59.2301 167.714 47.1545 167.714 47.1545C167.714 47.1545 144.745 66.9055 121.618 68.6627C84.3206 71.4949 75.7887 55.56 75.7887 55.56C75.7887 55.56 63.5709 68.9692 26.321 65.8138C11.5214 64.5593 -2.84791 49.3211 -2.84791 49.3211C-2.84791 49.3211 -16.5495 64.4109 -46.1755 62.1724C-70.2549 60.3458 -72.2343 42.1605 -72.2343 42.1605C-72.2343 42.1605 -116.022 49.278 -108.024 30.353C-98.8036 8.53113 -68.7533 19.2733 -68.7533 19.2733Z" fill="white"/>
<path d="M349.897 330.51L347.812 332.832C345.215 328.949 343.756 329.529 341.164 332.278L337.655 328.744C336.699 334.389 337.556 336.975 341.011 338.204C341.487 338.373 342.013 338.517 342.591 338.639C342.762 338.639 342.93 338.636 343.093 338.631C348.201 338.478 349.692 336 349.897 330.51Z" fill="#FA2247"/>
<path d="M340.945 327.257L338.536 324.574C338.161 326.123 337.865 327.507 337.655 328.744L341.164 332.278C343.756 329.529 345.215 328.949 347.812 332.832L349.897 330.51C349.947 329.177 349.921 327.667 349.853 325.969L346.035 327.532L344.05 324.282L340.945 327.257Z" fill="#FE7482"/>
<path d="M342.591 338.639C342.013 338.517 341.487 338.373 341.011 338.204L341.711 343.047C341.892 343.343 342.077 343.662 342.267 344.006C342.457 343.806 342.642 343.613 342.821 343.43L343.585 342.032L343.093 338.631C342.93 338.636 342.762 338.639 342.591 338.639Z" fill="#278E70"/>
<path d="M342.387 344.226C347.337 344.777 348.81 344.141 349.1 341.739C346.615 340.222 345.146 341.059 342.821 343.43L342.387 344.226Z" fill="#57A749"/>
<path d="M342.248 344.026L341.749 343.308L341.711 343.047C339.891 340.068 338.468 339.472 336.228 340.064C336.294 343.121 337.216 344.292 342.387 344.226L342.248 344.026Z" fill="#51A749"/>
<path d="M349.897 330.51C349.947 329.177 349.921 327.667 349.853 325.969L346.035 327.532L344.05 324.282L340.945 327.257L338.536 324.574C338.161 326.123 337.865 327.507 337.655 328.744M349.897 330.51L347.812 332.832C345.215 328.949 343.756 329.529 341.164 332.278L337.655 328.744M349.897 330.51C349.692 336 348.201 338.478 343.093 338.631M337.655 328.744C336.699 334.389 337.556 336.975 341.011 338.204M341.011 338.204C341.487 338.373 342.013 338.517 342.591 338.639C342.762 338.639 342.93 338.636 343.093 338.631M341.011 338.204L341.711 343.047M342.387 344.226C347.337 344.777 348.81 344.141 349.1 341.739C346.615 340.222 345.146 341.059 342.821 343.43M342.387 344.226L342.248 344.026M342.387 344.226C337.216 344.292 336.294 343.121 336.228 340.064C338.468 339.472 339.891 340.068 341.711 343.047M342.387 344.226L342.821 343.43M342.387 344.226C342.346 344.152 342.306 344.078 342.267 344.006M343.093 338.631L343.585 342.032L342.821 343.43M342.248 344.026L341.749 343.308L341.711 343.047M342.248 344.026C342.254 344.02 342.26 344.013 342.267 344.006M341.711 343.047C341.892 343.343 342.077 343.662 342.267 344.006M342.267 344.006C342.457 343.806 342.642 343.613 342.821 343.43" stroke="#463131"/>
<path d="M95.6058 330.5L98.0021 332.5C100.017 328.285 101.543 328.651 104.502 331L107.469 327C109.224 332.451 108.745 335.133 105.502 336.843C105.055 337.079 104.555 337.296 104 337.5C103.831 337.524 103.665 337.546 103.502 337.564C98.4249 338.143 96.5944 335.905 95.6058 330.5Z" fill="#FA2247"/>
<path d="M104 326L106 323C106.593 324.479 107.085 325.806 107.469 327L104.502 331C101.543 328.651 100.017 328.285 98.0021 332.5L95.6058 330.5C95.3659 329.188 95.1755 327.69 95.0004 326L99.0021 327L100.502 323.5L104 326Z" fill="#FE7482"/>
<path d="M104 337.5C104.555 337.296 105.055 337.079 105.502 336.843V341.736C105.365 342.055 105.228 342.398 105.089 342.766C104.872 342.594 104.662 342.43 104.458 342.275L103.502 341V337.564C103.665 337.546 103.831 337.524 104 337.5Z" fill="#278E70"/>
<path d="M105.002 343C100.181 344.254 98.6331 343.836 98.0021 341.5C100.245 339.642 101.818 340.261 104.458 342.275L105.002 343Z" fill="#57A749"/>
<path d="M105.111 342.783L105.502 342V341.736C106.878 338.528 108.2 337.734 110.502 338C110.874 341.035 110.129 342.326 105.002 343L105.111 342.783Z" fill="#51A749"/>
<path d="M95.6058 330.5C95.3659 329.188 95.1755 327.69 95.0004 326L99.0021 327L100.502 323.5L104 326L106 323C106.593 324.479 107.085 325.806 107.469 327M95.6058 330.5L98.0021 332.5C100.017 328.285 101.543 328.651 104.502 331L107.469 327M95.6058 330.5C96.5944 335.905 98.4249 338.143 103.502 337.564M107.469 327C109.224 332.451 108.745 335.133 105.502 336.843M105.502 336.843C105.055 337.079 104.555 337.296 104 337.5C103.831 337.524 103.665 337.546 103.502 337.564M105.502 336.843V341.736M105.002 343C100.181 344.254 98.6331 343.836 98.0021 341.5C100.245 339.642 101.818 340.261 104.458 342.275M105.002 343L105.111 342.783M105.002 343C110.129 342.326 110.874 341.035 110.502 338C108.2 337.734 106.878 338.528 105.502 341.736M105.002 343L104.458 342.275M105.002 343C105.031 342.921 105.06 342.843 105.089 342.766M103.502 337.564V341L104.458 342.275M105.111 342.783L105.502 342V341.736M105.111 342.783C105.104 342.777 105.097 342.771 105.089 342.766M105.502 341.736C105.365 342.055 105.228 342.398 105.089 342.766M105.089 342.766C104.872 342.594 104.662 342.43 104.458 342.275" stroke="#463131"/>
<path d="M79.6058 346.5L82.0021 348.5C84.0169 344.285 85.5434 344.651 88.5021 347L91.4693 343C93.2235 348.451 92.745 351.133 89.5021 352.843C89.0547 353.079 88.5545 353.296 88.0004 353.5C87.8309 353.524 87.6649 353.546 87.5021 353.564C82.4249 354.143 80.5944 351.905 79.6058 346.5Z" fill="#FA2247"/>
<path d="M88.0004 342L90.0004 339C90.5935 340.479 91.085 341.806 91.4693 343L88.5021 347C85.5434 344.651 84.0169 344.285 82.0021 348.5L79.6058 346.5C79.3659 345.188 79.1755 343.69 79.0004 342L83.0021 343L84.5021 339.5L88.0004 342Z" fill="#FE7482"/>
<path d="M88.0004 353.5C88.5545 353.296 89.0547 353.079 89.5021 352.843V357.736C89.3654 358.055 89.2282 358.398 89.0895 358.766C88.8722 358.594 88.6621 358.43 88.4584 358.275L87.5021 357V353.564C87.6649 353.546 87.8309 353.524 88.0004 353.5Z" fill="#278E70"/>
<path d="M89.0021 359C84.1814 360.254 82.6331 359.836 82.0021 357.5C84.2445 355.642 85.8183 356.261 88.4584 358.275L89.0021 359Z" fill="#57A749"/>
<path d="M89.1108 358.783L89.5021 358V357.736C90.8776 354.528 92.1999 353.734 94.5021 354C94.8741 357.035 94.1294 358.326 89.0021 359L89.1108 358.783Z" fill="#51A749"/>
<path d="M79.6058 346.5C79.3659 345.188 79.1755 343.69 79.0004 342L83.0021 343L84.5021 339.5L88.0004 342L90.0004 339C90.5935 340.479 91.085 341.806 91.4693 343M79.6058 346.5L82.0021 348.5C84.0169 344.285 85.5434 344.651 88.5021 347L91.4693 343M79.6058 346.5C80.5944 351.905 82.4249 354.143 87.5021 353.564M91.4693 343C93.2235 348.451 92.745 351.133 89.5021 352.843M89.5021 352.843C89.0547 353.079 88.5545 353.296 88.0004 353.5C87.8309 353.524 87.6649 353.546 87.5021 353.564M89.5021 352.843V357.736M89.0021 359C84.1814 360.254 82.6331 359.836 82.0021 357.5C84.2445 355.642 85.8183 356.261 88.4584 358.275M89.0021 359L89.1108 358.783M89.0021 359C94.1294 358.326 94.8741 357.035 94.5021 354C92.1999 353.734 90.8776 354.528 89.5021 357.736M89.0021 359L88.4584 358.275M89.0021 359C89.0313 358.921 89.0604 358.843 89.0895 358.766M87.5021 353.564V357L88.4584 358.275M89.1108 358.783L89.5021 358V357.736M89.1108 358.783C89.1037 358.777 89.0966 358.771 89.0895 358.766M89.5021 357.736C89.3654 358.055 89.2282 358.398 89.0895 358.766M89.0895 358.766C88.8722 358.594 88.6621 358.43 88.4584 358.275" stroke="#463131"/>
<path d="M140.482 338.45C137.442 334.704 135.783 333.903 132.989 338.127C130.119 334.128 128.312 334.89 124.953 338.781" stroke="#0F683A"/>
<path d="M366.342 329.471C363.721 325.421 362.158 324.446 358.927 328.347C356.502 324.063 354.623 324.627 350.867 328.137" stroke="#0F683A"/>
<path d="M-26.0005 346.304L69.8153 327.491C68.7922 309.676 63.1346 309.739 53.1554 309.849L52.933 309.851C44.3716 298.11 39.2308 296.387 30.0929 302.61C20.9167 292.445 15.5161 290.198 4.79599 298.79C-7.65008 288.179 -13.1361 290.463 -21.7475 300.696L-26.0005 346.304Z" fill="#53B731"/>
<path d="M-26.0005 346.304L69.8153 327.491C68.7922 309.676 63.1346 309.739 53.1554 309.849L52.933 309.851C44.3716 298.11 39.2308 296.387 30.0929 302.61C20.9167 292.445 15.5161 290.198 4.79599 298.79C-7.65008 288.179 -13.1361 290.463 -21.7475 300.696L-26.0005 346.304Z" fill="#53B731"/>
<path d="M-26.0005 346.304L69.8153 327.491C68.7922 309.676 63.1346 309.739 53.1554 309.849L52.933 309.851C44.3716 298.11 39.2308 296.387 30.0929 302.61C20.9167 292.445 15.5161 290.198 4.79599 298.79C-7.65008 288.179 -13.1361 290.463 -21.7475 300.696L-26.0005 346.304Z" fill="#53B731"/>
<path d="M69.8153 327.491L-26.0005 346.304L-21.7475 300.696C-13.1361 290.463 -7.65008 288.179 4.79599 298.79C15.5161 290.198 20.9167 292.445 30.0929 302.61C39.2308 296.387 44.3716 298.11 52.933 309.851M69.8153 327.491C68.7846 309.544 63.0505 309.741 52.933 309.851M69.8153 327.491C68.7922 309.676 63.1346 309.739 53.1554 309.849L52.933 309.851" stroke="#0F683A"/>
<path d="M384.931 327.14L458.999 334L452.77 300.773C445.552 293.875 441.231 292.594 432.468 301.303C423.755 295.765 419.798 297.811 413.49 305.953C406.136 302.042 402.341 303.683 396.605 312.94L396.436 312.955C388.843 313.6 384.539 313.966 384.931 327.14Z" fill="#53B731"/>
<path d="M384.931 327.14L458.999 334L452.77 300.773C445.552 293.875 441.231 292.594 432.468 301.303C423.755 295.765 419.798 297.811 413.49 305.953C406.136 302.042 402.341 303.683 396.605 312.94M384.931 327.14C384.536 313.869 388.907 313.595 396.605 312.94M384.931 327.14C384.539 313.966 388.843 313.6 396.436 312.955L396.605 312.94" stroke="#0F683A"/>
<path d="M326.627 198.265C336.124 212.151 342.464 213.56 355.716 203.17C363.85 210.082 368.563 210.927 377.499 203.294C382.007 194.25 378.84 190.041 370.797 182.896C371.16 174.831 368.938 172.041 363.675 168.004C355.375 164.701 351.691 165.149 346.329 168.628C338.256 161.994 334.541 162.107 328.336 164.073C323.723 166.048 321.922 168.463 319.521 174.249C307.101 177.34 302.811 186.135 306.903 194.939C310.996 203.742 319.721 202.922 326.627 198.265Z" fill="white"/>
<path d="M74.2229 149.692C83.7202 163.578 90.0601 164.987 103.312 154.597C111.446 161.508 116.159 162.354 125.095 154.721C129.603 145.677 126.436 141.468 118.393 134.323C118.757 126.258 116.534 123.467 111.271 119.431C102.971 116.128 99.2875 116.576 93.9253 120.055C85.852 113.42 82.1372 113.534 75.9322 115.5C71.3186 117.475 69.5184 119.89 67.1174 125.676C54.6974 128.767 50.4068 137.562 54.4994 146.366C58.5921 155.169 67.3167 154.349 74.2229 149.692Z" fill="white"/>
<path d="M326.627 198.265C336.124 212.151 342.464 213.56 355.716 203.17C363.85 210.082 368.563 210.927 377.499 203.294C382.007 194.25 378.84 190.041 370.797 182.896C371.16 174.831 368.938 172.041 363.675 168.004C355.375 164.701 351.691 165.149 346.329 168.628C338.256 161.994 334.541 162.107 328.336 164.073C323.723 166.048 321.922 168.463 319.521 174.249C307.101 177.34 302.811 186.135 306.903 194.939C310.996 203.742 319.721 202.922 326.627 198.265Z" stroke="white"/>
<path d="M74.2229 149.692C83.7202 163.578 90.0601 164.987 103.312 154.597C111.446 161.508 116.159 162.354 125.095 154.721C129.603 145.677 126.436 141.468 118.393 134.323C118.757 126.258 116.534 123.467 111.271 119.431C102.971 116.128 99.2875 116.576 93.9253 120.055C85.852 113.42 82.1372 113.534 75.9322 115.5C71.3186 117.475 69.5184 119.89 67.1174 125.676C54.6974 128.767 50.4068 137.562 54.4994 146.366C58.5921 155.169 67.3167 154.349 74.2229 149.692Z" stroke="white"/>
<path d="M133.398 220.764C107.013 233.933 92.1671 234.699 65.8307 222.69C44.988 228.883 34.0236 229.247 16.4849 220.509C9.46475 210.799 18.1145 206.838 38.8342 200.396C40.8519 192.126 46.8648 189.512 60.1989 185.949C80.1468 183.457 88.3263 184.305 99.2379 188.424C119.847 182.507 128.215 183.016 141.567 185.68C151.313 188.185 154.538 190.841 157.935 197.001C184.958 201.473 191.573 210.905 179.21 219.458C166.847 228.011 147.389 226.249 133.398 220.764Z" fill="white" stroke="white"/>
<path d="M229.869 133.804C244.56 149.373 253.967 151.527 272.948 142.054C285.276 150.167 292.258 151.556 305.026 144.511C311.202 135.514 306.324 130.765 294.118 122.417C294.241 114.003 290.826 110.841 282.871 106.048C270.483 101.699 265.082 101.775 257.365 104.849C245.14 97.0324 239.676 96.7539 230.641 98.1517C223.949 99.729 221.421 102.067 218.182 107.875C200.053 109.787 194.185 118.546 200.66 128.21C207.134 137.874 219.938 137.947 229.869 133.804Z" fill="white" stroke="white"/>
<path d="M365.359 67.5042C390.917 89.2209 405.432 90.2155 431.453 69.3882C451.728 79.4308 462.452 79.8228 479.796 64.7021C486.864 48.1528 478.478 41.6353 458.329 31.171C456.522 17.2368 450.69 12.9433 437.711 7.19336C418.237 3.38653 410.214 4.98424 399.45 12.1668C379.399 2.58597 371.198 3.61554 358.075 8.3887C348.484 12.8194 345.274 17.3712 341.825 27.8502C315.285 35.9533 308.619 52.0254 320.546 66.2269C332.472 80.4283 351.553 77.0566 365.359 67.5042Z" fill="white" stroke="white"/>
</g>
</svg>
