<svg width="400" height="400" viewBox="0 0 400 400" fill="none" xmlns="http://www.w3.org/2000/svg">
<mask id="mask0_135_74" style="mask-type:alpha" maskUnits="userSpaceOnUse" x="0" y="0" width="400" height="400">
<rect width="400" height="400" fill="#9DDDF9"/>
</mask>
<g mask="url(#mask0_135_74)">
<rect x="-25" width="450" height="400" fill="#9DDDF9"/>
<path d="M242.5 378C239.302 374.388 237.61 373.66 235 378C231.961 374.128 230.188 374.968 227 379" stroke="#0F683A"/>
<path d="M425 330.997C235 302 153 300.5 -27 330.997V400H425V330.997Z" fill="#9BD565"/>
<path d="M242.5 378C239.302 374.388 237.61 373.659 235 378C231.961 374.128 230.188 374.967 227 379M-27 330.997C153 300.5 235 302 425 330.997V400H-27V330.997Z" stroke="#0F683A"/>
<path d="M288.23 357.251C285.67 353.162 284.121 352.165 280.832 356.016C278.472 351.697 276.585 352.233 272.777 355.685" stroke="#0F683A"/>
<path d="M191.704 324.366C188.566 320.702 186.887 319.945 184.205 324.241C181.231 320.32 179.444 321.129 176.19 325.108" stroke="#0F683A"/>
<path d="M316.978 352.5L314.582 354.5C312.567 350.285 311.041 350.651 308.082 353L305.115 349C303.36 354.451 303.839 357.133 307.082 358.843C307.529 359.079 308.029 359.296 308.584 359.5C308.753 359.524 308.919 359.546 309.082 359.564C314.159 360.143 315.99 357.905 316.978 352.5Z" fill="#FA2247"/>
<path d="M308.584 348L306.584 345C305.991 346.479 305.499 347.806 305.115 349L308.082 353C311.041 350.651 312.567 350.285 314.582 354.5L316.978 352.5C317.218 351.188 317.408 349.69 317.584 348L313.582 349L312.082 345.5L308.584 348Z" fill="#FE7482"/>
<path d="M308.584 359.5C308.029 359.296 307.529 359.079 307.082 358.843V363.736C307.219 364.055 307.356 364.398 307.495 364.766C307.712 364.594 307.922 364.43 308.126 364.275L309.082 363V359.564C308.919 359.546 308.753 359.524 308.584 359.5Z" fill="#278E70"/>
<path d="M307.582 365C312.403 366.254 313.951 365.836 314.582 363.5C312.339 361.642 310.766 362.261 308.126 364.275L307.582 365Z" fill="#57A749"/>
<path d="M307.473 364.783L307.082 364V363.736C305.706 360.528 304.384 359.734 302.082 360C301.71 363.035 302.455 364.326 307.582 365L307.473 364.783Z" fill="#51A749"/>
<path d="M316.978 352.5C317.218 351.188 317.408 349.69 317.584 348L313.582 349L312.082 345.5L308.584 348L306.584 345C305.991 346.479 305.499 347.806 305.115 349M316.978 352.5L314.582 354.5C312.567 350.285 311.041 350.651 308.082 353L305.115 349M316.978 352.5C315.99 357.905 314.159 360.143 309.082 359.564M305.115 349C303.36 354.451 303.839 357.133 307.082 358.843M307.082 358.843C307.529 359.079 308.029 359.296 308.584 359.5C308.753 359.524 308.919 359.546 309.082 359.564M307.082 358.843V363.736M307.582 365C312.403 366.254 313.951 365.836 314.582 363.5C312.339 361.642 310.766 362.261 308.126 364.275M307.582 365L307.473 364.783M307.582 365C302.455 364.326 301.71 363.035 302.082 360C304.384 359.734 305.706 360.528 307.082 363.736M307.582 365L308.126 364.275M307.582 365C307.553 364.921 307.524 364.843 307.495 364.766M309.082 359.564V363L308.126 364.275M307.473 364.783L307.082 364V363.736M307.473 364.783C307.48 364.777 307.487 364.771 307.495 364.766M307.082 363.736C307.219 364.055 307.356 364.398 307.495 364.766M307.495 364.766C307.712 364.594 307.922 364.43 308.126 364.275" stroke="#463131"/>
<path d="M131.606 303.5L134.002 305.5C136.017 301.285 137.543 301.651 140.502 304L143.469 300C145.224 305.451 144.745 308.133 141.502 309.843C141.055 310.079 140.555 310.296 140 310.5C139.831 310.524 139.665 310.546 139.502 310.564C134.425 311.143 132.594 308.905 131.606 303.5Z" fill="#FA2247"/>
<path d="M140 299L142 296C142.593 297.479 143.085 298.806 143.469 300L140.502 304C137.543 301.651 136.017 301.285 134.002 305.5L131.606 303.5C131.366 302.188 131.176 300.69 131 299L135.002 300L136.502 296.5L140 299Z" fill="#FE7482"/>
<path d="M140 310.5C140.555 310.296 141.055 310.079 141.502 309.843V314.736C141.365 315.055 141.228 315.398 141.089 315.766C140.872 315.594 140.662 315.43 140.458 315.275L139.502 314V310.564C139.665 310.546 139.831 310.524 140 310.5Z" fill="#278E70"/>
<path d="M141.002 316C136.181 317.254 134.633 316.836 134.002 314.5C136.245 312.642 137.818 313.261 140.458 315.275L141.002 316Z" fill="#57A749"/>
<path d="M141.111 315.783L141.502 315V314.736C142.878 311.528 144.2 310.734 146.502 311C146.874 314.035 146.129 315.326 141.002 316L141.111 315.783Z" fill="#51A749"/>
<path d="M131.606 303.5C131.366 302.188 131.176 300.69 131 299L135.002 300L136.502 296.5L140 299L142 296C142.593 297.479 143.085 298.806 143.469 300M131.606 303.5L134.002 305.5C136.017 301.285 137.543 301.651 140.502 304L143.469 300M131.606 303.5C132.594 308.905 134.425 311.143 139.502 310.564M143.469 300C145.224 305.451 144.745 308.133 141.502 309.843M141.502 309.843C141.055 310.079 140.555 310.296 140 310.5C139.831 310.524 139.665 310.546 139.502 310.564M141.502 309.843V314.736M141.002 316C136.181 317.254 134.633 316.836 134.002 314.5C136.245 312.642 137.818 313.261 140.458 315.275M141.002 316L141.111 315.783M141.002 316C146.129 315.326 146.874 314.035 146.502 311C144.2 310.734 142.878 311.528 141.502 314.736M141.002 316L140.458 315.275M141.002 316C141.031 315.921 141.06 315.843 141.089 315.766M139.502 310.564V314L140.458 315.275M141.111 315.783L141.502 315V314.736M141.111 315.783C141.104 315.777 141.097 315.771 141.089 315.766M141.502 314.736C141.365 315.055 141.228 315.398 141.089 315.766M141.089 315.766C140.872 315.594 140.662 315.43 140.458 315.275" stroke="#463131"/>
<path d="M364.366 350.418L362.537 352.947C359.545 349.36 358.156 350.091 355.868 353.098L352.006 349.954C351.651 355.669 352.776 358.15 356.341 359.007C356.833 359.125 357.371 359.212 357.959 359.273C358.129 359.255 358.295 359.234 358.457 359.212C363.52 358.52 364.742 355.899 364.366 350.418Z" fill="#FA2247"/>
<path d="M355.12 348.129L352.442 345.715C352.232 347.294 352.083 348.702 352.006 349.954L355.868 353.098C358.156 350.091 359.545 349.36 362.537 352.947L364.366 350.418C364.275 349.087 364.089 347.588 363.842 345.907L360.211 347.864L357.893 344.843L355.12 348.129Z" fill="#FE7482"/>
<path d="M357.959 359.273C357.371 359.212 356.833 359.125 356.341 359.007L357.549 363.749C357.76 364.024 357.977 364.322 358.203 364.644C358.371 364.425 358.534 364.214 358.693 364.013L359.305 362.542L358.457 359.212C358.295 359.234 358.129 359.255 357.959 359.273Z" fill="#278E70"/>
<path d="M358.345 364.85C363.326 364.876 364.723 364.088 364.758 361.669C362.127 360.422 360.755 361.41 358.693 364.013L358.345 364.85Z" fill="#57A749"/>
<path d="M358.186 364.666L357.614 364.004L357.549 363.749C355.424 360.979 353.947 360.536 351.781 361.362C352.17 364.395 353.21 365.462 358.345 364.85L358.186 364.666Z" fill="#51A749"/>
<path d="M364.366 350.418C364.275 349.087 364.089 347.588 363.842 345.907L360.211 347.864L357.893 344.843L355.12 348.129L352.442 345.715C352.232 347.294 352.083 348.702 352.006 349.954M364.366 350.418L362.537 352.947C359.545 349.36 358.156 350.091 355.868 353.098L352.006 349.954M364.366 350.418C364.742 355.899 363.52 358.52 358.457 359.212M352.006 349.954C351.651 355.669 352.776 358.15 356.341 359.007M356.341 359.007C356.833 359.125 357.371 359.212 357.959 359.273C358.129 359.255 358.295 359.234 358.457 359.212M356.341 359.007L357.549 363.749M358.345 364.85C363.326 364.876 364.723 364.088 364.758 361.669C362.127 360.422 360.755 361.41 358.693 364.013M358.345 364.85L358.186 364.666M358.345 364.85C353.21 365.462 352.17 364.395 351.781 361.362C353.947 360.536 355.424 360.979 357.549 363.749M358.345 364.85L358.693 364.013M358.345 364.85C358.297 364.78 358.25 364.712 358.203 364.644M358.457 359.212L359.305 362.542L358.693 364.013M358.186 364.666L357.614 364.004L357.549 363.749M358.186 364.666C358.192 364.659 358.197 364.652 358.203 364.644M357.549 363.749C357.76 364.024 357.977 364.322 358.203 364.644M358.203 364.644C358.371 364.425 358.534 364.214 358.693 364.013" stroke="#463131"/>
<path d="M256.712 319.154L255.272 321.923C251.788 318.811 250.52 319.736 248.696 323.045L244.416 320.498C244.899 326.203 246.374 328.494 250.026 328.822C250.53 328.867 251.075 328.875 251.665 328.849C251.83 328.806 251.992 328.762 252.149 328.716C257.057 327.293 257.883 324.522 256.712 319.154Z" fill="#FA2247"/>
<path d="M247.231 318.238L244.229 316.241C244.252 317.834 244.31 319.248 244.416 320.498L248.696 323.045C250.52 319.736 251.788 318.811 255.272 321.923L256.712 319.154C256.427 317.851 256.025 316.395 255.536 314.768L252.229 317.234L249.495 314.582L247.231 318.238Z" fill="#FE7482"/>
<path d="M251.665 328.849C251.075 328.875 250.53 328.867 250.026 328.822L251.912 333.337C252.161 333.578 252.42 333.842 252.69 334.127C252.824 333.885 252.955 333.653 253.083 333.431L253.474 331.886L252.149 328.716C251.992 328.762 251.83 328.806 251.665 328.849Z" fill="#278E70"/>
<path d="M252.861 334.31C257.792 333.609 259.059 332.626 258.741 330.227C255.956 329.378 254.743 330.555 253.083 333.431L252.861 334.31Z" fill="#57A749"/>
<path d="M252.677 334.151L252.014 333.58L251.912 333.337C249.406 330.907 247.88 330.684 245.858 331.817C246.685 334.76 247.87 335.664 252.861 334.31L252.677 334.151Z" fill="#51A749"/>
<path d="M256.712 319.154C256.427 317.851 256.025 316.395 255.536 314.768L252.229 317.234L249.495 314.582L247.231 318.238L244.229 316.241C244.252 317.834 244.31 319.248 244.416 320.498M256.712 319.154L255.272 321.923C251.788 318.811 250.52 319.736 248.696 323.045L244.416 320.498M256.712 319.154C257.883 324.522 257.057 327.293 252.149 328.716M244.416 320.498C244.899 326.203 246.374 328.494 250.026 328.822M250.026 328.822C250.53 328.867 251.075 328.875 251.665 328.849C251.83 328.806 251.992 328.762 252.149 328.716M250.026 328.822L251.912 333.337M252.861 334.31C257.792 333.609 259.059 332.626 258.741 330.227C255.956 329.378 254.743 330.555 253.083 333.431M252.861 334.31L252.677 334.151M252.861 334.31C247.87 335.664 246.685 334.76 245.858 331.817C247.88 330.684 249.406 330.907 251.912 333.337M252.861 334.31L253.083 333.431M252.861 334.31C252.803 334.248 252.746 334.187 252.69 334.127M252.149 328.716L253.474 331.886L253.083 333.431M252.677 334.151L252.014 333.58L251.912 333.337M252.677 334.151C252.681 334.143 252.685 334.135 252.69 334.127M251.912 333.337C252.161 333.578 252.42 333.842 252.69 334.127M252.69 334.127C252.824 333.885 252.955 333.653 253.083 333.431" stroke="#463131"/>
<path d="M108.606 352.5L111.002 354.5C113.017 350.285 114.543 350.651 117.502 353L120.469 349C122.224 354.451 121.745 357.133 118.502 358.843C118.055 359.079 117.555 359.296 117 359.5C116.831 359.524 116.665 359.546 116.502 359.564C111.425 360.143 109.594 357.905 108.606 352.5Z" fill="#FA2247"/>
<path d="M117 348L119 345C119.593 346.479 120.085 347.806 120.469 349L117.502 353C114.543 350.651 113.017 350.285 111.002 354.5L108.606 352.5C108.366 351.188 108.176 349.69 108 348L112.002 349L113.502 345.5L117 348Z" fill="#FE7482"/>
<path d="M117 359.5C117.555 359.296 118.055 359.079 118.502 358.843V363.736C118.365 364.055 118.228 364.398 118.089 364.766C117.872 364.594 117.662 364.43 117.458 364.275L116.502 363V359.564C116.665 359.546 116.831 359.524 117 359.5Z" fill="#278E70"/>
<path d="M118.002 365C113.181 366.254 111.633 365.836 111.002 363.5C113.245 361.642 114.818 362.261 117.458 364.275L118.002 365Z" fill="#57A749"/>
<path d="M118.111 364.783L118.502 364V363.736C119.878 360.528 121.2 359.734 123.502 360C123.874 363.035 123.129 364.326 118.002 365L118.111 364.783Z" fill="#51A749"/>
<path d="M108.606 352.5C108.366 351.188 108.176 349.69 108 348L112.002 349L113.502 345.5L117 348L119 345C119.593 346.479 120.085 347.806 120.469 349M108.606 352.5L111.002 354.5C113.017 350.285 114.543 350.651 117.502 353L120.469 349M108.606 352.5C109.594 357.905 111.425 360.143 116.502 359.564M120.469 349C122.224 354.451 121.745 357.133 118.502 358.843M118.502 358.843C118.055 359.079 117.555 359.296 117 359.5C116.831 359.524 116.665 359.546 116.502 359.564M118.502 358.843V363.736M118.002 365C113.181 366.254 111.633 365.836 111.002 363.5C113.245 361.642 114.818 362.261 117.458 364.275M118.002 365L118.111 364.783M118.002 365C123.129 364.326 123.874 363.035 123.502 360C121.2 359.734 119.878 360.528 118.502 363.736M118.002 365L117.458 364.275M118.002 365C118.031 364.921 118.06 364.843 118.089 364.766M116.502 359.564V363L117.458 364.275M118.111 364.783L118.502 364V363.736M118.111 364.783C118.104 364.777 118.097 364.771 118.089 364.766M118.502 363.736C118.365 364.055 118.228 364.398 118.089 364.766M118.089 364.766C117.872 364.594 117.662 364.43 117.458 364.275" stroke="#463131"/>
<path d="M48.6058 316.5L51.0021 318.5C53.0169 314.285 54.5434 314.651 57.5021 317L60.4693 313C62.2235 318.451 61.745 321.133 58.5021 322.843C58.0547 323.079 57.5545 323.296 57.0004 323.5C56.8309 323.524 56.6649 323.546 56.5021 323.564C51.4249 324.143 49.5944 321.905 48.6058 316.5Z" fill="#FA2247"/>
<path d="M57.0004 312L59.0004 309C59.5935 310.479 60.085 311.806 60.4693 313L57.5021 317C54.5434 314.651 53.0169 314.285 51.0021 318.5L48.6058 316.5C48.3659 315.188 48.1755 313.69 48.0004 312L52.0021 313L53.5021 309.5L57.0004 312Z" fill="#FE7482"/>
<path d="M57.0004 323.5C57.5545 323.296 58.0547 323.079 58.5021 322.843V327.736C58.3654 328.055 58.2282 328.398 58.0895 328.766C57.8722 328.594 57.6621 328.43 57.4584 328.275L56.5021 327V323.564C56.6649 323.546 56.8309 323.524 57.0004 323.5Z" fill="#278E70"/>
<path d="M58.0021 329C53.1814 330.254 51.6331 329.836 51.0021 327.5C53.2445 325.642 54.8183 326.261 57.4584 328.275L58.0021 329Z" fill="#57A749"/>
<path d="M58.1108 328.783L58.5021 328V327.736C59.8776 324.528 61.1999 323.734 63.5021 324C63.8741 327.035 63.1294 328.326 58.0021 329L58.1108 328.783Z" fill="#51A749"/>
<path d="M48.6058 316.5C48.3659 315.188 48.1755 313.69 48.0004 312L52.0021 313L53.5021 309.5L57.0004 312L59.0004 309C59.5935 310.479 60.085 311.806 60.4693 313M48.6058 316.5L51.0021 318.5C53.0169 314.285 54.5434 314.651 57.5021 317L60.4693 313M48.6058 316.5C49.5944 321.905 51.4249 324.143 56.5021 323.564M60.4693 313C62.2235 318.451 61.745 321.133 58.5021 322.843M58.5021 322.843C58.0547 323.079 57.5545 323.296 57.0004 323.5C56.8309 323.524 56.6649 323.546 56.5021 323.564M58.5021 322.843V327.736M58.0021 329C53.1814 330.254 51.6331 329.836 51.0021 327.5C53.2445 325.642 54.8183 326.261 57.4584 328.275M58.0021 329L58.1108 328.783M58.0021 329C63.1294 328.326 63.8741 327.035 63.5021 324C61.1999 323.734 59.8776 324.528 58.5021 327.736M58.0021 329L57.4584 328.275M58.0021 329C58.0313 328.921 58.0604 328.843 58.0895 328.766M56.5021 323.564V327L57.4584 328.275M58.1108 328.783L58.5021 328V327.736M58.1108 328.783C58.1037 328.777 58.0966 328.771 58.0895 328.766M58.5021 327.736C58.3654 328.055 58.2282 328.398 58.0895 328.766M58.0895 328.766C57.8722 328.594 57.6621 328.43 57.4584 328.275" stroke="#463131"/>
<path d="M17.1578 373.14L18.5485 375.843C20.9727 371.105 22.052 371.746 23.7947 374.941L26.8952 370.587C27.0648 377.307 26.1312 380.432 23.3092 382.026C22.9197 382.246 22.4944 382.436 22.031 382.603C21.8973 382.609 21.7669 382.612 21.6396 382.612C17.6678 382.612 16.7568 379.701 17.1578 373.14Z" fill="#FA2247"/>
<path d="M24.4786 368.927L26.6331 365.631C26.7679 367.47 26.858 369.115 26.8952 370.587L23.7947 374.941C22.052 371.746 20.9727 371.105 18.5485 375.843L17.1578 373.14C17.2551 371.547 17.4297 369.74 17.6566 367.706L20.4771 369.438L22.359 365.479L24.4786 368.927Z" fill="#FE7482"/>
<path d="M22.031 382.603C22.4944 382.436 22.9197 382.246 23.3092 382.026L22.2677 387.845C22.0962 388.206 21.9193 388.595 21.7358 389.013C21.6076 388.78 21.4832 388.557 21.3619 388.344L20.9084 386.698L21.6396 382.612C21.7669 382.612 21.8973 382.609 22.031 382.603Z" fill="#278E70"/>
<path d="M21.6197 389.28C17.6987 390.118 16.6142 389.41 16.633 386.547C18.7281 384.641 19.7893 385.591 21.3619 388.344L21.6197 389.28Z" fill="#57A749"/>
<path d="M21.7484 389.036L22.2116 388.159L22.2677 387.845C23.9931 384.216 25.1644 383.452 26.8529 384.08C26.489 387.739 25.6497 389.174 21.6197 389.28L21.7484 389.036Z" fill="#51A749"/>
<path d="M17.1578 373.14C17.2551 371.547 17.4297 369.74 17.6566 367.706L20.4771 369.438L22.359 365.479L24.4786 368.927L26.6331 365.631C26.7679 367.47 26.858 369.115 26.8952 370.587M17.1578 373.14L18.5485 375.843C20.9727 371.105 22.052 371.746 23.7947 374.941L26.8952 370.587M17.1578 373.14C16.7568 379.701 17.6678 382.612 21.6396 382.612M26.8952 370.587C27.0648 377.307 26.1312 380.432 23.3092 382.026M23.3092 382.026C22.9197 382.246 22.4944 382.436 22.031 382.603C21.8973 382.609 21.7669 382.612 21.6396 382.612M23.3092 382.026L22.2677 387.845M21.6197 389.28C17.6987 390.118 16.6142 389.41 16.633 386.547C18.7281 384.641 19.7893 385.591 21.3619 388.344M21.6197 389.28L21.7484 389.036M21.6197 389.28C25.6497 389.174 26.489 387.739 26.8529 384.08C25.1644 383.452 23.9931 384.216 22.2677 387.845M21.6197 389.28L21.3619 388.344M21.6197 389.28C21.6587 389.19 21.6974 389.101 21.7358 389.013M21.6396 382.612L20.9084 386.698L21.3619 388.344M21.7484 389.036L22.2116 388.159L22.2677 387.845M21.7484 389.036C21.7442 389.029 21.74 389.021 21.7358 389.013M22.2677 387.845C22.0962 388.206 21.9193 388.595 21.7358 389.013M21.7358 389.013C21.6076 388.78 21.4832 388.557 21.3619 388.344" stroke="#463131"/>
<path d="M300.497 331.501L298.412 333.823C295.814 329.94 294.356 330.52 291.764 333.269L288.255 329.735C287.299 335.38 288.156 337.966 291.61 339.195C292.087 339.364 292.613 339.508 293.191 339.63C293.362 339.63 293.529 339.628 293.693 339.623C298.801 339.469 300.292 336.991 300.497 331.501Z" fill="#FA2247"/>
<path d="M291.545 328.249L289.136 325.566C288.761 327.114 288.464 328.498 288.255 329.735L291.764 333.269C294.356 330.52 295.814 329.94 298.412 333.823L300.497 331.501C300.547 330.168 300.521 328.658 300.452 326.961L296.635 328.523L294.649 325.274L291.545 328.249Z" fill="#FE7482"/>
<path d="M293.191 339.63C292.613 339.508 292.087 339.364 291.61 339.195L292.311 344.038C292.492 344.334 292.676 344.653 292.866 344.998C293.057 344.797 293.241 344.605 293.421 344.422L294.185 343.023L293.693 339.623C293.529 339.628 293.362 339.63 293.191 339.63Z" fill="#278E70"/>
<path d="M292.986 345.217C297.937 345.769 299.409 345.132 299.7 342.731C297.214 341.213 295.745 342.051 293.421 344.422L292.986 345.217Z" fill="#57A749"/>
<path d="M292.848 345.017L292.348 344.299L292.311 344.038C290.49 341.06 289.068 340.463 286.827 341.056C286.893 344.112 287.815 345.283 292.986 345.217L292.848 345.017Z" fill="#51A749"/>
<path d="M300.497 331.501C300.547 330.168 300.521 328.658 300.452 326.961L296.635 328.523L294.649 325.274L291.545 328.249L289.136 325.566C288.761 327.114 288.464 328.498 288.255 329.735M300.497 331.501L298.412 333.823C295.814 329.94 294.356 330.52 291.764 333.269L288.255 329.735M300.497 331.501C300.292 336.991 298.801 339.469 293.693 339.623M288.255 329.735C287.299 335.38 288.156 337.966 291.61 339.195M291.61 339.195C292.087 339.364 292.613 339.508 293.191 339.63C293.362 339.63 293.529 339.628 293.693 339.623M291.61 339.195L292.311 344.038M292.986 345.217C297.937 345.769 299.409 345.132 299.7 342.731C297.214 341.213 295.745 342.051 293.421 344.422M292.986 345.217L292.848 345.017M292.986 345.217C287.815 345.283 286.893 344.112 286.827 341.056C289.068 340.463 290.49 341.06 292.311 344.038M292.986 345.217L293.421 344.422M292.986 345.217C292.946 345.143 292.906 345.07 292.866 344.998M293.693 339.623L294.185 343.023L293.421 344.422M292.848 345.017L292.348 344.299L292.311 344.038M292.848 345.017C292.854 345.011 292.86 345.004 292.866 344.998M292.311 344.038C292.492 344.334 292.676 344.653 292.866 344.998M292.866 344.998C293.057 344.797 293.241 344.605 293.421 344.422" stroke="#463131"/>
<path fill-rule="evenodd" clip-rule="evenodd" d="M-93.7533 19.2733C-93.7533 19.2733 -78.8795 -7.54259 -44.3955 -6.05109C-32.1302 -5.5244 -20.6989 5.86414 -20.6989 5.86414C-20.6989 5.86414 38.1702 -51.318 101.954 -44.4231C140.471 -40.2574 132.428 -9.77864 132.428 -9.77864C132.428 -9.77864 149.213 -20.0085 165.055 -19.4411C189.472 -18.5696 184.558 3.42699 184.558 3.42699C184.558 3.42699 232.898 -3.64027 226.399 20.5397C219.19 47.3652 186.297 41.9163 186.297 41.9163C186.297 41.9163 177.97 57.0587 164.061 58.002C145.842 59.2301 142.714 47.1545 142.714 47.1545C142.714 47.1545 119.745 66.9055 96.6179 68.6627C59.3206 71.4949 50.7887 55.56 50.7887 55.56C50.7887 55.56 38.5709 68.9692 1.32103 65.8138C-13.4786 64.5593 -27.8479 49.3211 -27.8479 49.3211C-27.8479 49.3211 -41.5495 64.4109 -71.1755 62.1724C-95.2549 60.3458 -97.2343 42.1605 -97.2343 42.1605C-97.2343 42.1605 -141.022 49.278 -133.024 30.353C-123.804 8.53113 -93.7533 19.2733 -93.7533 19.2733Z" fill="white"/>
<path d="M324.897 330.51L322.812 332.832C320.215 328.949 318.756 329.529 316.164 332.278L312.655 328.744C311.699 334.389 312.556 336.975 316.011 338.204C316.487 338.373 317.013 338.517 317.591 338.639C317.762 338.639 317.93 338.636 318.093 338.631C323.201 338.478 324.692 336 324.897 330.51Z" fill="#FA2247"/>
<path d="M315.945 327.257L313.536 324.574C313.161 326.123 312.865 327.507 312.655 328.744L316.164 332.278C318.756 329.529 320.215 328.949 322.812 332.832L324.897 330.51C324.947 329.177 324.921 327.667 324.853 325.969L321.035 327.532L319.05 324.282L315.945 327.257Z" fill="#FE7482"/>
<path d="M317.591 338.639C317.013 338.517 316.487 338.373 316.011 338.204L316.711 343.047C316.892 343.343 317.077 343.662 317.267 344.006C317.457 343.806 317.642 343.613 317.821 343.43L318.585 342.032L318.093 338.631C317.93 338.636 317.762 338.639 317.591 338.639Z" fill="#278E70"/>
<path d="M317.387 344.226C322.337 344.777 323.81 344.141 324.1 341.739C321.615 340.222 320.146 341.059 317.821 343.43L317.387 344.226Z" fill="#57A749"/>
<path d="M317.248 344.026L316.749 343.308L316.711 343.047C314.891 340.068 313.468 339.472 311.228 340.064C311.294 343.121 312.216 344.292 317.387 344.226L317.248 344.026Z" fill="#51A749"/>
<path d="M324.897 330.51C324.947 329.177 324.921 327.667 324.853 325.969L321.035 327.532L319.05 324.282L315.945 327.257L313.536 324.574C313.161 326.123 312.865 327.507 312.655 328.744M324.897 330.51L322.812 332.832C320.215 328.949 318.756 329.529 316.164 332.278L312.655 328.744M324.897 330.51C324.692 336 323.201 338.478 318.093 338.631M312.655 328.744C311.699 334.389 312.556 336.975 316.011 338.204M316.011 338.204C316.487 338.373 317.013 338.517 317.591 338.639C317.762 338.639 317.93 338.636 318.093 338.631M316.011 338.204L316.711 343.047M317.387 344.226C322.337 344.777 323.81 344.141 324.1 341.739C321.615 340.222 320.146 341.059 317.821 343.43M317.387 344.226L317.248 344.026M317.387 344.226C312.216 344.292 311.294 343.121 311.228 340.064C313.468 339.472 314.891 340.068 316.711 343.047M317.387 344.226L317.821 343.43M317.387 344.226C317.346 344.152 317.306 344.078 317.267 344.006M318.093 338.631L318.585 342.032L317.821 343.43M317.248 344.026L316.749 343.308L316.711 343.047M317.248 344.026C317.254 344.02 317.26 344.013 317.267 344.006M316.711 343.047C316.892 343.343 317.077 343.662 317.267 344.006M317.267 344.006C317.457 343.806 317.642 343.613 317.821 343.43" stroke="#463131"/>
<path d="M70.6058 330.5L73.0021 332.5C75.0169 328.285 76.5434 328.651 79.5021 331L82.4693 327C84.2235 332.451 83.745 335.133 80.5021 336.843C80.0547 337.079 79.5545 337.296 79.0004 337.5C78.8309 337.524 78.6649 337.546 78.5021 337.564C73.4249 338.143 71.5944 335.905 70.6058 330.5Z" fill="#FA2247"/>
<path d="M79.0004 326L81.0004 323C81.5935 324.479 82.085 325.806 82.4693 327L79.5021 331C76.5434 328.651 75.0169 328.285 73.0021 332.5L70.6058 330.5C70.3659 329.188 70.1755 327.69 70.0004 326L74.0021 327L75.5021 323.5L79.0004 326Z" fill="#FE7482"/>
<path d="M79.0004 337.5C79.5545 337.296 80.0547 337.079 80.5021 336.843V341.736C80.3654 342.055 80.2282 342.398 80.0895 342.766C79.8722 342.594 79.6621 342.43 79.4584 342.275L78.5021 341V337.564C78.6649 337.546 78.8309 337.524 79.0004 337.5Z" fill="#278E70"/>
<path d="M80.0021 343C75.1814 344.254 73.6331 343.836 73.0021 341.5C75.2445 339.642 76.8183 340.261 79.4584 342.275L80.0021 343Z" fill="#57A749"/>
<path d="M80.1108 342.783L80.5021 342V341.736C81.8776 338.528 83.1999 337.734 85.5021 338C85.8741 341.035 85.1294 342.326 80.0021 343L80.1108 342.783Z" fill="#51A749"/>
<path d="M70.6058 330.5C70.3659 329.188 70.1755 327.69 70.0004 326L74.0021 327L75.5021 323.5L79.0004 326L81.0004 323C81.5935 324.479 82.085 325.806 82.4693 327M70.6058 330.5L73.0021 332.5C75.0169 328.285 76.5434 328.651 79.5021 331L82.4693 327M70.6058 330.5C71.5944 335.905 73.4249 338.143 78.5021 337.564M82.4693 327C84.2235 332.451 83.745 335.133 80.5021 336.843M80.5021 336.843C80.0547 337.079 79.5545 337.296 79.0004 337.5C78.8309 337.524 78.6649 337.546 78.5021 337.564M80.5021 336.843V341.736M80.0021 343C75.1814 344.254 73.6331 343.836 73.0021 341.5C75.2445 339.642 76.8183 340.261 79.4584 342.275M80.0021 343L80.1108 342.783M80.0021 343C85.1294 342.326 85.8741 341.035 85.5021 338C83.1999 337.734 81.8776 338.528 80.5021 341.736M80.0021 343L79.4584 342.275M80.0021 343C80.0313 342.921 80.0604 342.843 80.0895 342.766M78.5021 337.564V341L79.4584 342.275M80.1108 342.783L80.5021 342V341.736M80.1108 342.783C80.1037 342.777 80.0966 342.771 80.0895 342.766M80.5021 341.736C80.3654 342.055 80.2282 342.398 80.0895 342.766M80.0895 342.766C79.8722 342.594 79.6621 342.43 79.4584 342.275" stroke="#463131"/>
<path d="M54.6058 346.5L57.0021 348.5C59.0169 344.285 60.5434 344.651 63.5021 347L66.4693 343C68.2235 348.451 67.745 351.133 64.5021 352.843C64.0547 353.079 63.5545 353.296 63.0004 353.5C62.8309 353.524 62.6649 353.546 62.5021 353.564C57.4249 354.143 55.5944 351.905 54.6058 346.5Z" fill="#FA2247"/>
<path d="M63.0004 342L65.0004 339C65.5935 340.479 66.085 341.806 66.4693 343L63.5021 347C60.5434 344.651 59.0169 344.285 57.0021 348.5L54.6058 346.5C54.3659 345.188 54.1755 343.69 54.0004 342L58.0021 343L59.5021 339.5L63.0004 342Z" fill="#FE7482"/>
<path d="M63.0004 353.5C63.5545 353.296 64.0547 353.079 64.5021 352.843V357.736C64.3654 358.055 64.2282 358.398 64.0895 358.766C63.8722 358.594 63.6621 358.43 63.4584 358.275L62.5021 357V353.564C62.6649 353.546 62.8309 353.524 63.0004 353.5Z" fill="#278E70"/>
<path d="M64.0021 359C59.1814 360.254 57.6331 359.836 57.0021 357.5C59.2445 355.642 60.8183 356.261 63.4584 358.275L64.0021 359Z" fill="#57A749"/>
<path d="M64.1108 358.783L64.5021 358V357.736C65.8776 354.528 67.1999 353.734 69.5021 354C69.8741 357.035 69.1294 358.326 64.0021 359L64.1108 358.783Z" fill="#51A749"/>
<path d="M54.6058 346.5C54.3659 345.188 54.1755 343.69 54.0004 342L58.0021 343L59.5021 339.5L63.0004 342L65.0004 339C65.5935 340.479 66.085 341.806 66.4693 343M54.6058 346.5L57.0021 348.5C59.0169 344.285 60.5434 344.651 63.5021 347L66.4693 343M54.6058 346.5C55.5944 351.905 57.4249 354.143 62.5021 353.564M66.4693 343C68.2235 348.451 67.745 351.133 64.5021 352.843M64.5021 352.843C64.0547 353.079 63.5545 353.296 63.0004 353.5C62.8309 353.524 62.6649 353.546 62.5021 353.564M64.5021 352.843V357.736M64.0021 359C59.1814 360.254 57.6331 359.836 57.0021 357.5C59.2445 355.642 60.8183 356.261 63.4584 358.275M64.0021 359L64.1108 358.783M64.0021 359C69.1294 358.326 69.8741 357.035 69.5021 354C67.1999 353.734 65.8776 354.528 64.5021 357.736M64.0021 359L63.4584 358.275M64.0021 359C64.0313 358.921 64.0604 358.843 64.0895 358.766M62.5021 353.564V357L63.4584 358.275M64.1108 358.783L64.5021 358V357.736M64.1108 358.783C64.1037 358.777 64.0966 358.771 64.0895 358.766M64.5021 357.736C64.3654 358.055 64.2282 358.398 64.0895 358.766M64.0895 358.766C63.8722 358.594 63.6621 358.43 63.4584 358.275" stroke="#463131"/>
<path d="M115.482 338.45C112.442 334.704 110.783 333.903 107.989 338.127C105.119 334.128 103.312 334.89 99.9532 338.781" stroke="#0F683A"/>
<path d="M341.342 329.471C338.721 325.421 337.158 324.446 333.927 328.347C331.502 324.063 329.623 324.627 325.867 328.137" stroke="#0F683A"/>
<path d="M-51.0005 346.304L44.8153 327.491C43.7922 309.676 38.1346 309.739 28.1554 309.849L27.933 309.851C19.3716 298.11 14.2308 296.387 5.09294 302.61C-4.08328 292.445 -9.48394 290.198 -20.204 298.79C-32.6501 288.179 -38.1361 290.463 -46.7475 300.696L-51.0005 346.304Z" fill="#53B731"/>
<path d="M-51.0005 346.304L44.8153 327.491C43.7922 309.676 38.1346 309.739 28.1554 309.849L27.933 309.851C19.3716 298.11 14.2308 296.387 5.09294 302.61C-4.08328 292.445 -9.48394 290.198 -20.204 298.79C-32.6501 288.179 -38.1361 290.463 -46.7475 300.696L-51.0005 346.304Z" fill="#53B731"/>
<path d="M-51.0005 346.304L44.8153 327.491C43.7922 309.676 38.1346 309.739 28.1554 309.849L27.933 309.851C19.3716 298.11 14.2308 296.387 5.09294 302.61C-4.08328 292.445 -9.48394 290.198 -20.204 298.79C-32.6501 288.179 -38.1361 290.463 -46.7475 300.696L-51.0005 346.304Z" fill="#53B731"/>
<path d="M44.8153 327.491L-51.0005 346.304L-46.7475 300.696C-38.1361 290.463 -32.6501 288.179 -20.204 298.79C-9.48394 290.198 -4.08328 292.445 5.09294 302.61C14.2308 296.387 19.3716 298.11 27.933 309.851M44.8153 327.491C43.7846 309.544 38.0505 309.741 27.933 309.851M44.8153 327.491C43.7922 309.676 38.1346 309.739 28.1554 309.849L27.933 309.851" stroke="#0F683A"/>
<path d="M359.931 327.14L433.999 334L427.77 300.773C420.552 293.875 416.231 292.594 407.468 301.303C398.755 295.765 394.798 297.811 388.49 305.953C381.136 302.042 377.341 303.683 371.605 312.94L371.436 312.955C363.843 313.6 359.539 313.966 359.931 327.14Z" fill="#53B731"/>
<path d="M359.931 327.14L433.999 334L427.77 300.773C420.552 293.875 416.231 292.594 407.468 301.303C398.755 295.765 394.798 297.811 388.49 305.953C381.136 302.042 377.341 303.683 371.605 312.94M359.931 327.14C359.536 313.869 363.907 313.595 371.605 312.94M359.931 327.14C359.539 313.966 363.843 313.6 371.436 312.955L371.605 312.94" stroke="#0F683A"/>
<path d="M301.627 198.265C311.124 212.151 317.464 213.56 330.716 203.17C338.85 210.082 343.563 210.927 352.499 203.294C357.007 194.25 353.84 190.041 345.797 182.896C346.16 174.831 343.938 172.041 338.675 168.004C330.375 164.701 326.691 165.149 321.329 168.628C313.256 161.994 309.541 162.107 303.336 164.073C298.723 166.048 296.922 168.463 294.521 174.249C282.101 177.34 277.811 186.135 281.903 194.939C285.996 203.742 294.721 202.922 301.627 198.265Z" fill="white"/>
<path d="M49.2229 149.692C58.7202 163.578 65.0601 164.987 78.3122 154.597C86.4458 161.508 91.1586 162.354 100.095 154.721C104.603 145.677 101.436 141.468 93.3935 134.323C93.7565 126.258 91.534 123.467 86.2706 119.431C77.971 116.128 74.2875 116.576 68.9253 120.055C60.852 113.42 57.1372 113.534 50.9322 115.5C46.3186 117.475 44.5184 119.89 42.1174 125.676C29.6974 128.767 25.4068 137.562 29.4994 146.366C33.5921 155.169 42.3167 154.349 49.2229 149.692Z" fill="white"/>
<path d="M301.627 198.265C311.124 212.151 317.464 213.56 330.716 203.17C338.85 210.082 343.563 210.927 352.499 203.294C357.007 194.25 353.84 190.041 345.797 182.896C346.16 174.831 343.938 172.041 338.675 168.004C330.375 164.701 326.691 165.149 321.329 168.628C313.256 161.994 309.541 162.107 303.336 164.073C298.723 166.048 296.922 168.463 294.521 174.249C282.101 177.34 277.811 186.135 281.903 194.939C285.996 203.742 294.721 202.922 301.627 198.265Z" stroke="white"/>
<path d="M49.2229 149.692C58.7202 163.578 65.0601 164.987 78.3122 154.597C86.4458 161.508 91.1586 162.354 100.095 154.721C104.603 145.677 101.436 141.468 93.3935 134.323C93.7565 126.258 91.534 123.467 86.2706 119.431C77.971 116.128 74.2875 116.576 68.9253 120.055C60.852 113.42 57.1372 113.534 50.9322 115.5C46.3186 117.475 44.5184 119.89 42.1174 125.676C29.6974 128.767 25.4068 137.562 29.4994 146.366C33.5921 155.169 42.3167 154.349 49.2229 149.692Z" stroke="white"/>
<path d="M108.398 220.764C82.0127 233.933 67.1671 234.699 40.8307 222.69C19.988 228.883 9.02365 229.247 -8.51511 220.509C-15.5353 210.799 -6.88549 206.838 13.8342 200.396C15.8519 192.126 21.8648 189.512 35.1989 185.949C55.1468 183.457 63.3263 184.305 74.2379 188.424C94.8466 182.507 103.215 183.016 116.567 185.68C126.313 188.185 129.538 190.841 132.935 197.001C159.958 201.473 166.573 210.905 154.21 219.458C141.847 228.011 122.389 226.249 108.398 220.764Z" fill="white" stroke="white"/>
<path d="M204.869 133.804C219.56 149.373 228.967 151.527 247.948 142.054C260.276 150.167 267.258 151.556 280.026 144.511C286.202 135.514 281.325 130.765 269.118 122.417C269.241 114.003 265.826 110.841 257.871 106.048C245.483 101.699 240.082 101.775 232.365 104.849C220.14 97.0324 214.676 96.7539 205.641 98.1517C198.949 99.729 196.421 102.067 193.182 107.875C175.053 109.787 169.185 118.546 175.66 128.21C182.134 137.874 194.938 137.947 204.869 133.804Z" fill="white" stroke="white"/>
<path d="M340.359 67.5042C365.917 89.2209 380.432 90.2155 406.453 69.3882C426.728 79.4308 437.452 79.8228 454.796 64.7021C461.864 48.1528 453.478 41.6353 433.329 31.171C431.522 17.2368 425.69 12.9433 412.711 7.19336C393.237 3.38653 385.214 4.98424 374.45 12.1668C354.399 2.58597 346.198 3.61554 333.075 8.3887C323.484 12.8194 320.274 17.3712 316.825 27.8502C290.285 35.9533 283.619 52.0254 295.546 66.2269C307.472 80.4283 326.553 77.0566 340.359 67.5042Z" fill="white" stroke="white"/>
</g>
</svg>
