<svg width="363" height="575" viewBox="0 0 363 575" fill="none" xmlns="http://www.w3.org/2000/svg">
<path d="M68.72 476.882C68.72 476.716 63.8296 467.891 65.5 465C69.167 458.654 80.1226 464.26 81.1877 464.534C83 465 84 465 88.16 467.501C91.1241 469.284 95.021 473.6 98.3807 477.415C101.74 481.23 104.161 484.818 105.992 487.335C108.864 491.282 110.612 492.896 112.413 494.069C116.023 496.422 118.874 497.87 120.715 499.001C124.813 501.517 127.978 503.014 129.319 503.516C132.053 504.54 135.466 505.96 138.414 506.761C142.557 507.886 147.193 508.241 150.221 508.451C154.524 508.749 156.211 508.914 158.32 509.587C158.934 509.782 158.748 509.206 159.133 509.587C160.826 511.257 160.02 515.904 159.133 517.801C157.862 520.521 158.276 525.357 156 527C154.13 528.35 151.809 527.82 150 529C145.956 531.636 148.944 532.434 146.5 534.5C144.814 535.925 144.227 535.649 140 540L134 546C131.97 548.089 131.04 549.457 129 552C127.045 554.438 124.604 555.013 122.5 558C120.304 561.117 115.511 562.608 113.701 564.838C111.854 567.114 108.369 570.008 103.34 573.184C101.256 574.501 99.1584 573.827 95.6672 573.699C93.0845 573.605 89.5585 573.154 86.7312 572.772C81.5006 572.066 79.9384 572.982 77.9583 572.772C76.4817 572.616 75.1334 572.309 73.5326 571.721C70.4795 570.6 69.1038 568.664 67.9729 567.072L67.9234 567.002C66.8339 565.47 65.0177 564.556 63.4991 563.419C61.8027 562.149 59.8738 560.176 56.5521 556.726C54.867 554.976 52.8838 553.1 51.4423 550.862C50.6205 549.586 50.2638 548.037 49.6291 546.603C48.7187 544.546 47.9827 540.809 47.7728 536.459C47.3936 528.6 48.144 526.892 50.4341 521.682L50.4598 521.623C51.5518 519.139 52.5298 517.356 53.9194 515.163C55.7252 512.314 58.9988 507.69 62.05 503.787C65.8178 498.966 66.6059 497.291 67.453 495.771C68.4016 494.069 68.3812 491.732 68.6771 489.871C68.6366 487.593 68.1333 485.243 68.0866 479.097C68.2117 477.897 68.4621 477.646 68.72 476.882Z" fill="#8E6642" style="mix-blend-mode:multiply"/>
<path d="M211.5 547C211.834 546.75 211.514 546.686 218.321 543.762C225.127 540.837 238.397 535.245 246.109 531.656C253.821 528.066 255.573 526.647 259.814 522.578C264.055 518.509 270.732 511.832 274.797 507.517C282.087 499.778 283.164 497.549 284.477 496.315C285.463 495.388 287.156 499.166 288.06 501.185L288.103 501.28C289.039 503.368 290.417 505.11 292.984 508.565C295.038 511.329 296.486 513.117 297.752 515.775C299.377 519.186 300.366 520.795 300.959 522.606C301.99 525.755 301.802 528.382 301.93 531.495C302.048 534.368 301.64 538.068 300.921 539.848C300.296 541.393 299.951 543.303 299.613 544.863C299.109 547.194 298.181 550.384 297.802 551.734C297.378 553.243 296.663 554.683 296.158 556.033C295.67 557.337 294.645 558.562 293.211 559.575C291.544 560.753 289.759 561.597 288.195 562.61C286.691 563.584 285.541 564.632 283.141 565.981C281.682 566.801 280.064 567.413 275.189 570.021C270.044 572.773 266.422 572.052 264.129 572.349C262.155 572.604 260.591 573.569 259.154 573.824C257.475 574.123 253.196 574.752 250.262 574.333C248.448 574.073 247.101 573.574 245.751 573.236C244.379 572.893 243.055 572.143 241.663 571.509C240.18 570.834 238.923 570.205 237.408 569.236C234.803 567.568 233.445 567.252 231.843 566.831C230.051 566.359 229.06 564.895 227.627 563.672C226.377 562.605 225.519 561.101 224.507 559.753C223.259 558.094 222.571 556.382 221.43 555.242C219.872 553.684 217.685 551.83 215.533 550.563C214.053 549.635 213.042 548.29 212.073 547.274C211.777 547.104 211.844 547.086 211.5 547Z" fill="#8E6642" style="mix-blend-mode:multiply"/>
<path d="M99.8506 166.509C100.277 166.509 101.242 166.296 107.752 163.203C113.571 160.438 124.275 154.784 130.084 151.664C136.532 148.201 139.532 145.758 143.991 142.803C148.609 139.743 150.094 137.791 151.497 136.116C153.456 133.776 155.369 130.147 157.734 125.477C159.517 121.956 159.249 118.112 159.785 112.149C160.068 109.006 159.895 103.456 159.948 100.336C160.001 97.2159 160.108 96.6832 160.163 90.0703C160.218 83.4573 160.218 70.7802 160.165 63.8234C160.095 54.7028 159.572 52.9929 159.304 50.8413C158.984 48.2687 158.926 45.4712 158.552 43.1985C157.834 38.8398 154.736 31.9063 153.55 28.8912C152.8 26.9851 152.257 25.0173 151.29 22.112C150.643 20.1684 149.784 18.4512 148.012 15.9768C147.28 14.9548 146.233 14.5709 145.375 14.3014C143.637 13.7561 142.146 16.8177 140.426 18.3301C139.417 19.2167 138.056 19.3034 136.823 19.0904C133.638 18.54 131.926 17.1535 128.651 16.8306C124.043 16.3765 120.963 14.5774 118.527 13.7106C116.348 12.9351 114.494 12.0981 110.736 10.8085C105.084 8.86859 100.935 6.28737 97.5069 4.94605C87.394 0.989475 85.2268 1.0125 83.072 0.849476C80.4844 0.653712 77.4792 0.792982 75.3244 1.22395C72.8773 1.71337 70.2674 1.76144 68.4903 2.3522C65.8047 3.24496 64.56 6.27445 63.6448 7.99831C62.6086 9.95005 61.1187 11.9754 59.8258 13.8091C58.4599 15.7462 56.5992 17.5731 55.4129 20.422C53.3269 25.4313 54.7656 34.463 54.3347 36.7809C53.8489 39.3934 53.7972 41.9976 53.3662 44.2057C52.6135 48.0622 53.2548 53.0832 53.9537 56.5213C54.5249 59.331 55.4048 61.4765 56.2667 63.7363C57.0906 65.8963 58.8461 67.9329 60.139 70.4057C61.7516 73.4901 62.2938 76.2165 62.778 79.2284C63.2037 81.8765 63.9079 83.9641 64.3388 86.4934C64.8037 89.222 65.3025 92.4543 66.3807 96.4427C67.4048 100.231 68.6404 102.688 69.2344 104.681C70.0435 107.397 70.7904 110.429 71.4409 112.966C72.0834 115.473 72.624 117.86 73.3229 119.962C73.9145 121.741 74.5609 123.671 75.849 126.576C76.8309 128.791 78.8609 130.56 80.475 131.963C82.1014 133.376 83.7031 134.543 85.1558 136.798C87.4442 140.35 88.5454 142.181 89.3024 143.958C90.4703 146.7 92.8454 150.672 94.0899 152.944C95.0531 154.703 95.7572 156.385 96.6191 158.109C97.4811 159.833 98.3398 161.551 98.8272 163.274C98.8821 163.707 98.8821 164.133 98.9354 164.566C98.9886 164.998 99.7408 166.07 99.8506 166.509Z" fill="#8E6642" style="mix-blend-mode:multiply"/>
<path d="M243.354 166.746C242.928 166.746 241.962 166.533 235.453 163.441C229.633 160.676 218.929 155.022 213.12 151.902C206.673 148.439 203.673 145.996 199.213 143.04C194.595 139.98 193.11 138.028 191.708 136.353C189.749 134.013 187.835 130.384 185.471 125.715C183.688 122.193 183.955 118.349 183.419 112.387C183.137 109.244 183.309 103.693 183.256 100.573C183.203 97.4533 183.096 96.9206 183.041 90.3077C182.987 83.6947 182.987 71.0176 183.04 64.0609C183.11 54.9402 183.632 53.2303 183.9 51.0787C184.221 48.5061 184.278 45.7086 184.652 43.4359C185.371 39.0772 188.468 32.1437 189.654 29.1286C190.404 27.2225 190.947 25.2548 191.914 22.3494C192.561 20.4059 193.42 18.6886 195.192 16.2142C195.924 15.1922 196.971 14.8083 197.83 14.5388C199.567 13.9935 201.058 17.0552 202.779 18.5676C203.787 19.4541 205.148 19.5409 206.381 19.3278C209.567 18.7775 211.278 17.3909 214.553 17.0681C219.161 16.6139 222.241 14.8148 224.677 13.948C226.856 13.1725 228.711 12.3355 232.468 11.0459C238.12 9.10601 242.269 6.52479 245.697 5.18348C255.81 1.2269 257.977 1.24993 260.132 1.0869C262.72 0.891139 265.725 1.03041 267.88 1.46137C270.327 1.9508 272.937 1.99887 274.714 2.58963C277.4 3.48238 278.644 6.51188 279.56 8.23574C280.596 10.1875 282.086 12.2129 283.379 14.0465C284.744 15.9836 286.605 17.8106 287.791 20.6594C289.877 25.6687 288.439 34.7005 288.87 37.0183C289.355 39.6308 289.407 42.2351 289.838 44.4431C290.591 48.2996 289.95 53.3207 289.251 56.7587C288.679 59.5684 287.8 61.714 286.938 63.9737C286.114 66.1337 284.358 68.1704 283.065 70.6432C281.453 73.7275 280.911 76.4539 280.426 79.4658C280.001 82.1139 279.296 84.2016 278.866 86.7309C278.401 89.4594 277.902 92.6917 276.824 96.6801C275.8 100.468 274.564 102.925 273.97 104.918C273.161 107.634 272.414 110.666 271.763 113.204C271.121 115.71 270.58 118.098 269.881 120.199C269.29 121.978 268.643 123.908 267.355 126.814C266.373 129.029 264.343 130.797 262.729 132.2C261.103 133.613 259.501 134.781 258.049 137.036C255.76 140.588 254.659 142.419 253.902 144.196C252.734 146.937 250.359 150.909 249.114 153.182C248.151 154.941 247.447 156.623 246.585 158.347C245.723 160.071 244.865 161.788 244.377 163.512C244.322 163.944 244.322 164.37 244.269 164.803C244.216 165.236 243.464 166.307 243.354 166.746Z" fill="#8E6642" style="mix-blend-mode:multiply"/>
<path d="M276.339 331.864C274.595 333.026 261.779 342.055 241.543 357.442C227.542 368.088 224.081 376.476 223.496 379.26C222.467 384.146 221.729 407.982 222.751 423.59C223.207 430.547 228.459 436.644 232.867 442.382C238.889 450.221 246.075 451.934 250.778 454.141C256.449 456.801 264.853 460.443 270.156 463.825C274.558 466.633 277.502 468.678 279.409 468.392C285.139 467.532 282.205 455.211 283.236 445.694C286.038 419.813 282.505 410.325 281.628 401.764C281.023 395.854 280.162 389.433 280.008 367.915C279.932 357.417 281.628 346.324 280.008 340C277.806 332.804 283.095 335.558 281.628 331C281.042 329.965 278.118 333.643 276.339 331.864Z" fill="#8E6642" style="mix-blend-mode:multiply"/>
<path d="M362.5 131.5V196.5V222.5" stroke="white"/>
<path d="M1 377V356V332.5" stroke="white"/>
</svg>
