<svg width="382" height="574" viewBox="0 0 382 574" fill="none" xmlns="http://www.w3.org/2000/svg">
<path d="M84.0408 476.896C84.0408 476.729 81.1035 466.891 82.7738 464C86.4408 457.654 95.4434 464.273 96.5085 464.547C98.3208 465.013 99.3208 465.013 103.481 467.515C106.445 469.297 110.342 473.613 113.702 477.428C117.061 481.243 119.481 484.831 121.312 487.348C124.185 491.295 125.933 492.909 127.733 494.082C131.344 496.435 134.195 497.883 136.036 499.014C140.134 501.53 143.299 503.027 144.639 503.529C147.374 504.553 150.787 505.973 153.735 506.774C157.877 507.899 162.514 508.255 165.542 508.464C169.844 508.763 171.532 508.927 173.641 509.6C174.254 509.795 174.069 509.219 174.454 509.6C176.147 511.271 175.341 515.917 174.454 517.814C173.183 520.534 173.597 525.371 171.321 527.013C169.45 528.363 167.13 527.833 165.321 529.013C161.277 531.65 164.265 532.447 161.821 534.513C160.135 535.938 159.548 535.662 155.321 540.013L149.321 546.013C147.291 548.102 146.36 549.47 144.321 552.013C142.365 554.451 139.925 555.026 137.821 558.013C135.625 561.13 130.831 562.622 129.022 564.851C127.174 567.127 123.69 570.021 118.661 573.198C116.577 574.514 114.479 573.84 110.988 573.712C108.405 573.618 104.879 573.167 102.052 572.785C96.8214 572.079 95.2592 572.995 93.2791 572.785C91.8025 572.629 90.4542 572.323 88.8534 571.735C85.8003 570.613 84.4247 568.677 83.2937 567.085L83.2442 567.016C82.1547 565.483 80.3385 564.569 78.8199 563.432C77.1235 562.162 75.1946 560.189 71.8729 556.739C70.1878 554.99 68.2046 553.113 66.7631 550.875C65.9413 549.599 65.5846 548.05 64.9499 546.616C64.0395 544.56 63.3035 540.822 63.0936 536.472C62.7144 528.613 63.4648 526.905 65.7549 521.695L65.7806 521.636C66.8726 519.152 67.8506 517.369 69.2402 515.176C71.046 512.327 74.3196 507.703 77.3708 503.8C81.1386 498.98 81.9267 497.304 82.7738 495.784C83.7224 494.083 83.702 491.746 83.9979 489.884C83.9574 487.606 83.4541 485.256 83.4074 479.11C83.5325 477.91 83.7829 477.659 84.0408 476.896Z" fill="#8E6642" style="mix-blend-mode:multiply"/>
<path d="M234 544.984C234.317 544.738 234.013 544.676 240.485 541.799C246.957 538.923 259.573 533.425 266.906 529.895C274.239 526.365 275.905 524.969 279.937 520.968C283.97 516.967 290.318 510.401 294.183 506.157C301.114 498.547 302.138 496.355 303.386 495.142C304.324 494.23 305.934 497.946 306.793 499.93L306.834 500.025C307.724 502.077 309.034 503.791 311.475 507.188C313.428 509.906 314.805 511.664 316.009 514.278C317.553 517.633 318.494 519.215 319.058 520.995C320.038 524.093 319.859 526.675 319.981 529.737C320.093 532.562 319.706 536.2 319.021 537.951C318.428 539.471 318.099 541.348 317.778 542.882C317.299 545.175 316.416 548.311 316.055 549.639C315.653 551.123 314.973 552.539 314.493 553.867C314.028 555.149 313.055 556.354 311.691 557.35C310.106 558.508 308.409 559.338 306.922 560.334C305.492 561.292 304.398 562.323 302.116 563.649C300.729 564.456 299.19 565.058 294.555 567.622C289.664 570.328 286.22 569.619 284.039 569.911C282.163 570.163 280.675 571.111 279.31 571.362C277.713 571.656 273.645 572.275 270.855 571.862C269.13 571.607 267.85 571.116 266.566 570.784C265.261 570.447 264.003 569.709 262.679 569.086C261.269 568.422 260.074 567.804 258.633 566.85C256.157 565.21 254.865 564.899 253.342 564.485C251.638 564.022 250.696 562.581 249.334 561.379C248.145 560.329 247.33 558.851 246.367 557.525C245.181 555.893 244.526 554.21 243.441 553.089C241.96 551.557 239.88 549.734 237.834 548.488C236.428 547.575 235.466 546.252 234.545 545.254C234.263 545.086 234.327 545.069 234 544.984Z" fill="#8E6642" style="mix-blend-mode:multiply"/>
<path d="M122.171 165.746C122.597 165.746 123.563 165.533 130.072 162.441C135.892 159.676 146.596 154.022 152.405 150.902C158.852 147.439 161.852 144.996 166.312 142.04C170.93 138.98 172.415 137.028 173.818 135.353C175.776 133.013 177.69 129.384 180.054 124.715C181.838 121.193 181.57 117.349 182.106 111.387C182.388 108.244 182.216 102.693 182.269 99.5733C182.322 96.4533 182.429 95.9206 182.484 89.3077C182.539 82.6947 182.539 70.0176 182.485 63.0609C182.415 53.9402 181.893 52.2303 181.625 50.0787C181.305 47.5061 181.247 44.7086 180.873 42.4359C180.155 38.0772 177.057 31.1437 175.871 28.1286C175.121 26.2225 174.578 24.2548 173.611 21.3494C172.964 19.4059 172.105 17.6886 170.333 15.2142C169.601 14.1922 168.554 13.8083 167.695 13.5388C165.958 12.9935 164.467 16.0552 162.747 17.5676C161.738 18.4541 160.377 18.5409 159.144 18.3278C155.958 17.7775 154.247 16.3909 150.972 16.0681C146.364 15.6139 143.284 13.8148 140.848 12.948C138.669 12.1725 136.814 11.3355 133.057 10.0459C127.405 8.10601 123.256 5.52479 119.828 4.18348C109.715 0.226902 107.548 0.249926 105.393 0.0869028C102.805 -0.108861 99.8 0.0304092 97.6452 0.461372C95.1981 0.950796 92.5882 0.998868 90.8111 1.58963C88.1255 2.48238 86.8808 5.51188 85.9656 7.23574C84.9294 9.18748 83.4395 11.2129 82.1466 13.0465C80.7807 14.9836 78.92 16.8106 77.7337 19.6594C75.6477 24.6687 77.0864 33.7005 76.6555 36.0183C76.1697 38.6308 76.118 41.2351 75.687 43.4431C74.9343 47.2996 75.5756 52.3207 76.2745 55.7587C76.8457 58.5684 77.7256 60.714 78.5875 62.9737C79.4114 65.1337 81.1669 67.1704 82.4598 69.6432C84.0724 72.7275 84.6146 75.4539 85.0988 78.4658C85.5245 81.1139 86.2287 83.2016 86.6596 85.7309C87.1245 88.4594 87.6233 91.6917 88.7015 95.6801C89.7256 99.4684 90.9612 101.925 91.5552 103.918C92.3643 106.634 93.1112 109.666 93.7617 112.204C94.4042 114.71 94.9448 117.098 95.6437 119.199C96.2353 120.978 96.8817 122.908 98.1698 125.814C99.1517 128.029 101.182 129.797 102.796 131.2C104.422 132.613 106.024 133.781 107.477 136.036C109.765 139.588 105.743 143.223 106.5 145C107.668 147.742 110.756 151.727 112 154C112.963 155.759 113.138 157.276 114 159C114.862 160.724 119.47 161.477 118 162.5C113.352 165.735 121.541 163.473 121.256 163.803C118.5 167 122.062 165.307 122.171 165.746Z" fill="#8E6642" style="mix-blend-mode:multiply"/>
<path d="M265 171C264.574 171 264.283 165.771 257.774 162.678C251.954 159.913 241.25 154.259 235.441 151.139C228.994 147.676 225.994 145.233 221.534 142.278C216.916 139.217 215.431 137.266 214.028 135.59C212.07 133.251 210.156 129.622 207.791 124.952C206.008 121.431 206.276 117.587 205.74 111.624C205.457 108.481 205.63 102.931 205.577 99.8108C205.524 96.6907 205.417 96.1581 205.362 89.5451C205.307 82.9322 205.307 70.2551 205.361 63.2983C205.43 54.1776 205.953 52.4677 206.221 50.3161C206.541 47.7436 206.599 44.946 206.973 42.6734C207.691 38.3146 210.789 31.3812 211.975 28.366C212.725 26.4599 213.268 24.4922 214.235 21.5868C214.882 19.6433 215.741 17.9261 217.513 15.4516C218.245 14.4296 219.292 14.0458 220.151 13.7762C221.888 13.2309 223.379 16.2926 225.099 17.805C226.108 18.6915 227.469 18.7783 228.702 18.5652C231.887 18.0149 233.599 16.6283 236.874 16.3055C241.482 15.8513 244.562 14.0522 246.998 13.1854C249.177 12.4099 251.032 11.573 254.789 10.2833C260.441 8.34344 264.59 5.76222 268.018 4.42091C278.131 0.464329 280.298 0.487353 282.453 0.32433C285.041 0.128566 288.046 0.267836 290.201 0.698799C292.648 1.18822 295.258 1.23629 297.035 1.82705C299.72 2.71981 300.965 5.74931 301.88 7.47316C302.917 9.42491 304.406 11.4503 305.699 13.2839C307.065 15.2211 308.926 17.048 310.112 19.8969C312.198 24.9061 310.76 33.9379 311.19 36.2557C311.676 38.8683 311.728 41.4725 312.159 43.6806C312.912 47.537 312.27 52.5581 311.571 55.9961C311 58.8058 310.12 60.9514 309.258 63.2111C308.435 65.3712 306.679 67.4078 305.386 69.8806C303.774 72.9649 303.231 75.6913 302.747 78.7032C302.321 81.3513 301.617 83.439 301.186 85.9683C300.721 88.6968 300.223 91.9291 299.144 95.9176C298.12 99.7058 296.885 102.163 296.291 104.156C295.482 106.871 294.735 109.904 294.084 112.441C293.442 114.947 292.901 117.335 292.202 119.437C291.611 121.216 290.964 123.146 289.676 126.051C288.694 128.266 286.664 130.035 285.05 131.437C283.424 132.851 281.822 134.018 280.369 136.273C278.081 139.825 280.757 150.223 280 152C278.832 154.742 276.744 156.227 275.5 158.5C274.537 160.259 271.362 162.276 270.5 164C269.638 165.724 269.569 163.761 270 165.5C270.802 168.735 269.41 169.46 268 167.5C267.745 167.146 265.11 170.561 265 171Z" fill="#8E6642" style="mix-blend-mode:multiply"/>
<path d="M298.66 331.101C296.916 332.264 284.1 341.292 263.864 356.68C249.863 367.326 246.402 375.714 245.816 378.497C244.788 383.384 244.05 407.22 245.072 422.828C245.527 429.784 250.78 435.881 255.188 441.619C261.21 449.458 268.396 451.172 273.099 453.378C278.77 456.038 287.174 459.68 292.477 463.063C296.879 465.871 299.822 467.916 301.729 467.629C307.46 466.769 304.526 454.448 305.556 444.931C308.359 419.05 309.376 410.561 308.5 402C307.895 396.09 306.654 389.018 306.5 367.5C306.425 357.002 303.949 345.562 302.328 339.237C300.126 332.041 305.416 334.796 303.949 330.237C303.363 329.202 300.439 332.88 298.66 331.101Z" fill="#8E6642" style="mix-blend-mode:multiply"/>
<path d="M0.5 201V142" stroke="white"/>
<path d="M381.5 132.5V186.5" stroke="white"/>
</svg>
