<svg width="373" height="576" viewBox="0 0 373 576" fill="none" xmlns="http://www.w3.org/2000/svg">
<path d="M94.0408 476.12C94.0408 475.953 89.1503 467.128 90.8207 464.237C94.4877 457.892 105.443 463.497 106.508 463.771C108.321 464.237 109.321 464.237 113.481 466.739C116.445 468.521 120.342 472.837 123.701 476.652C127.061 480.467 129.481 484.056 131.312 486.572C134.184 490.519 135.933 492.133 137.733 493.307C141.343 495.659 144.195 497.108 146.036 498.238C150.134 500.754 153.299 502.251 154.639 502.753C157.374 503.778 160.787 505.198 163.735 505.998C167.877 507.123 172.514 507.479 175.542 507.689C179.844 507.987 181.532 508.151 183.641 508.824C184.254 509.02 184.068 508.444 184.454 508.824C186.147 510.495 182.386 511.103 181.5 513C180.229 515.72 177.818 521.857 175.542 523.5C173.672 524.85 177.13 527.058 175.321 528.237C171.277 530.874 174.265 531.671 171.821 533.737C170.135 535.162 169.548 534.887 165.321 539.237L159.321 545.237C157.291 547.326 154.04 547.457 152 550C150.045 552.438 148.104 553.013 146 556C143.804 559.117 140.831 561.846 139.022 564.075C137.174 566.351 133.689 569.246 128.661 572.422C126.577 573.738 124.479 573.064 120.988 572.937C118.405 572.842 114.827 575.382 112 575C106.769 574.294 105.259 572.22 103.279 572.01C101.802 571.853 100.454 571.547 98.8533 570.959C95.8002 569.837 93.4802 574.69 92.7738 570H91.5C90.4105 568.467 85.5 569.823 85.5 566.24C85.5 564.121 82.3218 562.449 79 559C77.315 557.25 76.3913 554.738 74.9498 552.5C74.128 551.224 75.5846 547.274 74.9498 545.84C74.0394 543.784 73.3034 540.046 73.0935 535.697C72.7143 527.837 68.2097 526.071 70.4998 520.861L73.0935 517.5C73.0935 517.5 76.6103 513.193 78 511C79.8058 508.151 84.3195 506.927 87.3707 503.024C91.1385 498.204 91.9266 496.528 92.7738 495.009C93.7223 493.307 93.7019 490.97 93.9978 489.109C93.9573 486.83 93.454 484.481 93.4073 478.334C93.5324 477.134 93.7828 476.884 94.0408 476.12Z" fill="#8E6642" style="mix-blend-mode:multiply"/>
<path d="M236.821 546.237C237.155 545.987 236.835 545.924 243.642 542.999C250.448 540.074 263.717 534.483 271.43 530.893C279.142 527.303 280.894 525.884 285.135 521.815C289.376 517.746 296.053 511.07 300.118 506.754C307.407 499.016 308.485 496.786 309.797 495.552C310.783 494.625 312.477 498.404 313.381 500.422L313.424 500.518C314.359 502.605 315.738 504.348 318.305 507.802C320.359 510.567 321.807 512.355 323.073 515.012C324.697 518.424 325.687 520.032 326.28 521.843C327.311 524.993 327.123 527.619 327.251 530.732C327.369 533.606 326.961 537.305 326.242 539.085C325.617 540.631 325.272 542.54 324.934 544.1C324.43 546.431 323.502 549.621 323.122 550.971C322.699 552.48 321.984 553.92 321.479 555.271C320.99 556.574 319.966 557.8 318.532 558.812C316.865 559.99 315.08 560.834 313.516 561.847C312.012 562.821 310.862 563.869 308.462 565.218C307.003 566.039 305.384 566.651 300.51 569.258C295.365 572.01 291.743 571.289 289.449 571.586C287.476 571.842 285.911 572.806 284.475 573.062C282.796 573.36 278.517 573.99 275.583 573.57C273.768 573.31 272.422 572.811 271.072 572.474C269.699 572.131 268.376 571.38 266.984 570.746C265.501 570.072 264.244 569.443 262.729 568.473C260.124 566.805 258.766 566.489 257.164 566.068C255.372 565.597 254.381 564.132 252.948 562.909C251.698 561.842 250.84 560.339 249.827 558.991C248.58 557.331 247.891 555.62 246.751 554.479C245.193 552.921 243.005 551.068 240.853 549.801C239.374 548.872 238.362 547.527 237.394 546.512C237.098 546.341 237.165 546.323 236.821 546.237Z" fill="#8E6642" style="mix-blend-mode:multiply"/>
<path d="M125.171 165.746C125.597 165.746 126.563 165.533 133.072 162.441C138.892 159.676 149.596 154.022 155.405 150.902C161.852 147.439 164.852 144.996 169.312 142.04C173.93 138.98 175.415 137.028 176.818 135.353C178.776 133.013 180.69 129.384 183.054 124.715C184.838 121.193 184.57 117.349 185.106 111.387C185.388 108.244 185.216 102.693 185.269 99.5733C185.322 96.4533 185.429 95.9206 185.484 89.3077C185.539 82.6947 185.539 70.0176 185.485 63.0609C185.415 53.9402 184.893 52.2303 184.625 50.0787C184.305 47.5061 184.247 44.7086 183.873 42.4359C183.155 38.0772 180.057 31.1437 178.871 28.1286C178.121 26.2225 177.578 24.2548 176.611 21.3494C175.964 19.4059 175.105 17.6886 173.333 15.2142C172.601 14.1922 171.554 13.8083 170.695 13.5388C168.958 12.9935 167.467 16.0552 165.747 17.5676C164.738 18.4541 163.377 18.5409 162.144 18.3278C158.958 17.7775 157.247 16.3909 153.972 16.0681C149.364 15.6139 146.284 13.8148 143.848 12.948C141.669 12.1725 139.814 11.3355 136.057 10.0459C130.405 8.10602 126.256 5.52479 122.828 4.18348C112.715 0.226902 110.548 0.249926 108.393 0.0869028C105.805 -0.108861 102.8 0.0304092 100.645 0.461372C98.1981 0.950796 95.5882 0.998868 93.8111 1.58963C91.1255 2.48238 89.8808 5.51188 88.9656 7.23574C87.9294 9.18748 86.4395 11.2129 85.1466 13.0465C83.7807 14.9836 81.92 16.8106 80.7337 19.6594C78.6477 24.6687 80.0864 33.7005 79.6555 36.0183C79.1697 38.6308 79.118 41.2351 78.687 43.4431C77.9343 47.2996 78.5756 52.3207 79.2745 55.7587C79.8457 58.5684 80.7256 60.714 81.5875 62.9737C82.4114 65.1337 84.1669 67.1704 85.4598 69.6432C87.0724 72.7275 87.6146 75.4539 88.0988 78.4658C88.5245 81.1139 89.2287 83.2016 89.6596 85.7309C90.1245 88.4594 90.6233 91.6917 91.7015 95.6801C92.7256 99.4684 93.9612 101.925 94.5552 103.918C95.3643 106.634 96.1112 109.666 96.7617 112.204C97.4042 114.71 97.9448 117.098 98.6437 119.199C99.2353 120.978 99.8817 122.908 101.17 125.814C102.152 128.029 104.182 129.797 105.796 131.2C107.422 132.613 109.024 133.781 110.477 136.036C112.765 139.588 113.866 141.419 114.623 143.196C115.791 145.937 118.166 149.909 119.411 152.182C120.374 153.941 121.078 155.623 121.94 157.347C122.802 159.071 123.661 160.788 124.148 162.512C124.203 162.944 124.203 163.37 124.256 163.803C124.309 164.236 125.062 165.307 125.171 165.746Z" fill="#8E6642" style="mix-blend-mode:multiply"/>
<path d="M268.675 165.984C268.248 165.984 267.283 165.771 260.774 162.678C254.954 159.913 244.25 154.259 238.441 151.139C231.994 147.676 228.994 145.233 224.534 142.278C219.916 139.217 218.431 137.266 217.028 135.59C215.07 133.251 213.156 129.622 210.791 124.952C209.008 121.431 209.276 117.587 208.74 111.624C208.457 108.481 208.63 102.931 208.577 99.8108C208.524 96.6907 208.417 96.1581 208.362 89.5451C208.307 82.9322 208.307 70.2551 208.361 63.2983C208.43 54.1776 208.953 52.4677 209.221 50.3161C209.541 47.7436 209.599 44.946 209.973 42.6734C210.691 38.3146 213.789 31.3812 214.975 28.366C215.725 26.4599 216.268 24.4922 217.235 21.5868C217.882 19.6433 218.741 17.9261 220.513 15.4516C221.245 14.4296 222.292 14.0458 223.151 13.7762C224.888 13.2309 226.379 16.2926 228.099 17.805C229.108 18.6915 230.469 18.7783 231.702 18.5652C234.887 18.0149 236.599 16.6283 239.874 16.3055C244.482 15.8513 247.562 14.0522 249.998 13.1854C252.177 12.4099 254.032 11.573 257.789 10.2833C263.441 8.34344 267.59 5.76222 271.018 4.42091C281.131 0.464329 283.298 0.487353 285.453 0.32433C288.041 0.128566 291.046 0.267836 293.201 0.698799C295.648 1.18822 298.258 1.23629 300.035 1.82705C302.72 2.71981 303.965 5.74931 304.88 7.47316C305.917 9.42491 307.406 11.4503 308.699 13.2839C310.065 15.2211 311.926 17.048 313.112 19.8969C315.198 24.9061 313.76 33.9379 314.19 36.2557C314.676 38.8683 314.728 41.4725 315.159 43.6806C315.912 47.537 315.27 52.5581 314.571 55.9961C314 58.8058 313.12 60.9514 312.258 63.2111C311.435 65.3712 309.679 67.4078 308.386 69.8806C306.774 72.9649 306.231 75.6913 305.747 78.7032C305.321 81.3513 304.617 83.439 304.186 85.9683C303.721 88.6968 303.223 91.9291 302.144 95.9176C301.12 99.7058 299.885 102.162 299.291 104.156C298.482 106.871 297.735 109.904 297.084 112.441C296.442 114.947 295.901 117.335 295.202 119.437C294.611 121.216 293.964 123.146 292.676 126.051C291.694 128.266 289.664 130.035 288.05 131.437C286.424 132.851 284.822 134.018 283.369 136.273C281.081 139.825 279.98 141.656 279.223 143.433C278.055 146.175 275.68 150.146 274.435 152.419C273.472 154.178 272.768 155.86 271.906 157.584C271.044 159.308 270.185 161.025 269.698 162.749C269.643 163.182 269.643 163.608 269.59 164.04C269.537 164.473 268.784 165.545 268.675 165.984Z" fill="#8E6642" style="mix-blend-mode:multiply"/>
<path d="M293 338C291.256 339.163 287.1 341.292 266.864 356.68C252.863 367.326 249.402 375.714 248.816 378.497C247.788 383.384 247.05 407.22 248.072 422.828C248.527 429.784 253.78 435.881 258.188 441.619C264.21 449.458 271.396 451.172 276.099 453.378C281.77 456.038 290.174 459.68 295.477 463.063C299.879 465.871 302.822 467.916 304.729 467.629C310.46 466.769 307.526 454.448 308.556 444.931C311.359 419.05 307.825 409.563 306.949 401.001C306.344 395.091 305.482 388.67 305.328 367.152C305.253 356.654 302.121 367.324 300.5 361C298.298 353.804 297.967 354.058 296.5 349.5C295.033 344.942 294.779 339.779 293 338Z" fill="#8E6642" style="mix-blend-mode:multiply"/>
<path d="M2.99988 207.5C0.199882 155.9 1.83322 138.333 2.99988 136" stroke="white"/>
<path d="M369 308.5L372.5 364" stroke="white"/>
</svg>
