<svg width="336" height="149" viewBox="0 0 336 149" fill="none" xmlns="http://www.w3.org/2000/svg">
<ellipse cx="182.5" cy="74.5" rx="89.5" ry="74.5" fill="white"/>
<path d="M201 103C201 138.899 165.525 145 118.028 145C70.5317 145 29 138.899 29 103C29 67.1015 67.5035 38 115 38C162.496 38 201 67.1015 201 103Z" fill="white"/>
<path d="M93 131.648C93 146.365 87.5 145 46.5 148C5.5 151 0 146.365 0 131.648C0 116.931 20.8188 105 46.5 105C72.1812 105 93 116.931 93 131.648Z" fill="white"/>
<path d="M336 114.61C336 151.95 299.072 148.942 245.5 148.942C191.928 148.942 142 151.95 142 114.61C142 77.27 185.428 47 239 47C292.572 47 336 77.27 336 114.61Z" fill="white"/>
<rect x="15" y="123" width="280" height="25" fill="white"/>
</svg>
