<svg width="205" height="130" viewBox="0 0 205 130" fill="none" xmlns="http://www.w3.org/2000/svg">
<path d="M59.2152 94.7723C57.8689 103.116 60.2511 105.149 66.3145 106.131C68.5326 119.94 71.9166 125.325 86.1933 123.17C96.0883 131.556 102.355 130.306 114.118 123.17C134.681 127.581 141.434 125.316 143.935 111.811C153.461 110.152 155.11 106.58 154.82 97.8898C160.9 94.6541 160.772 91.9393 159.081 86.7263C169.666 77.8857 169.598 72.2724 163.813 61.6418C168.651 43.0983 165.103 37.1447 151.981 31.351C149.407 16.7671 142.033 18.4951 129.263 20.9385C119.309 12.5538 112.976 10.0452 98.0256 16.2056C91.2021 14.9826 86.3713 14.9315 82.8224 16.0485C82.3456 16.1985 81.892 16.3696 81.4599 16.5618C76.5297 18.7542 74.3851 23.6882 72.4678 31.351C59.2152 31.351 55.5474 37.0304 54.4822 49.3361C48.8027 60.2218 48.8027 64.9548 54.4822 81.0467C50.8748 87.4742 51.6906 90.9892 59.2152 94.7723Z" fill="#1D1B19"/>
<path d="M163.813 61.6418C169.598 72.2724 169.666 77.8857 159.081 86.7263C160.772 91.9393 160.9 94.6541 154.82 97.8898C161.476 106.381 165.202 105.888 171.859 97.8898C191.005 101.56 184.638 97.1387 190.791 89.566C206.671 85.0399 205.325 86.0543 200.257 69.2144C205.936 57.8554 203.57 54.069 196.944 47.9162C202.623 37.0304 202.727 29.2487 189.371 27.0913C192.509 11.9937 188.381 9.43578 174.225 10.0527C166.49 0.391287 162.445 -3.21244 149.141 7.68623C133.525 1.16349 131.677 4.21173 129.263 20.9385C142.033 18.4951 149.407 16.7671 151.981 31.351C165.103 37.1447 168.651 43.0983 163.813 61.6418Z" fill="#1D1B19"/>
<path d="M75.5529 22.4217C73.1387 5.69495 71.163 2.64348 55.5474 9.16622C42.2432 -1.73245 38.1977 1.87128 30.4628 11.5327C16.3069 10.9158 12.1796 13.4737 15.3174 28.5713C1.96079 30.7287 2.06518 38.5104 7.7447 49.3962C1.11859 55.549 -1.24788 59.3354 4.43165 70.6944C-0.636904 87.5343 -1.98309 86.5199 13.8975 91.046C20.0503 98.6187 13.6832 103.04 32.8293 99.3698C39.2574 101.617 44.7004 101.121 48.8027 98.0853C54.9357 99.295 57.1044 98.4324 59.2152 94.7723C51.6906 90.9892 50.8748 87.4742 54.4822 81.0467C48.8027 64.9548 48.8027 60.2218 54.4822 49.3361C55.5474 37.0304 59.2152 31.351 72.4678 31.351C73.3607 27.7823 74.3029 24.8054 75.5529 22.4217Z" fill="#1D1B19"/>
<path d="M59.2152 94.7723C57.1044 98.4324 54.9357 99.295 48.8027 98.0853C44.7004 101.121 39.2574 101.617 32.8293 99.3698C13.6832 103.04 20.0503 98.6187 13.8975 91.046C-1.98309 86.5199 -0.636904 87.5343 4.43165 70.6944C-1.24788 59.3354 1.11859 55.549 7.7447 49.3962C2.06518 38.5104 1.96079 30.7287 15.3174 28.5713C12.1796 13.4737 16.3069 10.9158 30.4628 11.5327C38.1977 1.87128 42.2432 -1.73245 55.5474 9.16622C71.163 2.64348 73.1387 5.69495 75.5529 22.4217C74.3029 24.8054 73.3607 27.7823 72.4678 31.351M59.2152 94.7723C57.8689 103.116 60.2511 105.149 66.3145 106.131C68.5326 119.94 71.9166 125.325 86.1933 123.17C96.0883 131.556 102.355 130.306 114.118 123.17C134.681 127.581 141.434 125.316 143.935 111.811C153.461 110.152 155.11 106.58 154.82 97.8898M59.2152 94.7723C51.6906 90.9892 50.8748 87.4742 54.4822 81.0467C48.8027 64.9548 48.8027 60.2218 54.4822 49.3361C55.5474 37.0304 59.2152 31.351 72.4678 31.351M129.263 20.9385C142.033 18.4951 149.407 16.7671 151.981 31.351C165.103 37.1447 168.651 43.0983 163.813 61.6418C169.598 72.2724 169.666 77.8857 159.081 86.7263C160.772 91.9393 160.9 94.6541 154.82 97.8898M129.263 20.9385C119.309 12.5538 112.976 10.0452 98.0256 16.2056C91.2021 14.9826 86.3713 14.9315 82.8224 16.0485C82.3456 16.1985 81.892 16.3696 81.4599 16.5618C76.5297 18.7542 74.3851 23.6882 72.4678 31.351M129.263 20.9385C131.677 4.21173 133.525 1.16349 149.141 7.68623C162.445 -3.21244 166.49 0.391287 174.225 10.0527C188.381 9.43578 192.509 11.9937 189.371 27.0913C202.727 29.2487 202.623 37.0304 196.944 47.9162C203.57 54.069 205.936 57.8554 200.257 69.2144C205.325 86.0543 206.671 85.0399 190.791 89.566C184.638 97.1387 191.005 101.56 171.859 97.8898C165.202 105.888 161.476 106.381 154.82 97.8898" stroke="#D5CAC8"/>
<path d="M86.1934 74.9206C88.5309 74.9209 90.4258 76.8164 90.4258 79.154C90.4255 81.4914 88.5308 83.3862 86.1934 83.3864C83.8557 83.3864 81.9602 81.4916 81.96 79.154C81.96 76.8162 83.8556 74.9206 86.1934 74.9206Z" fill="#D5CAC8" stroke="#D5CAC8"/>
<path d="M122.164 74.9206C124.501 74.9209 126.396 76.8164 126.396 79.154C126.396 81.4914 124.501 83.3862 122.164 83.3864C119.826 83.3864 117.93 81.4916 117.93 79.154C117.93 76.8162 119.826 74.9206 122.164 74.9206Z" fill="#D5CAC8" stroke="#D5CAC8"/>
<path d="M111.488 91.5421C106.851 90.4727 103.976 90.6647 98.2882 92.7247C102.358 93.0608 103.877 94.2721 104.991 98.5889C105.783 94.2291 107.706 92.9837 111.488 91.5421Z" fill="#D5CAC8" stroke="#D5CAC8" stroke-linejoin="round"/>
<path d="M114.59 74.4206L112.697 69.6877L133.522 62.115L134.942 64.4815L114.59 74.4206Z" fill="#D5CAC8" stroke="#D5CAC8" stroke-linejoin="round"/>
<path d="M122.164 74.9206C124.501 74.9209 126.396 76.8164 126.396 79.154C126.396 81.4914 124.501 83.3862 122.164 83.3864C119.826 83.3864 117.93 81.4916 117.93 79.154C117.93 76.8162 119.826 74.9206 122.164 74.9206Z" fill="#D5CAC8" stroke="#D5CAC8"/>
<path d="M114.59 74.4206L112.697 69.6877L133.522 62.115L134.942 64.4815L114.59 74.4206Z" fill="#D5CAC8" stroke="#D5CAC8" stroke-linejoin="round"/>
<path d="M97.0785 74.4206L98.9717 69.6877L78.1468 62.115L76.7269 64.4815L97.0785 74.4206Z" fill="#D5CAC8" stroke="#D5CAC8" stroke-linejoin="round"/>
</svg>
