<svg width="205" height="130" viewBox="0 0 205 130" fill="none" xmlns="http://www.w3.org/2000/svg">
<path d="M59.2152 95.2088C57.8689 103.553 60.2511 105.586 66.3145 106.568C68.5326 120.376 71.9166 125.762 86.1933 123.606C96.0883 131.992 102.355 130.742 114.118 123.606C134.681 128.017 141.434 125.753 143.935 112.247C153.461 110.589 155.11 107.016 154.82 98.3263C160.9 95.0906 160.772 92.3758 159.081 87.1628C169.666 78.3222 169.598 72.7089 163.813 62.0783C168.651 43.5348 165.103 37.5812 151.981 31.7875C149.407 17.2036 142.033 18.9316 129.263 21.375C119.309 12.9903 112.976 10.4817 98.0256 16.642C91.2021 15.4191 86.3713 15.368 82.8224 16.4849C82.3456 16.635 81.892 16.8061 81.4599 16.9983C76.5297 19.1907 74.3851 24.1247 72.4678 31.7875C59.2152 31.7875 55.5474 37.4669 54.4822 49.7726C48.8027 60.6583 48.8027 65.3913 54.4822 81.4832C50.8748 87.9107 51.6906 91.4256 59.2152 95.2088Z" fill="#F7EEE0"/>
<path d="M163.813 62.0783C169.598 72.7089 169.666 78.3222 159.081 87.1628C160.772 92.3758 160.9 95.0906 154.82 98.3263C161.476 106.817 165.202 106.324 171.859 98.3263C191.005 101.996 184.638 97.5752 190.791 90.0025C206.671 85.4764 205.325 86.4908 200.257 69.6509C205.936 58.2919 203.57 54.5055 196.944 48.3527C202.623 37.4669 202.727 29.6851 189.371 27.5278C192.509 12.4302 188.381 9.87227 174.225 10.4892C166.49 0.82778 162.445 -2.77595 149.141 8.12272C133.525 1.59998 131.677 4.64822 129.263 21.375C142.033 18.9316 149.407 17.2036 151.981 31.7875C165.103 37.5812 168.651 43.5348 163.813 62.0783Z" fill="#F7EEE0"/>
<path d="M75.5529 22.8582C73.1387 6.13144 71.163 3.07998 55.5474 9.60272C42.2432 -1.29595 38.1977 2.30778 30.4628 11.9692C16.3069 11.3523 12.1796 13.9102 15.3174 29.0078C1.96079 31.1651 2.06518 38.9469 7.7447 49.8327C1.11859 55.9855 -1.24788 59.7718 4.43165 71.1309C-0.636904 87.9708 -1.98309 86.9564 13.8975 91.4825C20.0503 99.0552 13.6832 103.476 32.8293 99.8063C39.2574 102.053 44.7004 101.557 48.8027 98.5218C54.9357 99.7315 57.1044 98.8689 59.2152 95.2088C51.6906 91.4256 50.8748 87.9107 54.4822 81.4832C48.8027 65.3913 48.8027 60.6583 54.4822 49.7726C55.5474 37.4669 59.2152 31.7875 72.4678 31.7875C73.3607 28.2188 74.3029 25.2419 75.5529 22.8582Z" fill="#F7EEE0"/>
<path d="M59.2152 95.2088C57.1044 98.8689 54.9357 99.7315 48.8027 98.5218C44.7004 101.557 39.2574 102.053 32.8293 99.8063C13.6832 103.476 20.0503 99.0552 13.8975 91.4825C-1.98309 86.9564 -0.636904 87.9708 4.43165 71.1309C-1.24788 59.7718 1.11859 55.9855 7.7447 49.8327C2.06518 38.9469 1.96079 31.1651 15.3174 29.0078C12.1796 13.9102 16.3069 11.3523 30.4628 11.9692C38.1977 2.30778 42.2432 -1.29595 55.5474 9.60272C71.163 3.07998 73.1387 6.13144 75.5529 22.8582C74.3029 25.2419 73.3607 28.2188 72.4678 31.7875M59.2152 95.2088C57.8689 103.553 60.2511 105.586 66.3145 106.568C68.5326 120.376 71.9166 125.762 86.1933 123.606C96.0883 131.992 102.355 130.742 114.118 123.606C134.681 128.017 141.434 125.753 143.935 112.247C153.461 110.589 155.11 107.016 154.82 98.3263M59.2152 95.2088C51.6906 91.4256 50.8748 87.9107 54.4822 81.4832C48.8027 65.3913 48.8027 60.6583 54.4822 49.7726C55.5474 37.4669 59.2152 31.7875 72.4678 31.7875M129.263 21.375C142.033 18.9316 149.407 17.2036 151.981 31.7875C165.103 37.5812 168.651 43.5348 163.813 62.0783C169.598 72.7089 169.666 78.3222 159.081 87.1628C160.772 92.3758 160.9 95.0906 154.82 98.3263M129.263 21.375C119.309 12.9903 112.976 10.4817 98.0256 16.642C91.2021 15.4191 86.3713 15.368 82.8224 16.4849C82.3456 16.635 81.892 16.8061 81.4599 16.9983C76.5297 19.1907 74.3851 24.1247 72.4678 31.7875M129.263 21.375C131.677 4.64822 133.525 1.59998 149.141 8.12272C162.445 -2.77595 166.49 0.82778 174.225 10.4892C188.381 9.87227 192.509 12.4302 189.371 27.5278C202.727 29.6851 202.623 37.4669 196.944 48.3527C203.57 54.5055 205.936 58.2919 200.257 69.6509C205.325 86.4908 206.671 85.4764 190.791 90.0025C184.638 97.5752 191.005 101.996 171.859 98.3263C165.202 106.324 161.476 106.817 154.82 98.3263" stroke="#290F0A"/>
<path d="M86.1934 75.3571C88.5309 75.3574 90.4258 77.2529 90.4258 79.5905C90.4255 81.9279 88.5308 83.8227 86.1934 83.8229C83.8557 83.8229 81.9602 81.9281 81.96 79.5905C81.96 77.2527 83.8556 75.3571 86.1934 75.3571Z" fill="#290F0A" stroke="#290F0A"/>
<path d="M122.164 75.3571C124.501 75.3574 126.396 77.2529 126.396 79.5905C126.396 81.9279 124.501 83.8227 122.164 83.8229C119.826 83.8229 117.93 81.9281 117.93 79.5905C117.93 77.2527 119.826 75.3571 122.164 75.3571Z" fill="#290F0A" stroke="#290F0A"/>
<path d="M111.488 91.9786C106.851 90.9092 103.976 91.1012 98.2882 93.1612C102.358 93.4973 103.877 94.7086 104.991 99.0254C105.783 94.6656 107.706 93.4201 111.488 91.9786Z" fill="#290F0A" stroke="#290F0A" stroke-linejoin="round"/>
<path d="M114.59 74.8571L112.697 70.1242L133.522 62.5515L134.942 64.918L114.59 74.8571Z" fill="#290F0A" stroke="#290F0A" stroke-linejoin="round"/>
<path d="M97.0785 74.8571L98.9717 70.1242L78.1468 62.5515L76.7269 64.918L97.0785 74.8571Z" fill="#290F0A" stroke="#290F0A" stroke-linejoin="round"/>
</svg>
