<svg width="27" height="32" viewBox="0 0 27 32" fill="none" xmlns="http://www.w3.org/2000/svg">
<path d="M18.7764 0.529297C18.9399 0.471145 19.1225 0.501527 19.2578 0.610352C20.1908 1.36101 20.8099 2.06217 21.1074 2.9209C21.3506 3.6229 21.3584 4.37789 21.2275 5.26367C22.8938 5.33814 24.7264 6.12144 25.5713 8.09277C25.6332 8.23722 25.6241 8.40277 25.5459 8.53906C25.4676 8.67522 25.3297 8.76677 25.1738 8.78613C23.578 8.98443 21.939 8.16622 20.8242 6.87598C18.2136 15.6068 16.3844 20.4566 13.8057 23.7334C11.1153 27.1518 7.63812 28.8233 1.86035 31.4551C1.7157 31.521 1.54799 31.5139 1.40918 31.4365C1.2703 31.3589 1.17594 31.2194 1.15625 31.0615C0.638204 26.9078 0.36728 23.7163 0.564453 21.1514C0.763036 18.5684 1.43845 16.5904 2.8291 14.8848C4.20641 13.1956 6.25298 11.8153 9.10645 10.3574C11.8139 8.97418 15.2991 7.49579 19.71 5.61621C19.0375 4.97473 18.6099 4.36268 18.3984 3.68164C18.1309 2.81989 18.2344 1.92971 18.4551 0.895508L18.4727 0.833984C18.5224 0.692784 18.6332 0.580253 18.7764 0.529297Z" fill="#54535F" stroke="#26262B" stroke-linejoin="round"/>
<circle cx="2.76593" cy="25.6729" r="0.841121" fill="#26262B"/>
</svg>
