<svg width="3176" height="185" viewBox="0 0 3176 185" fill="#4caf50" xmlns="http://www.w3.org/2000/svg">
<path d="M0 0.5H3176V146C3050.23 194.926 2977.94 200.987 2843.5 146C2772.55 109.113 2738.13 118.792 2678.5 146C2666.33 164.524 2652.82 160.711 2625 146C2614.64 137.128 2607.49 135.221 2588.5 146C2572.47 158.865 2572 153 2558 146C2544 139 2507.92 130.684 2484.5 146C2450.28 170.993 2428.2 164.135 2388 146C2330 126.451 2308.27 132.11 2272 146C2218.27 172.119 2186.19 166.413 2128 146C2079.91 125.476 2060.5 104 2005 144C1949.5 184 1861.5 146.5 1861.5 146.5C1861.5 146.5 1772.74 120.816 1737 146.5C1676.1 168.407 1643.57 170.603 1588 146.5C1495.23 104.941 1422.74 106.068 1300 141C1209.91 167.015 1163.31 164.458 1085.5 141C987 87 949 103.5 857.5 141C762.223 195.813 740 159.5 640.5 141C541 122.5 520.617 115.457 440 141C367.156 189.168 311.5 170 246 141C180.5 112 160.5 104.5 88 141C52.4506 161.26 33.2028 160.791 0 141V0.5Z" fill="#4caf50"/>
</svg>
