<svg width="1510" height="147" viewBox="0 0 1510 147" fill="none" xmlns="http://www.w3.org/2000/svg">
<path d="M1448.06 2.5V48.667C1448.06 50.4487 1449.39 51.8849 1451.06 52.1338C1463.51 53.9878 1471.14 56.7823 1477.32 61.0312C1483.58 65.3288 1488.54 71.2198 1495.53 79.7637C1499.47 84.7982 1502.25 88.5895 1504.17 92.8672C1506.06 97.0863 1507.17 101.919 1507.5 109.035V144.016H2.5V109.035C2.83215 101.919 3.94212 97.0863 5.83301 92.8672C7.75014 88.5896 10.5274 84.798 14.4717 79.7637C21.4626 71.2196 26.4221 65.3289 32.6777 61.0312C38.8626 56.7823 46.49 53.9878 58.9385 52.1338C60.6096 51.8849 61.9403 50.4488 61.9404 48.667V2.5H1448.06Z" fill="#9E2C18" stroke="#6E2616" stroke-width="5"/>
<path d="M1450.04 52.5981C1450.87 52.5981 1451.54 51.9266 1451.54 51.0981C1451.54 50.2697 1450.87 49.5981 1450.04 49.5981V52.5981ZM62.5691 51.0981V52.5981H1450.04V51.0981V49.5981H62.5691V51.0981Z" fill="#6E2616"/>
</svg>
