<svg width="3182" height="190" viewBox="0 0 3182 190" fill="none" xmlns="http://www.w3.org/2000/svg">
<path d="M3 2.5H3179V148C3053.23 196.926 2980.94 202.987 2846.5 148C2775.55 111.113 2741.13 120.792 2681.5 148C2669.33 166.524 2655.82 162.711 2628 148C2617.64 139.128 2610.49 137.221 2591.5 148C2575.47 160.865 2575 155 2561 148C2547 141 2510.92 132.684 2487.5 148C2453.28 172.993 2431.2 166.135 2391 148C2333 128.451 2311.27 134.11 2275 148C2221.27 174.119 2189.19 168.413 2131 148C2082.91 127.476 2063.5 106 2008 146C1952.5 186 1864.5 148.5 1864.5 148.5C1864.5 148.5 1775.74 122.816 1740 148.5C1679.1 170.407 1646.57 172.603 1591 148.5C1498.23 106.941 1425.74 108.068 1303 143C1212.91 169.015 1166.31 166.458 1088.5 143C990 89 952 105.5 860.5 143C765.223 197.813 743 161.5 643.5 143C544 124.5 523.617 117.457 443 143C370.156 191.168 314.5 172 249 143C183.5 114 163.5 106.5 91 143C55.4506 163.26 36.2028 162.791 3 143V2.5Z" fill="#4caf50" stroke="#4caf50" stroke-width="5"/>
</svg>
