<svg width="1517" height="448" viewBox="0 0 1517 448" fill="none" xmlns="http://www.w3.org/2000/svg">
<path d="M1032 445.142C1031.21 445.142 1030.41 445.142 1074.54 442.757C1118.66 440.371 1196.63 445.612 1244.5 442.757C1304.54 439.175 1315.7 447.54 1337 445.142C1383.52 439.906 1454.81 436.72 1468.5 442.757C1471.66 444.149 1493.95 446.299 1502 445.142C1522.69 442.17 1514 406.363 1512 389C1510.01 371.732 1494.64 344.561 1487.41 328.5C1477.38 306.209 1470.33 281.688 1463.5 268C1456.81 254.605 1447.04 243.586 1445 227.5C1443.05 212.077 1430.44 192.979 1427.62 176.918C1424.28 157.857 1421.62 144.783 1411.99 134.71C1401.36 123.58 1383.11 127.866 1363.06 125.046C1317.65 118.66 1293.36 117 1274 119C1257.95 120.657 1220.97 117 1181 119C1125.12 121.796 1094.85 127.866 1061.5 125.865C1018.97 123.315 987.634 123.841 968.5 125.046C891.385 129.902 860.417 123.046 836.5 125.046C820.833 126.356 776.231 127.444 745 125.046C726.795 123.648 711.267 130.276 686 129.059C663.033 127.952 637.66 127.866 613.658 125.046C544.919 116.971 531.627 128.637 486.757 129.059C473.737 129.181 462.217 129.046 457 125.046C442.723 114.1 453.783 87.3687 457 72.5001C463.36 43.1045 444.795 31.4102 442 25.0001C435.739 10.6418 439.596 6.66562 419 5.49988C366 2.50005 324.471 0.987539 308 9.00016C294.886 15.3797 297.827 19.3274 296.61 111.021C296.312 133.438 299.405 129.988 296.61 136C293.51 142.667 267.508 142.602 237 143C186.478 143.658 138.688 139.451 125 147.5C110.297 156.146 98.3079 193.167 89.5 216C72.2187 260.799 53.5125 285.198 47.5 302.5C40.4679 322.737 28.7463 338.243 26.3124 351.509C23.3076 367.887 14.2873 383.21 5.45539 400.501C-1.21075 413.551 3.22886 417.824 3.99999 429.5C5.33835 449.764 38.9887 438.656 54 439.5C78.8177 440.895 112.182 446.328 149.864 443.564C178 441.5 212.54 450.022 240 443.564C270.112 436.482 300.336 443.398 316 441C325.236 439.586 353.66 436.31 389 437.901C408.107 438.761 435.042 433.045 459.152 437.503C503.454 445.695 544.11 435.503 571.667 437.901C588.009 439.323 603.777 442.733 619.863 445.13C636.088 447.549 651.492 435.901 678 437.901C704.244 439.881 724.637 439.295 743 440.5C778.784 442.848 772.972 439.861 798 437.503C896.824 428.196 922.902 444.217 943 441C965.532 437.783 1001.11 447.143 1032 445.142Z" fill="#812F1C"/>
<path d="M1032 445.142C1031.21 445.142 1030.41 445.142 1074.54 442.757C1118.66 440.371 1196.63 445.612 1244.5 442.757C1304.54 439.175 1315.7 447.54 1337 445.142C1383.52 439.906 1454.81 436.72 1468.5 442.757C1471.66 444.149 1493.95 446.299 1502 445.142C1522.69 442.17 1514 406.363 1512 389C1510.01 371.732 1494.64 344.561 1487.41 328.5C1477.38 306.209 1470.33 281.688 1463.5 268C1456.81 254.605 1447.04 243.586 1445 227.5C1443.05 212.077 1430.44 192.979 1427.62 176.918C1424.28 157.857 1421.62 144.783 1411.99 134.71C1401.36 123.58 1383.11 127.866 1363.06 125.046C1317.65 118.66 1293.36 117 1274 119C1257.95 120.657 1220.97 117 1181 119C1125.12 121.796 1094.85 127.866 1061.5 125.865C1018.97 123.315 987.634 123.841 968.5 125.046C891.385 129.902 860.417 123.046 836.5 125.046C820.833 126.356 776.231 127.444 745 125.046C726.795 123.648 711.267 130.276 686 129.059C663.033 127.952 637.66 127.866 613.658 125.046C544.919 116.971 531.627 128.637 486.757 129.059C473.737 129.181 462.217 129.046 457 125.046C442.723 114.1 453.783 87.3687 457 72.5001C463.36 43.1045 444.795 31.4102 442 25.0001C435.739 10.6418 439.596 6.66562 419 5.49988C366 2.50005 324.471 0.987539 308 9.00016C294.886 15.3797 297.827 19.3274 296.61 111.021C296.312 133.438 299.405 129.988 296.61 136C293.51 142.667 267.508 142.602 237 143C186.478 143.658 138.688 139.451 125 147.5C110.297 156.146 98.3079 193.167 89.5 216C72.2187 260.799 53.5125 285.198 47.5 302.5C40.4679 322.737 28.7463 338.243 26.3124 351.509C23.3076 367.887 14.2873 383.21 5.45539 400.501C-1.21075 413.551 3.22886 417.824 3.99999 429.5C5.33835 449.764 38.9887 438.656 54 439.5C78.8177 440.895 112.182 446.328 149.864 443.564C178 441.5 212.54 450.022 240 443.564C270.112 436.482 300.336 443.398 316 441C325.236 439.586 353.66 436.31 389 437.901C408.107 438.761 435.042 433.045 459.152 437.503C503.454 445.695 544.11 435.503 571.667 437.901C588.009 439.323 603.777 442.733 619.863 445.13C636.088 447.549 651.492 435.901 678 437.901C704.244 439.881 724.637 439.295 743 440.5C778.784 442.848 772.972 439.861 798 437.503C896.824 428.196 922.902 444.217 943 441C965.532 437.783 1001.11 447.143 1032 445.142ZM1032 445.142C1035.23 444.733 1028.72 445.142 1032 445.142Z" stroke="#812915" stroke-width="2" stroke-linecap="round"/>
<path d="M1385.64 394.316C1374.49 394.626 1350.26 394.679 1338.17 394.691C1337.94 394.692 1337.71 394.692 1337.49 394.693C1334.55 394.696 1331.75 394.708 1328.45 394.722C1320.8 394.754 1308.88 394.806 1287.28 394.756C1280.85 394.791 1274.35 394.822 1267.77 394.85C1197.47 395.146 1126.66 395.15 1056.49 395.069C1055.6 395.072 1054.69 395.075 1053.78 395.079C1035.97 395.141 1014.23 395.212 1000.45 395.151C982.937 395.075 970.958 394.994 961.274 394.923C905.386 394.825 849.38 394.722 793.521 394.699C775.943 394.691 758.403 394.692 740.949 394.703C724.831 394.713 708.542 394.729 692.483 394.75C683.129 394.804 674.235 394.868 665.867 394.927C654.151 395.009 643.792 395.081 635.272 395.106C614.946 395.166 591.015 395.084 573.883 395.021C571.069 395.01 568.418 395.001 565.971 394.992C552.153 395.024 538.076 395.058 524.413 395.092C523.498 395.072 522.577 395.052 521.642 395.031C510.155 394.773 495.155 394.774 472.536 394.774C462.747 394.774 451.261 394.773 437.524 394.749C428.737 394.734 424.307 394.63 420.681 394.546C419.615 394.521 418.618 394.498 417.61 394.479C414.156 394.414 410.533 394.481 406.289 394.56C400.489 394.662 393.489 394.785 384.487 394.667C356.217 394.289 343.166 394.527 333.721 394.707C330.941 394.759 328.44 394.807 325.897 394.833C317.875 394.916 305.37 394.819 296.292 394.69C288.97 394.589 275.422 394.672 263.874 394.782C259.659 394.824 254.039 394.82 247.676 394.815C241.323 394.809 232.922 394.802 224.437 394.843C203.94 394.95 191.33 394.995 183.201 395.033C180.999 395.045 178.018 395.053 175.508 395.063C167.396 395.093 158.597 395.115 148.708 395.13C143.746 395.14 137.231 395.149 131.832 395.149C127.738 395.153 121.709 394.964 117.524 395.031C94.6926 395.061 71.7905 395.886 48.8916 396.504C37.0967 396.83 25.8885 396.931 17.4674 396.666C9.20293 396.426 4.32483 395.681 4.48743 395.173C4.41435 394.696 9.21447 394.484 17.4352 393.994C25.8078 393.528 36.9828 392.985 48.7698 392.58C72.4524 391.791 96.1417 390.745 119.912 390.676C134.887 390.944 147.526 390.826 162.81 390.85C169.154 390.85 178.144 390.855 184.536 390.858C191.263 390.861 198.549 390.868 206.36 390.878C216.196 390.89 225.813 390.904 236.593 390.921C246.828 390.938 256.151 390.955 266.681 390.975C268.826 390.979 270.991 390.984 273.177 390.988C289.616 390.881 307.086 390.784 318.972 390.753C328.498 390.728 335.676 390.797 341.879 390.857C346.151 390.898 349.976 390.934 353.88 390.931C355.961 390.929 358.929 390.924 362.118 390.916C375.13 390.887 399.613 390.837 420.067 390.964C429.364 391.02 440.341 391.128 451.007 391.23C466.078 391.377 479.56 391.512 486.698 391.472C499.123 391.404 513.413 391.466 525.74 391.52C537.586 391.572 548.106 391.617 554.11 391.535C561.329 391.436 567.295 391.476 576.202 391.535C582.389 391.576 590.003 391.625 600.448 391.644C612.513 391.665 621.133 391.732 628.243 391.789C638.326 391.869 645.95 391.929 657.375 391.812C670.096 391.681 683.354 391.595 693.705 391.63C698.433 391.646 703.851 391.639 709.502 391.632C716.983 391.622 724.873 391.611 732.093 391.652C738.068 391.686 742.879 391.779 747.204 391.861C748.55 391.887 749.843 391.911 751.094 391.933C755.796 391.928 760.502 391.923 765.214 391.917C765.977 391.901 766.779 391.884 767.616 391.865C771.818 391.774 776.987 391.662 783.395 391.602C793.546 391.509 802.416 391.555 811.777 391.604C819.066 391.642 826.655 391.681 835.356 391.656C841.29 391.639 848.046 391.593 854.743 391.547C864.7 391.478 874.531 391.41 881.355 391.439C883.913 391.449 886.111 391.507 888.285 391.564C888.294 391.564 888.304 391.565 888.314 391.565C888.461 391.569 888.61 391.573 888.757 391.577C905.357 391.51 921.983 391.438 938.638 391.36C940.079 391.343 941.535 391.325 942.978 391.308C950.026 391.224 956.859 391.142 961.308 391.034C966.119 390.917 978.271 390.834 991.162 390.744C999.586 390.685 1008.26 390.624 1015.32 390.55C1019.45 390.506 1023.35 390.561 1027.37 390.617C1031.1 390.67 1034.98 390.723 1039.26 390.699C1041.4 390.687 1043.71 390.657 1046.17 390.624C1048.33 390.596 1050.62 390.565 1053.01 390.545C1055.23 390.525 1060.18 390.549 1066.48 390.578C1070.38 390.596 1074.8 390.616 1079.42 390.63C1091.51 390.563 1104.16 390.496 1116.45 390.429C1119.02 390.368 1121.25 390.292 1123 390.197C1124.27 390.128 1125.34 390.048 1126.44 389.965C1127.94 389.853 1129.49 389.737 1131.62 389.642C1133.28 389.568 1135.24 389.535 1136.56 389.56C1137.17 389.572 1137.64 389.596 1138.07 389.618C1138.56 389.643 1138.99 389.665 1139.52 389.663C1139.91 389.661 1140.31 389.642 1140.8 389.618C1141.58 389.579 1142.6 389.53 1144.15 389.524C1149.98 389.501 1156.82 389.497 1163.36 389.492C1170.65 389.486 1177.71 389.48 1183.31 389.448C1189.61 389.413 1198.27 389.454 1207.57 389.491C1213.96 389.517 1220.31 389.542 1225.71 389.542C1231 389.542 1236.47 389.483 1241.73 389.425C1247.99 389.356 1254.18 389.288 1259.56 389.327C1260.64 389.335 1261.98 389.404 1263.65 389.491C1264.84 389.553 1266.2 389.623 1267.75 389.687C1274.48 389.658 1281.13 389.632 1287.7 389.608C1287.93 389.597 1288.17 389.585 1288.41 389.574C1288.41 389.574 1288.42 389.573 1288.42 389.573C1293.79 389.31 1301.16 388.949 1311.97 389.09C1314.69 389.126 1316.4 389.209 1317.93 389.284C1319.43 389.357 1320.77 389.423 1322.72 389.428C1324.94 389.434 1327.54 389.37 1330.36 389.301C1334.31 389.204 1338.69 389.096 1343.03 389.15C1343.33 389.154 1343.64 389.158 1343.97 389.162C1347.15 389.2 1352.3 389.254 1357.15 389.392C1371.78 389.349 1384.89 389.316 1399.87 389.265C1423.76 389.185 1446.46 389.104 1471.07 388.936C1476.96 388.896 1482.45 388.899 1487.31 388.944C1492.17 388.99 1497.94 389.056 1501.89 389.178C1510.06 389.418 1513.96 389.812 1514 390.297C1513.98 390.781 1510.09 391.324 1501.93 391.813C1497.98 392.056 1492.22 392.285 1487.36 392.458C1482.5 392.63 1477.01 392.768 1471.11 392.861C1461.16 393.017 1452.32 393.148 1442.91 393.278C1433.47 393.407 1423.54 393.532 1414.58 393.642C1413.62 393.66 1412.65 393.677 1411.67 393.694C1404.44 393.818 1397.51 394.004 1390.41 394.19C1388.78 394.233 1387.11 394.276 1385.64 394.316ZM1471.91 293.236C1468.05 284.199 1461.12 266.574 1457.3 256.877C1457.23 256.699 1457.16 256.521 1457.09 256.343C1456.19 254.041 1455.33 251.868 1454.31 249.322C1451.91 243.263 1448.64 235.035 1441.96 217.87C1439.97 212.891 1437.98 207.901 1436 202.932C1425.29 176.055 1414.63 149.143 1403.95 122.206C1403.66 121.467 1403.28 120.511 1402.94 119.649C1402.87 118.904 1401.1 117.473 1403.57 119.094C1403.27 119.189 1400.46 119.168 1398.88 119.205C1395.33 119.26 1391.72 119.315 1388.05 119.369C1380.54 119.48 1373.71 119.574 1366.36 119.672C1351.61 119.868 1337.23 120.038 1322.95 120.195C1322.22 120.207 1321.48 120.22 1320.73 120.232C1306.04 120.477 1288.17 120.761 1276.83 120.833C1262.65 120.922 1252.55 120.956 1244.7 120.974C1198.71 121.395 1152.69 121.785 1106.79 122.251C1092.28 122.398 1078 122.55 1063.55 122.714C1050.36 122.864 1036.96 123.023 1023.77 123.184C1016.05 123.321 1008.7 123.463 1001.87 123.595C992.308 123.78 983.801 123.943 976.755 124.044C959.765 124.287 940.562 124.412 926.268 124.506C923.934 124.521 921.729 124.535 919.691 124.549C908.348 124.706 897.001 124.865 885.65 125.025C884.892 125.014 884.128 125.002 883.353 124.99C873.678 124.839 861.75 124.974 843.03 125.187C834.903 125.279 825.395 125.387 814.273 125.493C807.106 125.562 803.441 125.501 800.44 125.451C799.549 125.437 798.714 125.423 797.869 125.414C794.972 125.384 791.925 125.487 788.332 125.608C783.671 125.766 778.088 125.955 770.747 125.925C747.127 125.831 736.958 126.197 729.017 126.476C726.707 126.557 724.617 126.631 722.481 126.683C715.526 126.854 705.852 126.88 698.285 126.849C692.322 126.824 680.555 127.061 671.644 127.29C668.218 127.378 663.598 127.435 658.199 127.503C652.583 127.574 646.311 127.653 639.299 127.792C621.643 128.144 612.66 128.325 605.04 128.475C602.897 128.517 600.908 128.556 598.928 128.596C592.646 128.722 585.092 128.858 577.072 129.003C567.534 129.176 558.351 129.348 550.866 129.512C531.872 129.721 513.538 129.918 494.329 130.151C484.693 130.266 475.403 130.2 468.525 129.953C461.701 129.705 458.018 129.295 458.004 128.801C458 128.307 461.667 127.764 468.479 127.281C475.346 126.797 484.63 126.419 494.266 126.226C514.12 125.829 533.068 125.469 552.796 125.126C576.349 124.716 600.403 124.344 623.954 124.042C640.607 123.829 657.078 123.636 673.846 123.454C675.537 123.435 677.232 123.417 678.93 123.399C692.781 123.109 706.854 122.832 716.582 122.678C724.666 122.55 730.611 122.546 735.708 122.542C739.161 122.54 742.224 122.539 745.33 122.497C746.998 122.475 749.278 122.441 752.034 122.401C763.336 122.234 782.349 121.954 799.885 121.876C807.598 121.842 816.562 121.845 825.164 121.848C837.497 121.852 848.856 121.858 854.652 121.753C864.814 121.569 876.428 121.501 886.709 121.441C896.519 121.384 905.098 121.334 909.97 121.198C915.794 121.036 920.764 121.021 928.152 120.999C933.276 120.984 939.571 120.965 948.118 120.891C957.99 120.805 964.942 120.797 970.896 120.79C979.26 120.78 985.547 120.772 994.895 120.554C1005.26 120.313 1016.2 120.11 1024.74 120.054C1028.63 120.029 1033.06 119.975 1037.73 119.918C1043.9 119.842 1050.37 119.763 1056.26 119.741C1061.12 119.724 1065.08 119.775 1068.67 119.818C1069.79 119.832 1070.86 119.845 1071.89 119.856C1075.78 119.81 1079.66 119.764 1083.54 119.717C1084.16 119.694 1084.82 119.669 1085.51 119.644C1088.96 119.516 1093.19 119.358 1098.41 119.244C1106.77 119.061 1114.11 119.029 1121.78 118.996C1127.74 118.97 1133.98 118.943 1141.17 118.841C1146.07 118.771 1151.61 118.666 1157.08 118.561C1165.13 118.406 1173.4 118.248 1178.98 118.216C1181.08 118.204 1182.88 118.242 1184.66 118.28C1184.66 118.28 1184.67 118.28 1184.68 118.28C1184.8 118.283 1184.92 118.285 1185.04 118.288C1198.5 118.076 1212.43 117.85 1225.98 117.621C1227.18 117.59 1228.39 117.559 1229.58 117.529C1235.43 117.379 1241.04 117.234 1244.68 117.085C1248.57 116.924 1258.7 116.725 1269.22 116.514C1276.08 116.376 1283.16 116.231 1289.07 116.087C1292.49 116.003 1295.73 116.019 1299.03 116.035C1302.12 116.051 1305.18 116.067 1308.69 116.001C1310.47 115.967 1312.38 115.913 1314.41 115.856C1316.2 115.805 1318.08 115.751 1320.04 115.706C1321.86 115.665 1325.91 115.638 1331.01 115.602C1334.1 115.582 1337.94 115.552 1341.78 115.517C1351.95 115.318 1361.99 115.118 1372.16 114.911C1374.26 114.82 1376.06 114.719 1377.49 114.604C1378.51 114.521 1379.37 114.428 1380.26 114.333C1381.44 114.204 1382.76 114.07 1384.57 113.948C1385.98 113.854 1387.64 113.797 1388.74 113.806C1389.26 113.81 1389.65 113.828 1390.01 113.845C1390.42 113.864 1390.79 113.881 1391.23 113.872C1391.55 113.866 1391.89 113.841 1392.3 113.811C1392.95 113.763 1393.8 113.701 1395.08 113.676C1397.47 113.629 1399.99 113.585 1402.55 113.542C1403.33 113.779 1403.11 112.442 1406.52 114.517C1407.87 115.979 1407.5 116.145 1407.69 116.422C1407.8 116.699 1407.92 116.992 1408.04 117.3C1408.55 118.591 1409.05 119.847 1409.53 121.05C1411.77 126.698 1413.89 132.063 1415.62 136.352C1417.53 141.109 1420.27 148.159 1422.91 154.977C1424.85 159.974 1426.66 164.663 1428.29 168.798C1429.85 172.77 1431.62 177.098 1433.25 181.093C1435.25 186.002 1437.15 190.651 1438.7 194.707C1439.01 195.524 1439.36 196.591 1439.77 197.879C1440.06 198.785 1440.39 199.83 1440.79 201.021C1442.82 206.107 1444.85 211.21 1446.88 216.314C1446.96 216.49 1447.04 216.672 1447.13 216.855C1447.13 216.858 1447.13 216.861 1447.13 216.863C1449.04 221.009 1451.61 226.579 1454.63 234.685C1455.4 236.745 1455.83 238.068 1456.22 239.26C1456.6 240.43 1456.94 241.482 1457.52 242.977C1458.17 244.672 1459.02 246.651 1459.94 248.809C1461.23 251.839 1462.67 255.228 1463.96 258.686C1464.05 258.922 1464.15 259.176 1464.25 259.44C1465.18 261.947 1466.57 265.645 1467.88 269.38C1472.16 280.226 1476.47 291.157 1480.75 302.016C1487.89 320.135 1495.07 338.378 1502.21 356.393C1505.75 365.34 1508.89 373.724 1511.11 380.133C1513.24 386.317 1514.36 390.184 1513.84 390.191C1513.47 390.565 1511.47 387.043 1508.67 381.128C1505.77 374.987 1502.21 366.769 1498.56 357.859C1492.72 343.569 1486.87 329.182 1481.07 314.908C1480.76 314.154 1480.44 313.392 1480.13 312.631C1477.85 307.12 1475.61 301.888 1473.43 296.796C1472.93 295.616 1472.42 294.43 1471.91 293.236ZM1428.9 445.238C1416.19 445.541 1391.95 445.526 1378.07 445.495C1377.81 445.495 1377.56 445.494 1377.31 445.494C1374.2 445.487 1371.23 445.488 1367.73 445.489C1359.43 445.49 1347.7 445.495 1324.09 445.334C1317.17 445.335 1309.94 445.331 1303.21 445.322C1228.56 445.221 1153.59 444.691 1078.77 444.081C1077.82 444.077 1076.86 444.073 1075.88 444.069C1057.19 443.998 1033.8 443.902 1019.26 443.738C1000.7 443.53 988.015 443.359 977.675 443.216C918.251 442.7 858.83 442.195 799.388 441.827C780.823 441.713 762.066 441.611 743.544 441.528C726.496 441.451 709.188 441.387 692.123 441.336C682.031 441.349 672.531 441.376 663.801 441.403C651.676 441.441 640.254 441.478 631.267 441.478C609.663 441.476 584.677 441.347 565.984 441.271C562.956 441.258 560.114 441.246 557.498 441.237C543.191 441.263 527.881 441.303 513.64 441.359C512.684 441.341 511.725 441.322 510.683 441.303C497.789 441.069 482.706 441.098 458.397 441.222C448.315 441.275 435.218 441.356 421.449 441.457C411.791 441.529 407.129 441.48 403.296 441.439C402.173 441.427 401.127 441.416 400.074 441.41C396.571 441.387 392.374 441.507 387.667 441.653C381.457 441.843 374.898 442.077 365.033 442.133C334.889 442.285 321.124 442.76 311.247 443.112C308.191 443.217 305.469 443.312 302.723 443.385C293.958 443.62 281.282 443.74 271.43 443.779C263.996 443.805 248.363 444.151 237.067 444.449C232.513 444.566 226.928 444.654 219.699 444.765C212.624 444.874 204.067 445.004 195.265 445.181C172.597 445.635 160.595 445.838 151.073 445.976C148.194 446.016 145.759 446.048 143.162 446.076C135.068 446.248 124.988 445.844 114.882 445.591C102.732 445.272 90.3859 444.99 80.9949 444.796C56.6502 444.057 32.3679 443.485 7.93258 442.332C7.50828 442.383 5.10918 441.974 4.42993 441C3.64188 440.147 2.84687 439.106 2.85975 437.493C2.88582 436.875 2.91399 436.088 2.92626 434.369C2.92404 428.996 2.91864 426.937 2.94409 423.848C2.98967 418.05 3.08358 412.837 3.21263 408.45C3.47566 399.676 3.83446 395.002 4.32646 395.005C4.82211 394.972 5.41691 399.646 5.88509 408.417C6.12136 412.804 6.32099 418.017 6.48743 423.811C6.56808 426.91 6.65862 428.9 6.72552 434.36C6.79111 437.619 6.49501 438.645 8.13745 438.412C33.2894 439.438 58.4654 439.868 83.6488 440.508C114.366 441.259 144.791 442.183 175.479 441.509C196.918 441.227 218.417 440.91 239.829 440.595C241.997 440.563 244.209 440.531 246.467 440.497C264.436 440.091 282.234 439.689 295.235 439.434C305.345 439.234 313.394 439.165 319.723 439.114C324.165 439.078 328.335 439.042 332.342 438.969C334.442 438.93 337.331 438.874 340.889 438.805C355.885 438.525 379.849 437.989 402.603 437.865C412.4 437.806 424.393 437.802 435.277 437.824C451.481 437.85 465.789 437.921 473.504 437.85C486.923 437.727 501.565 437.751 515.024 437.785C527.432 437.819 538.686 437.86 545.142 437.777C552.572 437.678 558.871 437.72 568.483 437.787C575.168 437.833 583.374 437.892 594.296 437.93C606.948 437.974 616.361 438.064 623.819 438.14C634.502 438.249 642.627 438.333 654.895 438.256C668.234 438.171 682.241 438.14 693.453 438.222C698.554 438.26 704.182 438.277 710.182 438.297C718.101 438.323 726.488 438.352 734.191 438.431C740.494 438.496 745.606 438.615 750.202 438.72C751.632 438.753 753.006 438.785 754.338 438.813C759.341 438.835 764.36 438.857 769.393 438.878C770.208 438.866 771.065 438.853 771.961 438.84C776.477 438.773 781.909 438.691 788.686 438.67C799.409 438.637 808.874 438.739 818.883 438.847C826.594 438.932 834.64 439.02 843.893 439.052C850.193 439.075 857.438 439.074 864.523 439.074C875.064 439.073 885.503 439.074 892.763 439.15C895.483 439.178 897.822 439.251 900.137 439.324C900.147 439.324 900.158 439.325 900.168 439.325C900.325 439.33 900.483 439.335 900.64 439.34C918.297 439.392 935.948 439.44 953.621 439.485C955.152 439.478 956.699 439.471 958.232 439.465C965.724 439.433 972.999 439.402 977.739 439.327C982.868 439.246 995.819 439.254 1009.45 439.261C1018.38 439.266 1027.52 439.27 1035.1 439.249C1039.52 439.238 1043.7 439.322 1048 439.409C1052.01 439.49 1056.12 439.573 1060.61 439.581C1062.86 439.585 1065.29 439.572 1067.87 439.558C1070.16 439.546 1072.54 439.532 1075.1 439.53C1077.46 439.527 1082.73 439.588 1089.46 439.665C1093.61 439.712 1098.33 439.766 1103.26 439.815C1116.22 439.84 1129.51 439.866 1142.52 439.89C1145.24 439.848 1147.6 439.788 1149.46 439.705C1150.8 439.646 1151.93 439.573 1153.1 439.499C1154.68 439.398 1156.34 439.293 1158.65 439.214C1160.45 439.152 1162.57 439.133 1163.99 439.168C1164.65 439.185 1165.16 439.212 1165.62 439.237C1166.15 439.266 1166.62 439.291 1167.2 439.293C1167.61 439.294 1168.04 439.277 1168.58 439.257C1169.42 439.224 1170.52 439.182 1172.2 439.188C1178.43 439.207 1185.47 439.25 1192.32 439.291C1199.93 439.337 1207.65 439.381 1213.62 439.388C1220.39 439.395 1229.65 439.495 1239.41 439.593C1246.17 439.662 1252.89 439.728 1258.6 439.762C1264.25 439.795 1269.83 439.77 1275.67 439.745C1282.59 439.715 1289.17 439.683 1294.71 439.753C1295.84 439.767 1297.23 439.844 1298.96 439.94C1300.2 440.009 1301.61 440.087 1303.22 440.159C1310.1 440.168 1317.51 440.178 1324.58 440.188C1324.83 440.178 1325.09 440.168 1325.34 440.157C1325.35 440.157 1325.35 440.157 1325.36 440.157C1331.28 439.921 1338.7 439.598 1350.26 439.788C1353.15 439.836 1354.96 439.926 1356.58 440.007C1358.18 440.087 1359.6 440.158 1361.67 440.172C1364.02 440.187 1366.79 440.134 1369.77 440.076C1373.95 439.994 1378.63 439.902 1383.54 439.97C1383.87 439.975 1384.23 439.98 1384.6 439.985C1388.11 440.034 1393.27 440.104 1398.31 440.256C1413 440.257 1428.45 440.242 1443.58 440.2C1456.45 440.162 1468.76 440.109 1481.46 440.018C1487.61 439.975 1493.92 439.921 1500.37 439.852C1503.55 439.818 1506.65 439.782 1509.68 439.744C1510.44 439.735 1511.19 439.725 1511.94 439.715C1512.72 439.96 1513.48 438.572 1512.14 440.96C1512.17 439.537 1512.11 437.894 1512.07 436.345C1511.38 424.158 1512.55 412.148 1512.91 403.67C1513.04 394.985 1513.81 390.141 1514.17 390.102C1514.78 390.194 1514.95 394.927 1515.54 403.635C1515.91 412.508 1515.19 423.869 1515.99 436.216C1516.04 437.469 1516.09 438.722 1516.11 440.01C1516.11 440.341 1516.12 440.681 1516.11 441.017C1516.53 441.892 1513.82 444.071 1513.4 443.67C1512.81 443.683 1512.22 443.696 1511.62 443.71C1509.24 443.762 1506.81 443.813 1504.34 443.863C1499.45 443.961 1493.97 444.059 1489.12 444.141C1479.7 444.303 1468.69 444.455 1459.27 444.572C1458.24 444.591 1457.21 444.609 1456.17 444.626C1448.57 444.754 1440.63 444.943 1433.8 445.118C1432.18 445.158 1430.55 445.199 1428.9 445.238ZM8.05345 378.606C8.44942 377.125 9.76732 374.443 10.506 372.975C10.5191 372.948 10.5322 372.922 10.5453 372.896C10.716 372.556 10.8725 372.226 11.06 371.832C11.5151 370.876 12.0788 369.689 13.475 367.111C13.8254 366.366 14.1805 365.621 14.5556 364.845C18.4784 356.699 22.8027 348.801 26.998 340.806C27.0489 340.7 27.0978 340.598 27.1475 340.495C28.1107 338.493 29.3267 335.948 30.1768 334.402C31.2719 332.408 32.0027 331.134 32.6373 330.026C35.9306 323.676 39.1768 317.303 42.3218 310.874C43.3126 308.848 44.2791 306.846 45.2484 304.807C46.1317 302.949 47.0164 301.068 47.8853 299.202C48.3534 298.096 48.7889 297.036 49.1934 296.05C49.7616 294.667 50.2625 293.444 50.711 292.442C51.7921 290.025 53.1448 287.358 54.1505 285.372C54.3147 285.048 54.4698 284.742 54.6128 284.458C55.3363 282.846 56.0579 281.232 56.7777 279.618C56.8453 279.52 56.9141 279.421 56.9841 279.32C57.8576 278.066 58.6442 276.384 59.8774 273.742C60.413 272.595 61.0395 271.253 61.7903 269.694C62.2743 268.689 62.6089 268.214 62.8842 267.823C62.9651 267.708 63.0408 267.6 63.1132 267.489C63.3613 267.108 63.5 266.65 63.6635 266.11C63.8759 265.408 64.128 264.571 64.7179 263.578C66.6031 260.403 67.0557 258.851 67.4063 257.659C67.5084 257.311 67.601 256.996 67.7165 256.684C68.0904 255.672 68.818 254.321 69.4203 253.316C69.8987 252.517 70.5796 250.832 71.0667 249.5C71.2493 249 71.5505 248.351 71.9032 247.592C72.2676 246.807 72.6904 245.897 73.1018 244.892C74.1339 242.368 74.6848 241.036 75.1318 239.956C75.2587 239.65 75.3768 239.365 75.4939 239.081C75.8618 238.188 76.3436 237.069 76.829 235.94C77.4078 234.595 77.9914 233.237 78.4205 232.177C79.7096 229.551 81.0055 226.943 82.3244 224.287C82.9893 222.95 83.8064 221.719 84.5862 220.908C85.3652 220.1 86.0422 219.775 86.4903 219.983C86.9381 220.192 87.1256 220.919 87.0096 222.035C86.8923 223.154 86.4774 224.572 85.8838 225.942C84.6599 228.76 83.4666 231.513 82.2424 234.293C80.7465 237.69 79.2435 241.045 77.6776 244.409C76.591 246.743 75.4873 249.084 74.3713 251.428C74.2563 251.67 74.1402 251.913 74.0252 252.154C73.2271 254.155 72.3963 256.197 71.7933 257.583C71.2912 258.736 70.8423 259.544 70.4573 260.237C70.192 260.715 69.9583 261.136 69.7589 261.575C69.6517 261.811 69.5083 262.136 69.3351 262.528C68.6265 264.132 67.4235 266.853 66.162 269.268C65.6006 270.344 64.9175 271.558 64.2594 272.729C63.3183 274.404 62.4439 275.957 62.0981 276.789C61.4912 278.251 60.6665 279.866 59.9373 281.292C59.2416 282.653 58.6326 283.843 58.3837 284.566C58.0863 285.429 57.7203 286.112 57.1765 287.128C56.7995 287.832 56.3358 288.698 55.7496 289.894C55.0727 291.275 54.5482 292.225 54.0991 293.039C53.4682 294.182 52.9939 295.041 52.4748 296.405C51.897 297.924 51.2421 299.495 50.6368 300.679C50.3613 301.218 50.0666 301.849 49.7599 302.507C49.3541 303.377 48.9281 304.289 48.4938 305.097C48.1367 305.761 47.7797 306.289 47.4641 306.755C47.3657 306.9 47.2714 307.039 47.1822 307.175C46.9235 307.722 46.6658 308.267 46.4095 308.812C46.3815 308.907 46.3529 309.007 46.3229 309.111C46.172 309.633 45.9883 310.271 45.6816 311.04C45.1982 312.252 44.6602 313.255 44.0948 314.306C43.6542 315.124 43.1861 315.996 42.721 317.005C42.4021 317.697 42.0714 318.478 41.7312 319.276C41.2273 320.459 40.734 321.616 40.3252 322.383C40.1718 322.67 39.9974 322.894 39.8226 323.118C39.8217 323.119 39.8209 323.12 39.82 323.121C39.808 323.137 39.7961 323.152 39.7842 323.168C38.8897 325.131 38.0254 327.037 37.1356 328.996C37.0689 329.169 37.0014 329.343 36.9344 329.515C36.606 330.361 36.2986 331.158 36.1326 331.731C35.957 332.343 35.327 333.785 34.678 335.267C34.2389 336.267 33.788 337.292 33.4464 338.127C33.2455 338.617 32.9764 339.025 32.6839 339.474C32.4139 339.889 32.1379 340.311 31.9115 340.805C31.7981 341.052 31.6917 341.326 31.5788 341.617C31.4794 341.873 31.3748 342.143 31.2558 342.419C31.1487 342.669 30.8282 343.241 30.4282 343.951C30.1806 344.391 29.901 344.887 29.6163 345.404C28.9606 346.81 28.2675 348.28 27.5994 349.686C27.4967 350.011 27.4294 350.302 27.4075 350.547C27.3918 350.723 27.3986 350.882 27.4054 351.045C27.4147 351.267 27.4244 351.496 27.3805 351.78C27.3462 352.003 27.2578 352.239 27.1563 352.375C27.109 352.439 27.0593 352.481 27.0143 352.519C26.9628 352.562 26.9169 352.601 26.8869 352.662C26.8654 352.705 26.8592 352.759 26.8512 352.825C26.8396 352.927 26.8179 353.073 26.7268 353.256C26.3866 353.941 25.9881 354.696 25.6067 355.421C25.1905 356.211 24.7499 357.053 24.4436 357.696C24.099 358.419 23.528 359.408 22.9497 360.418C22.548 361.119 22.1665 361.783 21.8322 362.417C21.5111 363.024 21.2366 363.67 20.9781 364.284C20.6632 365.029 20.3429 365.786 20.003 366.347C19.9337 366.461 19.7941 366.577 19.6201 366.721C19.4968 366.823 19.3559 366.939 19.2043 367.092C18.8229 367.881 18.4602 368.628 18.0915 369.386C18.0873 369.418 18.083 369.451 18.0788 369.484C18.0789 369.485 18.0789 369.485 18.0789 369.486C17.9786 370.25 17.8943 371.185 17.1252 372.359C16.9336 372.65 16.7602 372.804 16.6043 372.942C16.4513 373.078 16.3149 373.199 16.1987 373.411C16.0707 373.644 15.9628 373.993 15.8588 374.344C15.7079 374.849 15.5631 375.363 15.2438 375.868C15.2222 375.902 15.1989 375.939 15.1749 375.977C14.9468 376.338 14.6172 376.859 14.2203 377.328C13.4165 378.989 12.6391 380.605 11.8746 382.227C10.5842 384.968 9.35228 387.671 8.19673 390.451C7.63272 391.8 6.95331 393.054 6.22153 393.926C5.48576 394.812 4.77155 395.148 4.34538 394.921C3.91585 394.693 3.749 394.019 3.76715 392.966C3.78624 391.918 4.04255 390.498 4.52053 389.074C5.29218 386.766 6.12951 384.464 7.00508 382.195C7.04583 382.073 7.08774 381.949 7.13065 381.825C7.4371 380.932 7.664 380.065 7.88922 379.211C7.94218 379.012 7.99659 378.81 8.05345 378.606ZM85.9343 214.826C85.8994 214.349 86.3197 213.668 86.5479 213.299C86.552 213.293 86.5561 213.286 86.5602 213.279C86.6144 213.191 86.658 213.105 86.7086 213.004C86.8294 212.763 86.99 212.443 87.456 211.789C87.5466 211.58 87.6391 211.373 87.7336 211.169C88.7367 209 89.9461 206.84 91.1616 204.751C91.173 204.723 91.1847 204.695 91.1965 204.666C91.418 204.127 91.7223 203.393 91.9947 203.003C92.3439 202.501 92.6014 202.179 92.8162 201.918C93.806 200.205 94.7393 198.563 95.6056 196.827C95.88 196.277 96.1316 195.752 96.3815 195.202C96.6178 194.683 96.8415 194.172 97.0535 193.671C97.1363 193.366 97.2132 193.05 97.2818 192.764C97.3784 192.361 97.4612 192.01 97.5597 191.737C97.7886 191.098 98.2211 190.349 98.5147 189.853C98.5638 189.77 98.6074 189.697 98.6521 189.619C98.8246 189.159 98.9895 188.709 99.1482 188.271C99.1785 188.251 99.2097 188.231 99.2415 188.21C99.6345 187.964 99.8535 187.468 100.16 186.772C100.29 186.476 100.464 186.082 100.667 185.673C100.799 185.406 100.952 185.316 101.079 185.234C101.117 185.208 101.153 185.185 101.185 185.159C101.293 185.072 101.284 184.925 101.271 184.754C101.256 184.531 101.235 184.266 101.462 184.038C102.2 183.272 102.137 182.806 102.108 182.412C102.098 182.3 102.089 182.199 102.1 182.106C102.138 181.8 102.375 181.482 102.619 181.23C102.811 181.032 102.911 180.571 102.96 180.16C102.977 180.009 103.054 179.831 103.142 179.628C103.232 179.422 103.345 179.164 103.414 178.878C103.583 178.173 103.691 177.771 103.766 177.476C103.79 177.385 103.812 177.302 103.833 177.22C103.901 176.959 103.995 176.657 104.098 176.333C104.215 175.961 104.343 175.564 104.408 175.272C104.79 174.56 105.174 173.881 105.58 173.173C105.788 172.811 106.158 172.539 106.611 172.435C107.07 172.321 107.568 172.386 108.013 172.6C108.458 172.814 108.82 173.16 109.029 173.575C109.241 173.98 109.282 174.419 109.152 174.8C108.889 175.569 108.638 176.329 108.363 177.105C108.028 178.054 107.682 178.971 107.28 179.886C107 180.521 106.713 181.144 106.407 181.787C106.375 181.853 106.342 181.921 106.313 181.982C106.196 182.549 106.05 183.151 105.925 183.532C105.818 183.853 105.653 184.066 105.516 184.237C105.424 184.35 105.342 184.452 105.294 184.573C105.269 184.637 105.237 184.727 105.198 184.837C105.034 185.297 104.777 186.028 104.359 186.673C104.18 186.945 103.937 187.236 103.697 187.529C103.352 187.954 103.041 188.325 102.979 188.562C102.872 188.974 102.605 189.423 102.387 189.776C102.176 190.123 101.986 190.435 101.976 190.659C101.964 190.926 101.837 191.109 101.66 191.357C101.536 191.532 101.384 191.748 101.217 192.069C101.025 192.437 100.832 192.697 100.682 192.887C100.466 193.164 100.302 193.375 100.244 193.782C100.178 194.233 100.056 194.699 99.8771 194.996C99.7943 195.135 99.722 195.305 99.6461 195.484C99.5456 195.72 99.4384 195.971 99.2927 196.182C99.1732 196.355 99.0107 196.48 98.8743 196.575C98.8315 196.605 98.7905 196.635 98.7528 196.664C98.6884 196.808 98.624 196.954 98.5601 197.102C98.5634 197.132 98.5676 197.164 98.5719 197.197C98.593 197.364 98.6185 197.57 98.576 197.794C98.5087 198.149 98.3305 198.411 98.1407 198.69C97.9983 198.895 97.8507 199.108 97.7424 199.385C97.6687 199.574 97.608 199.801 97.5468 200.028C97.4561 200.366 97.364 200.704 97.2306 200.909C97.1799 200.987 97.0956 201.027 97.0106 201.069C97.0101 201.069 97.0096 201.069 97.0092 201.069C97.0034 201.072 96.9977 201.075 96.992 201.078C96.8014 201.605 96.6104 202.144 96.4171 202.694C96.4102 202.746 96.4028 202.799 96.3954 202.851C96.3599 203.105 96.3209 203.361 96.3507 203.539C96.383 203.733 96.2703 204.132 96.1481 204.559C96.0682 204.839 95.9842 205.131 95.9363 205.381C95.9084 205.527 95.7945 205.627 95.677 205.729C95.5674 205.825 95.4546 205.923 95.4056 206.066C95.3822 206.135 95.3739 206.215 95.3644 206.301C95.3561 206.377 95.3474 206.458 95.328 206.538C95.3099 206.612 95.2095 206.749 95.0803 206.927C95.0004 207.037 94.9096 207.163 94.8202 207.298C94.6781 207.699 94.5324 208.104 94.382 208.513C94.3935 208.618 94.4247 208.719 94.4809 208.814C94.5211 208.882 94.5763 208.948 94.633 209.015C94.7101 209.106 94.7897 209.201 94.8403 209.304C94.8799 209.384 94.8771 209.457 94.832 209.485C94.811 209.499 94.7812 209.503 94.7542 209.506C94.7233 209.511 94.6958 209.514 94.6887 209.531C94.6837 209.543 94.6949 209.564 94.7083 209.588C94.7298 209.628 94.7574 209.679 94.7366 209.728C94.659 209.911 94.5504 210.111 94.4433 210.308C94.3242 210.527 94.2072 210.743 94.1376 210.927C94.0596 211.133 93.8649 211.39 93.6687 211.65C93.5306 211.834 93.3992 212.004 93.3047 212.162C93.2121 212.316 93.1683 212.502 93.1258 212.683C93.0748 212.901 93.0254 213.111 92.8945 213.249C92.868 213.277 92.7808 213.287 92.6717 213.299C92.5943 213.308 92.5057 213.318 92.4198 213.337C92.3229 213.546 92.2227 213.756 92.1195 213.965C92.1253 213.977 92.1311 213.989 92.1371 214.001C92.1373 214.001 92.1375 214.001 92.1376 214.002C92.2745 214.274 92.4568 214.658 92.128 214.904C92.0452 214.965 91.9383 214.978 91.8421 214.99C91.7475 215.002 91.6629 215.012 91.6214 215.066C91.5743 215.127 91.5821 215.228 91.5903 215.339C91.602 215.494 91.6148 215.668 91.4786 215.774C91.4694 215.781 91.4593 215.789 91.4489 215.797C91.3512 215.874 91.2065 215.989 90.9855 216.069C90.739 216.495 90.4833 216.922 90.2208 217.352C89.7839 218.068 89.3581 218.728 88.9117 219.431C88.6951 219.771 88.3258 220.026 87.8747 220.132C87.4233 220.238 86.9298 220.188 86.4904 219.983C86.0508 219.779 85.6947 219.434 85.4849 219.02C85.2754 218.607 85.232 218.161 85.3518 217.777C85.5481 217.151 85.7404 216.532 85.935 215.925C85.9398 215.891 85.945 215.856 85.9506 215.822C85.994 215.568 85.974 215.287 85.9498 215.014C85.9444 214.951 85.9389 214.888 85.9343 214.826ZM84.7166 217.448C84.5667 217.22 84.7692 217.009 84.8812 216.892C84.8831 216.889 84.8851 216.887 84.887 216.885C84.9135 216.857 84.9309 216.828 84.951 216.793C84.9991 216.709 85.063 216.598 85.3117 216.414C85.3399 216.34 85.3704 216.268 85.4034 216.197C85.761 215.427 86.2929 214.739 86.8601 214.065C86.8635 214.055 86.867 214.045 86.8705 214.034C86.9376 213.832 87.0227 213.578 87.1689 213.464C87.355 213.319 87.5066 213.23 87.6342 213.16C88.0863 212.626 88.5209 212.083 88.8659 211.501C88.9746 211.317 89.0733 211.132 89.1623 210.939C89.2444 210.762 89.3185 210.584 89.388 210.4C89.3898 210.276 89.3805 210.153 89.3718 210.039C89.3594 209.88 89.3491 209.736 89.3718 209.633C89.4265 209.385 89.6232 209.164 89.769 209.001C89.7928 208.974 89.8153 208.949 89.8355 208.926C89.8765 208.761 89.9158 208.595 89.9537 208.43C89.9759 208.428 89.9988 208.427 90.0223 208.425C90.3154 208.404 90.3863 208.243 90.4964 207.992C90.5448 207.883 90.6011 207.755 90.6861 207.615C90.7409 207.525 90.8563 207.518 90.9505 207.513C90.9782 207.511 91.0041 207.51 91.0261 207.506C91.1015 207.494 91.0579 207.425 91.0065 207.344C90.9397 207.238 90.8594 207.11 91.008 207.06C91.4826 206.898 91.3216 206.658 91.2008 206.475C91.1653 206.422 91.1333 206.373 91.1215 206.333C91.0833 206.204 91.2237 206.109 91.379 206.061C91.5024 206.022 91.4888 205.825 91.4337 205.655C91.4129 205.591 91.4396 205.53 91.472 205.457C91.5053 205.382 91.5441 205.295 91.5398 205.182C91.5285 204.896 91.529 204.744 91.5288 204.624C91.5288 204.59 91.5291 204.558 91.5288 204.526C91.5278 204.425 91.5435 204.306 91.5591 204.187C91.5779 204.043 91.5964 203.899 91.5885 203.777C91.7597 203.552 91.9441 203.332 92.1278 203.113C92.2226 203.001 92.4812 202.969 92.8549 203.031C93.2289 203.092 93.6855 203.24 94.1345 203.446C94.5836 203.652 94.9935 203.902 95.284 204.145C95.5743 204.389 95.7187 204.606 95.6953 204.751C95.6476 205.043 95.5994 205.336 95.5365 205.623C95.4601 205.971 95.3625 206.309 95.2164 206.627C95.1148 206.848 95.0015 207.066 94.8809 207.277C94.8684 207.299 94.8557 207.321 94.8431 207.343C94.8679 207.58 94.8829 207.812 94.8585 207.959C94.8384 208.081 94.7427 208.133 94.6614 208.177C94.6054 208.207 94.5558 208.234 94.5416 208.278C94.534 208.301 94.5267 208.335 94.518 208.376C94.4821 208.541 94.4218 208.822 94.2064 209.005C94.1107 209.087 93.9617 209.162 93.8188 209.236C93.6146 209.34 93.4242 209.437 93.4256 209.531C93.4282 209.696 93.3011 209.827 93.1898 209.941C93.0834 210.05 92.9901 210.146 93.0348 210.246C93.088 210.365 93.0212 210.414 92.9219 210.487C92.8531 210.538 92.7687 210.601 92.6976 210.707C92.6153 210.829 92.5103 210.892 92.4205 210.947C92.2943 211.024 92.199 211.082 92.2449 211.255C92.2962 211.446 92.3025 211.625 92.2132 211.722C92.1725 211.767 92.149 211.828 92.1248 211.892C92.0927 211.976 92.0586 212.065 91.9809 212.124C91.9169 212.174 91.805 212.187 91.706 212.199C91.6751 212.203 91.6456 212.206 91.6191 212.211C91.5964 212.263 91.5743 212.315 91.553 212.368C91.5631 212.383 91.5746 212.398 91.5864 212.415C91.6455 212.498 91.7179 212.6 91.7345 212.693C91.7608 212.84 91.6672 212.915 91.5682 212.994C91.4911 213.055 91.4106 213.118 91.3815 213.221C91.3615 213.291 91.3629 213.381 91.3643 213.471C91.3664 213.604 91.3681 213.735 91.3007 213.795C91.2754 213.817 91.2096 213.816 91.1441 213.815C91.1437 213.815 91.1433 213.815 91.143 213.815C91.1385 213.815 91.1342 213.815 91.1297 213.815C91.087 214.016 91.0491 214.218 91.0128 214.424C91.0195 214.446 91.026 214.468 91.0323 214.491C91.0633 214.598 91.0934 214.703 91.1627 214.794C91.2378 214.894 91.2341 215.054 91.2298 215.223C91.2273 215.333 91.2247 215.447 91.244 215.55C91.2553 215.611 91.179 215.628 91.1004 215.645C91.0271 215.661 90.9517 215.678 90.9439 215.731C90.94 215.758 90.9517 215.793 90.9643 215.832C90.9754 215.865 90.9871 215.901 90.9893 215.934C90.9913 215.964 90.9357 216.003 90.8646 216.055C90.8206 216.086 90.7708 216.122 90.7247 216.163C90.697 216.315 90.6685 216.464 90.6372 216.614C90.6736 216.665 90.7263 216.719 90.7996 216.776C90.8522 216.818 90.9172 216.862 90.9837 216.908C91.0742 216.97 91.1676 217.034 91.2376 217.095C91.2922 217.143 91.3073 217.176 91.2743 217.179C91.2589 217.18 91.2334 217.174 91.2103 217.169C91.1839 217.164 91.1604 217.159 91.1583 217.165C91.1568 217.169 91.1717 217.182 91.1896 217.197C91.2182 217.22 91.2552 217.251 91.2487 217.269C91.2247 217.336 91.1775 217.402 91.1311 217.467C91.0795 217.539 91.0291 217.61 91.013 217.678C90.9949 217.754 90.8863 217.824 90.778 217.893C90.7024 217.942 90.627 217.99 90.5816 218.041C90.5372 218.091 90.5439 218.168 90.5505 218.242C90.5584 218.332 90.5666 218.417 90.4849 218.449C90.4684 218.455 90.3936 218.438 90.3001 218.416C90.2338 218.401 90.1579 218.384 90.0865 218.371C90.0527 218.444 90.0159 218.516 89.9768 218.587C89.9848 218.594 89.993 218.601 90.0013 218.608C90.0015 218.608 90.0017 218.608 90.0019 218.608C90.1906 218.769 90.4486 218.989 90.2185 219.022C90.16 219.03 90.0685 219.01 89.9861 218.992C89.9051 218.974 89.8327 218.958 89.809 218.973C89.7821 218.99 89.8139 219.04 89.8483 219.094C89.8967 219.169 89.9507 219.254 89.8563 219.27C89.8499 219.271 89.8428 219.272 89.8357 219.274C89.7682 219.286 89.6683 219.304 89.4925 219.286C89.38 219.422 89.2604 219.556 89.1361 219.688C88.9294 219.907 88.7101 220.122 88.4917 220.335C88.3848 220.438 88.1222 220.463 87.7505 220.399C87.3782 220.335 86.9299 220.188 86.4904 219.983C86.0509 219.779 85.6497 219.531 85.3606 219.288C85.072 219.045 84.9221 218.828 84.9322 218.679C84.9493 218.439 84.968 218.195 84.9912 217.957C84.9871 217.942 84.9832 217.927 84.98 217.912C84.9554 217.804 84.8666 217.671 84.7773 217.539C84.7568 217.509 84.7363 217.479 84.7166 217.448ZM105.908 170.81C105.73 170.647 105.869 170.58 105.949 170.539C105.95 170.538 105.951 170.538 105.953 170.537C105.971 170.527 105.981 170.515 105.993 170.5C106.02 170.464 106.057 170.415 106.245 170.374C106.256 170.34 106.27 170.307 106.286 170.276C106.467 169.926 106.822 169.672 107.215 169.443C107.217 169.438 107.218 169.433 107.219 169.428C107.247 169.33 107.284 169.206 107.395 169.182C107.537 169.152 107.658 169.143 107.76 169.139C108.078 168.965 108.386 168.782 108.615 168.557C108.689 168.484 108.753 168.409 108.809 168.326C108.862 168.248 108.909 168.168 108.951 168.085C108.941 168.011 108.924 167.932 108.908 167.86C108.886 167.757 108.865 167.668 108.879 167.611C108.913 167.476 109.068 167.416 109.187 167.371C109.206 167.363 109.224 167.357 109.241 167.35C109.27 167.264 109.3 167.175 109.331 167.085C109.35 167.093 109.369 167.101 109.389 167.11C109.632 167.222 109.688 167.152 109.784 167.042C109.824 166.995 109.875 166.937 109.95 166.887C109.999 166.855 110.091 166.907 110.167 166.95C110.189 166.963 110.21 166.974 110.227 166.983C110.288 167.012 110.257 166.947 110.222 166.868C110.176 166.767 110.123 166.643 110.244 166.686C110.632 166.824 110.528 166.593 110.466 166.402C110.448 166.347 110.431 166.297 110.429 166.264C110.421 166.156 110.55 166.169 110.675 166.227C110.775 166.273 110.805 166.135 110.811 165.986C110.814 165.93 110.85 165.905 110.894 165.876C110.942 165.845 110.996 165.812 111.032 165.732C111.126 165.531 111.194 165.43 111.251 165.348C111.267 165.324 111.282 165.303 111.298 165.281C111.346 165.213 111.417 165.144 111.495 165.077C111.587 164.997 111.688 164.918 111.761 164.836C112.011 164.826 112.267 164.85 112.51 164.896C112.635 164.92 112.77 165.133 112.859 165.494C112.95 165.856 112.988 166.333 112.997 166.826C113.006 167.32 112.992 167.797 112.99 168.164C112.987 168.53 112.998 168.752 112.993 168.792C112.983 168.872 112.989 168.952 112.996 169.015C113.005 169.092 113.015 169.144 112.99 169.157C112.971 169.167 112.942 169.17 112.901 169.172C112.896 169.172 112.892 169.172 112.887 169.172C112.93 169.291 112.971 169.398 112.978 169.443C112.983 169.48 112.931 169.439 112.884 169.405C112.852 169.382 112.823 169.363 112.82 169.373C112.818 169.378 112.817 169.388 112.817 169.401C112.814 169.452 112.814 169.536 112.684 169.497C112.627 169.48 112.529 169.431 112.433 169.389C112.294 169.329 112.161 169.278 112.173 169.325C112.194 169.408 112.114 169.408 112.041 169.411C111.971 169.415 111.908 169.421 111.957 169.491C112.015 169.576 111.969 169.569 111.899 169.561C111.85 169.555 111.79 169.551 111.747 169.573C111.698 169.598 111.62 169.586 111.554 169.576C111.461 169.563 111.39 169.554 111.452 169.663C111.521 169.783 111.552 169.879 111.492 169.893C111.465 169.9 111.455 169.922 111.444 169.945C111.43 169.976 111.415 170.009 111.359 170.011C111.313 170.012 111.22 169.978 111.139 169.946C111.113 169.937 111.089 169.927 111.068 169.92C111.056 169.938 111.046 169.958 111.036 169.978C111.047 169.989 111.059 170.002 111.071 170.015C111.134 170.08 111.211 170.16 111.24 170.215C111.286 170.301 111.218 170.307 111.147 170.312C111.092 170.316 111.034 170.321 111.026 170.365C111.02 170.394 111.036 170.443 111.052 170.49C111.076 170.561 111.101 170.628 111.053 170.637C111.036 170.64 110.979 170.617 110.922 170.595C110.922 170.595 110.922 170.594 110.921 170.594C110.917 170.593 110.914 170.591 110.91 170.59C110.908 170.681 110.909 170.776 110.916 170.87C110.925 170.884 110.935 170.897 110.944 170.911C110.991 170.977 111.036 171.041 111.112 171.111C111.195 171.186 111.22 171.27 111.25 171.354C111.268 171.409 111.288 171.467 111.324 171.526C111.346 171.56 111.283 171.545 111.218 171.53C111.157 171.516 111.094 171.502 111.098 171.527C111.099 171.54 111.116 171.562 111.134 171.586C111.15 171.607 111.167 171.628 111.176 171.646C111.183 171.662 111.143 171.665 111.091 171.67C111.059 171.673 111.022 171.677 110.99 171.684C110.996 171.754 111 171.823 111.001 171.892C111.043 171.929 111.1 171.972 111.176 172.023C111.23 172.059 111.296 172.101 111.363 172.143C111.455 172.201 111.55 172.261 111.623 172.312C111.681 172.352 111.701 172.373 111.673 172.364C111.659 172.361 111.636 172.35 111.615 172.341C111.591 172.331 111.569 172.321 111.569 172.324C111.568 172.326 111.584 172.336 111.602 172.349C111.632 172.369 111.671 172.396 111.669 172.403C111.662 172.429 111.634 172.449 111.607 172.469C111.576 172.491 111.546 172.514 111.546 172.544C111.546 172.578 111.465 172.582 111.384 172.587C111.328 172.59 111.272 172.594 111.243 172.608C111.214 172.621 111.236 172.662 111.257 172.702C111.283 172.75 111.308 172.796 111.242 172.791C111.229 172.789 111.159 172.761 111.072 172.725C111.01 172.699 110.94 172.67 110.874 172.644C110.86 172.672 110.842 172.699 110.823 172.725C110.831 172.73 110.84 172.736 110.849 172.742C110.849 172.742 110.849 172.742 110.85 172.742C111.05 172.875 111.325 173.055 111.128 173.011C111.078 173 110.993 172.966 110.916 172.935C110.841 172.905 110.774 172.878 110.756 172.88C110.735 172.881 110.774 172.915 110.816 172.952C110.875 173.004 110.94 173.062 110.86 173.046C110.855 173.045 110.849 173.043 110.843 173.042C110.785 173.032 110.701 173.014 110.541 172.96C110.471 173.001 110.393 173.039 110.311 173.077C110.174 173.14 110.026 173.196 109.877 173.254C109.804 173.282 109.575 173.233 109.229 173.112C108.883 172.991 108.45 172.81 108.013 172.6C107.576 172.39 107.165 172.165 106.855 171.967C106.546 171.77 106.367 171.617 106.347 171.538C106.314 171.409 106.279 171.285 106.254 171.156C106.247 171.146 106.241 171.137 106.235 171.128C106.192 171.062 106.086 170.968 105.981 170.874C105.956 170.853 105.932 170.831 105.908 170.81ZM92.9035 199.706C92.8046 199.364 93.1043 198.936 93.2673 198.705C93.2702 198.7 93.2731 198.696 93.276 198.692C93.3147 198.637 93.3436 198.581 93.3771 198.516C93.4549 198.366 93.5717 198.138 93.9151 197.742C93.9709 197.606 94.0288 197.473 94.0889 197.341C94.7329 195.929 95.575 194.544 96.4285 193.221C96.4358 193.202 96.4431 193.183 96.4506 193.164C96.5948 192.788 96.7687 192.332 96.97 192.092C97.224 191.792 97.4335 191.572 97.601 191.41C98.2785 190.363 98.955 189.267 99.524 188.167C99.6996 187.829 99.8804 187.455 100.037 187.105C100.181 186.785 100.327 186.44 100.461 186.106C100.5 185.894 100.526 185.69 100.548 185.503C100.586 185.227 100.618 184.985 100.675 184.801C100.81 184.365 101.106 183.911 101.32 183.587C101.355 183.534 101.388 183.484 101.418 183.438C101.511 183.152 101.613 182.838 101.704 182.549C101.729 182.538 101.756 182.527 101.783 182.517C102.121 182.391 102.258 182.073 102.455 181.616C102.539 181.422 102.648 181.169 102.786 180.904C102.875 180.731 103.006 180.688 103.117 180.644C103.149 180.631 103.179 180.619 103.206 180.605C103.296 180.557 103.268 180.452 103.233 180.33C103.188 180.171 103.134 179.981 103.317 179.849C103.913 179.397 103.794 179.056 103.713 178.778C103.688 178.698 103.666 178.626 103.664 178.562C103.658 178.354 103.845 178.148 104.039 178.007C104.193 177.896 104.232 177.571 104.222 177.293C104.218 177.19 104.267 177.075 104.323 176.944C104.382 176.807 104.456 176.636 104.484 176.447C104.555 175.962 104.598 175.709 104.638 175.495C104.648 175.435 104.659 175.379 104.668 175.324C104.697 175.152 104.751 174.942 104.806 174.73C104.869 174.483 104.94 174.216 104.966 174.017C105.237 173.561 105.518 173.123 105.808 172.675C105.957 172.448 106.268 172.306 106.68 172.289C107.093 172.272 107.568 172.386 108.013 172.6C108.458 172.814 108.844 173.112 109.095 173.435C109.346 173.758 109.443 174.074 109.371 174.323C109.224 174.828 109.082 175.333 108.923 175.842C108.732 176.456 108.516 177.076 108.261 177.656C108.075 178.077 107.887 178.475 107.685 178.883C107.664 178.925 107.642 178.968 107.621 179.011C107.582 179.401 107.525 179.807 107.458 180.058C107.4 180.27 107.274 180.394 107.166 180.501C107.091 180.577 107.03 180.633 107 180.713C106.985 180.755 106.967 180.814 106.945 180.887C106.853 181.187 106.705 181.678 106.399 182.077C106.265 182.25 106.075 182.423 105.888 182.601C105.619 182.858 105.377 183.08 105.35 183.241C105.303 183.522 105.115 183.797 104.956 184.024C104.802 184.245 104.665 184.444 104.685 184.602C104.707 184.794 104.62 184.892 104.484 185.051C104.39 185.161 104.275 185.296 104.16 185.505C104.026 185.749 103.889 185.886 103.77 186.009C103.603 186.181 103.476 186.313 103.474 186.597C103.469 186.92 103.43 187.205 103.297 187.404C103.237 187.494 103.191 187.607 103.143 187.727C103.079 187.884 103.011 188.053 102.906 188.176C102.818 188.279 102.686 188.339 102.57 188.392C102.533 188.409 102.498 188.425 102.467 188.441C102.425 188.538 102.383 188.635 102.342 188.734C102.349 188.756 102.357 188.779 102.365 188.804C102.407 188.927 102.458 189.079 102.447 189.236C102.433 189.476 102.305 189.63 102.167 189.798C102.06 189.928 101.948 190.065 101.882 190.252C101.837 190.378 101.807 190.543 101.783 190.689C101.746 190.911 101.709 191.133 101.613 191.258C101.577 191.304 101.502 191.324 101.427 191.344C101.427 191.344 101.426 191.344 101.426 191.345C101.421 191.346 101.416 191.347 101.411 191.349C101.299 191.708 101.188 192.078 101.087 192.431C101.088 192.466 101.089 192.502 101.089 192.537C101.092 192.71 101.094 192.879 101.144 193.013C101.2 193.157 101.145 193.434 101.084 193.731C101.049 193.916 101.011 194.109 101.002 194.278C100.996 194.376 100.904 194.43 100.808 194.487C100.719 194.539 100.627 194.593 100.602 194.686C100.589 194.733 100.591 194.791 100.593 194.852C100.595 194.907 100.597 194.965 100.589 195.021C100.581 195.072 100.504 195.161 100.405 195.275C100.344 195.346 100.277 195.419 100.212 195.503C100.136 195.766 100.056 196.031 99.9727 196.298C99.9983 196.373 100.042 196.448 100.108 196.522C100.155 196.575 100.216 196.629 100.278 196.685C100.362 196.761 100.449 196.839 100.51 196.921C100.558 196.984 100.564 197.037 100.526 197.053C100.507 197.06 100.48 197.059 100.455 197.059C100.426 197.058 100.401 197.058 100.396 197.069C100.393 197.077 100.406 197.094 100.422 197.113C100.447 197.145 100.48 197.186 100.466 197.219C100.415 197.347 100.344 197.467 100.27 197.593C100.189 197.732 100.11 197.868 100.07 197.989C100.026 198.124 99.8794 198.279 99.7319 198.436C99.629 198.546 99.5259 198.657 99.4567 198.761C99.3885 198.864 99.3724 198.992 99.358 199.114C99.3404 199.261 99.3233 199.403 99.2197 199.483C99.1988 199.5 99.1184 199.495 99.0177 199.49C98.9463 199.486 98.8647 199.481 98.7867 199.483C98.725 199.619 98.6601 199.753 98.5925 199.888C98.5995 199.897 98.6067 199.906 98.614 199.915C98.6142 199.916 98.6144 199.916 98.6146 199.916C98.7806 200.128 99.0074 200.417 98.7301 200.555C98.6596 200.591 98.5604 200.588 98.471 200.585C98.3833 200.583 98.3045 200.581 98.2723 200.615C98.2365 200.652 98.2578 200.724 98.2809 200.804C98.3133 200.915 98.3494 201.04 98.2364 201.098C98.2287 201.102 98.2203 201.106 98.2118 201.11C98.1308 201.152 98.0109 201.215 97.8146 201.243C97.6423 201.512 97.4616 201.782 97.275 202.053C96.9595 202.514 96.6524 202.924 96.3303 203.367C96.1739 203.58 95.8625 203.714 95.454 203.731C95.045 203.748 94.5751 203.648 94.1346 203.446C93.694 203.244 93.3123 202.953 93.0583 202.632C92.8048 202.311 92.7025 201.989 92.7618 201.731C92.8598 201.311 92.9537 200.9 93.0541 200.49C93.0544 200.465 93.055 200.44 93.056 200.416C93.0641 200.235 93.0044 200.038 92.9442 199.841C92.9304 199.796 92.9165 199.751 92.9035 199.706ZM301.845 66.5257C302.101 72.1979 301.955 83.1284 301.84 89.1406C301.838 89.2504 301.836 89.3602 301.834 89.47C301.808 90.8883 301.79 92.2583 301.769 93.8266C301.717 97.5939 301.648 102.689 301.323 113.309C301.276 116.401 301.224 119.489 301.166 122.583C300.484 155.941 299.704 189.331 297.969 222.679C297.951 223.094 297.931 223.538 297.912 223.959C297.812 225.86 297.721 229.15 297.574 229.904C297.69 229.095 295.402 228.735 296.577 228.821C297.136 228.818 297.708 228.814 298.272 228.81C299.394 228.802 300.524 228.794 301.641 228.787C306.08 228.758 310.322 228.741 313.569 228.76C321.856 228.803 327.494 228.881 332.129 228.966C358.613 229.158 385.11 229.341 411.582 228.869C415.704 228.801 420.035 228.688 423.573 228.63C425.544 228.556 425.984 228.877 428.607 229.028C430.75 226.312 430.134 227.037 429.906 224.223C429.325 216.428 429.313 208.828 429.142 201.177C429.018 196.74 428.9 192.46 428.795 188.57C428.648 183.058 428.526 178.128 428.464 174.076C428.312 164.311 428.316 153.206 428.332 144.975C428.335 143.639 428.337 142.324 428.339 141.174C428.272 134.623 428.21 128.094 428.155 121.548C428.172 121.107 428.191 120.665 428.211 120.223C428.452 114.654 428.43 107.773 428.422 96.9755C428.418 92.2813 428.418 86.8252 428.447 80.3987C428.466 76.2747 428.574 74.1239 428.662 72.4037C428.687 71.895 428.712 71.4172 428.732 70.9331C428.8 69.2756 428.736 67.5061 428.663 65.4488C428.567 62.7672 428.453 59.549 428.587 55.2868C429.017 41.7265 428.822 35.7537 428.67 31.2405C428.626 29.9156 428.587 28.7055 428.57 27.4792C428.514 23.4972 428.656 17.8085 428.822 13.5155C428.855 12.6655 428.879 11.602 428.895 10.4033C428.987 9.16387 428.573 7.86086 429.399 8.55132C419.302 8.46038 406.088 8.2987 394.847 8.05572C386.502 7.88442 373.859 7.44917 364.828 6.91005C355.377 6.35255 350.906 5.87387 347.873 5.60501C341.07 4.96846 341.027 5.01678 339.618 4.94312C339.302 4.93002 338.979 4.91754 338.717 4.912C337.844 4.89015 336.789 4.87035 335.808 4.87927C334.571 4.88725 333.403 4.93123 332.421 5.00018C331.202 4.98325 329.959 4.98169 328.6 4.99505C327.948 5.00078 327.293 5.0091 326.584 5.02213C326.496 5.02375 326.407 5.02543 326.318 5.02718C325.712 5.05258 321.976 5.22206 320.161 5.30356C315.967 5.49251 313.289 5.61195 311.452 5.6915C307.855 5.84724 306.685 5.88812 305.606 5.92374C301.923 6.03417 301.944 5.77803 301.17 5.42446C300.853 5.2685 300.755 4.92563 300.479 4.88577C299.943 5.03426 299.659 5.69051 299.427 5.66546C299.216 5.73434 298.72 4.91046 299.549 3.79589C301.355 2.60857 300.719 3.06207 301.156 2.75184C301.909 2.37475 301.804 2.18886 305.443 2.00163C306.557 1.94524 307.735 1.88477 311.674 1.69385C314.579 1.55013 329.183 0.866517 326.475 0.982267C327.213 0.929998 327.875 0.883895 328.581 0.839895C329.999 0.751983 331.309 0.682983 332.646 0.639727C336 0.547617 338.386 0.535887 343.559 1.14398C345.618 1.37023 347.444 1.65757 354.027 2.2493C357.372 2.54027 362.419 2.93611 370.851 3.35584C379.237 3.77669 390.266 4.14401 400.575 4.38834C404.911 4.49223 409.032 4.57711 413.219 4.65324C417.243 4.70895 421.513 4.75829 425.412 4.79483C427.359 4.89207 429.729 4.48896 430.946 5.20444C432.357 5.71781 432.755 8.38525 432.649 8.4158C432.655 10.39 432.661 12.3235 432.665 14.1794C432.674 17.9016 432.679 21.3126 432.674 24.1443C432.664 28.8066 432.573 32.2158 432.496 35.1231C432.443 37.1338 432.396 38.9078 432.39 40.6983C432.386 41.656 432.385 42.985 432.384 44.572C432.38 51.0513 432.388 62.07 432.244 72.1194C432.179 76.5764 432.066 81.7674 431.962 86.7014C431.814 93.7697 431.686 100.39 431.731 103.691C431.808 109.563 431.762 116.254 431.728 122.174C431.695 127.813 431.673 132.78 431.768 135.578C431.883 138.921 431.858 141.816 431.824 146.055C431.801 149.013 431.774 152.642 431.79 157.564C431.81 163.212 431.777 167.272 431.75 170.698C431.713 175.465 431.688 179.149 431.864 184.515C432.061 190.526 432.227 196.777 432.271 201.705C432.291 203.974 432.341 206.505 432.405 209.196C432.488 212.697 432.588 216.462 432.69 219.82C432.726 222.815 433.047 223.962 433 227.279C432.763 228.239 432.257 228.88 431.822 229.392C430.93 231.232 428.105 231.163 425.511 231.321C425.103 231.354 424.679 231.387 424.241 231.419C422.05 231.58 419.46 231.747 416.433 231.871C411.64 232.064 407.428 232.09 402.98 232.105C399.53 232.116 395.922 232.121 391.797 232.185C388.988 232.228 385.784 232.299 382.609 232.364C377.892 232.461 373.23 232.542 370.005 232.52C368.784 232.512 367.747 232.455 366.722 232.399C366.718 232.399 366.713 232.398 366.708 232.398C366.638 232.394 366.567 232.39 366.496 232.387C358.604 232.459 350.738 232.511 342.86 232.562C342.173 232.578 341.485 232.593 340.811 232.608C337.455 232.68 334.208 232.752 332.113 232.855C329.807 232.967 324.052 233.033 317.99 233.152C314.029 233.225 309.897 233.3 306.546 233.384C304.594 233.434 302.718 233.384 300.804 233.333C299.908 233.309 299.011 233.284 298.071 233.268C297.604 233.26 297.129 233.255 296.649 233.252C296.58 233.326 294.133 233.083 293.531 231.616C292.797 229.874 293.281 229.56 293.213 228.991C293.232 228.449 293.248 227.894 293.265 227.312C293.295 226.296 293.325 225.216 293.364 224.099C293.401 223.056 293.545 220.733 293.715 217.745C293.82 215.909 293.936 213.794 294.046 211.597C294.234 205.772 294.401 199.973 294.563 194.112C294.549 192.911 294.514 191.845 294.451 190.998C294.405 190.411 294.344 189.902 294.282 189.374C294.197 188.65 294.109 187.909 294.053 186.902C294.009 186.114 294.012 185.14 294.06 184.536C294.083 184.248 294.115 184.026 294.145 183.823C294.179 183.591 294.209 183.383 294.216 183.127C294.221 182.942 294.209 182.749 294.194 182.509C294.171 182.123 294.137 181.638 294.15 180.905C294.203 178.119 294.287 175.011 294.371 171.899C294.464 168.499 294.558 165.092 294.604 162.449C294.657 159.44 294.822 155.204 294.987 150.915C295.101 147.949 295.215 144.959 295.29 142.393C295.363 139.895 295.38 137.277 295.395 134.743C295.413 131.705 295.428 128.785 295.537 126.304C295.559 125.802 295.646 125.176 295.755 124.398C295.832 123.846 295.92 123.211 296.004 122.486C296.063 119.324 296.123 116.166 296.181 113.007C296.173 112.896 296.165 112.781 296.156 112.665C296.156 112.664 296.155 112.662 296.155 112.66C295.96 110.065 295.691 106.501 295.955 101.523C296.022 100.252 296.124 99.4557 296.216 98.7388C296.306 98.0342 296.386 97.4094 296.413 96.4806C296.443 95.4282 296.408 94.1885 296.369 92.8447C296.314 90.9332 296.25 88.8377 296.347 86.6983C296.354 86.553 296.361 86.3968 296.369 86.2344C296.438 84.7009 296.538 82.4055 296.717 80.1525C296.799 73.4188 296.857 66.6848 296.855 59.9656C296.864 48.7614 296.554 37.5208 296.78 26.2313C296.876 20.749 297.26 15.5058 297.831 11.6307C298.415 7.76927 298.975 5.69458 299.427 5.6655C299.946 5.64292 300.317 7.92888 300.463 11.7672C300.622 15.6407 300.695 20.8238 300.706 26.2642C300.714 35.1542 300.984 43.978 301.254 52.9344C301.272 53.3963 301.29 53.8645 301.306 54.3346C301.427 57.8431 301.59 61.0536 301.743 64.2909C301.778 65.0278 301.812 65.7725 301.845 66.5257ZM437.693 203.85C438.234 201.842 439.662 198.421 440.388 196.665C440.401 196.633 440.415 196.6 440.428 196.568C440.602 196.147 440.759 195.744 440.937 195.288C441.359 194.201 441.943 192.702 443.137 189.923C443.438 189.1 443.732 188.299 444.022 187.512C445.583 183.281 446.963 179.571 448.174 176.335C448.22 176.216 454.756 158.799 455.224 157.076C455.248 156.987 455.272 156.893 455.293 156.807C455.729 155.088 455.757 154.009 455.824 153.395C455.919 152.708 455.892 152.116 455.891 151.586C455.722 150.043 455.564 149.132 455.053 145.803C454.802 144.138 454.335 140.573 453.819 134.345C453.213 127.075 453.224 125.97 453.178 123.076C453.144 119.865 453.196 116.839 453.268 113.833C453.333 111.123 453.422 108.437 453.521 105.788C453.535 104.268 453.543 102.808 453.552 101.477C453.567 99.5914 453.585 97.9479 453.636 96.5998C453.76 93.3295 454.064 89.7099 454.293 87.053C454.331 86.6184 454.366 86.2089 454.399 85.8309C454.499 83.7218 454.598 81.6394 454.697 79.5679C454.725 79.4314 454.754 79.2941 454.784 79.1547C455.154 77.4204 455.292 75.2576 455.499 71.945C455.588 70.5053 455.69 68.8663 455.826 66.9301C455.912 65.7053 456.051 65.0759 456.164 64.5712C456.197 64.4227 456.228 64.2841 456.255 64.1444C456.345 63.6705 456.307 63.1424 456.259 62.5386C456.196 61.7655 456.121 60.8076 456.291 59.6398C456.834 55.8572 456.604 54.3389 456.425 53.26C456.47 53.7229 456.207 53.242 455.83 52.6832C454.705 50.9568 453.443 48.6527 452.616 47.0155C451.946 45.694 450.473 43.3864 449.411 41.819C449.003 41.2177 448.522 40.4012 447.975 39.4727C447.413 38.5176 446.785 37.4485 446.106 36.3873C444.4 33.7231 443.629 32.5132 442.998 31.5207C442.819 31.2393 442.658 30.9843 442.495 30.7299C441.985 29.9288 441.392 28.9654 440.831 28.049C440.157 26.9501 439.527 25.9187 439.056 25.1906C439.227 25.4774 436.993 21.3834 436.32 20.0368C435.484 18.4025 435.003 17.3975 434.619 16.5807C433.877 14.9906 433.553 14.1954 433.295 13.5641C433.021 12.951 433.207 12.5158 432.433 10.6415C432.287 9.84974 432.539 9.49594 432.876 9.12199C433.265 8.83507 433.558 8.32871 434.596 9.07077C436.403 11.2003 436.462 11.2556 436.843 11.8849C437.188 12.5175 437.579 13.2776 438.426 14.9105C438.862 15.7472 439.402 16.7878 440.37 18.5847C440.86 19.4946 441.459 20.5948 442.313 22.1266C443.01 23.3706 442.754 22.8891 442.979 23.2771C444.422 25.7094 446.15 28.6198 448.167 32.0903C449.579 34.5196 451.146 37.2176 452.936 40.2973C453.12 40.6152 453.309 40.9396 453.497 41.2629C455.161 43.8461 457.033 46.7945 458.479 49.1594C459.691 50.7861 460.557 53.9987 460.27 54.2556C460.222 54.8075 460.178 55.2393 460.168 55.7411C460.163 56.0111 460.16 56.3669 460.153 56.7997C460.127 58.6095 460.037 61.7145 459.745 64.6915C459.616 66.0096 459.418 67.5622 459.227 69.0409C458.952 71.1737 458.689 73.2021 458.664 74.2264C458.618 76.042 458.422 78.1346 458.248 79.9976C458.082 81.7833 457.937 83.3517 457.963 84.2574C457.993 85.3372 457.895 86.2544 457.75 87.6269C457.65 88.5787 457.528 89.7509 457.412 91.3586C457.278 93.2127 457.133 94.5348 457.011 95.6686C456.84 97.2607 456.712 98.4681 456.734 100.279C456.758 102.302 456.739 104.447 456.629 106.117C456.577 106.897 456.546 107.788 456.517 108.7C456.477 109.949 456.441 111.217 456.361 112.437C456.296 113.424 456.18 114.237 456.08 114.977C456.049 115.206 456.019 115.424 455.993 115.635C455.98 116.412 455.969 117.259 455.965 118.058C455.979 118.188 455.995 118.324 456.011 118.466C456.095 119.196 456.199 120.097 456.26 121.228C456.358 123.047 456.336 124.611 456.363 126.392C456.373 127.046 456.39 127.759 456.444 128.623C456.566 130.381 456.705 132.173 456.878 134.04C457.111 136.563 457.416 139.215 457.674 141.039C458.062 143.787 458.33 144.94 458.424 145.702C458.46 145.988 458.439 146.205 458.417 146.415C458.417 146.416 458.417 146.416 458.416 146.417C458.415 146.431 458.413 146.445 458.412 146.459C458.735 147.924 458.977 148.804 459.208 149.737C459.238 149.812 459.268 149.889 459.298 149.966C459.445 150.347 459.58 150.699 459.723 150.923C459.875 151.192 460.068 151.725 460.212 152.623C460.305 153.222 460.35 153.836 460.375 154.403C460.389 154.733 460.295 155.052 460.186 155.391C460.083 155.71 459.967 156.041 459.903 156.447C459.87 156.654 459.848 156.879 459.816 157.14C459.789 157.365 459.754 157.617 459.699 157.886C459.648 158.137 459.469 158.681 459.159 159.53C458.968 160.052 458.726 160.692 458.421 161.495C457.727 163.628 456.627 166.59 454.933 171.474C454.63 172.498 454.37 173.463 454.193 174.26C454.003 175.017 454.201 174.677 454.215 174.883C454.274 175.046 454.334 175.214 454.355 175.427C454.372 175.594 454.339 175.774 454.272 175.881C454.241 175.93 454.203 175.964 454.168 175.994C454.128 176.029 454.092 176.06 454.077 176.108C454.065 176.142 454.071 176.184 454.077 176.235C454.087 176.317 454.099 176.424 454.052 176.564C453.878 177.088 453.653 177.692 453.425 178.299C453.172 178.973 452.916 179.655 452.731 180.218C452.525 180.849 452.137 181.736 451.733 182.66C451.451 183.305 451.162 183.967 450.929 184.555C450.7 185.132 450.514 185.757 450.326 186.382C450.102 187.129 449.879 187.865 449.593 188.467C449.535 188.589 449.407 188.72 449.246 188.885C449.132 189.001 449.001 189.138 448.866 189.3C448.567 190.11 448.258 190.934 447.938 191.778C447.936 191.811 447.934 191.845 447.933 191.88C447.933 191.88 447.933 191.881 447.933 191.881C447.898 192.658 447.845 193.734 447.128 195.082C446.946 195.424 446.775 195.619 446.62 195.795C446.468 195.968 446.33 196.127 446.214 196.39C446.082 196.689 445.991 197.069 445.89 197.485C445.747 198.072 445.582 198.742 445.262 199.357C445.24 199.399 445.216 199.443 445.192 199.491C444.957 199.946 444.609 200.619 444.178 201.271C443.314 203.382 442.398 205.582 441.406 207.929C439.759 211.827 437.926 216.078 435.796 220.918C434.762 223.266 433.519 225.622 432.363 227.401C431.223 229.14 430.279 230.137 429.841 229.931C429.39 229.752 429.473 228.384 429.939 226.365C430.423 224.307 431.241 221.787 432.171 219.41C433.699 215.516 435.029 212.011 436.249 208.748C436.307 208.576 436.365 208.404 436.424 208.233C436.86 206.957 437.179 205.783 437.484 204.636C437.553 204.374 437.623 204.112 437.693 203.85ZM279.73 141.866C277.988 142.141 274.716 142.131 272.887 142.129C272.853 142.129 272.819 142.129 272.785 142.129C272.335 142.129 271.951 142.137 271.472 142.146C270.323 142.17 268.78 142.201 265.555 142.146C264.598 142.179 263.708 142.209 262.744 142.238C252.615 142.545 242.541 142.732 232.398 142.944C232.269 142.951 232.138 142.958 232.004 142.965C229.498 143.099 226.347 143.273 224.354 143.282C221.849 143.293 220.108 143.278 218.724 143.26C210.692 143.47 202.653 143.739 194.622 144.145C192.096 144.273 189.601 144.412 187.065 144.57C184.769 144.712 182.422 144.869 180.127 145.032C178.787 145.17 177.489 145.316 176.313 145.45C174.658 145.638 173.172 145.808 171.937 145.916C168.997 146.171 165.624 146.323 163.131 146.439C162.722 146.458 162.336 146.476 161.978 146.493C159.992 146.669 158.036 146.848 156.046 147.032C155.912 147.023 155.775 147.013 155.64 147.002C153.947 146.872 151.845 147.034 148.595 147.294C147.179 147.407 145.509 147.541 143.58 147.678C142.332 147.767 141.68 147.718 141.148 147.678C140.991 147.666 140.844 147.655 140.696 147.649C140.187 147.627 139.659 147.739 139.04 147.871C138.241 148.043 137.281 148.249 135.985 148.244C131.841 148.228 130.078 148.631 128.72 148.937C128.323 149.026 127.962 149.108 127.595 149.167C126.402 149.361 124.679 149.426 123.366 149.423C122.811 149.378 122.091 149.702 122.682 149.185C122.448 149.773 122.058 150.771 121.806 151.479C121.598 152.052 121.279 152.765 120.888 153.637C120.49 154.521 120.02 155.565 119.571 156.684C118.426 159.532 117.813 161.032 117.318 162.245C117.177 162.589 117.043 162.915 116.912 163.234C116.498 164.248 115.965 165.502 115.424 166.77C114.777 168.286 114.116 169.826 113.635 171.007C112.194 173.982 110.735 176.935 109.245 179.898C108.481 181.415 107.573 182.792 106.719 183.712C105.867 184.629 105.137 185.026 104.697 184.803C104.252 184.588 104.125 183.771 104.316 182.543C104.509 181.312 105.011 179.756 105.698 178.215C107.089 175.102 108.451 171.99 109.822 168.868C111.49 165.07 113.165 161.269 114.878 157.49C116.079 154.838 117.277 152.211 118.492 149.559C118.613 149.296 118.744 149.01 118.867 148.743C119.207 148.224 118.733 147.521 120.628 146.156C122.939 145.275 122.446 145.752 123.209 145.572C124.333 145.423 125.364 145.294 126.216 145.199C127.62 145.042 128.663 145.016 129.551 144.994C130.163 144.98 130.703 144.967 131.246 144.915C131.538 144.887 131.935 144.845 132.414 144.795C134.376 144.59 137.697 144.247 140.767 144.115C142.127 144.057 143.689 144.035 145.203 144.013C147.367 143.983 149.361 143.96 150.369 143.841C152.146 143.632 154.171 143.538 155.971 143.456C157.696 143.378 159.193 143.312 160.036 143.168C161.037 142.996 161.922 142.971 163.216 142.938C164.117 142.914 165.206 142.887 166.706 142.801C168.441 142.702 169.662 142.687 170.698 142.674C172.149 142.657 173.275 142.643 174.897 142.419C176.693 142.172 178.608 141.965 180.1 141.908C180.783 141.882 181.548 141.828 182.369 141.771C183.449 141.696 184.58 141.618 185.609 141.599C186.456 141.583 187.165 141.635 187.797 141.681C187.993 141.696 188.182 141.709 188.364 141.721C189.043 141.678 189.72 141.634 190.394 141.591C190.502 141.569 190.616 141.544 190.734 141.52C191.328 141.395 192.064 141.242 192.986 141.133C194.445 140.96 195.702 140.94 197.06 140.918C198.119 140.901 199.215 140.884 200.456 140.797C201.297 140.738 202.281 140.644 203.242 140.551C204.673 140.414 206.061 140.281 207.058 140.264C207.428 140.257 207.748 140.3 208.064 140.344C208.066 140.344 208.067 140.344 208.069 140.344C208.09 140.347 208.112 140.35 208.133 140.353C210.507 140.18 212.915 140.004 215.284 139.83C215.492 139.804 215.703 139.778 215.911 139.753C216.928 139.628 217.906 139.508 218.538 139.375C219.211 139.232 220.993 139.081 222.815 138.926C223.997 138.826 225.282 138.72 226.288 138.613C226.883 138.55 227.43 138.587 228.026 138.623C228.578 138.658 229.142 138.694 229.75 138.652C230.055 138.63 230.382 138.59 230.73 138.547C231.036 138.509 231.359 138.469 231.696 138.439C232.016 138.41 232.739 138.412 233.65 138.416C234.214 138.418 234.85 138.421 235.511 138.417C237.308 138.302 239.034 138.194 240.834 138.087C241.203 138.018 241.52 137.934 241.769 137.834C241.948 137.762 242.099 137.678 242.254 137.592C242.464 137.476 242.682 137.355 242.982 137.254C243.217 137.175 243.512 137.136 243.705 137.157C243.796 137.167 243.866 137.19 243.93 137.21C244.003 137.234 244.068 137.255 244.146 137.251C244.202 137.248 244.26 137.228 244.331 137.202C244.445 137.162 244.592 137.109 244.819 137.099C245.663 137.06 246.595 137.04 247.553 137.019C248.611 136.996 249.592 136.976 250.421 136.932C251.354 136.883 252.607 136.908 253.934 136.931C254.855 136.948 255.75 136.965 256.519 136.959C257.3 136.953 258.097 136.888 258.853 136.827C259.743 136.753 260.683 136.68 261.423 136.718C261.575 136.726 261.764 136.795 262 136.882C262.166 136.943 262.36 137.014 262.59 137.077C263.579 137.047 264.487 137.023 265.473 137.001C265.507 136.989 265.542 136.978 265.577 136.966C265.578 136.966 265.578 136.966 265.579 136.966C266.375 136.704 267.419 136.347 268.955 136.498C269.34 136.537 269.58 136.622 269.796 136.698C270.003 136.773 270.21 136.84 270.495 136.847C270.819 136.855 271.196 136.795 271.6 136.73C272.159 136.639 272.821 136.536 273.467 136.597C273.511 136.601 273.558 136.606 273.608 136.611C274.07 136.654 274.769 136.719 275.468 136.867C277.494 136.859 279.551 136.859 281.608 136.869C285.014 136.887 288.447 136.922 291.873 137.016C293.553 137.064 295.176 137.303 296.367 137.736C297.543 138.12 298.443 138.995 297.944 139.33C297.623 139.684 297.406 140.076 296.214 140.367C295.108 140.668 293.534 140.882 291.886 140.941C289.224 141.038 286.52 141.174 283.818 141.31C283.672 141.323 283.531 141.336 283.394 141.348C282.357 141.438 281.391 141.597 280.391 141.757C280.168 141.794 279.954 141.83 279.73 141.866ZM106.237 187.72C106.367 187.98 106.122 188.256 105.991 188.401C105.989 188.404 105.986 188.406 105.984 188.409C105.953 188.444 105.931 188.481 105.905 188.523C105.845 188.626 105.763 188.763 105.477 189C105.438 189.091 105.396 189.18 105.352 189.267C104.874 190.211 104.217 191.07 103.525 191.901C103.52 191.914 103.515 191.927 103.509 191.94C103.407 192.19 103.285 192.488 103.111 192.637C102.892 192.822 102.721 192.932 102.577 193.02C102.018 193.683 101.477 194.344 101.017 195.05C100.872 195.274 100.738 195.496 100.61 195.73C100.493 195.943 100.384 196.158 100.278 196.379C100.254 196.528 100.243 196.671 100.23 196.808C100.213 197.002 100.198 197.172 100.155 197.295C100.052 197.592 99.8047 197.857 99.6189 198.056C99.5886 198.088 99.56 198.119 99.5341 198.147C99.4594 198.344 99.3868 198.541 99.3133 198.74C99.2897 198.742 99.2652 198.745 99.2403 198.747C98.9291 198.773 98.8232 198.965 98.6568 199.264C98.5852 199.392 98.4988 199.547 98.381 199.713C98.3051 199.82 98.1833 199.827 98.0832 199.833C98.0538 199.835 98.0263 199.836 98.0026 199.841C97.9211 199.854 97.9523 199.937 97.9892 200.035C98.0369 200.161 98.0954 200.311 97.9282 200.371C97.3966 200.561 97.5139 200.846 97.601 201.065C97.6267 201.129 97.6499 201.187 97.6537 201.235C97.6663 201.388 97.4978 201.5 97.3243 201.555C97.1868 201.598 97.1583 201.832 97.1779 202.035C97.1854 202.112 97.1435 202.184 97.094 202.269C97.0427 202.357 96.9824 202.46 96.9615 202.594C96.9091 202.934 96.8744 203.113 96.8475 203.255C96.8398 203.296 96.8324 203.333 96.8253 203.371C96.803 203.492 96.76 203.631 96.7165 203.772C96.6647 203.941 96.6113 204.113 96.5925 204.256C96.3624 204.517 96.1197 204.771 95.8775 205.024C95.8619 205.04 95.8439 205.055 95.8238 205.067C95.8172 205.068 95.7888 205.104 95.8041 205.065C95.8066 205.061 95.8083 205.058 95.8193 205.038C95.8261 205.026 95.8288 205.023 95.8638 204.956C95.8941 204.83 95.8786 205.212 96.0816 204.233C96.0816 204.233 96.0816 204.233 96.0816 204.233C96.0816 204.233 96.0816 204.233 96.0816 204.233C96.0816 204.233 96.0816 204.233 96.0816 204.233C96.0816 204.233 96.0816 204.233 96.0816 204.233C96.0816 204.233 96.0816 204.233 96.0816 204.233C96.0816 204.233 96.0816 204.233 96.0816 204.233C95.1047 203.517 100.233 207.275 93.151 202.085C93.151 202.085 93.151 202.085 93.151 202.085C93.151 202.085 93.151 202.085 93.151 202.085C93.3036 201.996 92.5865 202.411 92.5986 202.443C92.069 202.995 92.3209 202.772 92.2555 202.841C92.2144 202.904 92.2251 202.888 92.2197 202.897C92.2149 202.905 92.2145 202.905 92.2136 202.907C92.2079 202.916 92.2115 202.911 92.2111 202.912C92.2116 202.912 92.2123 202.912 92.213 202.911C92.2143 202.911 92.2158 202.91 92.2172 202.909C92.2201 202.908 92.223 202.907 92.2259 202.905C92.2318 202.903 92.2378 202.9 92.244 202.898C92.2934 202.878 92.3514 202.865 92.4174 202.858C92.5492 202.845 92.7126 202.859 92.9009 202.901C93.2778 202.984 93.7215 203.172 94.1439 203.428C94.5663 203.685 94.9377 203.991 95.1858 204.287C95.3098 204.435 95.3973 204.574 95.4466 204.697C95.4713 204.759 95.4864 204.816 95.4918 204.869C95.4924 204.876 95.4929 204.882 95.4933 204.889C95.4935 204.892 95.4936 204.895 95.4937 204.899C95.4937 204.9 95.4938 204.902 95.4938 204.903C95.4938 204.904 95.4938 204.905 95.4936 204.906C95.493 204.908 95.4957 204.904 95.4906 204.912C95.4898 204.914 95.4896 204.914 95.4855 204.921C95.481 204.928 95.4899 204.915 95.4556 204.967C95.4011 205.025 95.6112 204.839 95.1693 205.299C95.1794 205.326 94.5811 205.672 94.7084 205.598C94.7084 205.598 94.7084 205.598 94.7084 205.598C94.7084 205.598 94.7084 205.598 94.7084 205.598C88.7991 201.268 93.0783 204.403 92.2632 203.806C92.2632 203.806 92.2632 203.806 92.2632 203.806C92.2632 203.806 92.2632 203.806 92.2632 203.806C92.2632 203.806 92.2632 203.806 92.2632 203.806C92.2632 203.806 92.2632 203.806 92.2632 203.806C92.2632 203.806 92.2632 203.806 92.2632 203.806C92.2632 203.806 92.2632 203.806 92.2632 203.806C92.4326 202.989 92.4197 203.307 92.445 203.202C92.4742 203.146 92.4766 203.144 92.4824 203.133C92.4917 203.117 92.4932 203.114 92.4955 203.11C92.5175 203.06 92.5032 203.073 92.5073 203.056C92.5096 203.031 92.5143 203.009 92.5215 202.987C92.638 202.644 92.7542 202.302 92.8834 201.968C93.0412 201.56 93.2173 201.167 93.4382 200.8C93.5923 200.544 93.7562 200.293 93.9273 200.048C93.945 200.023 93.9629 199.997 93.9807 199.972C94.0052 199.693 94.0371 199.423 94.0931 199.251C94.1386 199.11 94.2484 199.052 94.3425 199.001C94.4072 198.967 94.465 198.935 94.4884 198.885C94.501 198.858 94.5152 198.819 94.5324 198.772C94.6028 198.579 94.7215 198.253 94.982 198.041C95.0984 197.946 95.267 197.862 95.4305 197.777C95.6646 197.655 95.8801 197.545 95.8969 197.434C95.9265 197.24 96.0818 197.09 96.2197 196.955C96.3516 196.827 96.4667 196.714 96.4378 196.598C96.4035 196.459 96.4823 196.401 96.5998 196.313C96.6817 196.252 96.7801 196.18 96.8728 196.056C96.9796 195.913 97.1026 195.834 97.2055 195.77C97.3499 195.681 97.459 195.612 97.4417 195.408C97.4232 195.18 97.4451 194.974 97.555 194.857C97.6049 194.805 97.64 194.732 97.6766 194.655C97.7257 194.553 97.774 194.452 97.865 194.38C97.9398 194.321 98.0588 194.304 98.1643 194.288C98.1972 194.283 98.2287 194.278 98.2572 194.272C98.2899 194.209 98.3222 194.146 98.3525 194.084C98.3443 194.067 98.3349 194.049 98.3252 194.029C98.2769 193.933 98.2178 193.814 98.2153 193.705C98.2111 193.533 98.3233 193.439 98.438 193.346C98.5276 193.273 98.6213 193.197 98.6679 193.075C98.6997 192.992 98.7129 192.884 98.7262 192.777C98.7443 192.621 98.762 192.467 98.8415 192.395C98.8712 192.368 98.9398 192.367 99.0079 192.367C99.0083 192.367 99.0087 192.367 99.009 192.367C99.0137 192.367 99.0182 192.367 99.0228 192.367C99.0998 192.125 99.1682 191.888 99.2367 191.644C99.2331 191.618 99.2297 191.591 99.2265 191.565C99.2104 191.438 99.1963 191.312 99.1365 191.208C99.0722 191.095 99.0985 190.907 99.1274 190.707C99.1459 190.577 99.1672 190.438 99.1608 190.319C99.1572 190.249 99.2388 190.227 99.323 190.203C99.4016 190.182 99.4823 190.16 99.4978 190.097C99.5056 190.066 99.4984 190.024 99.4908 189.979C99.4841 189.939 99.477 189.897 99.4794 189.859C99.4817 189.823 99.5456 189.773 99.6276 189.708C99.6779 189.669 99.734 189.626 99.7874 189.576C99.8361 189.398 99.8869 189.219 99.9408 189.039C99.91 188.98 99.8626 188.918 99.7941 188.853C99.745 188.806 99.6832 188.756 99.6199 188.706C99.5337 188.637 99.4447 188.565 99.3798 188.497C99.329 188.443 99.3175 188.405 99.3522 188.401C99.3683 188.399 99.3941 188.404 99.4174 188.409C99.4441 188.415 99.4679 188.42 99.4709 188.412C99.4731 188.407 99.4592 188.393 99.4424 188.376C99.4157 188.35 99.3812 188.315 99.3903 188.294C99.424 188.214 99.482 188.134 99.5392 188.055C99.6028 187.966 99.6651 187.879 99.6913 187.797C99.7198 187.707 99.8407 187.623 99.9626 187.536C100.048 187.475 100.133 187.413 100.187 187.351C100.24 187.289 100.243 187.198 100.246 187.11C100.25 187.002 100.251 186.905 100.34 186.864C100.358 186.855 100.433 186.872 100.528 186.893C100.595 186.907 100.672 186.924 100.745 186.936C100.789 186.848 100.837 186.761 100.886 186.675C100.879 186.667 100.871 186.659 100.864 186.651C100.863 186.651 100.863 186.651 100.863 186.651C100.686 186.471 100.446 186.222 100.69 186.17C100.752 186.158 100.845 186.177 100.928 186.194C101.01 186.211 101.084 186.226 101.11 186.207C101.14 186.186 101.113 186.129 101.084 186.068C101.042 185.981 100.996 185.884 101.097 185.86C101.104 185.858 101.111 185.856 101.119 185.854C101.19 185.836 101.297 185.81 101.478 185.82C101.614 185.649 101.754 185.486 101.899 185.324C102.14 185.053 102.397 184.78 102.648 184.517C102.772 184.388 103.049 184.34 103.43 184.392C103.811 184.443 104.262 184.588 104.697 184.803C105.131 185.018 105.52 185.288 105.792 185.56C106.064 185.832 106.194 186.082 106.165 186.261C106.118 186.549 106.069 186.841 106.013 187.131C106.015 187.148 106.018 187.166 106.019 187.183C106.031 187.312 106.107 187.464 106.184 187.616C106.202 187.651 106.22 187.686 106.237 187.72ZM106.28 187.634C106.413 187.886 106.178 188.145 106.051 188.282C106.048 188.285 106.046 188.288 106.044 188.29C106.013 188.323 105.992 188.358 105.968 188.398C105.91 188.496 105.833 188.624 105.554 188.847C105.517 188.934 105.478 189.018 105.436 189.101C104.983 189.997 104.35 190.812 103.685 191.594C103.68 191.606 103.675 191.618 103.67 191.63C103.573 191.869 103.456 192.159 103.291 192.292C103.078 192.467 102.911 192.571 102.77 192.653C102.234 193.275 101.712 193.904 101.275 194.572C101.137 194.784 101.007 194.999 100.889 195.217C100.777 195.423 100.674 195.627 100.576 195.835C100.555 195.979 100.546 196.12 100.538 196.25C100.527 196.433 100.516 196.596 100.476 196.716C100.381 197.001 100.143 197.253 99.9657 197.438C99.9369 197.468 99.9096 197.497 99.885 197.523C99.8167 197.71 99.7476 197.902 99.6819 198.09C99.6586 198.091 99.6346 198.093 99.6101 198.095C99.3028 198.115 99.2034 198.298 99.0467 198.583C98.9776 198.708 98.8978 198.853 98.7864 199.01C98.7133 199.113 98.5927 199.118 98.4943 199.122C98.4654 199.123 98.4384 199.124 98.415 199.127C98.3351 199.139 98.3682 199.219 98.4074 199.313C98.4584 199.435 98.5186 199.583 98.3554 199.637C97.8367 199.809 97.9585 200.088 98.0508 200.299C98.0779 200.361 98.1023 200.417 98.1074 200.463C98.124 200.611 97.9598 200.717 97.7903 200.766C97.656 200.806 97.6332 201.032 97.658 201.227C97.6674 201.301 97.628 201.37 97.5814 201.451C97.5325 201.536 97.4758 201.633 97.4586 201.762C97.4158 202.088 97.3854 202.261 97.3625 202.397C97.3558 202.437 97.3496 202.472 97.3435 202.509C97.3242 202.625 97.2851 202.759 97.2456 202.894C97.1987 203.056 97.1496 203.222 97.1344 203.359C96.9134 203.607 96.6791 203.848 96.4455 204.087C96.3253 204.21 96.0524 204.232 95.6789 204.144C95.305 204.055 94.8631 203.865 94.4408 203.608C94.0184 203.352 93.6452 203.048 93.3937 202.758C93.1424 202.468 93.0355 202.216 93.0879 202.054C93.1943 201.727 93.3007 201.399 93.419 201.081C93.5642 200.693 93.7274 200.319 93.9356 199.97C94.0808 199.726 94.2361 199.488 94.398 199.255C94.4147 199.231 94.4316 199.207 94.4485 199.183C94.466 198.915 94.4889 198.657 94.5403 198.491C94.582 198.356 94.688 198.303 94.7795 198.256C94.8424 198.224 94.8982 198.196 94.9204 198.147C94.9323 198.121 94.9459 198.083 94.9613 198.038C95.0248 197.856 95.1349 197.541 95.3852 197.344C95.4967 197.256 95.6634 197.174 95.8215 197.097C96.048 196.986 96.2609 196.879 96.2735 196.775C96.296 196.591 96.4489 196.443 96.5802 196.319C96.7061 196.199 96.8171 196.093 96.7864 195.979C96.7501 195.843 96.8256 195.79 96.9388 195.709C97.0173 195.653 97.1135 195.584 97.203 195.465C97.3059 195.328 97.4226 195.259 97.5233 195.198C97.6645 195.113 97.7728 195.045 97.7488 194.852C97.7228 194.637 97.7418 194.434 97.8482 194.323C97.8964 194.273 97.9282 194.205 97.962 194.134C98.0067 194.039 98.054 193.939 98.1426 193.871C98.2156 193.815 98.3334 193.799 98.4365 193.787C98.4687 193.783 98.4995 193.779 98.5274 193.774C98.5576 193.716 98.5875 193.657 98.6165 193.597C98.6081 193.58 98.5984 193.562 98.5885 193.544C98.5387 193.449 98.4778 193.334 98.4733 193.228C98.4669 193.059 98.5711 192.978 98.6837 192.889C98.7712 192.82 98.8626 192.747 98.9064 192.63C98.9366 192.549 98.9457 192.449 98.9555 192.348C98.9699 192.198 98.9848 192.049 99.0621 191.98C99.0911 191.954 99.159 191.955 99.2264 191.955C99.2268 191.955 99.2272 191.955 99.2276 191.956C99.2322 191.956 99.2367 191.956 99.2412 191.956C99.3105 191.727 99.3731 191.5 99.4364 191.265C99.4323 191.24 99.4284 191.214 99.4247 191.189C99.4068 191.065 99.3867 190.95 99.3261 190.847C99.2603 190.736 99.2827 190.556 99.3074 190.363C99.3238 190.236 99.3392 190.109 99.3307 189.993C99.3258 189.925 99.4062 189.905 99.4892 189.884C99.5666 189.865 99.6461 189.845 99.6602 189.784C99.6673 189.754 99.6594 189.714 99.651 189.67C99.6436 189.632 99.6357 189.591 99.6373 189.554C99.639 189.519 99.7011 189.473 99.7795 189.415C99.828 189.379 99.8831 189.338 99.935 189.291C99.9797 189.12 100.027 188.948 100.076 188.776C100.045 188.718 99.9956 188.659 99.9262 188.596C99.8764 188.551 99.8141 188.502 99.7504 188.452C99.6637 188.384 99.5741 188.313 99.5085 188.246C99.4572 188.194 99.445 188.156 99.4792 188.153C99.4952 188.152 99.5208 188.157 99.544 188.162C99.5706 188.168 99.5943 188.173 99.5971 188.166C99.5991 188.161 99.5851 188.148 99.5682 188.131C99.5412 188.105 99.5064 188.071 99.5149 188.051C99.5468 187.975 99.6027 187.898 99.6577 187.823C99.7188 187.739 99.7796 187.655 99.8022 187.58C99.8281 187.495 99.9466 187.415 100.066 187.333C100.148 187.276 100.231 187.219 100.284 187.159C100.335 187.101 100.336 187.013 100.337 186.929C100.337 186.83 100.337 186.734 100.425 186.696C100.442 186.688 100.518 186.706 100.612 186.727C100.679 186.743 100.755 186.76 100.827 186.773C100.87 186.689 100.915 186.606 100.962 186.524C100.955 186.517 100.947 186.509 100.939 186.501C100.939 186.501 100.939 186.501 100.939 186.501C100.76 186.325 100.518 186.079 100.757 186.037C100.818 186.026 100.91 186.046 100.994 186.064C101.075 186.082 101.148 186.098 101.174 186.081C101.203 186.061 101.175 186.006 101.145 185.946C101.102 185.861 101.055 185.767 101.154 185.746C101.161 185.745 101.168 185.743 101.175 185.741C101.246 185.726 101.351 185.702 101.531 185.716C101.662 185.553 101.797 185.401 101.937 185.247C102.17 184.992 102.419 184.736 102.663 184.488C102.782 184.366 103.056 184.326 103.434 184.383C103.812 184.44 104.262 184.588 104.697 184.803C105.131 185.018 105.522 185.284 105.797 185.551C106.071 185.818 106.205 186.061 106.18 186.231C106.139 186.507 106.096 186.786 106.047 187.063C106.049 187.08 106.052 187.097 106.054 187.114C106.068 187.238 106.147 187.386 106.226 187.533C106.244 187.567 106.262 187.601 106.28 187.634Z" fill="#6E2616"/>
</svg>
