<svg width="1515" height="445" viewBox="0 0 1515 445" fill="none" xmlns="http://www.w3.org/2000/svg">
<path d="M2.5 392V437L180.5 442L345.5 438.5L628 436.5H772L945 438.5H1512.5V388.5L1454 245.5L1404.5 121.5L1238 124H1154.5H1071.5L698.5 122.5L454.5 127V50.5002L430 5.00024L300 1.50024L297 5.00024V136.5L120.5 145L42.5 308L2.5 392Z" fill="#993F2F"/>
<path d="M1511.91 439.5C1285.23 443.618 605.677 434.471 370.744 438.496C135.812 442.522 133.531 442.089 127.567 441.865C99.4329 440.812 18.1557 439.09 2.64791 438C2.86819 437.813 3.08199 437.372 2.96861 428.791C2.85522 420.21 2.71381 401.069 2.5 393C4.30886 389.454 4.54959 384.411 22.2137 349.582C38.6203 317.233 110.268 160.971 127 125C188.443 119.419 268.298 125.814 296.326 125C296.875 96.8586 297.259 67.1599 296.787 46.9908C295.824 5.86283 298.225 4.12143 296.787 1.91528C310.328 2.45607 427.941 4.89248 428.48 5.00031C432.407 12.0865 449.289 39.6656 455.999 50.9982L456 51.0002L456 126.628C690.933 122.434 1178.32 126.789 1405 122.5C1415.43 148.408 1501.38 363.101 1512 388.123C1512.13 389.172 1511.8 388.563 1512 398.5C1512.17 407.298 1511.97 402.894 1511.88 411.708C1511.78 420.434 1511.59 421.206 1511.46 421.74L1511.46 421.756C1511.33 422.291 1512.17 439.14 1511.91 439.5Z" fill="#993F2F"/>
<path d="M1383.64 392.317C1372.49 392.626 1348.26 392.679 1336.17 392.692C1335.94 392.692 1335.71 392.692 1335.49 392.693C1332.55 392.697 1329.75 392.709 1326.45 392.723C1318.8 392.754 1306.88 392.806 1285.28 392.756C1278.85 392.791 1272.35 392.822 1265.77 392.85C1195.47 393.146 1124.66 393.15 1054.49 393.069C1053.6 393.072 1052.69 393.076 1051.78 393.079C1033.97 393.141 1012.23 393.212 998.453 393.152C980.937 393.075 968.958 392.994 959.274 392.923C903.386 392.825 847.38 392.722 791.521 392.699C773.943 392.692 756.403 392.692 738.949 392.703C722.831 392.713 706.542 392.729 690.483 392.75C681.129 392.805 672.235 392.868 663.867 392.927C652.151 393.009 641.792 393.082 633.272 393.107C612.946 393.166 589.015 393.084 571.883 393.021C569.069 393.011 566.418 393.001 563.971 392.992C550.153 393.025 536.076 393.058 522.413 393.092C521.498 393.072 520.577 393.052 519.642 393.032C508.155 392.773 493.155 392.775 470.536 392.774C460.747 392.774 449.261 392.773 435.524 392.75C426.737 392.735 422.307 392.631 418.681 392.546C417.615 392.521 416.618 392.498 415.61 392.479C412.156 392.414 408.533 392.481 404.289 392.56C398.489 392.663 391.489 392.786 382.487 392.667C354.217 392.29 341.166 392.527 331.721 392.707C328.941 392.76 326.44 392.807 323.897 392.833C315.875 392.916 303.37 392.819 294.292 392.691C286.97 392.589 273.422 392.673 261.874 392.783C257.659 392.824 252.039 392.82 245.676 392.815C239.323 392.81 230.922 392.802 222.437 392.844C201.94 392.95 189.33 392.995 181.201 393.034C178.999 393.045 176.018 393.053 173.508 393.063C165.396 393.094 156.597 393.115 146.708 393.13C141.746 393.14 135.231 393.149 129.832 393.149C125.738 393.154 119.709 392.964 115.524 393.031C92.6926 393.061 69.7905 393.887 46.8916 394.504C35.0967 394.831 23.8885 394.931 15.4674 394.667C7.20293 394.426 2.32483 393.681 2.48743 393.173C2.41435 392.696 7.21447 392.484 15.4352 391.994C23.8078 391.528 34.9828 390.985 46.7698 390.58C70.4524 389.791 94.1417 388.745 117.912 388.676C132.887 388.944 145.526 388.826 160.81 388.85C167.154 388.85 176.144 388.855 182.536 388.858C189.263 388.862 196.549 388.868 204.36 388.878C214.196 388.89 223.813 388.904 234.593 388.921C244.828 388.938 254.151 388.955 264.682 388.976C266.826 388.98 268.991 388.984 271.177 388.988C287.616 388.882 305.086 388.785 316.972 388.754C326.498 388.728 333.676 388.798 339.879 388.857C344.151 388.898 347.976 388.934 351.88 388.931C353.961 388.93 356.929 388.924 360.118 388.917C373.13 388.887 397.613 388.838 418.067 388.964C427.364 389.021 438.341 389.128 449.007 389.231C464.078 389.377 477.56 389.512 484.698 389.473C497.123 389.404 511.413 389.466 523.74 389.521C535.586 389.573 546.106 389.617 552.11 389.535C559.329 389.436 565.295 389.476 574.202 389.535C580.389 389.576 588.003 389.625 598.448 389.644C610.513 389.666 619.133 389.733 626.243 389.79C636.326 389.87 643.95 389.93 655.375 389.812C668.096 389.681 681.354 389.595 691.705 389.63C696.433 389.646 701.851 389.639 707.502 389.632C714.983 389.622 722.873 389.611 730.093 389.653C736.068 389.687 740.879 389.779 745.204 389.862C746.55 389.887 747.843 389.912 749.094 389.933C753.796 389.929 758.502 389.924 763.214 389.918C763.977 389.902 764.779 389.884 765.616 389.866C769.818 389.774 774.987 389.662 781.395 389.603C791.546 389.509 800.416 389.555 809.777 389.604C817.066 389.642 824.655 389.681 833.356 389.656C839.29 389.639 846.046 389.593 852.743 389.547C862.7 389.479 872.531 389.411 879.355 389.439C881.913 389.449 884.111 389.507 886.285 389.564C886.294 389.565 886.304 389.565 886.314 389.565C886.461 389.569 886.61 389.573 886.757 389.577C903.357 389.511 919.983 389.438 936.638 389.361C938.079 389.343 939.535 389.326 940.978 389.308C948.026 389.225 954.859 389.143 959.308 389.034C964.119 388.917 976.271 388.834 989.162 388.744C997.586 388.685 1006.26 388.624 1013.32 388.55C1017.45 388.507 1021.35 388.561 1025.37 388.617C1029.1 388.67 1032.98 388.723 1037.26 388.7C1039.4 388.688 1041.71 388.657 1044.17 388.625C1046.33 388.596 1048.62 388.566 1051.01 388.545C1053.23 388.526 1058.18 388.549 1064.48 388.578C1068.38 388.596 1072.8 388.616 1077.42 388.63C1089.51 388.564 1102.16 388.496 1114.45 388.43C1117.02 388.369 1119.24 388.292 1121 388.197C1122.27 388.128 1123.34 388.048 1124.44 387.965C1125.94 387.853 1127.49 387.737 1129.62 387.642C1131.28 387.568 1133.24 387.535 1134.56 387.56C1135.17 387.572 1135.64 387.596 1136.07 387.618C1136.56 387.643 1136.99 387.665 1137.52 387.663C1137.91 387.662 1138.31 387.642 1138.8 387.618C1139.58 387.58 1140.6 387.53 1142.15 387.524C1147.98 387.502 1154.82 387.497 1161.36 387.492C1168.65 387.487 1175.71 387.48 1181.31 387.449C1187.61 387.413 1196.27 387.454 1205.57 387.491C1211.96 387.517 1218.31 387.542 1223.71 387.542C1229 387.542 1234.47 387.483 1239.73 387.426C1245.99 387.356 1252.18 387.288 1257.56 387.327C1258.64 387.335 1259.98 387.404 1261.65 387.491C1262.84 387.553 1264.2 387.623 1265.75 387.687C1272.48 387.659 1279.13 387.632 1285.7 387.608C1285.93 387.597 1286.17 387.586 1286.41 387.574C1286.41 387.574 1286.42 387.574 1286.42 387.573C1291.79 387.31 1299.16 386.949 1309.97 387.091C1312.69 387.127 1314.4 387.21 1315.93 387.284C1317.43 387.357 1318.77 387.423 1320.72 387.428C1322.94 387.434 1325.54 387.371 1328.36 387.301C1332.31 387.205 1336.69 387.096 1341.03 387.15C1341.33 387.154 1341.64 387.158 1341.97 387.162C1345.15 387.201 1350.3 387.254 1355.15 387.392C1369.78 387.349 1382.89 387.317 1397.87 387.265C1421.76 387.185 1444.46 387.105 1469.07 386.936C1474.96 386.896 1480.45 386.899 1485.31 386.945C1490.17 386.99 1495.94 387.057 1499.89 387.178C1508.06 387.418 1511.96 387.812 1512 388.297C1511.98 388.781 1508.09 389.324 1499.93 389.814C1495.98 390.056 1490.22 390.286 1485.36 390.458C1480.5 390.631 1475.01 390.768 1469.11 390.861C1459.16 391.017 1450.32 391.148 1440.91 391.278C1431.47 391.408 1421.54 391.532 1412.58 391.642C1411.62 391.66 1410.65 391.677 1409.67 391.694C1402.44 391.818 1395.51 392.005 1388.41 392.191C1386.78 392.233 1385.11 392.276 1383.64 392.317ZM1469.88 291.778C1466.03 282.842 1459.08 265.282 1455.26 255.643C1455.19 255.466 1455.12 255.289 1455.05 255.113C1454.15 252.825 1453.28 250.664 1452.27 248.136C1449.85 242.083 1446.6 233.962 1439.9 216.863C1437.93 211.979 1435.91 206.953 1433.93 202.024C1428.58 188.688 1423.2 175.232 1417.86 161.871C1415.25 155.32 1412.47 148.363 1409.88 141.849C1408.49 138.381 1407.15 135 1405.88 131.822C1405.2 130.117 1404.53 128.439 1403.88 126.793C1403.5 125.852 1403.17 125.017 1402.88 124.293C1402.38 123.434 1403.87 125.429 1404.32 125.145C1404.26 125.149 1403.55 125.158 1403.17 125.164C1374.59 125.617 1345.29 125.856 1316.86 125.997C1316.13 126.005 1315.38 126.013 1314.62 126.021C1300.05 126.175 1282.11 126.332 1271.02 126.315C1256.72 126.296 1246.94 126.244 1239.01 126.196C1193.26 126.228 1147.4 126.16 1101.69 126.143C1087.41 126.138 1072.95 126.137 1058.7 126.145C1045.54 126.152 1032.25 126.164 1019.09 126.18C1011.41 126.231 1004.05 126.292 997.291 126.348C987.787 126.426 979.302 126.495 972.288 126.517C955.401 126.571 936.263 126.481 922.044 126.415C919.721 126.404 917.527 126.394 915.498 126.385C904.211 126.415 892.908 126.447 881.616 126.481C880.862 126.462 880.103 126.442 879.331 126.421C869.714 126.163 857.821 126.166 839.205 126.174C831.129 126.178 821.636 126.183 810.582 126.169C803.45 126.16 799.828 126.06 796.801 125.979C795.915 125.955 795.085 125.932 794.245 125.914C791.365 125.853 788.334 125.923 784.76 126.007C780.124 126.116 774.57 126.246 767.271 126.139C743.729 125.8 733.613 126.065 725.717 126.265C723.419 126.323 721.341 126.376 719.217 126.408C712.313 126.509 702.64 126.441 695.128 126.339C689.189 126.257 677.548 126.382 668.607 126.531C665.201 126.588 660.607 126.604 655.239 126.623C649.651 126.644 643.443 126.668 636.417 126.749C618.871 126.952 609.891 127.064 602.324 127.155C600.193 127.181 598.215 127.205 596.246 127.23C590.01 127.31 582.453 127.392 574.488 127.482C565.012 127.59 555.843 127.705 548.407 127.825C529.521 127.924 511.283 128.034 492.147 128.209C482.566 128.296 473.313 128.213 466.471 127.959C459.682 127.705 456.018 127.296 456.004 126.801C456 126.308 459.648 125.763 466.427 125.287C473.26 124.81 482.511 124.449 492.096 124.284C511.878 123.946 530.73 123.677 550.351 123.451C573.831 123.18 597.705 122.983 621.192 122.872C637.747 122.794 654.137 122.744 670.854 122.715C672.559 122.712 674.227 122.709 675.918 122.707C689.679 122.545 703.73 122.403 713.391 122.344C721.43 122.296 727.338 122.351 732.409 122.398C735.915 122.431 738.908 122.46 742.006 122.451C743.665 122.445 745.932 122.435 748.673 122.422C759.901 122.371 778.858 122.289 796.288 122.397C804.02 122.445 812.888 122.545 821.453 122.641C833.71 122.779 845.044 122.909 850.802 122.868C860.908 122.796 872.486 122.856 882.71 122.91C892.467 122.962 901.016 123.007 905.863 122.926C911.66 122.828 916.605 122.869 923.958 122.929C929.058 122.971 935.319 123.023 943.828 123.044C953.651 123.069 960.594 123.139 966.491 123.198C974.817 123.281 981.079 123.344 990.389 123.23C1000.71 123.103 1011.58 123.022 1020.09 123.06C1023.97 123.078 1028.4 123.073 1033 123.067C1039.14 123.059 1045.6 123.05 1051.46 123.093C1056.3 123.128 1060.29 123.222 1063.81 123.304C1064.91 123.33 1065.96 123.355 1066.99 123.376C1070.87 123.373 1074.74 123.368 1078.6 123.362C1079.23 123.346 1079.89 123.329 1080.57 123.311C1084.01 123.219 1088.23 123.107 1093.44 123.048C1101.63 122.954 1109.04 122.999 1116.68 123.045C1122.66 123.081 1128.73 123.118 1135.95 123.089C1140.83 123.069 1146.37 123.019 1151.83 122.969C1159.91 122.895 1167.98 122.818 1173.59 122.84C1175.69 122.848 1177.49 122.903 1179.27 122.958C1179.28 122.958 1179.29 122.959 1179.29 122.959C1179.41 122.963 1179.54 122.966 1179.66 122.97C1193.13 122.887 1206.96 122.79 1220.38 122.682C1221.55 122.661 1222.71 122.641 1223.9 122.621C1229.75 122.523 1235.38 122.426 1239.02 122.307C1242.99 122.179 1252.8 122.067 1263.42 121.937C1270.34 121.852 1277.23 121.763 1283.1 121.662C1286.54 121.602 1289.79 121.641 1293.1 121.68C1296.2 121.717 1299.35 121.754 1302.77 121.711C1304.49 121.69 1306.31 121.649 1308.29 121.605C1310.09 121.566 1311.99 121.524 1313.96 121.491C1315.79 121.46 1319.87 121.458 1325 121.451C1328.2 121.447 1331.65 121.443 1335.54 121.427C1345.92 121.279 1355.42 121.131 1365.85 120.957C1367.97 120.874 1369.8 120.778 1371.24 120.667C1372.27 120.588 1373.14 120.497 1374.04 120.405C1375.26 120.279 1376.52 120.149 1378.24 120.034C1379.59 119.945 1381.16 119.893 1382.22 119.905C1382.74 119.911 1383.14 119.93 1383.5 119.947C1383.92 119.967 1384.29 119.985 1384.74 119.977C1385.07 119.971 1385.41 119.947 1385.82 119.918C1386.49 119.872 1387.35 119.811 1388.65 119.788C1393.51 119.703 1398.91 119.624 1404.06 119.542C1403.93 119.507 1406.52 119.517 1407.51 121.092C1408.56 122.939 1408.01 122.125 1408.26 122.65C1408.51 123.278 1408.79 123.975 1409.09 124.734C1409.64 126.116 1410.1 127.255 1410.67 128.677C1411.66 131.171 1412.73 133.833 1413.52 135.778C1415.46 140.593 1418.09 147.326 1420.84 154.359C1422.66 159.031 1424.58 163.951 1426.19 168.015C1427.82 172.142 1429.48 176.159 1431.18 180.305C1433.15 185.098 1435.12 189.894 1436.62 193.805C1436.93 194.608 1437.26 195.631 1437.68 196.923C1437.97 197.839 1438.32 198.896 1438.72 200.102C1440.75 205.145 1442.81 210.283 1444.81 215.291C1444.89 215.465 1444.97 215.644 1445.06 215.824C1445.06 215.827 1445.06 215.83 1445.06 215.832C1446.95 219.907 1449.53 225.456 1452.58 233.567C1453.35 235.609 1453.77 236.921 1454.16 238.103C1454.54 239.265 1454.88 240.304 1455.46 241.794C1456.12 243.486 1456.97 245.458 1457.89 247.6C1459.18 250.611 1460.62 253.976 1461.92 257.417C1462.01 257.652 1462.1 257.905 1462.2 258.168C1463.14 260.663 1464.53 264.342 1465.84 268.045C1470.14 278.863 1474.45 289.73 1478.72 300.482C1485.87 318.493 1493.06 336.644 1500.21 354.587C1503.74 363.438 1506.9 371.824 1509.11 378.176C1511.24 384.325 1512.36 388.18 1511.84 388.191C1511.47 388.561 1509.48 385.054 1506.68 379.176C1503.79 373.093 1500.2 364.874 1496.57 356.06C1490.73 341.861 1484.85 327.512 1479.05 313.322C1478.73 312.564 1478.42 311.812 1478.12 311.081C1475.84 305.606 1473.61 300.43 1471.41 295.333C1470.9 294.155 1470.39 292.97 1469.88 291.778ZM1426.9 443.238C1414.19 443.541 1389.95 443.526 1376.07 443.495C1375.81 443.495 1375.56 443.495 1375.31 443.494C1372.2 443.487 1369.23 443.489 1365.73 443.49C1357.43 443.491 1345.7 443.495 1322.09 443.334C1315.17 443.335 1307.94 443.331 1301.21 443.322C1226.56 443.221 1151.59 442.692 1076.77 442.081C1075.82 442.077 1074.86 442.073 1073.88 442.07C1055.19 441.998 1031.8 441.903 1017.26 441.739C998.7 441.53 986.015 441.36 975.675 441.216C916.251 440.7 856.83 440.195 797.388 439.828C778.823 439.713 760.066 439.611 741.544 439.528C724.496 439.452 707.188 439.387 690.123 439.336C680.03 439.349 670.531 439.376 661.801 439.403C649.676 439.442 638.254 439.478 629.267 439.478C607.662 439.476 582.677 439.347 563.983 439.271C560.956 439.258 558.114 439.247 555.498 439.237C541.192 439.263 525.881 439.303 511.64 439.359C510.684 439.341 509.725 439.323 508.683 439.304C495.79 439.069 480.706 439.098 456.397 439.222C446.315 439.275 433.218 439.356 419.449 439.457C409.791 439.53 405.129 439.48 401.296 439.439C400.173 439.427 399.127 439.416 398.074 439.41C394.571 439.387 390.374 439.508 385.667 439.654C379.457 439.844 372.898 440.077 363.033 440.133C332.889 440.285 319.124 440.76 309.247 441.112C306.191 441.218 303.469 441.312 300.723 441.385C291.958 441.62 279.282 441.741 269.43 441.78C261.996 441.805 246.363 442.151 235.067 442.449C230.513 442.566 224.928 442.654 217.699 442.766C210.624 442.874 202.067 443.004 193.265 443.181C170.597 443.635 158.595 443.838 149.072 443.976C146.194 444.017 143.759 444.048 141.162 444.076C133.068 444.248 122.988 443.845 112.882 443.591C100.732 443.273 88.3858 442.991 78.9949 442.796C54.6501 442.057 30.3679 441.486 5.9325 440.332C5.50817 440.383 3.10917 439.974 2.42984 439.001C1.64176 438.147 0.846702 437.106 0.859743 435.493C0.885815 434.875 0.913992 434.088 0.926258 432.369C0.924045 426.996 0.918641 424.938 0.94409 421.848C0.989666 416.05 1.08358 410.838 1.21263 406.45C1.47566 397.676 1.83446 393.002 2.32646 393.005C2.82211 392.972 3.41691 397.646 3.88509 406.417C4.12136 410.804 4.32099 416.017 4.48743 421.811C4.56808 424.91 4.65862 426.901 4.72552 432.36C4.79116 435.619 4.49482 436.645 6.13737 436.412C31.2893 437.438 56.4653 437.868 81.6487 438.508C112.366 439.259 142.791 440.183 173.479 439.509C194.918 439.227 216.417 438.91 237.829 438.595C239.997 438.563 242.209 438.531 244.467 438.498C262.436 438.091 280.234 437.689 293.235 437.434C303.345 437.235 311.394 437.165 317.723 437.114C322.165 437.078 326.335 437.042 330.342 436.969C332.442 436.93 335.331 436.874 338.888 436.805C353.885 436.526 377.849 435.99 400.603 435.865C410.4 435.806 422.393 435.802 433.277 435.824C449.481 435.85 463.789 435.921 471.504 435.851C484.923 435.727 499.565 435.751 513.024 435.786C525.432 435.819 536.686 435.86 543.142 435.777C550.572 435.678 556.871 435.72 566.483 435.787C573.168 435.834 581.374 435.892 592.296 435.93C604.948 435.974 614.361 436.064 621.819 436.141C632.502 436.249 640.627 436.333 652.895 436.257C666.234 436.171 680.241 436.14 691.453 436.222C696.554 436.26 702.182 436.277 708.182 436.297C716.101 436.323 724.488 436.352 732.191 436.431C738.493 436.496 743.606 436.615 748.201 436.721C749.632 436.754 751.006 436.785 752.338 436.813C757.341 436.835 762.359 436.857 767.393 436.878C768.208 436.867 769.065 436.853 769.961 436.84C774.477 436.773 779.909 436.691 786.686 436.67C797.409 436.637 806.874 436.739 816.883 436.848C824.594 436.932 832.64 437.02 841.893 437.053C848.193 437.075 855.438 437.074 862.523 437.074C873.064 437.073 883.503 437.074 890.763 437.15C893.483 437.178 895.822 437.251 898.137 437.324C898.147 437.325 898.158 437.325 898.168 437.325C898.325 437.33 898.483 437.335 898.64 437.34C916.296 437.392 933.948 437.44 951.621 437.485C953.152 437.478 954.699 437.471 956.232 437.465C963.724 437.433 970.999 437.402 975.739 437.327C980.868 437.246 993.819 437.254 1007.45 437.261C1016.38 437.266 1025.52 437.27 1033.1 437.25C1037.52 437.238 1041.7 437.322 1046 437.409C1050.01 437.49 1054.12 437.573 1058.61 437.581C1060.86 437.585 1063.29 437.572 1065.87 437.558C1068.16 437.546 1070.54 437.533 1073.1 437.53C1075.46 437.528 1080.73 437.588 1087.46 437.665C1091.61 437.713 1096.33 437.766 1101.26 437.815C1114.22 437.84 1127.51 437.866 1140.52 437.89C1143.24 437.848 1145.6 437.788 1147.46 437.705C1148.8 437.646 1149.93 437.574 1151.1 437.499C1152.68 437.398 1154.34 437.293 1156.65 437.214C1158.45 437.152 1160.57 437.134 1161.99 437.169C1162.65 437.185 1163.16 437.213 1163.62 437.237C1164.15 437.266 1164.62 437.291 1165.2 437.293C1165.61 437.294 1166.04 437.278 1166.58 437.257C1167.42 437.225 1168.52 437.183 1170.2 437.188C1176.42 437.208 1183.47 437.251 1190.32 437.292C1197.93 437.337 1205.65 437.381 1211.62 437.388C1218.39 437.396 1227.65 437.496 1237.41 437.594C1244.17 437.662 1250.89 437.728 1256.6 437.762C1262.25 437.796 1267.83 437.77 1273.67 437.745C1280.59 437.715 1287.17 437.683 1292.71 437.753C1293.84 437.767 1295.23 437.844 1296.96 437.941C1298.2 438.009 1299.61 438.087 1301.22 438.159C1308.1 438.168 1315.51 438.178 1322.58 438.188C1322.83 438.178 1323.08 438.168 1323.34 438.158C1323.35 438.157 1323.35 438.157 1323.36 438.157C1329.28 437.921 1336.7 437.598 1348.26 437.788C1351.15 437.836 1352.96 437.926 1354.58 438.008C1356.18 438.087 1357.6 438.159 1359.67 438.172C1362.02 438.187 1364.79 438.134 1367.77 438.076C1371.95 437.994 1376.63 437.902 1381.54 437.971C1381.87 437.975 1382.23 437.98 1382.6 437.986C1386.11 438.034 1391.27 438.105 1396.31 438.257C1411 438.257 1426.45 438.243 1441.58 438.2C1454.45 438.162 1466.76 438.11 1479.46 438.018C1485.61 437.975 1491.92 437.921 1498.37 437.852C1501.55 437.818 1504.65 437.783 1507.68 437.744C1508.44 437.735 1509.19 437.725 1509.94 437.715C1510.72 437.96 1511.48 436.572 1510.14 438.961C1510.17 437.537 1510.11 435.894 1510.07 434.346C1509.38 422.158 1510.55 410.148 1510.91 401.671C1511.04 392.985 1511.81 388.142 1512.17 388.102C1512.78 388.195 1512.95 392.927 1513.54 401.635C1513.91 410.508 1513.19 421.87 1513.99 434.216C1514.04 435.47 1514.09 436.722 1514.11 438.01C1514.11 438.341 1514.12 438.681 1514.11 439.017C1514.53 439.893 1511.82 442.071 1511.4 441.67C1510.81 441.683 1510.22 441.697 1509.62 441.71C1507.24 441.762 1504.81 441.813 1502.34 441.863C1497.45 441.961 1491.97 442.059 1487.12 442.141C1477.7 442.303 1466.69 442.455 1457.27 442.572C1456.24 442.591 1455.21 442.609 1454.17 442.626C1446.57 442.755 1438.63 442.943 1431.8 443.118C1430.18 443.159 1428.55 443.199 1426.9 443.238ZM15.9911 355.622C17.4046 352.233 20.7908 345.815 22.4428 342.531C22.4755 342.466 22.5083 342.401 22.5412 342.336C22.9706 341.488 23.3778 340.662 23.8016 339.799C24.8409 337.68 26.3643 334.569 29.4237 328.506C30.28 326.7 31.1716 324.82 32.0065 323.062C41.3321 303.412 50.6173 283.951 59.9939 264.34C60.1075 264.093 60.223 263.841 60.3398 263.587C62.5998 258.669 65.4181 252.528 67.2795 248.716C69.6461 243.87 71.2708 240.602 72.6139 237.908C80.0187 222.367 87.3964 206.799 94.6798 191.187C96.9532 186.314 99.2145 181.442 101.494 176.503C103.579 171.984 105.67 167.434 107.71 162.979C108.915 160.247 109.959 157.841 110.999 155.455C112.467 152.086 113.692 149.267 114.804 146.803C117.37 141.116 120.463 134.625 122.825 129.679C123.186 128.926 123.538 128.19 123.889 127.454C124.382 126.385 124.628 125.765 125.28 124.442C127.8 121.738 129.966 123.217 132.218 122.715C136.538 122.36 140.446 122.092 144.254 121.864C144.769 121.855 145.284 121.848 145.765 121.843C151.952 121.778 159.293 121.474 169.132 121.279C173.381 121.195 178.198 121.134 183.511 121.133C186.899 121.134 188.637 121.241 189.991 121.327C190.393 121.352 190.771 121.376 191.152 121.396C192.452 121.464 193.878 121.403 195.433 121.333C197.465 121.242 199.968 121.138 203.059 121.292C212.972 121.789 216.856 121.652 219.901 121.532C220.782 121.498 221.578 121.468 222.39 121.461C225.042 121.437 228.671 121.623 231.343 121.822C233.467 121.978 237.637 122.009 240.685 121.986C241.849 121.977 243.377 122.025 245.165 122.083C247.018 122.143 249.106 122.212 251.303 122.235C256.825 122.292 259.54 122.322 261.736 122.345C262.36 122.352 262.935 122.358 263.506 122.363C265.31 122.38 267.501 122.415 269.641 122.446C272.203 122.482 274.689 122.51 276.523 122.5C281.272 122.685 285.607 122.845 289.468 122.935C291.443 122.982 293.191 123.189 294.431 123.533C295.666 123.877 296.303 124.332 296.321 124.826C296.333 125.32 295.718 125.818 294.477 126.205C293.23 126.592 291.452 126.828 289.454 126.86C285.41 126.923 280.879 126.913 275.909 126.843C269.86 126.758 263.175 126.585 255.914 126.338C250.836 126.165 245.463 125.97 239.797 125.769C239.212 125.748 238.626 125.728 238.036 125.707C233.24 125.678 228.146 125.644 224.502 125.59C221.442 125.544 219.218 125.427 217.221 125.328C215.858 125.259 214.647 125.2 213.416 125.181C212.76 125.171 211.832 125.161 210.713 125.149C206.184 125.103 198.216 125.047 190.214 124.909C186.737 124.847 182.467 124.75 178.231 124.69C172.233 124.599 166.079 124.598 162.927 124.727C157.307 124.949 150.486 125.141 143.714 125.471C140.473 125.628 137.213 125.819 134.344 126.026C131.807 126.18 126.938 126.73 127.975 126.524C128.531 126.38 126.662 129.716 125.691 131.785C124.833 133.54 123.835 135.577 122.435 138.558C120.879 141.867 119.655 144.354 118.721 146.236C117.363 148.981 116.276 151.188 114.934 154.369C113.381 158.035 111.806 161.641 110.38 164.637C109.76 165.937 109.078 167.425 108.35 169.015C107.382 171.128 106.373 173.33 105.414 175.3C104.619 176.933 103.894 178.275 103.249 179.471C103.045 179.849 102.862 180.187 102.681 180.525C102.083 181.824 101.48 183.135 100.873 184.457C100.788 184.678 100.7 184.91 100.607 185.153C100.143 186.369 99.5599 187.892 98.7969 189.674C97.5842 192.505 96.3534 195.043 95.1103 197.6C94.1356 199.605 93.1138 201.707 91.9953 204.168C91.2362 205.838 90.4114 207.717 89.5792 209.61C88.3428 212.423 87.1259 215.191 86.2133 217.079C85.871 217.787 85.5321 218.377 85.1962 218.96C85.1946 218.963 85.1931 218.965 85.1915 218.968C85.1687 219.007 85.1459 219.047 85.1231 219.087C83.0066 223.773 80.9127 228.42 78.8093 233.09C78.6372 233.498 78.4628 233.911 78.2899 234.321C77.445 236.32 76.6232 238.264 76.1373 239.554C75.6107 240.952 74.0905 244.385 72.494 247.987C71.449 250.346 70.3579 252.806 69.497 254.805C68.9926 255.977 68.4308 257.039 67.848 258.143C67.3017 259.177 66.7417 260.237 66.2055 261.428C65.9369 262.024 65.663 262.674 65.3714 263.367C65.1146 263.977 64.8435 264.621 64.5501 265.289C64.2789 265.907 63.6066 267.274 62.7421 269.03C62.2087 270.114 61.6044 271.341 60.9793 272.626C59.4354 276.034 57.829 279.57 56.2811 282.97C56.003 283.695 55.7669 284.368 55.618 284.901C55.5104 285.286 55.4393 285.622 55.3661 285.967C55.2666 286.436 55.1637 286.92 54.9641 287.559C54.8081 288.057 54.5756 288.621 54.3768 288.978C54.2842 289.144 54.1995 289.266 54.1227 289.376C54.0347 289.502 53.9563 289.614 53.8872 289.764C53.8374 289.872 53.8019 289.992 53.7581 290.139C53.6881 290.374 53.5968 290.679 53.3959 291.113C52.6578 292.707 51.7403 294.633 50.8835 296.429C49.9261 298.436 49.0009 300.373 48.2606 301.984C47.4295 303.793 46.2455 306.153 44.9661 308.712C44.084 310.475 43.2172 312.203 42.5046 313.669C41.8215 315.073 41.0763 316.742 40.4167 318.225C39.6167 320.023 38.8654 321.711 38.0958 323.193C37.9426 323.487 37.6989 323.826 37.3955 324.246C37.1805 324.544 36.9342 324.885 36.6705 325.277C35.8155 327.077 34.8934 329.007 34.0075 330.849C33.9857 330.919 33.9631 330.99 33.9407 331.061C33.9405 331.062 33.9402 331.064 33.9399 331.065C33.4557 332.632 32.6968 334.978 31.1489 337.741C30.7605 338.433 30.4553 338.854 30.1633 339.269C29.8811 339.667 29.6305 340.019 29.351 340.56C29.0337 341.175 28.7292 341.916 28.4103 342.694C27.9851 343.739 27.3527 345.224 26.7057 346.357C26.6605 346.436 26.612 346.521 26.562 346.609C26.1262 347.365 25.2737 348.896 24.5137 350.031C22.5237 353.855 20.5175 357.74 18.5388 361.649C15.253 368.147 12.0251 374.679 9.0878 381.267C7.63864 384.516 6.22165 387.527 5.02569 389.76C3.85456 391.983 2.77627 393.173 2.34538 392.921C1.93111 392.688 2.05571 391.345 2.55004 388.856C3.06876 386.353 4.10357 383.069 5.47749 379.726C7.68528 374.343 10.0789 369.019 12.5219 363.761C12.6459 363.48 12.7724 363.196 12.9005 362.91C13.8076 360.878 14.6221 358.906 15.4339 356.956C15.6157 356.518 15.8011 356.073 15.9911 355.622ZM380.538 233.751C376.474 233.913 368.694 233.677 364.51 233.546C364.433 233.544 364.356 233.541 364.278 233.539C363.274 233.508 362.349 233.487 361.25 233.463C358.639 233.405 355.089 233.327 347.899 233.039C345.812 233.003 343.72 232.965 341.668 232.924C330.52 232.703 319.691 232.433 309.704 232.148C304.72 232.006 299.846 231.858 295.968 231.727C295.525 231.712 295.022 231.695 294.614 231.68C294.269 231.659 294.82 231.726 293.642 231.617C292.348 231.431 291.215 230.326 290.923 229.141C290.646 226.31 290.888 228.015 290.872 227.426C290.923 226.983 290.979 226.478 291.04 225.872C291.043 225.809 291.045 225.744 291.047 225.678C291.089 224.451 291.181 222.138 291.403 219.121C291.681 215.338 291.982 210.645 292.405 201.276C292.628 195.931 293.295 176.038 293.237 177.59C293.308 175.311 293.38 173.075 293.452 170.811C293.596 166.28 293.74 161.752 293.88 157.193C294.16 148.12 294.422 138.993 294.641 129.874C294.778 124.15 294.899 118.428 294.998 112.695C295.088 107.417 295.162 102.141 295.217 96.8453C295.207 93.7739 295.18 90.8366 295.152 88.1167C295.112 84.3121 295.067 80.8807 295.06 78.0887C295.045 71.3122 295.128 63.628 295.139 57.8956C295.141 56.9711 295.141 56.0575 295.141 55.249C295.099 53.0186 295.046 50.7097 294.981 48.4188C294.973 48.1349 294.965 47.8527 294.957 47.5724C294.948 47.2316 294.947 47.4724 294.874 44.1286C294.768 39.1052 294.731 35.9466 294.706 33.2242C294.662 27.9734 294.68 24.961 294.699 22.4815C294.727 21.8141 294.756 21.2236 294.786 20.6456C295.163 13.6627 295.362 10.2871 295.507 7.60565C295.571 6.47354 295.624 5.57996 295.672 4.88814C295.702 4.44698 295.805 4.3171 295.89 4.18118C295.915 4.14291 295.938 4.10749 295.957 4.07206C295.989 4.01415 295.988 3.956 295.968 3.89663C295.994 3.88834 295.699 3.68519 296.175 2.35891C296.479 1.68618 296.941 0.844285 298.256 0.548057C299.996 0.468917 302.475 0.597571 303.712 0.600596C306.008 0.632924 308.423 0.692117 310.704 0.806559C324.789 1.51928 328.531 1.35069 332.557 1.25894C333.608 1.22851 334.572 1.20128 335.567 1.19666C338.879 1.18373 343.198 1.36993 346.459 1.56443C349.112 1.72026 354.127 1.73766 357.87 1.7001C359.304 1.68632 361.185 1.72705 363.399 1.77512C365.706 1.82522 368.288 1.88139 371.059 1.89132C377.988 1.91476 381.506 1.92926 384.341 1.9414C385.147 1.94479 385.892 1.94814 386.632 1.95081C388.984 1.95954 391.837 1.98687 394.695 2.01405C398.091 2.04603 401.409 2.07577 403.934 2.07364C410.365 2.27747 416.444 2.48863 421.569 2.68346C424.187 2.78367 426.351 3.05796 427.434 3.45349C428.563 3.85008 428.546 4.33489 428.514 4.83007C428.398 5.31434 428.522 5.79233 427.361 6.12513C426.267 6.46018 424.096 6.62938 421.478 6.60788C416.167 6.56299 409.839 6.50092 403.159 6.41555C394.981 6.31079 386.195 6.17043 376.965 5.96686C370.494 5.82414 363.82 5.66475 356.844 5.48792C356.127 5.46974 355.411 5.45135 354.696 5.43299C348.775 5.42235 342.626 5.39415 338.185 5.33217C334.45 5.27946 331.687 5.15075 329.236 5.03823C327.605 4.9621 326.028 4.89139 324.475 4.86022C323.637 4.84338 322.548 4.82519 321.048 4.79849C318.121 4.74692 314.133 4.6771 308.674 4.54322C307.288 4.50907 305.707 4.46816 303.969 4.41949C302.454 4.35749 297.864 4.34988 299.443 3.95912C299.605 3.65947 299.485 3.94067 299.472 4.16729C299.416 4.58309 299.29 5.13966 299.151 5.86688C298.954 6.87909 298.72 8.53222 298.699 9.73172C298.671 11.9371 298.422 14.3111 298.26 23.489C298.225 25.7972 298.198 28.5638 298.213 32.6095C298.22 34.601 298.239 36.9735 298.284 40.0248C298.321 42.7863 298.44 48.0461 298.423 47.3671C298.451 48.9389 298.486 50.3507 298.543 51.3042C298.68 53.6446 298.666 55.6743 298.631 58.6293C298.606 60.6815 298.571 63.2344 298.556 66.6449C298.537 70.6214 298.459 73.4035 298.39 75.7729C298.293 79.1437 298.214 81.6223 298.296 85.374C298.386 89.5265 298.416 93.8844 298.331 97.2878C298.292 98.8435 298.272 100.624 298.25 102.474C298.22 104.928 298.186 107.499 298.102 109.85C298.032 111.785 297.909 113.385 297.799 114.799C297.765 115.24 297.732 115.663 297.702 116.073C297.676 117.614 297.65 119.156 297.623 120.697C297.634 120.946 297.646 121.209 297.659 121.482C297.721 122.854 297.798 124.551 297.81 126.637C297.831 129.946 297.717 132.851 297.596 135.898C297.502 138.281 297.402 140.75 297.357 143.591C297.326 145.511 297.316 147.733 297.307 149.901C297.292 153.16 297.276 156.337 297.19 158.556C297.157 159.394 297.081 160.107 297.005 160.808C297.004 160.811 297.004 160.814 297.004 160.818C296.998 160.865 296.993 160.913 296.988 160.96C296.911 166.37 296.839 171.752 296.776 177.126C296.781 177.601 296.786 178.076 296.791 178.541C296.794 178.826 296.797 179.107 296.801 179.384C296.794 179.95 296.849 178.687 296.772 181.363C296.667 185.28 296.582 188.447 296.517 190.994C296.384 196.157 296.318 199.253 296.29 201.455C296.217 206.61 296.002 213.749 295.922 217.062C295.865 219.401 295.838 220.92 295.848 221.971C295.854 222.574 295.768 223.07 295.68 223.535C295.599 223.959 295.517 224.354 295.512 224.74C295.509 224.936 295.525 225.135 295.542 225.335C295.557 225.512 295.573 225.693 295.579 225.866C295.585 226.03 295.533 226.375 295.469 226.764C295.43 226.995 295.386 227.253 295.348 227.489C295.208 227.469 295.958 229.564 294.931 227.342C292.972 226.7 295.285 227.167 295.636 227.083C296.221 227.086 297.026 227.094 297.701 227.099C298.283 227.057 298.84 226.998 299.3 226.917C299.638 226.859 299.892 226.786 300.165 226.713C300.537 226.612 300.931 226.508 301.501 226.431C301.946 226.371 302.497 226.355 302.826 226.39C302.984 226.407 303.107 226.435 303.22 226.46C303.348 226.489 303.464 226.515 303.607 226.518C303.71 226.519 303.818 226.503 303.952 226.483C304.167 226.452 304.447 226.411 304.885 226.418C306.488 226.446 308.38 226.5 310.171 226.552C312.219 226.611 314.274 226.669 315.938 226.69C317.834 226.713 320.496 226.837 323.18 226.961C325.069 227.048 327.007 227.136 328.652 227.189C330.279 227.241 331.99 227.237 333.643 227.233C335.64 227.228 337.573 227.224 339.22 227.317C339.553 227.336 339.967 227.419 340.489 227.524C340.858 227.598 341.285 227.682 341.771 227.762C343.87 227.804 346.011 227.849 348.146 227.896C348.221 227.888 348.299 227.879 348.377 227.87C348.378 227.869 348.38 227.869 348.381 227.869C350.142 227.665 352.565 227.385 355.991 227.646C356.862 227.712 357.41 227.814 357.904 227.906C358.388 227.996 358.827 228.076 359.467 228.104C360.195 228.135 361.056 228.102 361.995 228.065C363.311 228.014 364.798 227.957 366.289 228.064C366.391 228.071 366.501 228.079 366.614 228.087C367.697 228.163 369.283 228.276 370.902 228.472C375.656 228.604 380.533 228.743 385.412 228.883C393.646 229.118 401.962 229.362 411.037 229.585C415.448 229.694 419.792 229.967 423.489 230.352C426.993 230.738 429.847 231.19 429.747 231.674C429.856 232.159 426.992 232.645 423.475 232.987C419.763 233.331 415.406 233.512 410.988 233.51C403.818 233.505 397.101 233.487 390.458 233.457C390.117 233.461 389.775 233.465 389.432 233.469C386.875 233.494 384.512 233.59 382.168 233.686C381.627 233.708 381.084 233.73 380.538 233.751ZM426.088 212.322C425.817 210.513 425.848 207.091 425.868 205.156C425.868 205.12 425.868 205.084 425.869 205.049C425.873 204.609 425.87 204.187 425.865 203.685C425.853 202.459 425.838 200.905 425.936 197.5C425.917 196.548 425.9 195.549 425.886 194.569C425.74 184.008 425.82 173.48 425.961 162.869C425.959 162.738 425.956 162.605 425.954 162.469C425.908 159.842 425.852 156.558 425.922 154.465C426.011 151.872 426.098 150.028 426.175 148.599C426.306 140.21 426.429 131.817 426.468 123.422C426.48 120.816 426.484 118.158 426.476 115.542C426.47 113.106 426.457 110.708 426.439 108.271C426.386 106.844 426.323 105.529 426.266 104.282C426.185 102.535 426.114 100.967 426.091 99.6924C426.033 96.6 426.119 93.0934 426.183 90.4753C426.194 90.0478 426.204 89.6393 426.213 89.269C426.182 87.2135 426.149 85.1353 426.117 83.0567C426.136 82.9193 426.157 82.7808 426.177 82.6399C426.437 80.889 426.436 78.6822 426.439 75.2846C426.439 73.8022 426.441 72.0578 426.465 70.0334C426.481 68.7294 426.585 68.0566 426.67 67.5073C426.695 67.3456 426.718 67.194 426.737 67.0404C426.802 66.514 426.735 65.958 426.656 65.3001C426.554 64.4428 426.432 63.433 426.55 62.0875C426.929 57.7937 426.692 55.9059 426.512 54.474C426.46 54.0539 426.412 53.6728 426.386 53.2824C426.303 52.0133 426.401 50.221 426.529 48.863C426.63 47.7892 426.547 45.6148 426.436 43.9886C426.394 43.3714 426.398 42.5364 426.403 41.551C426.408 40.5322 426.415 39.3454 426.372 38.085C426.264 34.9041 426.214 33.2025 426.174 31.8362C426.163 31.4488 426.153 31.0878 426.142 30.727C426.108 29.5869 426.084 28.1699 426.06 26.7324C426.031 25.009 426.003 23.2733 425.957 21.9458C426.049 18.5046 426.158 15.0754 426.27 11.6325C426.328 9.87064 426.568 8.17918 426.948 6.93422C427.327 5.68947 427.812 4.99243 428.306 4.99849C428.8 5.00373 429.269 5.71181 429.62 6.96418C429.971 8.21684 430.175 9.91208 430.196 11.6737C430.237 15.2356 430.281 18.785 430.311 22.3434C430.349 26.6661 430.367 31.0002 430.336 35.3359C430.314 38.3584 430.283 41.4006 430.243 44.4197C430.239 44.7309 430.235 45.04 430.231 45.3539C430.338 47.9112 430.435 50.4378 430.466 52.2308C430.491 53.714 430.421 54.7908 430.362 55.7121C430.321 56.346 430.285 56.9061 430.288 57.4724C430.289 57.7763 430.295 58.1917 430.302 58.6975C430.33 60.7633 430.38 64.2315 430.252 67.4247C430.195 68.8394 430.086 70.4594 429.983 72.0378C429.836 74.2861 429.7 76.3575 429.739 77.4132C429.807 79.2752 429.743 81.3972 429.688 83.2598C429.635 85.0601 429.59 86.6247 429.671 87.5119C429.769 88.5722 429.729 89.4711 429.669 90.8285C429.628 91.767 429.577 92.9167 429.557 94.4681C429.534 96.2506 429.466 97.5537 429.409 98.6308C429.327 100.154 429.266 101.286 429.382 103.008C429.511 104.918 429.595 106.868 429.558 108.451C429.541 109.166 429.547 109.982 429.554 110.826C429.562 111.944 429.571 113.114 429.529 114.202C429.493 115.094 429.4 115.827 429.317 116.475C429.291 116.677 429.266 116.87 429.244 117.058C429.247 117.762 429.251 118.457 429.256 119.174C429.272 119.289 429.29 119.41 429.308 119.536C429.398 120.17 429.509 120.948 429.567 121.904C429.657 123.413 429.609 124.749 429.557 126.161C429.517 127.26 429.476 128.379 429.498 129.687C429.513 130.587 429.557 131.604 429.6 132.605C429.665 134.086 429.729 135.565 429.698 136.594C429.687 136.979 429.628 137.308 429.57 137.634C429.57 137.636 429.57 137.637 429.569 137.638C429.565 137.661 429.561 137.683 429.557 137.705C429.616 140.169 429.681 142.696 429.75 145.173C429.767 145.391 429.784 145.611 429.8 145.829C429.88 146.894 429.958 147.916 430.064 148.579C430.178 149.282 430.255 151.15 430.336 153.052C430.389 154.286 430.444 155.625 430.513 156.68C430.553 157.299 430.496 157.884 430.437 158.481C430.381 159.042 430.325 159.643 430.345 160.279C430.355 160.598 430.384 160.942 430.415 161.307C430.441 161.628 430.47 161.967 430.489 162.319C430.506 162.643 430.478 163.386 430.444 164.345C430.422 164.936 430.398 165.602 430.38 166.293C430.435 168.108 430.489 169.986 430.542 171.827C430.6 172.218 430.674 172.554 430.767 172.819C430.834 173.009 430.914 173.17 430.995 173.335C431.105 173.559 431.219 173.791 431.312 174.108C431.384 174.357 431.415 174.648 431.388 174.844C431.375 174.935 431.351 175.005 431.328 175.069C431.303 175.14 431.28 175.211 431.282 175.293C431.283 175.353 431.302 175.415 431.325 175.49C431.363 175.611 431.411 175.769 431.415 176.007C431.43 176.897 431.426 177.884 431.422 178.842C431.418 179.957 431.414 181.017 431.438 181.845C431.464 182.767 431.411 184.171 431.358 185.488C431.322 186.442 431.285 187.399 431.276 188.196C431.266 188.964 431.316 189.832 431.363 190.622C431.421 191.569 431.477 192.506 431.427 193.293C431.416 193.452 431.344 193.65 431.253 193.896C431.189 194.071 431.116 194.271 431.049 194.497C431.063 195.5 431.074 196.519 431.083 197.493C431.094 197.529 431.105 197.566 431.116 197.603C431.116 197.603 431.116 197.604 431.116 197.604C431.368 198.452 431.71 199.517 431.541 201.135C431.497 201.538 431.41 201.79 431.331 202.016C431.254 202.24 431.184 202.425 431.174 202.726C431.162 203.066 431.219 203.463 431.28 203.888C431.365 204.484 431.461 205.143 431.394 205.829C431.39 205.875 431.385 205.925 431.38 205.977C431.332 206.47 431.262 207.167 431.108 207.907C431.102 210.019 431.092 212.156 431.083 214.301C431.067 217.834 431.048 221.407 431.077 224.937C431.091 226.661 430.943 228.294 430.672 229.525C430.392 230.728 430.047 231.439 429.576 231.536C429.102 231.666 428.494 230.928 428.044 229.724C427.584 228.485 427.276 226.835 427.154 225.092C426.957 222.252 426.794 219.416 426.647 216.601C426.633 216.457 426.62 216.31 426.607 216.164C426.513 215.057 426.354 214.039 426.196 213.02C426.159 212.79 426.123 212.558 426.088 212.322ZM431.13 217.79C431.198 216.787 431.9 214.838 432.246 213.893C432.252 213.875 432.259 213.857 432.265 213.839C432.35 213.605 432.423 213.379 432.509 213.113C432.714 212.474 432.989 211.618 433.662 209.928C433.812 209.419 433.969 208.894 434.124 208.388C435.777 202.974 437.515 197.887 439.25 192.903C439.268 192.839 439.286 192.774 439.305 192.709C439.659 191.443 440.098 189.869 440.466 188.932C440.936 187.734 441.283 186.918 441.566 186.266C442.903 182.423 444.194 178.634 445.355 174.908C445.721 173.736 446.071 172.578 446.408 171.418C446.72 170.345 447.02 169.283 447.309 168.234C447.438 167.606 447.549 167.002 447.65 166.45C447.792 165.674 447.914 164.998 448.05 164.442C448.384 163.079 448.875 161.667 449.254 160.566C449.315 160.389 449.372 160.222 449.425 160.069C449.641 159.188 449.839 158.359 450.05 157.476C450.085 157.424 450.12 157.372 450.156 157.319C450.611 156.648 450.841 155.816 451.225 154.408C451.389 153.803 451.571 153.134 451.803 152.35C451.958 151.827 452.127 151.594 452.265 151.402C452.305 151.346 452.343 151.293 452.377 151.239C452.493 151.053 452.484 150.824 452.471 150.557C452.454 150.215 452.436 149.795 452.683 149.307C453.458 147.795 453.387 147.067 453.334 146.518C453.318 146.359 453.303 146.217 453.309 146.079C453.325 145.652 453.574 145.009 453.792 144.614C453.965 144.304 454.038 143.567 454.01 143.116C454 142.946 454.046 142.725 454.094 142.474C454.143 142.216 454.182 141.992 454.165 141.746C454.1 141.641 453.992 140.01 453.95 139.507C453.936 139.321 453.923 139.148 453.909 138.974C453.866 138.427 453.831 137.747 453.795 137.059C453.752 136.236 453.709 135.4 453.651 134.764C453.712 133.116 453.788 131.468 453.864 129.82C453.903 128.973 454.125 128.161 454.49 127.562C454.856 126.964 455.332 126.628 455.826 126.628C456.32 126.628 456.797 126.964 457.163 127.562C457.528 128.161 457.75 128.973 457.789 129.82C457.868 131.525 457.946 133.231 458.009 134.936C458.085 137.014 458.137 139.091 458.137 141.169C458.169 142.253 457.941 142.995 457.72 143.985C457.697 144.084 457.672 144.186 457.646 144.29C457.566 145.21 457.483 146.014 457.352 146.707C457.261 147.209 457.1 147.58 456.96 147.904C456.864 148.127 456.777 148.329 456.726 148.548C456.697 148.669 456.668 148.814 456.629 148.998C456.475 149.739 456.177 151.109 455.732 152.299C455.533 152.834 455.251 153.477 454.991 154.053C454.615 154.889 454.25 155.714 454.169 156.158C454.035 156.907 453.737 157.754 453.466 158.523C453.204 159.267 452.986 159.877 452.96 160.272C452.93 160.74 452.785 161.109 452.565 161.664C452.412 162.053 452.228 162.518 452.022 163.167C451.784 163.919 451.561 164.447 451.371 164.897C451.103 165.537 450.906 165.999 450.804 166.766C450.691 167.616 450.517 168.511 450.282 169.18C450.176 169.482 450.078 169.837 449.975 170.208C449.839 170.7 449.695 171.22 449.513 171.683C449.363 172.064 449.176 172.366 449.011 172.628C448.96 172.709 448.911 172.788 448.865 172.865C448.776 173.177 448.686 173.49 448.598 173.804C448.598 173.859 448.599 173.917 448.599 173.978C448.603 174.283 448.606 174.658 448.533 175.102C448.417 175.804 448.19 176.388 447.951 177.002C447.764 177.481 447.57 177.981 447.412 178.575C447.305 178.981 447.207 179.451 447.11 179.918C446.966 180.613 446.822 181.301 446.65 181.759C446.585 181.93 446.483 182.064 446.381 182.197C446.381 182.197 446.38 182.198 446.379 182.198C446.373 182.207 446.366 182.216 446.359 182.225C446.066 183.378 445.774 184.544 445.482 185.715C445.467 185.819 445.452 185.925 445.437 186.029C445.362 186.54 445.289 187.037 445.293 187.376C445.3 187.741 445.104 188.621 444.9 189.543C444.766 190.147 444.627 190.772 444.537 191.288C444.484 191.588 444.34 191.852 444.193 192.124C444.055 192.377 443.913 192.637 443.837 192.944C443.799 193.098 443.774 193.269 443.748 193.451C443.726 193.612 443.701 193.782 443.666 193.956C443.632 194.119 443.494 194.461 443.318 194.898C443.21 195.168 443.086 195.477 442.96 195.811C442.727 196.719 442.494 197.623 442.26 198.521C442.256 198.722 442.275 198.903 442.324 199.056C442.359 199.166 442.41 199.265 442.461 199.371C442.531 199.514 442.603 199.663 442.64 199.848C442.669 199.993 442.652 200.147 442.594 200.238C442.568 200.28 442.533 200.307 442.501 200.333C442.465 200.362 442.432 200.388 442.421 200.428C442.413 200.457 442.422 200.492 442.432 200.535C442.449 200.604 442.47 200.694 442.437 200.811C442.312 201.244 442.15 201.729 441.992 202.202C441.817 202.726 441.644 203.242 441.527 203.676C441.397 204.159 441.125 204.817 440.855 205.469C440.666 205.927 440.483 206.363 440.336 206.778C440.193 207.183 440.1 207.62 440.011 208.04C439.904 208.544 439.803 209.026 439.624 209.404C439.588 209.48 439.486 209.557 439.358 209.654C439.268 209.723 439.164 209.802 439.062 209.896C438.903 210.415 438.736 210.951 438.571 211.47C438.575 211.491 438.58 211.513 438.584 211.535C438.584 211.536 438.584 211.536 438.584 211.536C438.681 212.035 438.816 212.712 438.382 213.462C438.267 213.667 438.137 213.778 438.02 213.878C437.905 213.975 437.803 214.063 437.74 214.216C437.668 214.391 437.651 214.616 437.632 214.861C437.606 215.204 437.577 215.585 437.393 215.915C437.38 215.938 437.366 215.962 437.352 215.987C437.22 216.226 437.025 216.578 436.738 216.94C436.32 218.14 435.936 219.204 435.484 220.465C434.778 222.409 433.986 224.576 433.166 226.794C432.725 228.002 432.136 229.088 431.45 230.01C430.821 230.76 430.011 231.688 429.582 231.444C429.095 231.373 429.013 230.156 428.946 229.188C428.936 228.049 429.088 226.834 429.426 225.601C429.901 223.827 430.38 222.018 430.81 220.375C430.826 220.29 430.842 220.205 430.859 220.119C430.986 219.485 431.039 218.858 431.095 218.218C431.108 218.071 431.121 217.921 431.13 217.79ZM436.477 13.0225C437.21 13.7972 438.123 15.5066 438.645 16.4774C438.654 16.4951 438.664 16.5128 438.674 16.5305C438.795 16.7569 438.915 16.963 439.059 17.2087C439.401 17.7956 439.864 18.5882 440.726 20.308C441.017 20.7797 441.311 21.2621 441.597 21.7381C444.705 26.8951 447.661 32.1539 450.577 37.4315C450.617 37.4966 450.659 37.5627 450.7 37.6294C451.501 38.91 452.497 40.504 453.031 41.5558C453.71 42.8925 454.152 43.8225 454.507 44.5813C455.589 47.0211 457.13 47.3642 457.754 51.8982C457.681 54.2908 457.622 56.6834 457.588 59.076C457.566 60.5757 457.555 62.0757 457.555 63.5754C457.555 64.9565 457.562 66.3379 457.576 67.7189C457.626 68.5232 457.686 69.2879 457.742 69.997C457.82 70.9934 457.89 71.8805 457.912 72.6133C457.967 74.3787 457.881 76.3813 457.817 77.8685C457.806 78.1115 457.796 78.341 457.788 78.5532C457.82 79.7343 457.854 80.9157 457.888 82.0968C457.869 82.1756 457.849 82.2551 457.828 82.3359C457.571 83.3439 457.574 84.5831 457.579 86.5336C457.581 87.383 457.583 88.3675 457.564 89.5265C457.552 90.2733 457.45 90.657 457.367 90.9704C457.343 91.0626 457.32 91.1491 457.301 91.2366C457.238 91.5367 457.306 91.853 457.387 92.2266C457.492 92.7113 457.618 93.2928 457.504 94.0609C457.141 96.5087 457.388 97.5872 457.574 98.4031C457.629 98.6424 457.678 98.8594 457.705 99.0815C457.794 99.8016 457.706 100.828 457.585 101.603C457.489 102.218 457.585 103.448 457.705 104.381C457.751 104.734 457.752 105.211 457.753 105.773C457.755 106.354 457.756 107.027 457.807 107.747C457.937 109.565 457.999 110.532 458.05 111.309C458.064 111.53 458.077 111.737 458.091 111.943C458.134 112.594 458.169 113.403 458.205 114.221C458.248 115.2 458.291 116.194 458.349 116.951C458.288 118.911 458.212 120.871 458.136 122.831C458.097 123.838 457.875 124.804 457.51 125.516C457.144 126.228 456.668 126.628 456.174 126.628C455.68 126.628 455.203 126.228 454.837 125.516C454.472 124.804 454.25 123.838 454.211 122.831C454.132 120.803 454.054 118.774 453.991 116.746C453.915 114.275 453.863 111.804 453.863 109.333C453.863 107.604 453.875 105.876 453.896 104.147C453.898 103.969 453.9 103.791 453.903 103.613C453.781 102.161 453.67 100.712 453.631 99.6908C453.598 98.8477 453.663 98.233 453.719 97.7065C453.757 97.3443 453.791 97.0237 453.785 96.6994C453.783 96.5252 453.775 96.2873 453.766 96.0003C453.729 94.8288 453.667 92.8389 453.785 91.0237C453.838 90.2182 453.942 89.2825 454.041 88.3892C454.183 87.1118 454.315 85.9207 454.274 85.3194C454.203 84.2634 454.263 83.0524 454.317 81.9824C454.368 80.9617 454.412 80.0691 454.33 79.5614C454.232 78.9547 454.272 78.4374 454.331 77.6683C454.372 77.1349 454.423 76.4802 454.443 75.5904C454.466 74.5631 454.535 73.8364 454.594 73.2187C454.676 72.3493 454.738 71.6951 454.624 70.7202C454.497 69.6372 454.417 68.5054 454.457 67.6139C454.475 67.2079 454.471 66.7435 454.466 66.2602C454.46 65.6204 454.453 64.9475 454.499 64.3331C454.536 63.8268 454.632 63.4084 454.717 63.0381C454.744 62.9226 454.769 62.8117 454.791 62.7043C454.79 62.3011 454.788 61.8978 454.785 61.4946C454.77 61.4293 454.753 61.3606 454.735 61.289C454.647 60.9295 454.538 60.4874 454.484 59.9402C454.398 59.074 454.452 58.314 454.509 57.5122C454.553 56.888 454.599 56.2385 454.583 55.494C454.571 54.9863 454.532 54.4081 454.493 53.8351C454.436 52.984 454.379 52.1435 454.415 51.5595C454.49 51.5891 454.225 50.0968 454.735 51.7117C454.735 51.7108 454.734 51.7099 454.734 51.7091C454.732 51.6966 454.729 51.6841 454.726 51.6716C453.972 50.4888 453.201 49.2951 452.417 48.0903C452.342 47.9949 452.266 47.8976 452.19 47.8004C451.82 47.3255 451.45 46.8472 451.171 46.58C450.865 46.2837 450.276 45.4269 449.649 44.5157C449.236 43.9147 448.824 43.3189 448.452 42.8196C448.24 42.5367 448.122 42.2204 447.998 41.8905C447.883 41.5842 447.759 41.2603 447.561 40.9617C447.462 40.8118 447.339 40.6584 447.208 40.494C447.092 40.3493 446.97 40.1957 446.851 40.0285C446.74 39.8732 446.549 39.4912 446.308 39.0097C446.159 38.7109 445.988 38.37 445.802 38.0137C445.225 37.1332 444.646 36.2469 444.074 35.3658C443.914 35.2059 443.754 35.0789 443.598 34.9962C443.487 34.9369 443.372 34.8979 443.255 34.8575C443.095 34.8026 442.931 34.7461 442.76 34.6354C442.626 34.5487 442.515 34.4182 442.481 34.306C442.465 34.2537 442.466 34.2057 442.466 34.1623C442.467 34.1124 442.467 34.068 442.443 34.0289C442.425 34.0007 442.391 33.9807 442.35 33.956C442.284 33.9164 442.199 33.8648 442.127 33.7504C441.863 33.3243 441.581 32.8296 441.306 32.345C440.999 31.806 440.699 31.2785 440.438 30.8724C440.145 30.4171 439.806 29.7227 439.465 29.0247C439.228 28.5379 438.992 28.054 438.769 27.6463C438.55 27.2466 438.273 26.8617 438.005 26.4905C437.686 26.0469 437.372 25.6115 437.193 25.1968C437.157 25.1127 437.163 24.9776 437.171 24.8084C437.176 24.6885 437.182 24.5509 437.175 24.4029C436.881 23.9151 436.585 23.4179 436.297 22.9288C436.278 22.9169 436.259 22.9046 436.239 22.8923C436.239 22.8922 436.238 22.892 436.238 22.8919C435.795 22.6196 435.176 22.2241 434.883 21.3576C434.808 21.1377 434.812 20.966 434.815 20.8108C434.817 20.6585 434.82 20.5226 434.747 20.3708C434.663 20.1985 434.505 20.0318 434.334 19.8512C434.094 19.5984 433.824 19.3142 433.692 18.9401C433.683 18.9146 433.673 18.8872 433.663 18.8588C433.567 18.5896 433.427 18.1933 433.362 17.7605C432.768 16.6812 432.187 15.6081 431.618 14.5414C430.658 12.7439 429.71 10.9335 428.778 9.12054C428.327 8.2435 428.043 7.29539 428.012 6.50473C427.987 5.72132 428.203 5.14292 428.632 4.9162C429.052 4.67422 429.651 4.79144 430.304 5.20236C430.961 5.62154 431.631 6.32748 432.168 7.14212C433.048 8.47968 433.936 9.81216 434.832 11.1646C434.882 11.2304 434.933 11.297 434.984 11.3639C435.358 11.8612 435.782 12.3049 436.191 12.7254C436.286 12.8235 436.382 12.9223 436.477 13.0225Z" fill="#6E2616"/>
</svg>
