<svg width="646" height="594" viewBox="0 0 646 594" fill="none" xmlns="http://www.w3.org/2000/svg">
<path fill-rule="evenodd" clip-rule="evenodd" d="M7.50013 18.0001C-4.04473 30.4664 3.60095 485.104 4.83891 554.622C4.93154 559.824 8.9899 563.751 14.1836 564.059C20.3256 564.422 29.4074 564.943 41 565.562C137.586 570.728 408.465 582.777 605.5 567.873C613.922 567.236 622.21 566.55 630.343 565.811C635.309 565.361 639.163 561.238 639.371 556.256C647.875 352.947 644.74 223.59 639.242 23.7925C639.104 18.7881 635.369 14.6084 630.388 14.1021C387.122 -10.6284 19.8551 4.65899 7.50013 18.0001ZM49.6987 459.552C50.1539 464.404 54.1211 468.266 58.9815 468.617C263.08 483.335 381.692 483.181 587.373 468.616C592.299 468.267 596.3 464.319 596.685 459.396C608.309 311.064 607.086 223.043 596.589 71.4114C596.254 66.5742 592.427 62.6211 587.604 62.1187C388.212 41.3457 269.728 40.6869 58.8452 62.1449C54.0501 62.6329 50.217 66.5339 49.8351 71.3386C37.9589 220.783 35.5257 308.495 49.6987 459.552Z" fill="#232323"/>
<path d="M35 586C257.423 594.487 383.143 595.171 610 586C606.833 580.674 606.178 576.556 605.5 567.873C408.465 582.777 137.586 570.728 41 565.562C40.2694 573.809 38.7388 578.249 35 586Z" fill="#232323"/>
<path d="M41 565.562C29.4074 564.943 20.3256 564.422 14.1836 564.059C8.9899 563.751 4.93154 559.824 4.83891 554.622C3.60095 485.104 -4.04473 30.4664 7.50013 18.0001C19.8551 4.65899 387.122 -10.6284 630.388 14.1021C635.369 14.6084 639.104 18.7881 639.242 23.7925C644.74 223.59 647.875 352.947 639.371 556.256C639.163 561.238 635.309 565.361 630.343 565.811C622.21 566.55 613.922 567.236 605.5 567.873M41 565.562C40.2694 573.809 38.7388 578.249 35 586C257.423 594.487 383.143 595.171 610 586C606.833 580.674 606.178 576.556 605.5 567.873M41 565.562C137.586 570.728 408.465 582.777 605.5 567.873M587.604 62.1187C388.212 41.3457 269.728 40.6869 58.8452 62.1449C54.0501 62.6329 50.217 66.5339 49.8351 71.3386C37.9589 220.783 35.5257 308.495 49.6987 459.552C50.1539 464.404 54.1211 468.266 58.9815 468.617C263.08 483.335 381.692 483.181 587.373 468.616C592.299 468.267 596.3 464.319 596.685 459.396C608.309 311.064 607.085 223.043 596.589 71.4114C596.254 66.5742 592.427 62.6211 587.604 62.1187Z" stroke="#080808"/>
<path d="M453.5 547.5C453.421 536.932 456.07 533.476 466.5 532.5C474.632 533.102 478.247 534.968 479 547.5C477.412 555.213 475.436 558.474 466.5 559C457.196 557.953 454.953 554.946 453.5 547.5Z" fill="#3D3C3C" stroke="#080808"/>
<circle cx="386" cy="546" r="4.5" fill="#3D3C3C" stroke="#080808"/>
<circle cx="364" cy="546" r="4.5" fill="#3D3C3C" stroke="#080808"/>
<circle cx="342" cy="546" r="4.5" fill="#3D3C3C" stroke="#080808"/>
<circle cx="318" cy="546" r="4.5" fill="#3D3C3C" stroke="#080808"/>
<circle cx="296" cy="546" r="4.5" fill="#3D3C3C" stroke="#080808"/>
<path d="M72.5 519C269.236 527.652 380.134 526.4 578.5 519" stroke="#080808"/>
</svg>
