<svg width="3181" height="3606" viewBox="0 0 3181 3606" fill="none" xmlns="http://www.w3.org/2000/svg">
<rect x="5.57031" y="2.5" width="3171" height="3603" fill="#80270F" stroke="#5C190B"/>
<path d="M5.57021 2275.5C38.0586 2267.32 85.1971 2274.81 128.897 2293.88C173.678 2313.42 216.133 2337.49 259.833 2357.99C301.667 2377.62 347.069 2394.78 390.769 2408.49C433.749 2421.97 542.819 2424.89 619.907 2408.61C666.588 2398.75 707.143 2378.58 756.244 2362.21C821.266 2340.53 862.63 2389.38 899.537 2415.24C941.381 2444.56 985.382 2482.02 1029.08 2503.95C1039.19 2509.02 1050.85 2506.73 1060.47 2502.68C1101.99 2485.19 1130.07 2444.21 1168.2 2415.44C1209.42 2384.35 1247.25 2356.81 1290.95 2334.96C1334.65 2313.11 1491.61 2302.14 1594.97 2329.31C1736.35 2366.47 1773.78 2294.12 1814.7 2269.49C1855.64 2244.84 1896.45 2228.49 1933.28 2233.89C1974.97 2240.01 1967.57 2315.56 1986.63 2359.26C2006.17 2404.04 2030.25 2451.9 2049.4 2506.48C2064.68 2550.04 2057.59 2591.18 2071.17 2608.9C2077.69 2617.4 2090.16 2618.52 2101.12 2615.86C2148.94 2604.26 2180.17 2566.8 2222.52 2553.17C2264.71 2539.6 2302.93 2517.7 2346.63 2516.26C2368.76 2515.54 2401.13 2523.1 2439.26 2519.05C2495.91 2513.03 2542.87 2457.79 2602.97 2422.32C2672.82 2381.1 2725.69 2356.81 2780.31 2343.1C2831.78 2330.19 2875.77 2315.89 2919.47 2299.44C2963.12 2283.01 3022.91 2326.69 3081.55 2321.29C3132.7 2316.58 3147.43 2235.7 3176.07 2192V257H3L5.57021 2275.5Z" fill="#6E200E" stroke="#6E200E" stroke-width="6" stroke-linecap="round"/>
<path d="M700.396 2913C653.376 2913 638.432 2918.35 616.745 2930.5C612.996 2932.6 619.317 2939.9 625.392 2942.65C651.866 2954.65 693.98 2949.55 727.1 2945.53L727.976 2945.42C750.77 2942.66 771.836 2934.63 796.824 2932.59C808.421 2931.64 819.139 2927.87 825.903 2923.17C827.32 2919.81 824.647 2914.46 805.228 2911.71C785.808 2908.95 749.724 2908.95 700.396 2913Z" fill="#6E200E"/>
<path d="M727.976 2945.42C750.77 2942.66 771.836 2934.63 796.824 2932.59C808.421 2931.64 819.139 2927.87 825.903 2923.17C827.32 2919.81 824.647 2914.46 805.228 2911.71C785.808 2908.95 749.724 2908.95 700.396 2913C653.376 2913 638.432 2918.35 616.745 2930.5C612.996 2932.6 619.317 2939.9 625.392 2942.65C651.866 2954.65 693.98 2949.55 727.1 2945.53M727.976 2945.42L727.1 2945.53M727.976 2945.42C727.684 2945.46 727.392 2945.49 727.1 2945.53" stroke="#6E200E" stroke-width="6" stroke-linecap="round"/>
<path d="M497.9 2787.46C495.241 2787.18 485.831 2787.46 473.013 2790.8C467.355 2792.27 466.878 2800.82 469.53 2807.61C475.498 2822.87 491.096 2829.29 503.874 2832.65C520.732 2837.09 546.337 2840.11 571.305 2837.43C580.573 2836.44 581.571 2829.41 580.923 2823.99C580.275 2818.56 577.602 2813.21 573.552 2809.12C553.303 2799.61 540.07 2795 524.07 2791.5C516.556 2789.86 522.57 2790 497.9 2787.46Z" fill="#6E200E" stroke="#6E200E" stroke-width="6" stroke-linecap="round"/>
<path d="M1432.42 3062.85C1387.71 3062.85 1344.78 3084.4 1329.19 3103.27C1325.49 3107.75 1327.12 3114.04 1335.14 3116.8C1378.57 3131.71 1402.61 3108.78 1424.24 3100.01C1435.01 3096.63 1445.86 3091.24 1455.3 3082.49C1461.07 3077.14 1448.07 3062.85 1432.42 3062.85Z" fill="#6E200E" stroke="#6E200E" stroke-width="6" stroke-linecap="round"/>
<path d="M2317.07 2805C2314.57 2805 2289.1 2803.66 2245.54 2807.69C2218.72 2810.17 2203.64 2826.58 2194.21 2833.3C2189.52 2836.64 2187.44 2842.7 2188.07 2847.46C2188.7 2852.22 2192.71 2856.22 2199.45 2859.63C2244.6 2882.4 2311.45 2865.78 2334.45 2857.01C2345.01 2852.99 2356.08 2849.58 2365.52 2842.86C2370.21 2839.52 2372.28 2833.46 2372.32 2828.04C2372.36 2822.61 2368.85 2819.38 2359.62 2814.51C2351.07 2810 2334.97 2805 2317.07 2805Z" fill="#6E200E" stroke="#6E200E" stroke-width="6" stroke-linecap="round"/>
<path d="M6.07031 733.5C74.6034 739.707 113.454 750.471 152.141 758.842C185.938 766.154 219.016 769.188 252.975 772.302L254.564 772.448C346.841 780.913 485.526 790.098 511.673 815.21C542.184 844.514 573.309 875.749 592.182 909.232C610.704 942.091 646.419 961.525 680.905 981.401C692.961 988.35 715.14 984.599 728.903 980.461C767.947 968.721 769.816 917.885 784.488 880.264C795.087 853.086 794.896 825.838 811.575 811.229C839.756 786.544 878.415 786.085 911.898 776.68C947.491 766.682 970.461 750.534 986.105 744.295C1001.78 738.044 1005.97 691.451 1011.06 634.939L1011.25 632.811C1013.12 612.023 1026.77 610.521 1044.51 609.455C1087.02 606.901 1118.88 614.596 1131.39 627.105C1154.8 650.517 1154.43 687.644 1170.07 720.092C1177.78 736.085 1196.19 744.201 1213.9 750.471C1223.02 753.699 1233.68 752.603 1242.12 749.499C1273.54 737.934 1283.84 685.888 1324.66 671.122C1365.37 656.397 1417.65 668.959 1451.13 684.603C1513.59 713.784 1622.43 698.303 1663.25 684.728C1698.7 672.941 1741.57 673.222 1798 670.056C1846.3 667.346 1912.87 656.544 1957.95 651.245C1995.03 646.887 2032.13 635.601 2066.64 628.265C2104.64 620.19 2138.72 616.791 2168.06 605.316C2196.09 594.356 2203.55 552.083 2234.9 533.209C2250.88 523.592 2262.18 512.33 2268.42 503.928C2287.06 478.823 2299.74 570.517 2307.11 607.229C2313.67 639.951 2329.08 668.833 2333.22 692.879C2334.67 701.315 2345.64 698.303 2351.97 693.099C2365.16 682.261 2366.7 652.468 2370.84 622.183C2373.56 602.274 2400.06 600.05 2413.64 592.776C2442.21 577.465 2441.82 533.272 2466.93 507.126C2494.1 478.836 2527.47 462.168 2560.95 451.666C2595.8 440.735 2675.45 439.094 2732.32 433.89C2804.94 427.244 2889.13 434.893 2902.71 442.167C2916.25 449.422 2918.42 472.451 2934.03 487.061C2951.7 503.598 2976.92 501.796 2992.56 498.692C3025.3 492.197 3047.96 476.715 3067.77 478.784C3086.47 480.737 3094.04 526.5 3114.83 563.369C3119.69 571.984 3133.55 572.774 3139.91 579.044C3165.36 604.12 3165.6 639.677 3177.07 644.944V3.5H6.07031V733.5Z" fill="#5C190B"/>
<path d="M254.564 772.448C346.841 780.913 485.526 790.098 511.673 815.21C542.184 844.514 573.309 875.749 592.182 909.232C610.704 942.091 646.419 961.525 680.905 981.401C692.961 988.35 715.14 984.599 728.903 980.461C767.947 968.721 769.816 917.885 784.488 880.264C795.087 853.086 794.896 825.838 811.575 811.229C839.756 786.544 878.415 786.085 911.898 776.68C947.491 766.682 970.461 750.534 986.105 744.295C1001.78 738.044 1005.97 691.451 1011.06 634.939M254.564 772.448L252.975 772.302M254.564 772.448C254.034 772.399 253.505 772.351 252.975 772.302M1011.25 632.811C1013.12 612.023 1026.77 610.521 1044.51 609.455C1087.02 606.901 1118.88 614.596 1131.39 627.105C1154.8 650.517 1154.43 687.644 1170.07 720.092C1177.78 736.085 1196.19 744.201 1213.9 750.471C1223.02 753.699 1233.68 752.603 1242.12 749.499C1273.54 737.934 1283.84 685.888 1324.66 671.122C1365.37 656.397 1417.65 668.959 1451.13 684.603C1513.59 713.784 1622.43 698.303 1663.25 684.728C1698.7 672.941 1741.57 673.222 1798 670.056C1846.3 667.346 1912.87 656.544 1957.95 651.245C1995.03 646.887 2032.13 635.601 2066.64 628.265C2104.64 620.19 2138.72 616.791 2168.06 605.316C2196.09 594.356 2203.55 552.083 2234.9 533.209C2250.88 523.592 2262.18 512.33 2268.42 503.928C2287.06 478.823 2299.74 570.517 2307.11 607.229C2313.67 639.951 2329.08 668.833 2333.22 692.879C2334.67 701.315 2345.64 698.303 2351.97 693.099C2365.16 682.261 2366.7 652.468 2370.84 622.183C2373.56 602.274 2400.06 600.05 2413.64 592.776C2442.21 577.465 2441.82 533.272 2466.93 507.126C2494.1 478.836 2527.47 462.168 2560.95 451.666C2595.8 440.735 2675.45 439.094 2732.32 433.89C2804.94 427.244 2889.13 434.893 2902.71 442.167C2916.25 449.422 2918.42 472.451 2934.03 487.061C2951.7 503.598 2976.92 501.796 2992.56 498.692C3025.3 492.197 3047.96 476.715 3067.77 478.784C3086.47 480.737 3094.04 526.5 3114.83 563.369C3119.69 571.984 3133.55 572.774 3139.91 579.044C3165.36 604.12 3165.6 639.677 3177.07 644.944V3.5H6.07031V733.5C74.6034 739.707 113.454 750.471 152.141 758.842C185.938 766.154 219.016 769.188 252.975 772.302M1011.25 632.811L1011.06 634.939M1011.25 632.811C1011.18 633.522 1011.12 634.231 1011.06 634.939" stroke="#5C190B" stroke-width="6" stroke-linecap="round"/>
<path d="M881.605 987.934C874.604 985.236 865.952 985.236 859.765 988.728C834.766 1002.84 841.307 1142.8 836.955 1223.22C835.422 1251.55 824.776 1276.74 833.415 1290.23C844.742 1307.91 842.345 1304.53 844.742 1301.79C862.23 1281.75 862.282 1244.7 870.986 1211.97C879.429 1180.23 878.013 1137.19 893.665 1107C911.205 1084.07 914.718 1047.19 910.392 1012.8C906.066 1001.11 890.519 987.934 881.605 987.934Z" fill="#5C190B" stroke="#5C190B" stroke-width="6" stroke-linecap="round"/>
<path d="M1564.12 827.844C1560.27 816.743 1518.35 811.166 1465.02 813.172C1454.61 813.564 1453.39 825.587 1452.32 833.989C1451.26 842.391 1451.26 850.668 1455.4 857.001C1474.42 886.119 1517.97 892.552 1546.25 915.533C1576.69 940.269 1585 967.794 1592.27 982.404C1595.93 989.742 1605.76 992.875 1607.95 990.869C1629.35 971.303 1576.79 934.563 1564.15 903.212C1559.98 886.533 1561.99 869.729 1564.12 855.12C1562.11 848.787 1570.07 845 1564.12 827.844Z" fill="#5C190B" stroke="#5C190B" stroke-width="6" stroke-linecap="round"/>
<path d="M2617.51 727.522H2611.24" stroke="#5C190B" stroke-width="6" stroke-linecap="round"/>
<path d="M2626.32 564.592C2697.79 605.824 2818.59 572.775 2824.86 594.626C2842.04 654.485 2787.37 693.915 2784.14 748.214C2782.88 769.348 2789.37 788.03 2786.27 799.567C2778.24 829.43 2735.2 756.867 2707.96 733.887C2694.43 722.481 2689.05 700.498 2684.91 677.518C2682.02 661.474 2655.69 660.683 2645.22 650.274C2640.51 645.591 2647.17 635.727 2645.16 630.429C2634.73 602.884 2584.71 606.383 2553.3 592.777C2545.78 589.519 2542.83 579.296 2544.84 573.998C2546.84 568.699 2555.12 566.63 2563.52 567.633C2580.85 569.703 2597 579.108 2612.65 579.139C2620.02 577.101 2626.22 570.894 2626.32 564.592Z" fill="#5C190B" stroke="#5C190B" stroke-width="6" stroke-linecap="round"/>
<path d="M2431.57 1055.5C2427.43 1055.5 2423.26 1053.57 2404.45 1060.81C2395.43 1064.28 2398.05 1082.54 2402.19 1092.07C2416.3 1124.55 2464.77 1120.41 2498.25 1133.99C2506.57 1137.36 2514.93 1139.22 2519.19 1134.08C2523.46 1128.94 2523.46 1116.52 2519.32 1107.02C2492.17 1078.71 2471.29 1064.04 2454.61 1059.87C2446.21 1057.77 2446.37 1057.63 2431.57 1055.5Z" fill="#5C190B" stroke="#5C190B" stroke-width="6" stroke-linecap="round"/>
<path d="M1350.94 1110C1337.8 1105.51 1227.79 1168.32 1212.99 1201.86C1210.31 1207.94 1223.27 1212.33 1231.68 1213.43C1264.17 1217.67 1292.25 1179.1 1320.52 1155.02C1336.14 1145.62 1352.94 1137.22 1365.48 1126.81C1369.75 1120.54 1364.07 1114.5 1350.94 1110Z" fill="#5C190B" stroke="#5C190B" stroke-width="6" stroke-linecap="round"/>
<path d="M466.841 1022.22C447.353 1019.28 408.466 1013.88 386.52 1017.99C376.999 1019.77 379.059 1038.65 387.335 1046.11C425.951 1080.92 466.716 1084.8 494.963 1092.26C502.33 1080.91 504.462 1059.97 500.324 1039.09C496.185 1030.62 488.57 1025.5 466.841 1022.22Z" fill="#5C190B" stroke="#5C190B" stroke-width="6" stroke-linecap="round"/>
<path d="M1401.22 1762.13C1372.25 1749.72 1348.93 1735.08 1339.49 1710.03C1335.75 1700.08 1344.54 1693.25 1352.91 1695.23C1397.7 1705.8 1417.65 1741.16 1461.48 1748.49C1508.55 1756.37 1545.25 1755.77 1549.48 1767.24C1566.69 1813.9 1434.7 1772.64 1401.22 1762.13Z" fill="#5C190B" stroke="#5C190B" stroke-width="6" stroke-linecap="round"/>
<path d="M1858.82 1931.4C1873.37 1927.26 1935.82 1891.89 1978.86 1876.03C1987.77 1872.75 1998.64 1874.96 2005.01 1879.1C2011.37 1883.24 2013.44 1891.52 2014.51 1899.92C2015.57 1908.32 2015.57 1916.6 2011.44 1921.9C2007.3 1927.19 1999.02 1929.26 1973.03 1930.33C1947.04 1931.4 1903.59 1931.4 1858.82 1931.4Z" fill="#5C190B" stroke="#5C190B" stroke-width="6" stroke-linecap="round"/>
<path d="M2759.78 1475.8C2768.12 1484.08 2807.5 1531.86 2835.84 1568.67C2841.35 1575.82 2845.24 1584.28 2851.51 1586.47C2857.78 1588.67 2866.06 1584.53 2873.43 1579.29C2880.79 1574.06 2887 1567.85 2887.1 1561.55C2887.56 1530.52 2841.23 1513.55 2812.01 1497.75C2795.33 1490.48 2778.53 1482.07 2759.78 1475.8Z" fill="#5C190B" stroke="#5C190B" stroke-width="6" stroke-linecap="round"/>
<path d="M2573.19 3084.31C2573.19 3068.09 2591.15 3013.9 2622.05 2981.91C2664.32 2938.15 2831.74 2948.29 2894.09 2954.6C2909.8 2956.19 2921.35 2969.99 2930.41 2981.75C2939.33 2993.32 2937.73 3011.67 2933.24 3027.07C2922.45 3064.08 2863.51 3060.69 2820.91 3076.99C2789.99 3088.82 2756.55 3093.34 2701.41 3099.7C2615.44 3109.63 2587.19 3092.7 2573.5 3084.49L2573.19 3084.31Z" fill="#8A2C12"/>
<path d="M2573.19 3084.31C2573.19 3068.09 2591.15 3013.9 2622.05 2981.91C2664.32 2938.15 2831.74 2948.29 2894.09 2954.6C2909.8 2956.19 2921.35 2969.99 2930.41 2981.75C2939.33 2993.32 2937.73 3011.67 2933.24 3027.07C2922.45 3064.08 2863.51 3060.69 2820.91 3076.99C2789.99 3088.82 2756.55 3093.34 2701.41 3099.7C2615.44 3109.63 2587.19 3092.7 2573.5 3084.49M2573.19 3084.31L2573.5 3084.49M2573.19 3084.31C2573.3 3084.37 2573.4 3084.43 2573.5 3084.49" stroke="#8A2C12" stroke-width="6" stroke-linecap="round"/>
<path d="M1094.09 3243.01C1144.76 3222.25 1192.87 3265.59 1221.98 3286.43C1235.24 3295.92 1236.56 3314.56 1234.79 3329.93C1230.03 3371.37 1180.47 3378 1130.82 3388.06C991.032 3416.4 959.245 3376.37 931.987 3360.04C918.644 3352.05 919.201 3329.25 922.792 3310.23C929.116 3276.75 977.091 3272.99 1006.14 3260.26C1035.2 3256.61 1064.14 3249.38 1094.09 3243.01Z" fill="#8A2C12" stroke="#8A2C12" stroke-width="6" stroke-linecap="round"/>
<path d="M1517.58 2551.14C1533.07 2546 1560.56 2535.01 1626.31 2520.29C1659.78 2512.8 1688.09 2527.5 1701.67 2536.53C1708.65 2541.18 1713.44 2549.15 1713.53 2556.44C1713.88 2587.64 1666.55 2592.79 1637.49 2600.05L1637.48 2600.05C1608.43 2607.32 1579.49 2614.55 1550.44 2617.3C1503.42 2621.74 1445.21 2616.45 1434.33 2604.7C1429.33 2599.3 1430.63 2591.15 1434.22 2585.66C1459.58 2569.28 1489.15 2560.56 1517.58 2551.14Z" fill="#8A2C12"/>
<path d="M1637.49 2600.05C1666.55 2592.79 1713.88 2587.64 1713.53 2556.44C1713.44 2549.15 1708.65 2541.18 1701.67 2536.53C1688.09 2527.5 1659.78 2512.8 1626.31 2520.29C1560.56 2535.01 1533.07 2546 1517.58 2551.14C1489.15 2560.56 1459.58 2569.28 1434.22 2585.66C1430.63 2591.15 1429.33 2599.3 1434.33 2604.7C1445.21 2616.45 1503.42 2621.74 1550.44 2617.3C1579.49 2614.55 1608.43 2607.32 1637.48 2600.05M1637.49 2600.05L1637.48 2600.05M1637.49 2600.05C1637.49 2600.05 1637.48 2600.05 1637.48 2600.05" stroke="#8A2C12" stroke-width="6" stroke-linecap="round"/>
<path d="M113.968 2545.67C93.5705 2558.46 91.6382 2553.41 80.5703 2572C74.939 2581.46 74.1415 2590.83 76.7803 2597.25C88.6486 2626.12 140.954 2614.55 232.413 2614.6C274.908 2614.63 295.254 2592.9 306.136 2578.42C311.049 2571.89 309.835 2563.95 306.245 2558.46C290.245 2533.97 248.355 2540.23 209.372 2535.71C194.001 2534.79 170.661 2534.79 155.046 2535.69C139.431 2536.58 130.644 2535.22 113.968 2545.67Z" fill="#8A2C12" stroke="#8A2C12" stroke-width="6" stroke-linecap="round"/>
<path d="M365.567 1959.4C383.977 1915.74 511.636 1893.86 640.134 1893C684.76 1892.71 704.522 1909.14 713.743 1918.36C722.964 1927.57 729.204 1938.37 731.515 1950.66C732.669 1956.79 732.301 1962.94 727.725 1968.37C704.315 1996.13 654.001 2006.07 613.787 2015.38C584.612 2022.13 462.178 2024.64 391.111 2018.52C364.366 2016.21 365.567 2006.65 361.566 1991.75C359.766 1985.04 363.279 1964.83 365.567 1959.4Z" fill="#80270F" stroke="#80270F" stroke-width="6" stroke-linecap="round"/>
<path d="M1014.28 1501.89C1002.79 1496.93 903.99 1513.29 837.88 1536.53C829.354 1539.52 825.424 1546.42 822.888 1553.86C820.352 1561.29 820.352 1571.11 823.634 1578.62C836.682 1608.49 902.896 1601.06 951.974 1592.01C983.076 1586.28 1012.49 1574.68 1038.22 1564.74C1044.48 1562.32 1048.99 1556.53 1052.34 1550.73C1055.7 1544.93 1057.34 1538.38 1054.91 1531.74C1045.91 1518.55 1029.97 1504.37 1014.28 1501.89Z" fill="#80270F" stroke="#80270F" stroke-width="6" stroke-linecap="round"/>
<path d="M2066.16 1666C2055.67 1666 2051.29 1671.27 2017.49 1677.56C1999.64 1680.88 1983.69 1696.43 1979.24 1706.06C1974.79 1715.69 1983.18 1721.98 2002.18 1723.12C2050.54 1726.03 2089.16 1713.65 2105.01 1707.33C2112.98 1704.15 2118.77 1696.82 2118.86 1690.43C2118.96 1684.04 2112.67 1677.75 2103.14 1673.47C2093.6 1669.18 2081.06 1666 2066.16 1666Z" fill="#80270F" stroke="#80270F" stroke-width="6" stroke-linecap="round"/>
<path d="M2273.07 2239C2249.57 2243.63 2268.04 2239.45 2211.4 2258.41C2202.09 2261.53 2197.65 2271.09 2193.36 2278.52C2189.07 2285.96 2186.97 2294.34 2190.08 2302.86C2203.73 2340.16 2252.41 2338.95 2302.1 2346.38C2395.56 2360.36 2443.03 2324.21 2478 2315.72C2517.49 2306.15 2542.65 2292.44 2555.36 2281.89C2561.27 2276.98 2559.68 2267.15 2555.49 2262.83C2525.88 2256.41 2433.37 2252.16 2355.54 2246.88C2337.55 2245.8 2305.35 2232.65 2273.07 2239Z" fill="#80270F" stroke="#80270F" stroke-width="6" stroke-linecap="round"/>
<path d="M3062.2 1861.5C3041.58 1840.31 2949.06 1851.84 2912.91 1894.13C2907.03 1901.01 2911.74 1915.16 2918.06 1922.69C2950.2 1960.97 3025.98 1926.09 3056.76 1907.02C3070.81 1898.33 3066.39 1875.26 3062.2 1861.5Z" fill="#80270F" stroke="#80270F" stroke-width="6" stroke-linecap="round"/>
<path d="M2873.08 1115.89C2850.43 1137.5 2863.2 1142.16 2850.43 1174.98C2846.13 1186.02 2862.82 1188.93 2875.59 1190.01C2900.87 1192.15 2932.77 1182.7 2964.51 1165.8C2978.12 1158.55 2983.66 1148.9 2985.86 1140.38C2988.05 1131.87 2985.95 1123.48 2963.9 1119.16C2941.86 1114.84 2892.51 1097.35 2873.08 1115.89Z" fill="#80270F" stroke="#80270F" stroke-width="6" stroke-linecap="round"/>
</svg>
