<svg width="117" height="25" viewBox="0 0 117 25" fill="none" xmlns="http://www.w3.org/2000/svg">
<path d="M8.23438 13.9805C8.23438 13.7148 8.26953 13.4258 8.33984 13.1133C8.41797 12.8008 8.52344 12.4883 8.65625 12.1758C8.78906 11.8555 8.94922 11.5469 9.13672 11.25C9.32422 10.9453 9.53516 10.6797 9.76953 10.4531C10.0039 10.2188 10.2578 10.0352 10.5312 9.90234C10.8047 9.76172 11.0938 9.69141 11.3984 9.69141C11.6484 9.69141 11.8828 9.72656 12.1016 9.79688C12.3203 9.85938 12.5078 9.95703 12.6641 10.0898C12.8203 10.2227 12.9414 10.3906 13.0273 10.5938C13.1211 10.7891 13.168 11.0234 13.168 11.2969C12.9961 11.2969 12.8555 11.2539 12.7461 11.168C12.6445 11.0742 12.5469 10.9727 12.4531 10.8633C12.3672 10.7539 12.2695 10.6562 12.1602 10.5703C12.0586 10.4844 11.9258 10.4414 11.7617 10.4414C11.5195 10.4414 11.2852 10.5039 11.0586 10.6289C10.8398 10.7539 10.6328 10.9219 10.4375 11.1328C10.25 11.3438 10.082 11.582 9.93359 11.8477C9.79297 12.1133 9.66797 12.3828 9.55859 12.6562C9.45703 12.9219 9.375 13.1836 9.3125 13.4414C9.25781 13.6992 9.23047 13.9219 9.23047 14.1094C9.23047 14.5156 9.28906 14.8984 9.40625 15.2578C9.53125 15.6094 9.70703 15.918 9.93359 16.1836C10.1602 16.4414 10.4414 16.6445 10.7773 16.793C11.1133 16.9414 11.4961 17.0156 11.9258 17.0156C12.1992 17.0156 12.457 16.9766 12.6992 16.8984C12.9492 16.8125 13.1875 16.7227 13.4141 16.6289C13.6484 16.5273 13.8789 16.4336 14.1055 16.3477C14.332 16.2617 14.5586 16.2188 14.7852 16.2188C14.8164 16.2188 14.8594 16.2227 14.9141 16.2305C14.9766 16.2305 15.0312 16.2383 15.0781 16.2539C15.1328 16.2695 15.1797 16.2969 15.2188 16.3359C15.2578 16.3672 15.2773 16.418 15.2773 16.4883C15.2773 16.7695 15.168 17.0078 14.9492 17.2031C14.7383 17.3984 14.4844 17.5586 14.1875 17.6836C13.8906 17.8008 13.582 17.8867 13.2617 17.9414C12.9414 17.9961 12.6797 18.0234 12.4766 18.0234C11.8828 18.0234 11.3281 17.9297 10.8125 17.7422C10.2969 17.5469 9.84766 17.2734 9.46484 16.9219C9.08203 16.5703 8.78125 16.1484 8.5625 15.6562C8.34375 15.1562 8.23438 14.5977 8.23438 13.9805ZM20.8086 16.4883C20.5117 16.6914 20.2539 16.875 20.0352 17.0391C19.8242 17.1953 19.6172 17.3281 19.4141 17.4375C19.2109 17.5469 18.9922 17.6289 18.7578 17.6836C18.5312 17.7383 18.25 17.7656 17.9141 17.7656C17.1875 17.7656 16.6484 17.5742 16.2969 17.1914C15.9453 16.8008 15.7695 16.2227 15.7695 15.457C15.7695 15.1602 15.8086 14.8516 15.8867 14.5312C15.9648 14.2109 16.0781 13.8945 16.2266 13.582C16.3828 13.2617 16.5664 12.9609 16.7773 12.6797C16.9883 12.3906 17.2266 12.1367 17.4922 11.918C17.7578 11.6992 18.0391 11.5273 18.3359 11.4023C18.6406 11.2695 18.9609 11.2031 19.2969 11.2031C19.8594 11.2578 20.3008 11.3984 20.6211 11.625C20.9414 11.8438 21.1836 12.1289 21.3477 12.4805C21.5117 12.8242 21.625 13.2109 21.6875 13.6406C21.75 14.0625 21.7969 14.5 21.8281 14.9531C21.8672 15.4062 21.9141 15.8594 21.9688 16.3125C22.0234 16.7656 22.1367 17.1836 22.3086 17.5664C22.207 17.8242 22.1094 18.0039 22.0156 18.1055C21.9297 18.2148 21.832 18.2344 21.7227 18.1641C21.6133 18.0938 21.4844 17.9219 21.3359 17.6484C21.1953 17.375 21.0195 16.9883 20.8086 16.4883ZM16.7656 15.4805C16.7656 15.9258 16.8477 16.2539 17.0117 16.4648C17.1836 16.668 17.4844 16.7695 17.9141 16.7695C18.2344 16.7695 18.5391 16.7148 18.8281 16.6055C19.125 16.4883 19.3828 16.332 19.6016 16.1367C19.8203 15.9336 19.9961 15.6914 20.1289 15.4102C20.2617 15.1289 20.3281 14.8164 20.3281 14.4727C20.3281 14.332 20.332 14.1367 20.3398 13.8867C20.3477 13.6289 20.332 13.375 20.293 13.125C20.2539 12.875 20.1797 12.6602 20.0703 12.4805C19.9609 12.293 19.7969 12.1992 19.5781 12.1992C19.1719 12.1992 18.7969 12.3047 18.4531 12.5156C18.1094 12.7188 17.8125 12.9805 17.5625 13.3008C17.3125 13.6211 17.1172 13.9766 16.9766 14.3672C16.8359 14.75 16.7656 15.1211 16.7656 15.4805ZM22.7891 12.0938C22.7891 12.0703 22.793 12.0508 22.8008 12.0352C22.8008 12.0195 22.8047 12 22.8125 11.9766C22.8438 11.9375 22.8906 11.8867 22.9531 11.8242C23.0156 11.7617 23.0547 11.7305 23.0703 11.7305H25.4258C25.4258 11.6445 25.4141 11.5078 25.3906 11.3203C25.3672 11.1328 25.3438 10.9258 25.3203 10.6992C25.3047 10.4727 25.3008 10.2383 25.3086 9.99609C25.3164 9.74609 25.3477 9.52344 25.4023 9.32812C25.4648 9.125 25.5586 8.96094 25.6836 8.83594C25.8164 8.70312 26 8.63672 26.2344 8.63672C26.2344 9.42578 26.2891 10.0586 26.3984 10.5352C26.5078 11.0117 26.6523 11.3789 26.832 11.6367C27.0195 11.8945 27.2305 12.0625 27.4648 12.1406C27.6992 12.2188 27.9375 12.2539 28.1797 12.2461C28.4297 12.2305 28.6719 12.1914 28.9062 12.1289C29.1406 12.0664 29.3477 12.0234 29.5273 12C29.7148 11.9766 29.8633 11.9961 29.9727 12.0586C30.082 12.1133 30.1367 12.25 30.1367 12.4688C30.1367 12.6328 30.0977 12.75 30.0195 12.8203C29.9492 12.8906 29.8086 12.9453 29.5977 12.9844C29.5352 12.9922 29.4297 13.0078 29.2812 13.0312C29.1406 13.0469 28.9805 13.0625 28.8008 13.0781C28.6211 13.0938 28.4297 13.1133 28.2266 13.1367C28.0234 13.1523 27.832 13.168 27.6523 13.1836C27.4727 13.1992 27.3086 13.2109 27.1602 13.2188C27.0117 13.2188 26.9023 13.2188 26.832 13.2188C26.832 13.2578 26.8281 13.3242 26.8203 13.418C26.8125 13.5117 26.8086 13.5742 26.8086 13.6055C26.8086 13.9492 26.8633 14.2852 26.9727 14.6133C27.082 14.9336 27.1992 15.2539 27.3242 15.5742C27.457 15.8945 27.5781 16.2148 27.6875 16.5352C27.7969 16.8555 27.8516 17.1875 27.8516 17.5312C27.8516 17.5938 27.8438 17.6602 27.8281 17.7305C27.8203 17.793 27.7969 17.8516 27.7578 17.9062C27.7266 17.9531 27.6758 17.9883 27.6055 18.0117C27.543 18.043 27.4531 18.0391 27.3359 18C27.0391 17.9219 26.8164 17.7539 26.668 17.4961C26.5273 17.2383 26.4219 16.9336 26.3516 16.582C26.2812 16.2227 26.2344 15.8438 26.2109 15.4453C26.1875 15.0469 26.1484 14.6758 26.0938 14.332C26.0469 13.9805 25.9688 13.6836 25.8594 13.4414C25.75 13.1914 25.5742 13.0391 25.332 12.9844L23.0703 12.4688C23.0391 12.4688 22.9922 12.4375 22.9297 12.375C22.8672 12.3047 22.8281 12.2539 22.8125 12.2227C22.8047 12.207 22.8008 12.1875 22.8008 12.1641C22.793 12.1484 22.7891 12.125 22.7891 12.0938ZM35.6211 16.4883C35.3242 16.6914 35.0664 16.875 34.8477 17.0391C34.6367 17.1953 34.4297 17.3281 34.2266 17.4375C34.0234 17.5469 33.8047 17.6289 33.5703 17.6836C33.3438 17.7383 33.0625 17.7656 32.7266 17.7656C32 17.7656 31.4609 17.5742 31.1094 17.1914C30.7578 16.8008 30.582 16.2227 30.582 15.457C30.582 15.1602 30.6211 14.8516 30.6992 14.5312C30.7773 14.2109 30.8906 13.8945 31.0391 13.582C31.1953 13.2617 31.3789 12.9609 31.5898 12.6797C31.8008 12.3906 32.0391 12.1367 32.3047 11.918C32.5703 11.6992 32.8516 11.5273 33.1484 11.4023C33.4531 11.2695 33.7734 11.2031 34.1094 11.2031C34.6719 11.2578 35.1133 11.3984 35.4336 11.625C35.7539 11.8438 35.9961 12.1289 36.1602 12.4805C36.3242 12.8242 36.4375 13.2109 36.5 13.6406C36.5625 14.0625 36.6094 14.5 36.6406 14.9531C36.6797 15.4062 36.7266 15.8594 36.7812 16.3125C36.8359 16.7656 36.9492 17.1836 37.1211 17.5664C37.0195 17.8242 36.9219 18.0039 36.8281 18.1055C36.7422 18.2148 36.6445 18.2344 36.5352 18.1641C36.4258 18.0938 36.2969 17.9219 36.1484 17.6484C36.0078 17.375 35.832 16.9883 35.6211 16.4883ZM31.5781 15.4805C31.5781 15.9258 31.6602 16.2539 31.8242 16.4648C31.9961 16.668 32.2969 16.7695 32.7266 16.7695C33.0469 16.7695 33.3516 16.7148 33.6406 16.6055C33.9375 16.4883 34.1953 16.332 34.4141 16.1367C34.6328 15.9336 34.8086 15.6914 34.9414 15.4102C35.0742 15.1289 35.1406 14.8164 35.1406 14.4727C35.1406 14.332 35.1445 14.1367 35.1523 13.8867C35.1602 13.6289 35.1445 13.375 35.1055 13.125C35.0664 12.875 34.9922 12.6602 34.8828 12.4805C34.7734 12.293 34.6094 12.1992 34.3906 12.1992C33.9844 12.1992 33.6094 12.3047 33.2656 12.5156C32.9219 12.7188 32.625 12.9805 32.375 13.3008C32.125 13.6211 31.9297 13.9766 31.7891 14.3672C31.6484 14.75 31.5781 15.1211 31.5781 15.4805ZM34.9648 8.28516L33.6992 10.1602C33.6055 10.2695 33.5117 10.3164 33.418 10.3008C33.3242 10.2852 33.25 10.2422 33.1953 10.1719C33.1484 10.0938 33.1211 10 33.1133 9.89062C33.1133 9.77344 33.1562 9.66016 33.2422 9.55078C33.2656 9.52734 33.2891 9.49609 33.3125 9.45703C33.3438 9.41016 33.3633 9.37891 33.3711 9.36328C33.4492 9.23828 33.5391 9.09766 33.6406 8.94141C33.7422 8.78516 33.8477 8.64062 33.957 8.50781C34.0664 8.36719 34.1719 8.24609 34.2734 8.14453C34.3828 8.03516 34.4844 7.96484 34.5781 7.93359C34.6719 7.89453 34.75 7.90234 34.8125 7.95703C34.8828 8.00391 34.9336 8.11328 34.9648 8.28516ZM38.1406 11.3672C38.1406 11.1406 38.125 10.9219 38.0938 10.7109C38.0625 10.4922 38.0547 10.3008 38.0703 10.1367C38.0859 9.96484 38.1445 9.82812 38.2461 9.72656C38.3555 9.625 38.5508 9.57422 38.832 9.57422C38.918 9.75391 39 10.0273 39.0781 10.3945C39.1641 10.7617 39.2461 11.1836 39.3242 11.6602C39.4023 12.1367 39.4766 12.6562 39.5469 13.2188C39.6172 13.7734 39.6797 14.332 39.7344 14.8945C39.7969 15.457 39.8477 16.0117 39.8867 16.5586C39.9336 17.0977 39.9688 17.5898 39.9922 18.0352C39.7344 18.207 39.5273 18.2188 39.3711 18.0703C39.2148 17.9219 39.0859 17.6719 38.9844 17.3203C38.8828 16.9609 38.8047 16.5273 38.75 16.0195C38.6953 15.5039 38.6406 14.9727 38.5859 14.4258C38.5391 13.8711 38.4805 13.3281 38.4102 12.7969C38.3398 12.2578 38.25 11.7812 38.1406 11.3672ZM40.6016 15.6211C40.6016 15.1367 40.7148 14.6875 40.9414 14.2734C41.168 13.8516 41.4648 13.4922 41.832 13.1953C42.207 12.8906 42.625 12.6523 43.0859 12.4805C43.5547 12.3086 44.0273 12.2227 44.5039 12.2227C44.7695 12.2227 45.0039 12.3086 45.207 12.4805C45.418 12.6523 45.5938 12.8633 45.7344 13.1133C45.875 13.3555 45.9805 13.6133 46.0508 13.8867C46.1289 14.1602 46.168 14.3984 46.168 14.6016C46.168 15.0391 46.0625 15.4648 45.8516 15.8789C45.6406 16.2852 45.3672 16.6484 45.0312 16.9688C44.6953 17.2812 44.3164 17.5352 43.8945 17.7305C43.4727 17.9258 43.0508 18.0234 42.6289 18.0234C42.2539 18.0234 41.9375 17.9609 41.6797 17.8359C41.4219 17.7031 41.2148 17.5312 41.0586 17.3203C40.9023 17.1016 40.7852 16.8477 40.707 16.5586C40.6367 16.2617 40.6016 15.9492 40.6016 15.6211ZM41.5977 15.7383C41.5977 15.9414 41.6133 16.1211 41.6445 16.2773C41.6836 16.4258 41.7461 16.5547 41.832 16.6641C41.9258 16.7734 42.0469 16.8594 42.1953 16.9219C42.3438 16.9766 42.5273 17.0039 42.7461 17.0039C43.0352 17.0039 43.3242 16.9258 43.6133 16.7695C43.9023 16.6055 44.1602 16.4023 44.3867 16.1602C44.6211 15.9102 44.8086 15.6367 44.9492 15.3398C45.0898 15.043 45.1602 14.7539 45.1602 14.4727C45.1602 14.3477 45.1484 14.2109 45.125 14.0625C45.1016 13.9141 45.0625 13.7773 45.0078 13.6523C44.9531 13.5273 44.875 13.4219 44.7734 13.3359C44.6719 13.25 44.543 13.207 44.3867 13.207C44.2461 13.207 44.0781 13.2539 43.8828 13.3477C43.6953 13.4414 43.4961 13.5625 43.2852 13.7109C43.082 13.8594 42.8789 14.0273 42.6758 14.2148C42.4805 14.4023 42.3008 14.5898 42.1367 14.7773C41.9727 14.9648 41.8398 15.1445 41.7383 15.3164C41.6445 15.4883 41.5977 15.6289 41.5977 15.7383ZM49.6484 24.2344C50.0859 24.2344 50.4766 24.1523 50.8203 23.9883C51.1641 23.832 51.4531 23.6133 51.6875 23.332C51.9297 23.0586 52.1133 22.7422 52.2383 22.3828C52.3711 22.0312 52.4375 21.6641 52.4375 21.2812C52.4375 21.0859 52.4258 20.8281 52.4023 20.5078C52.3867 20.1875 52.3594 19.8398 52.3203 19.4648C52.2812 19.0898 52.2227 18.707 52.1445 18.3164C52.0742 17.9258 51.9844 17.5586 51.875 17.2148C51.7656 16.8633 51.6289 16.5586 51.4648 16.3008C51.3086 16.0352 51.125 15.8477 50.9141 15.7383C50.7109 15.8945 50.5117 16.0391 50.3164 16.1719C50.1211 16.2969 49.918 16.4023 49.707 16.4883C49.4961 16.5742 49.2773 16.6445 49.0508 16.6992C48.8242 16.7461 48.582 16.7695 48.3242 16.7695C47.9883 16.7695 47.6992 16.7383 47.457 16.6758C47.2227 16.6133 47.0234 16.5078 46.8594 16.3594C46.7031 16.2109 46.5859 16.0156 46.5078 15.7734C46.4297 15.5312 46.3906 15.2266 46.3906 14.8594C46.3906 14.6016 46.4531 14.3516 46.5781 14.1094C46.7031 13.8594 46.8672 13.6289 47.0703 13.418C47.2812 13.1992 47.5156 13 47.7734 12.8203C48.0391 12.6406 48.3086 12.4844 48.582 12.3516C48.8633 12.2188 49.1367 12.1172 49.4023 12.0469C49.6758 11.9766 49.918 11.9414 50.1289 11.9414C50.332 11.9414 50.5 11.9492 50.6328 11.9648C50.7656 11.9727 50.8789 12.0039 50.9727 12.0586C51.0664 12.1055 51.1445 12.1836 51.207 12.293C51.2773 12.3945 51.3438 12.5352 51.4062 12.7148C51.5859 13.3242 51.793 13.9805 52.0273 14.6836C52.2617 15.3867 52.4844 16.1094 52.6953 16.8516C52.9062 17.5938 53.082 18.3398 53.2227 19.0898C53.3711 19.8477 53.4453 20.5781 53.4453 21.2812C53.4453 21.9062 53.3555 22.4336 53.1758 22.8633C53.0039 23.3008 52.7734 23.6562 52.4844 23.9297C52.2031 24.2109 51.8789 24.4258 51.5117 24.5742C51.1523 24.7227 50.7891 24.8164 50.4219 24.8555C50.0547 24.9023 49.6992 24.9141 49.3555 24.8906C49.0117 24.8672 48.7148 24.8203 48.4648 24.75C48.2148 24.6875 48.0234 24.6133 47.8906 24.5273C47.7656 24.4414 47.7344 24.3672 47.7969 24.3047C47.8672 24.25 48.0469 24.2109 48.3359 24.1875C48.625 24.1641 49.0625 24.1797 49.6484 24.2344ZM49.8125 12.9258C49.2344 13.0508 48.7656 13.2266 48.4062 13.4531C48.0547 13.6719 47.7891 13.9102 47.6094 14.168C47.4375 14.418 47.3438 14.6719 47.3281 14.9297C47.3125 15.1797 47.3594 15.3945 47.4688 15.5742C47.5781 15.7539 47.7344 15.8906 47.9375 15.9844C48.1484 16.0703 48.3867 16.0742 48.6523 15.9961C48.918 15.9102 49.1992 15.7305 49.4961 15.457C49.8008 15.1836 50.1055 14.7773 50.4102 14.2383C50.4102 14.1055 50.4102 13.9609 50.4102 13.8047C50.418 13.6484 50.4062 13.5078 50.375 13.3828C50.3438 13.25 50.2852 13.1406 50.1992 13.0547C50.1133 12.9688 49.9844 12.9258 49.8125 12.9258ZM53.4102 15.6211C53.4102 15.1367 53.5234 14.6875 53.75 14.2734C53.9766 13.8516 54.2734 13.4922 54.6406 13.1953C55.0156 12.8906 55.4336 12.6523 55.8945 12.4805C56.3633 12.3086 56.8359 12.2227 57.3125 12.2227C57.5781 12.2227 57.8125 12.3086 58.0156 12.4805C58.2266 12.6523 58.4023 12.8633 58.543 13.1133C58.6836 13.3555 58.7891 13.6133 58.8594 13.8867C58.9375 14.1602 58.9766 14.3984 58.9766 14.6016C58.9766 15.0391 58.8711 15.4648 58.6602 15.8789C58.4492 16.2852 58.1758 16.6484 57.8398 16.9688C57.5039 17.2812 57.125 17.5352 56.7031 17.7305C56.2812 17.9258 55.8594 18.0234 55.4375 18.0234C55.0625 18.0234 54.7461 17.9609 54.4883 17.8359C54.2305 17.7031 54.0234 17.5312 53.8672 17.3203C53.7109 17.1016 53.5938 16.8477 53.5156 16.5586C53.4453 16.2617 53.4102 15.9492 53.4102 15.6211ZM54.4062 15.7383C54.4062 15.9414 54.4219 16.1211 54.4531 16.2773C54.4922 16.4258 54.5547 16.5547 54.6406 16.6641C54.7344 16.7734 54.8555 16.8594 55.0039 16.9219C55.1523 16.9766 55.3359 17.0039 55.5547 17.0039C55.8438 17.0039 56.1328 16.9258 56.4219 16.7695C56.7109 16.6055 56.9688 16.4023 57.1953 16.1602C57.4297 15.9102 57.6172 15.6367 57.7578 15.3398C57.8984 15.043 57.9688 14.7539 57.9688 14.4727C57.9688 14.3477 57.957 14.2109 57.9336 14.0625C57.9102 13.9141 57.8711 13.7773 57.8164 13.6523C57.7617 13.5273 57.6836 13.4219 57.582 13.3359C57.4805 13.25 57.3516 13.207 57.1953 13.207C57.0547 13.207 56.8867 13.2539 56.6914 13.3477C56.5039 13.4414 56.3047 13.5625 56.0938 13.7109C55.8906 13.8594 55.6875 14.0273 55.4844 14.2148C55.2891 14.4023 55.1094 14.5898 54.9453 14.7773C54.7812 14.9648 54.6484 15.1445 54.5469 15.3164C54.4531 15.4883 54.4062 15.6289 54.4062 15.7383ZM64.5781 16.6172C64.5781 16.1641 64.6914 15.7617 64.918 15.4102C65.1445 15.0586 65.4258 14.7539 65.7617 14.4961C66.0977 14.2305 66.4609 14.0078 66.8516 13.8281C67.2422 13.6406 67.6055 13.4883 67.9414 13.3711C68.2773 13.2461 68.5586 13.1484 68.7852 13.0781C69.0117 13 69.125 12.9375 69.125 12.8906C69.125 12.6172 69.1094 12.3516 69.0781 12.0938C69.0547 11.8281 69.0273 11.5625 68.9961 11.2969C68.9648 11.0312 68.9336 10.7695 68.9023 10.5117C68.8789 10.2461 68.8672 9.98438 68.8672 9.72656V8.96484C69.1875 8.84766 69.4141 8.85938 69.5469 9C69.6875 9.14062 69.7109 9.38281 69.6172 9.72656C69.6484 9.89844 69.6914 10.168 69.7461 10.5352C69.8008 10.9023 69.8594 11.3164 69.9219 11.7773C69.9922 12.2383 70.0625 12.7227 70.1328 13.2305C70.2109 13.7383 70.2812 14.2266 70.3438 14.6953C70.4141 15.1562 70.4727 15.5703 70.5195 15.9375C70.5664 16.2969 70.6016 16.5664 70.625 16.7461C70.6328 16.7852 70.6406 16.8633 70.6484 16.9805C70.6562 17.0898 70.6602 17.2109 70.6602 17.3438C70.668 17.4688 70.6719 17.5859 70.6719 17.6953C70.6797 17.8047 70.6836 17.8828 70.6836 17.9297C70.3867 17.9297 70.1836 17.918 70.0742 17.8945C69.9727 17.8711 69.9062 17.8242 69.875 17.7539C69.8516 17.6836 69.8398 17.582 69.8398 17.4492C69.8398 17.3164 69.8008 17.1328 69.7227 16.8984C69.4336 17.125 69.1602 17.3125 68.9023 17.4609C68.6445 17.6094 68.3867 17.7305 68.1289 17.8242C67.8711 17.9102 67.6094 17.9688 67.3438 18C67.0859 18.0391 66.8086 18.0586 66.5117 18.0586C66.2617 18.0586 66.0195 18.0391 65.7852 18C65.5586 17.9531 65.3555 17.875 65.1758 17.7656C64.9961 17.6562 64.8516 17.5078 64.7422 17.3203C64.6328 17.1328 64.5781 16.8984 64.5781 16.6172ZM65.5977 16.3711C65.5977 16.4961 65.625 16.5977 65.6797 16.6758C65.7344 16.7539 65.8047 16.8203 65.8906 16.875C65.9766 16.9297 66.0664 16.9688 66.1602 16.9922C66.2617 17.0078 66.3594 17.0156 66.4531 17.0156C66.7266 17.0156 67.0195 16.9648 67.332 16.8633C67.6523 16.7539 67.9453 16.6055 68.2109 16.418C68.4844 16.2227 68.707 15.9922 68.8789 15.7266C69.0586 15.4609 69.1484 15.1719 69.1484 14.8594C69.1484 14.6172 69.1055 14.4492 69.0195 14.3555C68.9336 14.2617 68.7695 14.2148 68.5273 14.2148C68.2773 14.2148 67.9844 14.2734 67.6484 14.3906C67.3203 14.5078 67 14.6641 66.6875 14.8594C66.3828 15.0547 66.125 15.2852 65.9141 15.5508C65.7031 15.8086 65.5977 16.082 65.5977 16.3711ZM71.375 14.7422C71.375 14.3203 71.4258 13.8984 71.5273 13.4766C71.6289 13.0547 71.7891 12.6758 72.0078 12.3398C72.2344 12.0039 72.5234 11.7305 72.875 11.5195C73.2344 11.3086 73.668 11.2031 74.1758 11.2031C74.4648 11.2031 74.7188 11.2578 74.9375 11.3672C75.1562 11.4688 75.3398 11.6055 75.4883 11.7773C75.6367 11.9492 75.7461 12.1523 75.8164 12.3867C75.8945 12.6133 75.9336 12.8516 75.9336 13.1016C75.9336 13.5 75.8398 13.8867 75.6523 14.2617C75.4727 14.6367 75.2266 14.9688 74.9141 15.2578C74.6094 15.5391 74.2578 15.7539 73.8594 15.9023C73.4609 16.043 73.0547 16.0742 72.6406 15.9961C72.6484 16.2227 72.7227 16.4062 72.8633 16.5469C73.0117 16.6797 73.1875 16.7812 73.3906 16.8516C73.5938 16.9219 73.8047 16.9688 74.0234 16.9922C74.2422 17.0078 74.4375 17.0156 74.6094 17.0156C74.7891 17.0156 74.957 17 75.1133 16.9688C75.2695 16.9375 75.4258 16.9023 75.582 16.8633C75.7383 16.8242 75.8945 16.7891 76.0508 16.7578C76.2148 16.7266 76.3867 16.7109 76.5664 16.7109C76.6367 16.7109 76.707 16.7148 76.7773 16.7227C76.8477 16.7305 76.9141 16.75 76.9766 16.7812C77.0391 16.8047 77.0898 16.8477 77.1289 16.9102C77.168 16.9648 77.1875 17.0352 77.1875 17.1211C77.1875 17.2695 77.1328 17.3945 77.0234 17.4961C76.9141 17.5898 76.7734 17.6719 76.6016 17.7422C76.4375 17.8125 76.2539 17.8672 76.0508 17.9062C75.8477 17.9375 75.6484 17.9648 75.4531 17.9883C75.2656 18.0039 75.0898 18.0117 74.9258 18.0117C74.7695 18.0195 74.6523 18.0234 74.5742 18.0234C74.0742 18.0234 73.625 17.9453 73.2266 17.7891C72.8281 17.625 72.4922 17.4023 72.2188 17.1211C71.9453 16.832 71.7344 16.4883 71.5859 16.0898C71.4453 15.6836 71.375 15.2344 71.375 14.7422ZM72.6172 13.9805C72.6172 14.2539 72.6523 14.4531 72.7227 14.5781C72.8008 14.7031 72.9844 14.7656 73.2734 14.7656C73.4766 14.7656 73.6758 14.7305 73.8711 14.6602C74.0664 14.582 74.2422 14.4766 74.3984 14.3438C74.5625 14.2109 74.6914 14.0547 74.7852 13.875C74.8789 13.6953 74.9258 13.5 74.9258 13.2891C74.9258 13.1719 74.9141 13.0508 74.8906 12.9258C74.875 12.8008 74.8359 12.6875 74.7734 12.5859C74.7109 12.4766 74.6289 12.3906 74.5273 12.3281C74.4336 12.2578 74.3086 12.2227 74.1523 12.2227C73.918 12.2227 73.7031 12.2773 73.5078 12.3867C73.3203 12.4883 73.1602 12.625 73.0273 12.7969C72.8945 12.9609 72.793 13.1484 72.7227 13.3594C72.6523 13.5625 72.6172 13.7695 72.6172 13.9805ZM85.0859 17.4961C85.125 17.3086 85.2227 17.1562 85.3789 17.0391C85.543 16.9141 85.7266 16.8008 85.9297 16.6992C86.1406 16.5977 86.3594 16.5039 86.5859 16.418C86.8125 16.3242 87.0195 16.2266 87.207 16.125C87.4023 16.0234 87.5625 15.9062 87.6875 15.7734C87.8125 15.6328 87.875 15.4648 87.875 15.2695C87.875 15.0195 87.8086 14.8125 87.6758 14.6484C87.5508 14.4844 87.3789 14.3438 87.1602 14.2266C86.9492 14.1094 86.707 14.0117 86.4336 13.9336C86.1602 13.8555 85.8789 13.7773 85.5898 13.6992C85.3086 13.6133 85.0312 13.5234 84.7578 13.4297C84.4844 13.3281 84.2383 13.2031 84.0195 13.0547C83.8086 12.9062 83.6367 12.7266 83.5039 12.5156C83.3789 12.3047 83.3164 12.043 83.3164 11.7305C83.3164 11.4727 83.3672 11.2305 83.4688 11.0039C83.5781 10.7695 83.7188 10.5508 83.8906 10.3477C84.0703 10.1367 84.2734 9.94531 84.5 9.77344C84.7344 9.60156 84.9766 9.45703 85.2266 9.33984C85.4844 9.22266 85.7422 9.13281 86 9.07031C86.2578 9 86.4961 8.96484 86.7148 8.96484H86.8438C86.9141 8.98828 87.0078 9.02734 87.125 9.08203C87.2422 9.13672 87.3555 9.19141 87.4648 9.24609C87.5742 9.29297 87.668 9.33984 87.7461 9.38672C87.8242 9.42578 87.8633 9.44922 87.8633 9.45703V9.72656C87.7148 9.74219 87.5234 9.77344 87.2891 9.82031C87.0547 9.85938 86.8086 9.91406 86.5508 9.98438C86.293 10.0547 86.0312 10.1445 85.7656 10.2539C85.5 10.3555 85.2617 10.4766 85.0508 10.6172C84.8398 10.7578 84.668 10.9219 84.5352 11.1094C84.4023 11.2891 84.3359 11.4961 84.3359 11.7305C84.3359 12.0664 84.4531 12.332 84.6875 12.5273C84.9219 12.7148 85.2148 12.8711 85.5664 12.9961C85.918 13.1211 86.3008 13.2344 86.7148 13.3359C87.1367 13.4297 87.5234 13.5469 87.875 13.6875C88.2266 13.8203 88.5195 14 88.7539 14.2266C88.9883 14.4453 89.1055 14.7422 89.1055 15.1172C89.1055 15.3203 89.043 15.5352 88.918 15.7617C88.8008 15.9805 88.6406 16.1992 88.4375 16.418C88.2422 16.6289 88.0195 16.832 87.7695 17.0273C87.5195 17.2227 87.2617 17.3945 86.9961 17.543C86.7383 17.6836 86.4844 17.8008 86.2344 17.8945C85.9844 17.9805 85.7617 18.0234 85.5664 18.0234C85.5039 18.0234 85.4375 18.0156 85.3672 18C85.2969 17.9844 85.2344 17.9609 85.1797 17.9297C85.1328 17.8906 85.0938 17.8359 85.0625 17.7656C85.0391 17.6953 85.0469 17.6055 85.0859 17.4961ZM89.5859 14.7422C89.5859 14.3203 89.6367 13.8984 89.7383 13.4766C89.8398 13.0547 90 12.6758 90.2188 12.3398C90.4453 12.0039 90.7344 11.7305 91.0859 11.5195C91.4453 11.3086 91.8789 11.2031 92.3867 11.2031C92.6758 11.2031 92.9297 11.2578 93.1484 11.3672C93.3672 11.4688 93.5508 11.6055 93.6992 11.7773C93.8477 11.9492 93.957 12.1523 94.0273 12.3867C94.1055 12.6133 94.1445 12.8516 94.1445 13.1016C94.1445 13.5 94.0508 13.8867 93.8633 14.2617C93.6836 14.6367 93.4375 14.9688 93.125 15.2578C92.8203 15.5391 92.4688 15.7539 92.0703 15.9023C91.6719 16.043 91.2656 16.0742 90.8516 15.9961C90.8594 16.2227 90.9336 16.4062 91.0742 16.5469C91.2227 16.6797 91.3984 16.7812 91.6016 16.8516C91.8047 16.9219 92.0156 16.9688 92.2344 16.9922C92.4531 17.0078 92.6484 17.0156 92.8203 17.0156C93 17.0156 93.168 17 93.3242 16.9688C93.4805 16.9375 93.6367 16.9023 93.793 16.8633C93.9492 16.8242 94.1055 16.7891 94.2617 16.7578C94.4258 16.7266 94.5977 16.7109 94.7773 16.7109C94.8477 16.7109 94.918 16.7148 94.9883 16.7227C95.0586 16.7305 95.125 16.75 95.1875 16.7812C95.25 16.8047 95.3008 16.8477 95.3398 16.9102C95.3789 16.9648 95.3984 17.0352 95.3984 17.1211C95.3984 17.2695 95.3438 17.3945 95.2344 17.4961C95.125 17.5898 94.9844 17.6719 94.8125 17.7422C94.6484 17.8125 94.4648 17.8672 94.2617 17.9062C94.0586 17.9375 93.8594 17.9648 93.6641 17.9883C93.4766 18.0039 93.3008 18.0117 93.1367 18.0117C92.9805 18.0195 92.8633 18.0234 92.7852 18.0234C92.2852 18.0234 91.8359 17.9453 91.4375 17.7891C91.0391 17.625 90.7031 17.4023 90.4297 17.1211C90.1562 16.832 89.9453 16.4883 89.7969 16.0898C89.6562 15.6836 89.5859 15.2344 89.5859 14.7422ZM90.8281 13.9805C90.8281 14.2539 90.8633 14.4531 90.9336 14.5781C91.0117 14.7031 91.1953 14.7656 91.4844 14.7656C91.6875 14.7656 91.8867 14.7305 92.082 14.6602C92.2773 14.582 92.4531 14.4766 92.6094 14.3438C92.7734 14.2109 92.9023 14.0547 92.9961 13.875C93.0898 13.6953 93.1367 13.5 93.1367 13.2891C93.1367 13.1719 93.125 13.0508 93.1016 12.9258C93.0859 12.8008 93.0469 12.6875 92.9844 12.5859C92.9219 12.4766 92.8398 12.3906 92.7383 12.3281C92.6445 12.2578 92.5195 12.2227 92.3633 12.2227C92.1289 12.2227 91.9141 12.2773 91.7188 12.3867C91.5312 12.4883 91.3711 12.625 91.2383 12.7969C91.1055 12.9609 91.0039 13.1484 90.9336 13.3594C90.8633 13.5625 90.8281 13.7695 90.8281 13.9805ZM96.125 13.0781C96.125 13.0078 96.1289 12.9375 96.1367 12.8672C96.1445 12.7891 96.1602 12.7227 96.1836 12.668C96.207 12.6055 96.2422 12.5547 96.2891 12.5156C96.3438 12.4766 96.418 12.457 96.5117 12.457C96.5898 12.457 96.6758 12.5195 96.7695 12.6445C96.8711 12.7617 96.9727 12.9141 97.0742 13.1016C97.1758 13.2812 97.2734 13.4805 97.3672 13.6992C97.4688 13.918 97.5547 14.1211 97.625 14.3086C97.7031 14.4883 97.7656 14.6445 97.8125 14.7773C97.8594 14.9102 97.8867 14.9805 97.8945 14.9883C97.9961 14.7148 98.1094 14.418 98.2344 14.0977C98.3594 13.7773 98.5117 13.4805 98.6914 13.207C98.8789 12.9258 99.0977 12.6914 99.3477 12.5039C99.6055 12.3164 99.918 12.2227 100.285 12.2227C100.473 12.2227 100.648 12.2539 100.812 12.3164C100.984 12.3711 101.133 12.457 101.258 12.5742C101.391 12.6836 101.496 12.8164 101.574 12.9727C101.652 13.1289 101.691 13.3086 101.691 13.5117C101.691 13.6836 101.621 13.8047 101.48 13.875C101.348 13.9453 101.195 13.9805 101.023 13.9805H100.906L100.402 13.4766C100.387 13.4766 100.375 13.4727 100.367 13.4648C100.352 13.4648 100.336 13.4648 100.32 13.4648C100.312 13.457 100.301 13.4531 100.285 13.4531C100.012 13.4531 99.7969 13.5312 99.6406 13.6875C99.4922 13.8359 99.3789 14.0234 99.3008 14.25C99.2227 14.4688 99.1719 14.7031 99.1484 14.9531C99.1328 15.1953 99.125 15.418 99.125 15.6211C99.125 15.7773 99.1406 15.9375 99.1719 16.1016C99.2031 16.2578 99.2383 16.4141 99.2773 16.5703C99.3164 16.7188 99.3516 16.875 99.3828 17.0391C99.4141 17.1953 99.4297 17.3594 99.4297 17.5312C99.4297 17.8594 99.2539 18.0234 98.9023 18.0234C98.707 18.0234 98.5039 17.9219 98.293 17.7188C98.082 17.5078 97.8711 17.2422 97.6602 16.9219C97.457 16.6016 97.2617 16.25 97.0742 15.8672C96.8867 15.4766 96.7227 15.0977 96.582 14.7305C96.4414 14.3633 96.3281 14.0312 96.2422 13.7344C96.1641 13.4375 96.125 13.2188 96.125 13.0781ZM102.605 13.6055C102.605 13.5586 102.605 13.4844 102.605 13.3828C102.613 13.2734 102.617 13.1602 102.617 13.043C102.625 12.9258 102.629 12.8125 102.629 12.7031C102.637 12.5938 102.641 12.5156 102.641 12.4688C102.727 12.3438 102.836 12.2422 102.969 12.1641C103.109 12.0859 103.25 12.0234 103.391 11.9766C103.414 12.3984 103.48 12.8477 103.59 13.3242C103.699 13.8008 103.816 14.2812 103.941 14.7656C104.066 15.2422 104.176 15.7148 104.27 16.1836C104.371 16.6523 104.422 17.0898 104.422 17.4961C104.422 17.8477 104.242 18.0234 103.883 18.0234C103.664 18.0234 103.48 17.9336 103.332 17.7539C103.184 17.5742 103.062 17.3477 102.969 17.0742C102.883 16.793 102.812 16.4844 102.758 16.1484C102.703 15.8047 102.664 15.4688 102.641 15.1406C102.625 14.8125 102.613 14.5117 102.605 14.2383C102.605 13.9648 102.605 13.7539 102.605 13.6055ZM102.77 9.21094C102.918 9.27344 103.043 9.375 103.145 9.51562C103.246 9.65625 103.289 9.78516 103.273 9.90234C103.266 10.0117 103.18 10.0898 103.016 10.1367C102.852 10.1758 102.578 10.1289 102.195 9.99609C102.195 9.78516 102.234 9.60156 102.312 9.44531C102.398 9.28906 102.551 9.21094 102.77 9.21094ZM104.879 14.7422C104.879 14.3203 104.93 13.8984 105.031 13.4766C105.133 13.0547 105.293 12.6758 105.512 12.3398C105.738 12.0039 106.027 11.7305 106.379 11.5195C106.738 11.3086 107.172 11.2031 107.68 11.2031C107.969 11.2031 108.223 11.2578 108.441 11.3672C108.66 11.4688 108.844 11.6055 108.992 11.7773C109.141 11.9492 109.25 12.1523 109.32 12.3867C109.398 12.6133 109.438 12.8516 109.438 13.1016C109.438 13.5 109.344 13.8867 109.156 14.2617C108.977 14.6367 108.73 14.9688 108.418 15.2578C108.113 15.5391 107.762 15.7539 107.363 15.9023C106.965 16.043 106.559 16.0742 106.145 15.9961C106.152 16.2227 106.227 16.4062 106.367 16.5469C106.516 16.6797 106.691 16.7812 106.895 16.8516C107.098 16.9219 107.309 16.9688 107.527 16.9922C107.746 17.0078 107.941 17.0156 108.113 17.0156C108.293 17.0156 108.461 17 108.617 16.9688C108.773 16.9375 108.93 16.9023 109.086 16.8633C109.242 16.8242 109.398 16.7891 109.555 16.7578C109.719 16.7266 109.891 16.7109 110.07 16.7109C110.141 16.7109 110.211 16.7148 110.281 16.7227C110.352 16.7305 110.418 16.75 110.48 16.7812C110.543 16.8047 110.594 16.8477 110.633 16.9102C110.672 16.9648 110.691 17.0352 110.691 17.1211C110.691 17.2695 110.637 17.3945 110.527 17.4961C110.418 17.5898 110.277 17.6719 110.105 17.7422C109.941 17.8125 109.758 17.8672 109.555 17.9062C109.352 17.9375 109.152 17.9648 108.957 17.9883C108.77 18.0039 108.594 18.0117 108.43 18.0117C108.273 18.0195 108.156 18.0234 108.078 18.0234C107.578 18.0234 107.129 17.9453 106.73 17.7891C106.332 17.625 105.996 17.4023 105.723 17.1211C105.449 16.832 105.238 16.4883 105.09 16.0898C104.949 15.6836 104.879 15.2344 104.879 14.7422ZM106.121 13.9805C106.121 14.2539 106.156 14.4531 106.227 14.5781C106.305 14.7031 106.488 14.7656 106.777 14.7656C106.98 14.7656 107.18 14.7305 107.375 14.6602C107.57 14.582 107.746 14.4766 107.902 14.3438C108.066 14.2109 108.195 14.0547 108.289 13.875C108.383 13.6953 108.43 13.5 108.43 13.2891C108.43 13.1719 108.418 13.0508 108.395 12.9258C108.379 12.8008 108.34 12.6875 108.277 12.5859C108.215 12.4766 108.133 12.3906 108.031 12.3281C107.938 12.2578 107.812 12.2227 107.656 12.2227C107.422 12.2227 107.207 12.2773 107.012 12.3867C106.824 12.4883 106.664 12.625 106.531 12.7969C106.398 12.9609 106.297 13.1484 106.227 13.3594C106.156 13.5625 106.121 13.7695 106.121 13.9805ZM113.668 17.4727C113.793 17.3867 113.941 17.2773 114.113 17.1445C114.293 17.0039 114.473 16.8555 114.652 16.6992C114.832 16.543 115 16.3789 115.156 16.207C115.312 16.0352 115.434 15.8711 115.52 15.7148C115.613 15.5508 115.66 15.3984 115.66 15.2578C115.66 15.1172 115.59 15 115.449 14.9062C115.199 14.9062 114.926 14.918 114.629 14.9414C114.332 14.957 114.035 14.9648 113.738 14.9648C113.441 14.957 113.152 14.9297 112.871 14.8828C112.598 14.8359 112.352 14.75 112.133 14.625C111.914 14.5 111.738 14.3242 111.605 14.0977C111.48 13.8633 111.418 13.5664 111.418 13.207C111.418 12.7852 111.496 12.4062 111.652 12.0703C111.816 11.7266 112.031 11.4258 112.297 11.168C112.562 10.9023 112.859 10.6719 113.188 10.4766C113.523 10.2734 113.859 10.1016 114.195 9.96094C114.398 10.0156 114.586 10.1133 114.758 10.2539C114.93 10.3945 115.078 10.5508 115.203 10.7227C115.148 10.8945 115.039 11.0273 114.875 11.1211C114.719 11.2148 114.535 11.2969 114.324 11.3672C114.121 11.4375 113.906 11.5117 113.68 11.5898C113.453 11.668 113.246 11.7734 113.059 11.9062C112.879 12.0312 112.727 12.1992 112.602 12.4102C112.477 12.6133 112.414 12.8828 112.414 13.2188C112.414 13.4688 112.477 13.6523 112.602 13.7695C112.727 13.8867 112.891 13.9688 113.094 14.0156C113.297 14.0547 113.527 14.0703 113.785 14.0625C114.043 14.0469 114.305 14.0273 114.57 14.0039C114.844 13.9805 115.109 13.9688 115.367 13.9688C115.625 13.9609 115.855 13.9922 116.059 14.0625C116.262 14.125 116.422 14.2305 116.539 14.3789C116.664 14.5273 116.727 14.7461 116.727 15.0352C116.727 15.1602 116.684 15.3203 116.598 15.5156C116.52 15.7109 116.41 15.9219 116.27 16.1484C116.137 16.3672 115.977 16.5859 115.789 16.8047C115.609 17.0234 115.418 17.2227 115.215 17.4023C115.02 17.5742 114.82 17.7188 114.617 17.8359C114.422 17.9453 114.238 18 114.066 18C113.902 18 113.793 17.9414 113.738 17.8242C113.691 17.707 113.668 17.5898 113.668 17.4727Z" fill="white"/>
<path d="M7.48538 7C7.40446 6.77715 7.32355 6.5543 7.23467 6.20492C7.14578 5.85555 7.05138 5.38639 7.01624 4.62864C6.98109 3.87088 7.00807 2.83874 7.04893 2.19561C7.10412 1.32703 7.2128 1.06484 7.25346 1.01152C7.29259 0.96023 7.7269 1.08723 8.33927 1.25285C8.9945 1.43007 9.43141 1.70353 9.98249 1.88106C10.8497 2.16043 11.1216 2.71008 11.3464 2.93559C11.6329 3.22307 12.0754 3.69317 12.2863 3.96027C12.3582 4.05134 12.9422 3.94481 13.8743 3.71983C14.2515 3.6288 14.4424 3.61213 14.9644 3.62937C15.4865 3.64661 16.3361 3.70525 16.8749 3.77065C17.9654 3.903 18.475 4.27393 18.7977 4.34608C18.846 4.35688 18.8861 4.38126 18.9137 4.37575C19.2048 4.31763 19.4574 3.7081 20.1612 3.22473C20.6747 2.87194 21.6201 2.4364 22.261 2.15367C22.902 1.87093 23.2392 1.78883 23.5342 1.72894C24.0687 1.62046 24.7671 1.48032 25.4684 1.36712C25.7204 1.32645 25.7786 1.50023 25.8064 1.60188C25.8526 1.77088 25.8881 2.09271 25.9698 2.77672C26.0219 3.21274 25.9976 3.83605 25.9639 4.37327C25.9028 5.34698 25.7933 5.82676 25.7798 5.93285C25.6981 6.25326 25.6707 6.35989 25.6639 6.43079C25.6572 6.46651 25.6437 6.5017 25.589 6.5735" stroke="white" stroke-width="2" stroke-linecap="round"/>
<path d="M5.5622 11.8481C5.21567 11.7548 4.86915 11.6615 4.33078 11.5269C3.79241 11.3922 3.07271 11.2189 2.582 11.1296C2.09129 11.0404 1.85138 11.0404 1.52344 11" stroke="white" stroke-width="2" stroke-linecap="round"/>
<path d="M1 16.412C1.91963 16.0922 2.83925 15.7723 3.48626 15.5809C4.47979 15.3361 4.95677 15.2412 5.15851 15.174C5.24029 15.1467 5.28028 15.1334 5.40225 15.1196" stroke="white" stroke-width="2" stroke-linecap="round"/>
</svg>
